<svg width="32" height="32" viewBox="0 0 32 32" fill="none" xmlns="http://www.w3.org/2000/svg">
<g filter="url(#filter0_ii_277_11266)">
<path d="M27.4559 5.04395H4.54688C3.16616 5.04395 2.04688 6.16323 2.04688 7.54395V19.5579C2.04688 20.9387 3.16616 22.0579 4.54688 22.0579H27.4559C28.8366 22.0579 29.9559 20.9387 29.9559 19.5579V7.54395C29.9559 6.16323 28.8366 5.04395 27.4559 5.04395Z" fill="url(#paint0_linear_277_11266)"/>
<path d="M27.4559 5.04395H4.54688C3.16616 5.04395 2.04688 6.16323 2.04688 7.54395V19.5579C2.04688 20.9387 3.16616 22.0579 4.54688 22.0579H27.4559C28.8366 22.0579 29.9559 20.9387 29.9559 19.5579V7.54395C29.9559 6.16323 28.8366 5.04395 27.4559 5.04395Z" fill="url(#paint1_linear_277_11266)"/>
</g>
<path d="M27.4559 5.04395H4.54688C3.16616 5.04395 2.04688 6.16323 2.04688 7.54395V19.5579C2.04688 20.9387 3.16616 22.0579 4.54688 22.0579H27.4559C28.8366 22.0579 29.9559 20.9387 29.9559 19.5579V7.54395C29.9559 6.16323 28.8366 5.04395 27.4559 5.04395Z" fill="url(#paint2_radial_277_11266)"/>
<g filter="url(#filter1_ii_277_11266)">
<path d="M27.4559 8.91699H4.54688C3.16616 8.91699 2.04688 10.0363 2.04688 11.417V23.431C2.04688 24.8117 3.16616 25.931 4.54688 25.931H27.4559C28.8366 25.931 29.9559 24.8117 29.9559 23.431V11.417C29.9559 10.0363 28.8366 8.91699 27.4559 8.91699Z" fill="url(#paint3_linear_277_11266)"/>
<path d="M27.4559 8.91699H4.54688C3.16616 8.91699 2.04688 10.0363 2.04688 11.417V23.431C2.04688 24.8117 3.16616 25.931 4.54688 25.931H27.4559C28.8366 25.931 29.9559 24.8117 29.9559 23.431V11.417C29.9559 10.0363 28.8366 8.91699 27.4559 8.91699Z" fill="url(#paint4_linear_277_11266)"/>
</g>
<path d="M27.4559 8.91699H4.54688C3.16616 8.91699 2.04688 10.0363 2.04688 11.417V23.431C2.04688 24.8117 3.16616 25.931 4.54688 25.931H27.4559C28.8366 25.931 29.9559 24.8117 29.9559 23.431V11.417C29.9559 10.0363 28.8366 8.91699 27.4559 8.91699Z" fill="url(#paint5_radial_277_11266)"/>
<g filter="url(#filter2_ii_277_11266)">
<path d="M8.40781 11.0088C8.03651 11.0088 7.68041 11.1563 7.41786 11.4188C7.15531 11.6814 7.00781 12.0375 7.00781 12.4088V12.9458H14.0078V12.4088C14.0078 12.0375 13.8603 11.6814 13.5978 11.4188C13.3352 11.1563 12.9791 11.0088 12.6078 11.0088H8.40781Z" fill="url(#paint6_linear_277_11266)"/>
</g>
<g filter="url(#filter3_ii_277_11266)">
<path d="M14.0641 6.98047C13.8802 6.98047 13.6982 7.01668 13.5283 7.08704C13.3585 7.15739 13.2041 7.26052 13.0741 7.39052C12.9441 7.52052 12.841 7.67486 12.7706 7.84471C12.7003 8.01457 12.6641 8.19662 12.6641 8.38047V8.91747H19.6641V8.38047C19.6641 8.00917 19.5166 7.65307 19.254 7.39052C18.9915 7.12797 18.6354 6.98047 18.2641 6.98047H14.0641Z" fill="url(#paint7_linear_277_11266)"/>
</g>
<g filter="url(#filter4_ii_277_11266)">
<path d="M19.4 3.10742C19.0287 3.10742 18.6726 3.25492 18.4101 3.51747C18.1475 3.78002 18 4.13612 18 4.50742V5.04442H24.999V4.50742C24.999 4.13612 24.8515 3.78002 24.5889 3.51747C24.3264 3.25492 23.9703 3.10742 23.599 3.10742H19.399H19.4Z" fill="url(#paint8_linear_277_11266)"/>
</g>
<g filter="url(#filter5_ii_277_11266)">
<path d="M27.4559 12.9453H4.54688C3.16616 12.9453 2.04688 14.0646 2.04688 15.4453V27.4593C2.04688 28.84 3.16616 29.9593 4.54688 29.9593H27.4559C28.8366 29.9593 29.9559 28.84 29.9559 27.4593V15.4453C29.9559 14.0646 28.8366 12.9453 27.4559 12.9453Z" fill="url(#paint9_linear_277_11266)"/>
</g>
<path d="M27.4559 12.9453H4.54688C3.16616 12.9453 2.04688 14.0646 2.04688 15.4453V27.4593C2.04688 28.84 3.16616 29.9593 4.54688 29.9593H27.4559C28.8366 29.9593 29.9559 28.84 29.9559 27.4593V15.4453C29.9559 14.0646 28.8366 12.9453 27.4559 12.9453Z" fill="url(#paint10_radial_277_11266)"/>
<defs>
<filter id="filter0_ii_277_11266" x="1.74687" y="5.04395" width="28.2102" height="17.4142" filterUnits="userSpaceOnUse" color-interpolation-filters="sRGB">
<feFlood flood-opacity="0" result="BackgroundImageFix"/>
<feBlend mode="normal" in="SourceGraphic" in2="BackgroundImageFix" result="shape"/>
<feColorMatrix in="SourceAlpha" type="matrix" values="0 0 0 0 0 0 0 0 0 0 0 0 0 0 0 0 0 0 127 0" result="hardAlpha"/>
<feOffset dx="-0.3" dy="0.4"/>
<feGaussianBlur stdDeviation="0.5"/>
<feComposite in2="hardAlpha" operator="arithmetic" k2="-1" k3="1"/>
<feColorMatrix type="matrix" values="0 0 0 0 1 0 0 0 0 0.890196 0 0 0 0 0.290196 0 0 0 1 0"/>
<feBlend mode="normal" in2="shape" result="effect1_innerShadow_277_11266"/>
<feColorMatrix in="SourceAlpha" type="matrix" values="0 0 0 0 0 0 0 0 0 0 0 0 0 0 0 0 0 0 127 0" result="hardAlpha"/>
<feOffset dy="0.2"/>
<feGaussianBlur stdDeviation="0.25"/>
<feComposite in2="hardAlpha" operator="arithmetic" k2="-1" k3="1"/>
<feColorMatrix type="matrix" values="0 0 0 0 0.976471 0 0 0 0 0.792157 0 0 0 0 0.298039 0 0 0 1 0"/>
<feBlend mode="normal" in2="effect1_innerShadow_277_11266" result="effect2_innerShadow_277_11266"/>
</filter>
<filter id="filter1_ii_277_11266" x="1.74687" y="8.51699" width="28.2102" height="17.8142" filterUnits="userSpaceOnUse" color-interpolation-filters="sRGB">
<feFlood flood-opacity="0" result="BackgroundImageFix"/>
<feBlend mode="normal" in="SourceGraphic" in2="BackgroundImageFix" result="shape"/>
<feColorMatrix in="SourceAlpha" type="matrix" values="0 0 0 0 0 0 0 0 0 0 0 0 0 0 0 0 0 0 127 0" result="hardAlpha"/>
<feOffset dy="-0.4"/>
<feGaussianBlur stdDeviation="0.375"/>
<feComposite in2="hardAlpha" operator="arithmetic" k2="-1" k3="1"/>
<feColorMatrix type="matrix" values="0 0 0 0 0.956863 0 0 0 0 0.6 0 0 0 0 0.407843 0 0 0 1 0"/>
<feBlend mode="normal" in2="shape" result="effect1_innerShadow_277_11266"/>
<feColorMatrix in="SourceAlpha" type="matrix" values="0 0 0 0 0 0 0 0 0 0 0 0 0 0 0 0 0 0 127 0" result="hardAlpha"/>
<feOffset dx="-0.3" dy="0.4"/>
<feGaussianBlur stdDeviation="0.5"/>
<feComposite in2="hardAlpha" operator="arithmetic" k2="-1" k3="1"/>
<feColorMatrix type="matrix" values="0 0 0 0 1 0 0 0 0 0.890196 0 0 0 0 0.290196 0 0 0 1 0"/>
<feBlend mode="normal" in2="effect1_innerShadow_277_11266" result="effect2_innerShadow_277_11266"/>
</filter>
<filter id="filter2_ii_277_11266" x="6.90781" y="11.0088" width="7.2" height="2.03701" filterUnits="userSpaceOnUse" color-interpolation-filters="sRGB">
<feFlood flood-opacity="0" result="BackgroundImageFix"/>
<feBlend mode="normal" in="SourceGraphic" in2="BackgroundImageFix" result="shape"/>
<feColorMatrix in="SourceAlpha" type="matrix" values="0 0 0 0 0 0 0 0 0 0 0 0 0 0 0 0 0 0 127 0" result="hardAlpha"/>
<feOffset dx="-0.1"/>
<feGaussianBlur stdDeviation="0.125"/>
<feComposite in2="hardAlpha" operator="arithmetic" k2="-1" k3="1"/>
<feColorMatrix type="matrix" values="0 0 0 0 1 0 0 0 0 0.25098 0 0 0 0 0.458824 0 0 0 1 0"/>
<feBlend mode="normal" in2="shape" result="effect1_innerShadow_277_11266"/>
<feColorMatrix in="SourceAlpha" type="matrix" values="0 0 0 0 0 0 0 0 0 0 0 0 0 0 0 0 0 0 127 0" result="hardAlpha"/>
<feOffset dx="0.1" dy="0.1"/>
<feGaussianBlur stdDeviation="0.125"/>
<feComposite in2="hardAlpha" operator="arithmetic" k2="-1" k3="1"/>
<feColorMatrix type="matrix" values="0 0 0 0 0.992157 0 0 0 0 0.282353 0 0 0 0 0.262745 0 0 0 1 0"/>
<feBlend mode="normal" in2="effect1_innerShadow_277_11266" result="effect2_innerShadow_277_11266"/>
</filter>
<filter id="filter3_ii_277_11266" x="12.5641" y="6.98047" width="7.2" height="2.03701" filterUnits="userSpaceOnUse" color-interpolation-filters="sRGB">
<feFlood flood-opacity="0" result="BackgroundImageFix"/>
<feBlend mode="normal" in="SourceGraphic" in2="BackgroundImageFix" result="shape"/>
<feColorMatrix in="SourceAlpha" type="matrix" values="0 0 0 0 0 0 0 0 0 0 0 0 0 0 0 0 0 0 127 0" result="hardAlpha"/>
<feOffset dx="-0.1"/>
<feGaussianBlur stdDeviation="0.125"/>
<feComposite in2="hardAlpha" operator="arithmetic" k2="-1" k3="1"/>
<feColorMatrix type="matrix" values="0 0 0 0 0.298039 0 0 0 0 0.611765 0 0 0 0 0.85098 0 0 0 1 0"/>
<feBlend mode="normal" in2="shape" result="effect1_innerShadow_277_11266"/>
<feColorMatrix in="SourceAlpha" type="matrix" values="0 0 0 0 0 0 0 0 0 0 0 0 0 0 0 0 0 0 127 0" result="hardAlpha"/>
<feOffset dx="0.1" dy="0.1"/>
<feGaussianBlur stdDeviation="0.125"/>
<feComposite in2="hardAlpha" operator="arithmetic" k2="-1" k3="1"/>
<feColorMatrix type="matrix" values="0 0 0 0 0.270588 0 0 0 0 0.501961 0 0 0 0 0.768627 0 0 0 1 0"/>
<feBlend mode="normal" in2="effect1_innerShadow_277_11266" result="effect2_innerShadow_277_11266"/>
</filter>
<filter id="filter4_ii_277_11266" x="17.9" y="3.10742" width="7.2" height="2.03701" filterUnits="userSpaceOnUse" color-interpolation-filters="sRGB">
<feFlood flood-opacity="0" result="BackgroundImageFix"/>
<feBlend mode="normal" in="SourceGraphic" in2="BackgroundImageFix" result="shape"/>
<feColorMatrix in="SourceAlpha" type="matrix" values="0 0 0 0 0 0 0 0 0 0 0 0 0 0 0 0 0 0 127 0" result="hardAlpha"/>
<feOffset dx="-0.1"/>
<feGaussianBlur stdDeviation="0.125"/>
<feComposite in2="hardAlpha" operator="arithmetic" k2="-1" k3="1"/>
<feColorMatrix type="matrix" values="0 0 0 0 0.34902 0 0 0 0 0.905882 0 0 0 0 0.603922 0 0 0 1 0"/>
<feBlend mode="normal" in2="shape" result="effect1_innerShadow_277_11266"/>
<feColorMatrix in="SourceAlpha" type="matrix" values="0 0 0 0 0 0 0 0 0 0 0 0 0 0 0 0 0 0 127 0" result="hardAlpha"/>
<feOffset dx="0.1" dy="0.1"/>
<feGaussianBlur stdDeviation="0.125"/>
<feComposite in2="hardAlpha" operator="arithmetic" k2="-1" k3="1"/>
<feColorMatrix type="matrix" values="0 0 0 0 0.239216 0 0 0 0 0.713726 0 0 0 0 0.411765 0 0 0 1 0"/>
<feBlend mode="normal" in2="effect1_innerShadow_277_11266" result="effect2_innerShadow_277_11266"/>
</filter>
<filter id="filter5_ii_277_11266" x="1.74687" y="12.5453" width="28.2102" height="17.8142" filterUnits="userSpaceOnUse" color-interpolation-filters="sRGB">
<feFlood flood-opacity="0" result="BackgroundImageFix"/>
<feBlend mode="normal" in="SourceGraphic" in2="BackgroundImageFix" result="shape"/>
<feColorMatrix in="SourceAlpha" type="matrix" values="0 0 0 0 0 0 0 0 0 0 0 0 0 0 0 0 0 0 127 0" result="hardAlpha"/>
<feOffset dy="-0.4"/>
<feGaussianBlur stdDeviation="0.375"/>
<feComposite in2="hardAlpha" operator="arithmetic" k2="-1" k3="1"/>
<feColorMatrix type="matrix" values="0 0 0 0 0.956863 0 0 0 0 0.6 0 0 0 0 0.407843 0 0 0 1 0"/>
<feBlend mode="normal" in2="shape" result="effect1_innerShadow_277_11266"/>
<feColorMatrix in="SourceAlpha" type="matrix" values="0 0 0 0 0 0 0 0 0 0 0 0 0 0 0 0 0 0 127 0" result="hardAlpha"/>
<feOffset dx="-0.3" dy="0.4"/>
<feGaussianBlur stdDeviation="0.5"/>
<feComposite in2="hardAlpha" operator="arithmetic" k2="-1" k3="1"/>
<feColorMatrix type="matrix" values="0 0 0 0 1 0 0 0 0 0.945098 0 0 0 0 0.317647 0 0 0 1 0"/>
<feBlend mode="normal" in2="effect1_innerShadow_277_11266" result="effect2_innerShadow_277_11266"/>
</filter>
<linearGradient id="paint0_linear_277_11266" x1="16.0009" y1="5.04395" x2="16.0009" y2="9.55595" gradientUnits="userSpaceOnUse">
<stop stop-color="#FFD650"/>
<stop offset="1" stop-color="#FFCD4A"/>
</linearGradient>
<linearGradient id="paint1_linear_277_11266" x1="16.0009" y1="9.64395" x2="16.0009" y2="7.09095" gradientUnits="userSpaceOnUse">
<stop stop-color="#FFBA48"/>
<stop offset="1" stop-color="#FFBA48" stop-opacity="0"/>
</linearGradient>
<radialGradient id="paint2_radial_277_11266" cx="0" cy="0" r="1" gradientUnits="userSpaceOnUse" gradientTransform="translate(29.9549 5.49995) rotate(134.482) scale(2.2776 3.8525)">
<stop stop-color="#FFE857"/>
<stop offset="1" stop-color="#FFE857" stop-opacity="0"/>
</radialGradient>
<linearGradient id="paint3_linear_277_11266" x1="16.0009" y1="8.91699" x2="16.0009" y2="25.931" gradientUnits="userSpaceOnUse">
<stop stop-color="#FFDA53"/>
<stop offset="1" stop-color="#FFBA59"/>
</linearGradient>
<linearGradient id="paint4_linear_277_11266" x1="16.0009" y1="14.398" x2="16.0009" y2="10.92" gradientUnits="userSpaceOnUse">
<stop stop-color="#FFBA48"/>
<stop offset="1" stop-color="#FFBA48" stop-opacity="0"/>
</linearGradient>
<radialGradient id="paint5_radial_277_11266" cx="0" cy="0" r="1" gradientUnits="userSpaceOnUse" gradientTransform="translate(29.9549 9.37399) rotate(134.482) scale(2.2776 3.8525)">
<stop stop-color="#FFE857"/>
<stop offset="1" stop-color="#FFE857" stop-opacity="0"/>
</radialGradient>
<linearGradient id="paint6_linear_277_11266" x1="10.5078" y1="11.0088" x2="10.5078" y2="12.9458" gradientUnits="userSpaceOnUse">
<stop stop-color="#FF416D"/>
<stop offset="1" stop-color="#FF3A66"/>
</linearGradient>
<linearGradient id="paint7_linear_277_11266" x1="16.1641" y1="6.98047" x2="16.1641" y2="8.91747" gradientUnits="userSpaceOnUse">
<stop stop-color="#4794D7"/>
<stop offset="1" stop-color="#4482CA"/>
</linearGradient>
<linearGradient id="paint8_linear_277_11266" x1="21.499" y1="3.10742" x2="21.499" y2="5.04442" gradientUnits="userSpaceOnUse">
<stop stop-color="#4EDC8E"/>
<stop offset="1" stop-color="#54C877"/>
</linearGradient>
<linearGradient id="paint9_linear_277_11266" x1="16.0009" y1="12.9453" x2="16.0009" y2="29.9593" gradientUnits="userSpaceOnUse">
<stop stop-color="#FFDA53"/>
<stop offset="1" stop-color="#FFBA59"/>
</linearGradient>
<radialGradient id="paint10_radial_277_11266" cx="0" cy="0" r="1" gradientUnits="userSpaceOnUse" gradientTransform="translate(29.9549 13.4023) rotate(134.482) scale(2.2776 3.8525)">
<stop stop-color="#FFE857"/>
<stop offset="1" stop-color="#FFE857" stop-opacity="0"/>
</radialGradient>
</defs>
</svg>
