<svg width="32" height="32" viewBox="0 0 32 32" fill="none" xmlns="http://www.w3.org/2000/svg">
<g filter="url(#filter0_iii_277_10119)">
<path d="M26.1529 2.05469H5.84688C3.74819 2.05469 2.04688 3.75601 2.04688 5.85469V26.1607C2.04688 28.2594 3.74819 29.9607 5.84688 29.9607H26.1529C28.2516 29.9607 29.9529 28.2594 29.9529 26.1607V5.85469C29.9529 3.75601 28.2516 2.05469 26.1529 2.05469Z" fill="url(#paint0_linear_277_10119)"/>
</g>
<path d="M26.1529 2.05469H5.84688C3.74819 2.05469 2.04688 3.75601 2.04688 5.85469V26.1607C2.04688 28.2594 3.74819 29.9607 5.84688 29.9607H26.1529C28.2516 29.9607 29.9529 28.2594 29.9529 26.1607V5.85469C29.9529 3.75601 28.2516 2.05469 26.1529 2.05469Z" fill="url(#paint1_linear_277_10119)"/>
<path d="M26.1529 2.05469H5.84688C3.74819 2.05469 2.04688 3.75601 2.04688 5.85469V26.1607C2.04688 28.2594 3.74819 29.9607 5.84688 29.9607H26.1529C28.2516 29.9607 29.9529 28.2594 29.9529 26.1607V5.85469C29.9529 3.75601 28.2516 2.05469 26.1529 2.05469Z" fill="url(#paint2_radial_277_10119)"/>
<path d="M26.1529 2.05469H5.84688C3.74819 2.05469 2.04688 3.75601 2.04688 5.85469V26.1607C2.04688 28.2594 3.74819 29.9607 5.84688 29.9607H26.1529C28.2516 29.9607 29.9529 28.2594 29.9529 26.1607V5.85469C29.9529 3.75601 28.2516 2.05469 26.1529 2.05469Z" fill="url(#paint3_radial_277_10119)"/>
<g filter="url(#filter1_f_277_10119)">
<path d="M27.2589 28.78C26.7097 29.0566 26.1029 29.1999 25.4879 29.198H21.5039V8.13397C21.5039 7.53097 22.0289 7.04297 22.6759 7.04297H26.0869C26.7339 7.04297 27.2579 7.53097 27.2579 8.13297V28.78H27.2589Z" fill="url(#paint4_linear_277_10119)"/>
</g>
<path fill-rule="evenodd" clip-rule="evenodd" d="M11.5229 2.05469H10.5229V10.4447H2.04688V11.4447H10.5229V20.4147H2.04688V21.4147H10.5229V29.9607H11.5229V21.4137H20.5229V29.9607H21.5229V21.4137H29.9529V20.4137H21.5229V11.4447H29.9529V10.4447H21.5229V2.05469H20.5229V10.4447H11.5229V2.05469ZM20.5229 11.4447V20.4147H11.5229V11.4447H20.5229Z" fill="url(#paint5_linear_277_10119)"/>
<path fill-rule="evenodd" clip-rule="evenodd" d="M11.5229 2.05469H10.5229V10.4447H2.04688V11.4447H10.5229V20.4147H2.04688V21.4147H10.5229V29.9607H11.5229V21.4137H20.5229V29.9607H21.5229V21.4137H29.9529V20.4137H21.5229V11.4447H29.9529V10.4447H21.5229V2.05469H20.5229V10.4447H11.5229V2.05469ZM20.5229 11.4447V20.4147H11.5229V11.4447H20.5229Z" fill="url(#paint6_linear_277_10119)"/>
<path fill-rule="evenodd" clip-rule="evenodd" d="M11.5229 2.05469H10.5229V10.4447H2.04688V11.4447H10.5229V20.4147H2.04688V21.4147H10.5229V29.9607H11.5229V21.4137H20.5229V29.9607H21.5229V21.4137H29.9529V20.4137H21.5229V11.4447H29.9529V10.4447H21.5229V2.05469H20.5229V10.4447H11.5229V2.05469ZM20.5229 11.4447V20.4147H11.5229V11.4447H20.5229Z" fill="url(#paint7_linear_277_10119)"/>
<path fill-rule="evenodd" clip-rule="evenodd" d="M11.5229 2.05469H10.5229V10.4447H2.04688V11.4447H10.5229V20.4147H2.04688V21.4147H10.5229V29.9607H11.5229V21.4137H20.5229V29.9607H21.5229V21.4137H29.9529V20.4137H21.5229V11.4447H29.9529V10.4447H21.5229V2.05469H20.5229V10.4447H11.5229V2.05469ZM20.5229 11.4447V20.4147H11.5229V11.4447H20.5229Z" fill="url(#paint8_linear_277_10119)"/>
<path fill-rule="evenodd" clip-rule="evenodd" d="M11.5229 2.05469H10.5229V10.4447H2.04688V11.4447H10.5229V20.4147H2.04688V21.4147H10.5229V29.9607H11.5229V21.4137H20.5229V29.9607H21.5229V21.4137H23.4949V20.4137H21.5229V11.4447H23.4949V10.4447H21.5229V2.05469H20.5229V10.4447H11.5229V2.05469ZM20.5229 11.4447V20.4147H11.5229V11.4447H20.5229Z" fill="url(#paint9_linear_277_10119)"/>
<path fill-rule="evenodd" clip-rule="evenodd" d="M11.5229 2.05469H10.5229V10.4447H2.04688V11.4447H10.5229V20.4147H2.04688V21.4147H10.5229V29.9607H11.5229V21.4137H20.5229V29.9607H21.5229V21.4137H23.4949V20.4137H21.5229V11.4447H23.4949V10.4447H21.5229V2.05469H20.5229V10.4447H11.5229V2.05469ZM20.5229 11.4447V20.4147H11.5229V11.4447H20.5229Z" fill="url(#paint10_linear_277_10119)"/>
<path fill-rule="evenodd" clip-rule="evenodd" d="M11.5229 2.05469H10.5229V10.4447H2.04688V11.4447H10.5229V20.4147H2.04688V21.4147H10.5229V29.9607H11.5229V21.4137H20.5229V29.9607H21.5229V21.4137H23.4949V20.4137H21.5229V11.4447H23.4949V10.4447H21.5229V2.05469H20.5229V10.4447H11.5229V2.05469ZM20.5229 11.4447V20.4147H11.5229V11.4447H20.5229Z" fill="url(#paint11_linear_277_10119)"/>
<g filter="url(#filter2_f_277_10119)">
<path d="M18.2394 29.3862C17.6626 29.5474 17.0662 29.6275 16.4674 29.6242H12.4844V17.6552C12.4844 17.3132 13.0084 17.0352 13.6554 17.0352H17.0674C17.7144 17.0352 18.2384 17.3132 18.2384 17.6552V29.3862H18.2394Z" fill="url(#paint12_linear_277_10119)"/>
</g>
<g filter="url(#filter3_f_277_10119)">
<path d="M9.10847 28.4367C8.55038 28.6806 7.94752 28.8053 7.33847 28.8027H3.35547V10.3817C3.35547 9.85473 3.87947 9.42773 4.52647 9.42773H7.93847C8.58547 9.42773 9.11047 9.85473 9.11047 10.3817V28.4367H9.10847Z" fill="url(#paint13_linear_277_10119)"/>
</g>
<g filter="url(#filter4_i_277_10119)">
<path d="M27.9682 29.4998C27.4118 29.8032 26.788 29.9617 26.1542 29.9608H22.0742V6.79375C22.0742 6.47549 22.2006 6.17027 22.4257 5.94522C22.6507 5.72018 22.956 5.59375 23.2742 5.59375H26.7682C27.0865 5.59375 27.3917 5.72018 27.6167 5.94522C27.8418 6.17027 27.9682 6.47549 27.9682 6.79375V29.4998Z" fill="url(#paint14_linear_277_10119)"/>
</g>
<path d="M27.9682 29.4998C27.4118 29.8032 26.788 29.9617 26.1542 29.9608H22.0742V6.79375C22.0742 6.47549 22.2006 6.17027 22.4257 5.94522C22.6507 5.72018 22.956 5.59375 23.2742 5.59375H26.7682C27.0865 5.59375 27.3917 5.72018 27.6167 5.94522C27.8418 6.17027 27.9682 6.47549 27.9682 6.79375V29.4998Z" fill="url(#paint15_linear_277_10119)"/>
<g filter="url(#filter5_f_277_10119)">
<path d="M27.2595 6.96034C27.2595 6.7212 27.0659 6.52734 26.827 6.52734C26.5882 6.52734 26.3945 6.7212 26.3945 6.96034V28.5953C26.3945 28.8345 26.5882 29.0283 26.827 29.0283C27.0659 29.0283 27.2595 28.8345 27.2595 28.5953V6.96034Z" fill="url(#paint16_linear_277_10119)"/>
</g>
<path d="M13.4589 10.4447H11.5229V2.05469H10.5229V10.4447H2.04688V11.4447H10.5229V20.4147H2.04688V21.4147H10.5229V29.9607H11.5229V21.4137H13.4589V20.4137H11.5229V11.4447H13.4589V10.4447Z" fill="url(#paint17_radial_277_10119)"/>
<path d="M13.4589 10.4447H11.5229V2.05469H10.5229V10.4447H2.04688V11.4447H10.5229V20.4147H2.04688V21.4147H10.5229V29.9607H11.5229V21.4137H13.4589V20.4137H11.5229V11.4447H13.4589V10.4447Z" fill="url(#paint18_linear_277_10119)"/>
<g filter="url(#filter6_i_277_10119)">
<path d="M18.9487 29.9605H13.0547V17.8465C13.0547 17.5282 13.1811 17.223 13.4062 16.998C13.6312 16.7729 13.9364 16.6465 14.2547 16.6465H17.7487C18.0669 16.6465 18.3722 16.7729 18.5972 16.998C18.8223 17.223 18.9487 17.5282 18.9487 17.8465V29.9595V29.9605Z" fill="url(#paint19_linear_277_10119)"/>
</g>
<g filter="url(#filter7_f_277_10119)">
<path d="M18.24 17.9877C18.24 17.7485 18.0464 17.5547 17.8075 17.5547C17.5686 17.5547 17.375 17.7485 17.375 17.9877V28.7647C17.375 29.0038 17.5686 29.1977 17.8075 29.1977C18.0464 29.1977 18.24 29.0038 18.24 28.7647V17.9877Z" fill="url(#paint20_linear_277_10119)"/>
</g>
<g filter="url(#filter8_i_277_10119)">
<path d="M9.92525 29.96H5.84525C5.2116 29.9611 4.58783 29.8029 4.03125 29.5V9.86602C4.03125 9.54776 4.15768 9.24253 4.38272 9.01749C4.60777 8.79244 4.91299 8.66602 5.23125 8.66602H8.72525C9.04351 8.66602 9.34873 8.79244 9.57378 9.01749C9.79882 9.24253 9.92525 9.54776 9.92525 9.86602V29.962V29.96Z" fill="url(#paint21_linear_277_10119)"/>
</g>
<g filter="url(#filter9_f_277_10119)">
<path d="M9.54469 9.86073C9.54469 9.62159 9.35105 9.42773 9.11219 9.42773C8.87332 9.42773 8.67969 9.62159 8.67969 9.86073V28.7647C8.67969 29.0039 8.87332 29.1977 9.11219 29.1977C9.35105 29.1977 9.54469 29.0039 9.54469 28.7647V9.86073Z" fill="url(#paint22_linear_277_10119)"/>
</g>
<defs>
<filter id="filter0_iii_277_10119" x="1.04688" y="1.05469" width="30.4062" height="29.9062" filterUnits="userSpaceOnUse" color-interpolation-filters="sRGB">
<feFlood flood-opacity="0" result="BackgroundImageFix"/>
<feBlend mode="normal" in="SourceGraphic" in2="BackgroundImageFix" result="shape"/>
<feColorMatrix in="SourceAlpha" type="matrix" values="0 0 0 0 0 0 0 0 0 0 0 0 0 0 0 0 0 0 127 0" result="hardAlpha"/>
<feOffset dx="-1" dy="1"/>
<feGaussianBlur stdDeviation="1"/>
<feComposite in2="hardAlpha" operator="arithmetic" k2="-1" k3="1"/>
<feColorMatrix type="matrix" values="0 0 0 0 0.878431 0 0 0 0 0.87451 0 0 0 0 0.886275 0 0 0 1 0"/>
<feBlend mode="normal" in2="shape" result="effect1_innerShadow_277_10119"/>
<feColorMatrix in="SourceAlpha" type="matrix" values="0 0 0 0 0 0 0 0 0 0 0 0 0 0 0 0 0 0 127 0" result="hardAlpha"/>
<feOffset dx="1.5" dy="-1"/>
<feGaussianBlur stdDeviation="1.5"/>
<feComposite in2="hardAlpha" operator="arithmetic" k2="-1" k3="1"/>
<feColorMatrix type="matrix" values="0 0 0 0 0.698039 0 0 0 0 0.67451 0 0 0 0 0.721569 0 0 0 1 0"/>
<feBlend mode="normal" in2="effect1_innerShadow_277_10119" result="effect2_innerShadow_277_10119"/>
<feColorMatrix in="SourceAlpha" type="matrix" values="0 0 0 0 0 0 0 0 0 0 0 0 0 0 0 0 0 0 127 0" result="hardAlpha"/>
<feOffset dx="0.25"/>
<feGaussianBlur stdDeviation="0.25"/>
<feComposite in2="hardAlpha" operator="arithmetic" k2="-1" k3="1"/>
<feColorMatrix type="matrix" values="0 0 0 0 0.729412 0 0 0 0 0.729412 0 0 0 0 0.729412 0 0 0 1 0"/>
<feBlend mode="normal" in2="effect2_innerShadow_277_10119" result="effect3_innerShadow_277_10119"/>
</filter>
<filter id="filter1_f_277_10119" x="20.5039" y="6.04297" width="7.75391" height="24.1553" filterUnits="userSpaceOnUse" color-interpolation-filters="sRGB">
<feFlood flood-opacity="0" result="BackgroundImageFix"/>
<feBlend mode="normal" in="SourceGraphic" in2="BackgroundImageFix" result="shape"/>
<feGaussianBlur stdDeviation="0.5" result="effect1_foregroundBlur_277_10119"/>
</filter>
<filter id="filter2_f_277_10119" x="11.4844" y="16.0352" width="7.75391" height="14.5889" filterUnits="userSpaceOnUse" color-interpolation-filters="sRGB">
<feFlood flood-opacity="0" result="BackgroundImageFix"/>
<feBlend mode="normal" in="SourceGraphic" in2="BackgroundImageFix" result="shape"/>
<feGaussianBlur stdDeviation="0.5" result="effect1_foregroundBlur_277_10119"/>
</filter>
<filter id="filter3_f_277_10119" x="2.35547" y="8.42773" width="7.75391" height="21.375" filterUnits="userSpaceOnUse" color-interpolation-filters="sRGB">
<feFlood flood-opacity="0" result="BackgroundImageFix"/>
<feBlend mode="normal" in="SourceGraphic" in2="BackgroundImageFix" result="shape"/>
<feGaussianBlur stdDeviation="0.5" result="effect1_foregroundBlur_277_10119"/>
</filter>
<filter id="filter4_i_277_10119" x="22.0742" y="5.59375" width="6.64453" height="24.3672" filterUnits="userSpaceOnUse" color-interpolation-filters="sRGB">
<feFlood flood-opacity="0" result="BackgroundImageFix"/>
<feBlend mode="normal" in="SourceGraphic" in2="BackgroundImageFix" result="shape"/>
<feColorMatrix in="SourceAlpha" type="matrix" values="0 0 0 0 0 0 0 0 0 0 0 0 0 0 0 0 0 0 127 0" result="hardAlpha"/>
<feOffset dx="0.75"/>
<feGaussianBlur stdDeviation="0.5"/>
<feComposite in2="hardAlpha" operator="arithmetic" k2="-1" k3="1"/>
<feColorMatrix type="matrix" values="0 0 0 0 0.203922 0 0 0 0 0.482353 0 0 0 0 0.74902 0 0 0 1 0"/>
<feBlend mode="normal" in2="shape" result="effect1_innerShadow_277_10119"/>
</filter>
<filter id="filter5_f_277_10119" x="25.3945" y="5.52734" width="2.86328" height="24.501" filterUnits="userSpaceOnUse" color-interpolation-filters="sRGB">
<feFlood flood-opacity="0" result="BackgroundImageFix"/>
<feBlend mode="normal" in="SourceGraphic" in2="BackgroundImageFix" result="shape"/>
<feGaussianBlur stdDeviation="0.5" result="effect1_foregroundBlur_277_10119"/>
</filter>
<filter id="filter6_i_277_10119" x="13.0547" y="16.6465" width="6.64453" height="13.3145" filterUnits="userSpaceOnUse" color-interpolation-filters="sRGB">
<feFlood flood-opacity="0" result="BackgroundImageFix"/>
<feBlend mode="normal" in="SourceGraphic" in2="BackgroundImageFix" result="shape"/>
<feColorMatrix in="SourceAlpha" type="matrix" values="0 0 0 0 0 0 0 0 0 0 0 0 0 0 0 0 0 0 127 0" result="hardAlpha"/>
<feOffset dx="0.75"/>
<feGaussianBlur stdDeviation="0.5"/>
<feComposite in2="hardAlpha" operator="arithmetic" k2="-1" k3="1"/>
<feColorMatrix type="matrix" values="0 0 0 0 0.67451 0 0 0 0 0.239216 0 0 0 0 0.372549 0 0 0 1 0"/>
<feBlend mode="normal" in2="shape" result="effect1_innerShadow_277_10119"/>
</filter>
<filter id="filter7_f_277_10119" x="16.375" y="16.5547" width="2.86328" height="13.6426" filterUnits="userSpaceOnUse" color-interpolation-filters="sRGB">
<feFlood flood-opacity="0" result="BackgroundImageFix"/>
<feBlend mode="normal" in="SourceGraphic" in2="BackgroundImageFix" result="shape"/>
<feGaussianBlur stdDeviation="0.5" result="effect1_foregroundBlur_277_10119"/>
</filter>
<filter id="filter8_i_277_10119" x="4.03125" y="8.66602" width="6.64453" height="21.2959" filterUnits="userSpaceOnUse" color-interpolation-filters="sRGB">
<feFlood flood-opacity="0" result="BackgroundImageFix"/>
<feBlend mode="normal" in="SourceGraphic" in2="BackgroundImageFix" result="shape"/>
<feColorMatrix in="SourceAlpha" type="matrix" values="0 0 0 0 0 0 0 0 0 0 0 0 0 0 0 0 0 0 127 0" result="hardAlpha"/>
<feOffset dx="0.75"/>
<feGaussianBlur stdDeviation="0.5"/>
<feComposite in2="hardAlpha" operator="arithmetic" k2="-1" k3="1"/>
<feColorMatrix type="matrix" values="0 0 0 0 0.415686 0 0 0 0 0.792157 0 0 0 0 0.466667 0 0 0 1 0"/>
<feBlend mode="normal" in2="shape" result="effect1_innerShadow_277_10119"/>
</filter>
<filter id="filter9_f_277_10119" x="7.67969" y="8.42773" width="2.86328" height="21.7695" filterUnits="userSpaceOnUse" color-interpolation-filters="sRGB">
<feFlood flood-opacity="0" result="BackgroundImageFix"/>
<feBlend mode="normal" in="SourceGraphic" in2="BackgroundImageFix" result="shape"/>
<feGaussianBlur stdDeviation="0.5" result="effect1_foregroundBlur_277_10119"/>
</filter>
<linearGradient id="paint0_linear_277_10119" x1="27.1249" y1="3.88269" x2="11.8749" y2="23.3197" gradientUnits="userSpaceOnUse">
<stop stop-color="#D8D1E0"/>
<stop offset="1" stop-color="#D5C9E3"/>
</linearGradient>
<linearGradient id="paint1_linear_277_10119" x1="21.4749" y1="30.2237" x2="21.4749" y2="27.9257" gradientUnits="userSpaceOnUse">
<stop stop-color="#A88AC4"/>
<stop offset="1" stop-color="#CDBCE0" stop-opacity="0"/>
</linearGradient>
<radialGradient id="paint2_radial_277_10119" cx="0" cy="0" r="1" gradientUnits="userSpaceOnUse" gradientTransform="translate(29.9529 16.4027) rotate(177.86) scale(5.59248 21.8038)">
<stop stop-color="#F2EDF5"/>
<stop offset="1" stop-color="#DED3E7" stop-opacity="0"/>
</radialGradient>
<radialGradient id="paint3_radial_277_10119" cx="0" cy="0" r="1" gradientUnits="userSpaceOnUse" gradientTransform="translate(29.5859 2.89569) rotate(138.434) scale(4.93201 5.10499)">
<stop stop-color="#F7F4F7"/>
<stop offset="1" stop-color="#E2DCE5" stop-opacity="0"/>
</radialGradient>
<linearGradient id="paint4_linear_277_10119" x1="24.3809" y1="7.04297" x2="24.3809" y2="29.198" gradientUnits="userSpaceOnUse">
<stop stop-color="#9B98B3"/>
<stop offset="1" stop-color="#9C83AE"/>
</linearGradient>
<linearGradient id="paint5_linear_277_10119" x1="15.9999" y1="4.36669" x2="15.9999" y2="29.9607" gradientUnits="userSpaceOnUse">
<stop stop-color="#C2BEC6"/>
<stop offset="1" stop-color="#BAACC6"/>
</linearGradient>
<linearGradient id="paint6_linear_277_10119" x1="21.7189" y1="30.6757" x2="21.7189" y2="27.1947" gradientUnits="userSpaceOnUse">
<stop stop-color="#9E83B7"/>
<stop offset="1" stop-color="#9E83B7" stop-opacity="0"/>
</linearGradient>
<linearGradient id="paint7_linear_277_10119" x1="1.07788" y1="17.3667" x2="6.39087" y2="17.3667" gradientUnits="userSpaceOnUse">
<stop stop-color="#96909C"/>
<stop offset="1" stop-color="#96909C" stop-opacity="0"/>
</linearGradient>
<linearGradient id="paint8_linear_277_10119" x1="30.7659" y1="18.0547" x2="26.9529" y2="18.0547" gradientUnits="userSpaceOnUse">
<stop stop-color="#D6D1DA"/>
<stop offset="1" stop-color="#D6D1DA" stop-opacity="0"/>
</linearGradient>
<linearGradient id="paint9_linear_277_10119" x1="24.1869" y1="18.3337" x2="20.1639" y2="18.3337" gradientUnits="userSpaceOnUse">
<stop offset="0.452" stop-color="#7C7695"/>
<stop offset="1" stop-color="#7C7695" stop-opacity="0"/>
</linearGradient>
<linearGradient id="paint10_linear_277_10119" x1="21.0289" y1="30.5337" x2="21.0289" y2="28.3707" gradientUnits="userSpaceOnUse">
<stop stop-color="#9070AD"/>
<stop offset="1" stop-color="#9070AD" stop-opacity="0"/>
</linearGradient>
<linearGradient id="paint11_linear_277_10119" x1="19.6449" y1="1.54869" x2="19.6449" y2="10.1577" gradientUnits="userSpaceOnUse">
<stop offset="0.668" stop-color="#C3BFC7"/>
<stop offset="1" stop-color="#C3BFC7" stop-opacity="0"/>
</linearGradient>
<linearGradient id="paint12_linear_277_10119" x1="15.3614" y1="17.0352" x2="15.3614" y2="29.6242" gradientUnits="userSpaceOnUse">
<stop stop-color="#9B98B3"/>
<stop offset="1" stop-color="#9C83AE"/>
</linearGradient>
<linearGradient id="paint13_linear_277_10119" x1="6.23247" y1="9.42773" x2="6.23247" y2="28.8027" gradientUnits="userSpaceOnUse">
<stop stop-color="#9B98B3"/>
<stop offset="1" stop-color="#9C83AE"/>
</linearGradient>
<linearGradient id="paint14_linear_277_10119" x1="25.0212" y1="5.59375" x2="25.0212" y2="29.9608" gradientUnits="userSpaceOnUse">
<stop offset="0.18" stop-color="#36A4F2"/>
<stop offset="1" stop-color="#3E79CB"/>
</linearGradient>
<linearGradient id="paint15_linear_277_10119" x1="21.7232" y1="29.4518" x2="23.5392" y2="29.3658" gradientUnits="userSpaceOnUse">
<stop offset="0.011" stop-color="#404E95"/>
<stop offset="1" stop-color="#2F66B3" stop-opacity="0"/>
</linearGradient>
<linearGradient id="paint16_linear_277_10119" x1="26.8275" y1="6.52734" x2="26.8275" y2="29.0283" gradientUnits="userSpaceOnUse">
<stop stop-color="#53BFFF"/>
<stop offset="1" stop-color="#508EDC"/>
</linearGradient>
<radialGradient id="paint17_radial_277_10119" cx="0" cy="0" r="1" gradientUnits="userSpaceOnUse" gradientTransform="translate(14.3239 20.9297) rotate(180) scale(2.46588 2.37936)">
<stop offset="0.228" stop-color="#86738A"/>
<stop offset="1" stop-color="#86738A" stop-opacity="0"/>
</radialGradient>
<linearGradient id="paint18_linear_277_10119" x1="1.51888" y1="17.4687" x2="5.97487" y2="17.4687" gradientUnits="userSpaceOnUse">
<stop stop-color="#88858D"/>
<stop offset="1" stop-color="#88858D" stop-opacity="0"/>
</linearGradient>
<linearGradient id="paint19_linear_277_10119" x1="16.0017" y1="16.6465" x2="16.0017" y2="29.9605" gradientUnits="userSpaceOnUse">
<stop offset="0.18" stop-color="#E93586"/>
<stop offset="1" stop-color="#DD385F"/>
</linearGradient>
<linearGradient id="paint20_linear_277_10119" x1="17.807" y1="17.5547" x2="17.807" y2="29.1977" gradientUnits="userSpaceOnUse">
<stop stop-color="#FA5598"/>
<stop offset="1" stop-color="#F34F70"/>
</linearGradient>
<linearGradient id="paint21_linear_277_10119" x1="6.97825" y1="8.66502" x2="6.97825" y2="29.961" gradientUnits="userSpaceOnUse">
<stop offset="0.18" stop-color="#ABE263"/>
<stop offset="1" stop-color="#61E19B"/>
</linearGradient>
<linearGradient id="paint22_linear_277_10119" x1="9.11269" y1="9.42773" x2="9.11269" y2="29.1977" gradientUnits="userSpaceOnUse">
<stop stop-color="#C9FE70"/>
<stop offset="1" stop-color="#6CEDA7"/>
</linearGradient>
</defs>
</svg>
