<svg width="32" height="32" viewBox="0 0 32 32" fill="none" xmlns="http://www.w3.org/2000/svg">
<g filter="url(#filter0_i_277_11181)">
<path d="M4.74706 21.6596C5.74084 21.6596 6.69392 21.2689 7.39663 20.5734C8.09934 19.8779 8.49412 18.9345 8.49412 17.9509C8.49412 16.9673 8.09934 16.024 7.39663 15.3284C6.69392 14.6329 5.74084 14.2422 4.74706 14.2422C3.75328 14.2422 2.8002 14.6329 2.09749 15.3284C1.39478 16.024 1 16.9673 1 17.9509C1 18.9345 1.39478 19.8779 2.09749 20.5734C2.8002 21.2689 3.75328 21.6596 4.74706 21.6596Z" fill="url(#paint0_radial_277_11181)"/>
</g>
<g filter="url(#filter1_f_277_11181)">
<path d="M4.74892 20.3707C5.39717 20.3707 6.01888 20.1158 6.47726 19.6621C6.93564 19.2084 7.19316 18.5931 7.19316 17.9515C7.19316 17.3098 6.93564 16.6945 6.47726 16.2408C6.01888 15.7871 5.39717 15.5322 4.74892 15.5322C4.10067 15.5322 3.47897 15.7871 3.02059 16.2408C2.5622 16.6945 2.30469 17.3098 2.30469 17.9515C2.30469 18.5931 2.5622 19.2084 3.02059 19.6621C3.47897 20.1158 4.10067 20.3707 4.74892 20.3707Z" fill="url(#paint1_linear_277_11181)"/>
</g>
<g filter="url(#filter2_i_277_11181)">
<path d="M27.2549 21.6596C28.2487 21.6596 29.2017 21.2689 29.9044 20.5734C30.6072 19.8779 31.0019 18.9345 31.0019 17.9509C31.0019 16.9673 30.6072 16.024 29.9044 15.3284C29.2017 14.6329 28.2487 14.2422 27.2549 14.2422C26.2611 14.2422 25.308 14.6329 24.6053 15.3284C23.9026 16.024 23.5078 16.9673 23.5078 17.9509C23.5078 18.9345 23.9026 19.8779 24.6053 20.5734C25.308 21.2689 26.2611 21.6596 27.2549 21.6596Z" fill="url(#paint2_linear_277_11181)"/>
<path d="M27.2549 21.6596C28.2487 21.6596 29.2017 21.2689 29.9044 20.5734C30.6072 19.8779 31.0019 18.9345 31.0019 17.9509C31.0019 16.9673 30.6072 16.024 29.9044 15.3284C29.2017 14.6329 28.2487 14.2422 27.2549 14.2422C26.2611 14.2422 25.308 14.6329 24.6053 15.3284C23.9026 16.024 23.5078 16.9673 23.5078 17.9509C23.5078 18.9345 23.9026 19.8779 24.6053 20.5734C25.308 21.2689 26.2611 21.6596 27.2549 21.6596Z" fill="url(#paint3_radial_277_11181)"/>
</g>
<g filter="url(#filter3_f_277_11181)">
<path d="M27.2528 20.3707C27.9011 20.3707 28.5228 20.1158 28.9812 19.6621C29.4395 19.2084 29.6971 18.5931 29.6971 17.9515C29.6971 17.3098 29.4395 16.6945 28.9812 16.2408C28.5228 15.7871 27.9011 15.5322 27.2528 15.5322C26.6046 15.5322 25.9829 15.7871 25.5245 16.2408C25.0661 16.6945 24.8086 17.3098 24.8086 17.9515C24.8086 18.5931 25.0661 19.2084 25.5245 19.6621C25.9829 20.1158 26.6046 20.3707 27.2528 20.3707Z" fill="#E4AF9A"/>
<path d="M27.2528 20.3707C27.9011 20.3707 28.5228 20.1158 28.9812 19.6621C29.4395 19.2084 29.6971 18.5931 29.6971 17.9515C29.6971 17.3098 29.4395 16.6945 28.9812 16.2408C28.5228 15.7871 27.9011 15.5322 27.2528 15.5322C26.6046 15.5322 25.9829 15.7871 25.5245 16.2408C25.0661 16.6945 24.8086 17.3098 24.8086 17.9515C24.8086 18.5931 25.0661 19.2084 25.5245 19.6621C25.9829 20.1158 26.6046 20.3707 27.2528 20.3707Z" fill="url(#paint4_radial_277_11181)"/>
<path d="M27.2528 20.3707C27.9011 20.3707 28.5228 20.1158 28.9812 19.6621C29.4395 19.2084 29.6971 18.5931 29.6971 17.9515C29.6971 17.3098 29.4395 16.6945 28.9812 16.2408C28.5228 15.7871 27.9011 15.5322 27.2528 15.5322C26.6046 15.5322 25.9829 15.7871 25.5245 16.2408C25.0661 16.6945 24.8086 17.3098 24.8086 17.9515C24.8086 18.5931 25.0661 19.2084 25.5245 19.6621C25.9829 20.1158 26.6046 20.3707 27.2528 20.3707Z" fill="url(#paint5_radial_277_11181)"/>
</g>
<g filter="url(#filter4_i_277_11181)">
<path d="M12.988 2.33008C7.98075 2.33008 3.97313 6.47358 4.1795 11.4513L4.50233 20.8349C4.77788 27.514 9.84044 31.9999 15.996 31.9999C22.1504 31.9999 27.2141 27.514 27.4908 20.8349L27.5865 16.122L27.7998 11.4513C28.0073 6.47358 23.9997 2.33008 18.9925 2.33008H12.988Z" fill="url(#paint6_radial_277_11181)"/>
<path d="M12.988 2.33008C7.98075 2.33008 3.97313 6.47358 4.1795 11.4513L4.50233 20.8349C4.77788 27.514 9.84044 31.9999 15.996 31.9999C22.1504 31.9999 27.2141 27.514 27.4908 20.8349L27.5865 16.122L27.7998 11.4513C28.0073 6.47358 23.9997 2.33008 18.9925 2.33008H12.988Z" fill="url(#paint7_radial_277_11181)"/>
<path d="M12.988 2.33008C7.98075 2.33008 3.97313 6.47358 4.1795 11.4513L4.50233 20.8349C4.77788 27.514 9.84044 31.9999 15.996 31.9999C22.1504 31.9999 27.2141 27.514 27.4908 20.8349L27.5865 16.122L27.7998 11.4513C28.0073 6.47358 23.9997 2.33008 18.9925 2.33008H12.988Z" fill="url(#paint8_radial_277_11181)"/>
<path d="M12.988 2.33008C7.98075 2.33008 3.97313 6.47358 4.1795 11.4513L4.50233 20.8349C4.77788 27.514 9.84044 31.9999 15.996 31.9999C22.1504 31.9999 27.2141 27.514 27.4908 20.8349L27.5865 16.122L27.7998 11.4513C28.0073 6.47358 23.9997 2.33008 18.9925 2.33008H12.988Z" fill="url(#paint9_radial_277_11181)"/>
<path d="M12.988 2.33008C7.98075 2.33008 3.97313 6.47358 4.1795 11.4513L4.50233 20.8349C4.77788 27.514 9.84044 31.9999 15.996 31.9999C22.1504 31.9999 27.2141 27.514 27.4908 20.8349L27.5865 16.122L27.7998 11.4513C28.0073 6.47358 23.9997 2.33008 18.9925 2.33008H12.988Z" fill="url(#paint10_linear_277_11181)"/>
</g>
<path d="M12.988 2.33008C7.98075 2.33008 3.97313 6.47358 4.1795 11.4513L4.50233 20.8349C4.77788 27.514 9.84044 31.9999 15.996 31.9999C22.1504 31.9999 27.2141 27.514 27.4908 20.8349L27.5865 16.122L27.7998 11.4513C28.0073 6.47358 23.9997 2.33008 18.9925 2.33008H12.988Z" fill="url(#paint11_radial_277_11181)"/>
<path d="M12.988 2.33008C7.98075 2.33008 3.97313 6.47358 4.1795 11.4513L4.50233 20.8349C4.77788 27.514 9.84044 31.9999 15.996 31.9999C22.1504 31.9999 27.2141 27.514 27.4908 20.8349L27.5865 16.122L27.7998 11.4513C28.0073 6.47358 23.9997 2.33008 18.9925 2.33008H12.988Z" fill="url(#paint12_radial_277_11181)"/>
<path d="M12.988 2.33008C7.98075 2.33008 3.97313 6.47358 4.1795 11.4513L4.50233 20.8349C4.77788 27.514 9.84044 31.9999 15.996 31.9999C22.1504 31.9999 27.2141 27.514 27.4908 20.8349L27.5865 16.122L27.7998 11.4513C28.0073 6.47358 23.9997 2.33008 18.9925 2.33008H12.988Z" fill="url(#paint13_radial_277_11181)"/>
<path d="M12.988 2.33008C7.98075 2.33008 3.97313 6.47358 4.1795 11.4513L4.50233 20.8349C4.77788 27.514 9.84044 31.9999 15.996 31.9999C22.1504 31.9999 27.2141 27.514 27.4908 20.8349L27.5865 16.122L27.7998 11.4513C28.0073 6.47358 23.9997 2.33008 18.9925 2.33008H12.988Z" fill="url(#paint14_radial_277_11181)"/>
<path d="M12.988 2.33008C7.98075 2.33008 3.97313 6.47358 4.1795 11.4513L4.50233 20.8349C4.77788 27.514 9.84044 31.9999 15.996 31.9999C22.1504 31.9999 27.2141 27.514 27.4908 20.8349L27.5865 16.122L27.7998 11.4513C28.0073 6.47358 23.9997 2.33008 18.9925 2.33008H12.988Z" fill="url(#paint15_radial_277_11181)"/>
<path d="M15.9905 24.1414C14.78 24.1458 13.5866 23.8587 12.5132 23.3049C12.4387 23.2645 12.3527 23.2501 12.2689 23.2639C12.1852 23.2778 12.1086 23.3191 12.0514 23.3813C11.9943 23.4435 11.96 23.523 11.9541 23.6068C11.9481 23.6907 11.9708 23.774 12.0186 23.8436C12.4457 24.5027 13.0332 25.0453 13.7271 25.4215C14.421 25.7977 15.1992 25.9956 15.9905 25.9969C16.7817 25.9957 17.5599 25.7979 18.2539 25.4216C18.9478 25.0454 19.5353 24.5028 19.9623 23.8436C20.1699 23.5229 19.8125 23.1338 19.4666 23.3049C18.3955 23.8638 17.2012 24.1512 15.9905 24.1414Z" fill="#88024E"/>
<g filter="url(#filter5_i_277_11181)">
<path d="M8.42578 13.7772C9.10602 13.5376 10.0514 13.3664 11.2735 13.4805" stroke="#140E1A" stroke-miterlimit="10" stroke-linecap="round" stroke-linejoin="round"/>
</g>
<g filter="url(#filter6_f_277_11181)">
<path d="M8.42578 13.7772C9.10602 13.5376 10.0514 13.3664 11.2735 13.4805" stroke="url(#paint16_linear_277_11181)" stroke-width="0.3" stroke-miterlimit="10" stroke-linecap="round" stroke-linejoin="round"/>
</g>
<g filter="url(#filter7_i_277_11181)">
<path d="M22.9181 13.7772C22.2378 13.5376 21.2924 13.3664 20.0703 13.4805" stroke="#140E1A" stroke-miterlimit="10" stroke-linecap="round" stroke-linejoin="round"/>
</g>
<g filter="url(#filter8_f_277_11181)">
<path d="M22.9181 13.7772C22.2378 13.5376 21.2924 13.3664 20.0703 13.4805" stroke="url(#paint17_linear_277_11181)" stroke-width="0.3" stroke-miterlimit="10" stroke-linecap="round" stroke-linejoin="round"/>
</g>
<g filter="url(#filter9_i_277_11181)">
<path d="M2.974 12.4054L3.08468 17.0613C3.08468 17.9514 3.85484 18.2127 4.29181 18.2401C4.30647 18.2408 4.3211 18.2384 4.33481 18.2332C4.34851 18.228 4.36099 18.2201 4.37147 18.2099C4.38196 18.1998 4.39022 18.1876 4.39575 18.1741C4.40129 18.1607 4.40397 18.1462 4.40364 18.1317L4.34139 13.6721C4.34139 12.976 4.55583 12.2046 5.20609 11.6044C5.87249 10.9881 6.2864 10.3651 6.37748 9.6336C6.44435 9.08699 6.55273 8.79486 6.65419 8.61228C6.72913 8.47876 6.98047 8.50957 7.04734 8.64651C8.02273 10.6584 9.87666 11.3191 11.2809 11.4241C11.9012 11.4697 12.3324 10.9037 12.329 10.2875C12.3232 9.47955 12.4028 8.68417 12.5561 8.41258C15.096 11.4971 18.8073 11.4252 19.9061 11.391C21.0048 11.3545 23.7073 11.4252 25.6708 11.5861C27.2423 11.7151 27.5443 13.2271 27.5443 13.7429V18.1043C27.5443 18.1193 27.5473 18.1342 27.5531 18.148C27.5589 18.1618 27.5674 18.1744 27.5781 18.185C27.5888 18.1956 27.6015 18.204 27.6155 18.2098C27.6295 18.2155 27.6445 18.2184 27.6596 18.2184H27.7899C28.3548 18.2184 28.8056 17.7734 28.7987 17.2142C28.7834 16.5387 28.7857 15.8629 28.8056 15.1876C28.8598 13.8867 28.8229 13.6539 29.7603 11.8896C30.5754 10.3537 31.0124 9.28555 30.5166 7.39582C30.0946 5.78794 28.3376 4.80998 27.67 4.4722C27.0416 4.15268 26.6888 3.83886 26.3822 3.25117C26.0766 2.66234 25.6397 1.35687 23.3292 0.39831C21.2654 -0.457549 19.9061 0.29903 19.0598 0.674467C18.2124 1.04876 17.3835 1.11951 15.9965 0.459932C13.9258 -0.431303 12.0154 0.0491192 10.8993 1.24504C9.78096 2.43868 8.61073 2.52769 7.49353 2.99099C6.37748 3.45544 5.54852 4.16866 4.44976 5.75599C2.99244 7.64459 2.8587 10.9254 2.97284 12.4066L2.974 12.4054Z" fill="#2C2726"/>
<path d="M2.974 12.4054L3.08468 17.0613C3.08468 17.9514 3.85484 18.2127 4.29181 18.2401C4.30647 18.2408 4.3211 18.2384 4.33481 18.2332C4.34851 18.228 4.36099 18.2201 4.37147 18.2099C4.38196 18.1998 4.39022 18.1876 4.39575 18.1741C4.40129 18.1607 4.40397 18.1462 4.40364 18.1317L4.34139 13.6721C4.34139 12.976 4.55583 12.2046 5.20609 11.6044C5.87249 10.9881 6.2864 10.3651 6.37748 9.6336C6.44435 9.08699 6.55273 8.79486 6.65419 8.61228C6.72913 8.47876 6.98047 8.50957 7.04734 8.64651C8.02273 10.6584 9.87666 11.3191 11.2809 11.4241C11.9012 11.4697 12.3324 10.9037 12.329 10.2875C12.3232 9.47955 12.4028 8.68417 12.5561 8.41258C15.096 11.4971 18.8073 11.4252 19.9061 11.391C21.0048 11.3545 23.7073 11.4252 25.6708 11.5861C27.2423 11.7151 27.5443 13.2271 27.5443 13.7429V18.1043C27.5443 18.1193 27.5473 18.1342 27.5531 18.148C27.5589 18.1618 27.5674 18.1744 27.5781 18.185C27.5888 18.1956 27.6015 18.204 27.6155 18.2098C27.6295 18.2155 27.6445 18.2184 27.6596 18.2184H27.7899C28.3548 18.2184 28.8056 17.7734 28.7987 17.2142C28.7834 16.5387 28.7857 15.8629 28.8056 15.1876C28.8598 13.8867 28.8229 13.6539 29.7603 11.8896C30.5754 10.3537 31.0124 9.28555 30.5166 7.39582C30.0946 5.78794 28.3376 4.80998 27.67 4.4722C27.0416 4.15268 26.6888 3.83886 26.3822 3.25117C26.0766 2.66234 25.6397 1.35687 23.3292 0.39831C21.2654 -0.457549 19.9061 0.29903 19.0598 0.674467C18.2124 1.04876 17.3835 1.11951 15.9965 0.459932C13.9258 -0.431303 12.0154 0.0491192 10.8993 1.24504C9.78096 2.43868 8.61073 2.52769 7.49353 2.99099C6.37748 3.45544 5.54852 4.16866 4.44976 5.75599C2.99244 7.64459 2.8587 10.9254 2.97284 12.4066L2.974 12.4054Z" fill="url(#paint18_radial_277_11181)"/>
<path d="M2.974 12.4054L3.08468 17.0613C3.08468 17.9514 3.85484 18.2127 4.29181 18.2401C4.30647 18.2408 4.3211 18.2384 4.33481 18.2332C4.34851 18.228 4.36099 18.2201 4.37147 18.2099C4.38196 18.1998 4.39022 18.1876 4.39575 18.1741C4.40129 18.1607 4.40397 18.1462 4.40364 18.1317L4.34139 13.6721C4.34139 12.976 4.55583 12.2046 5.20609 11.6044C5.87249 10.9881 6.2864 10.3651 6.37748 9.6336C6.44435 9.08699 6.55273 8.79486 6.65419 8.61228C6.72913 8.47876 6.98047 8.50957 7.04734 8.64651C8.02273 10.6584 9.87666 11.3191 11.2809 11.4241C11.9012 11.4697 12.3324 10.9037 12.329 10.2875C12.3232 9.47955 12.4028 8.68417 12.5561 8.41258C15.096 11.4971 18.8073 11.4252 19.9061 11.391C21.0048 11.3545 23.7073 11.4252 25.6708 11.5861C27.2423 11.7151 27.5443 13.2271 27.5443 13.7429V18.1043C27.5443 18.1193 27.5473 18.1342 27.5531 18.148C27.5589 18.1618 27.5674 18.1744 27.5781 18.185C27.5888 18.1956 27.6015 18.204 27.6155 18.2098C27.6295 18.2155 27.6445 18.2184 27.6596 18.2184H27.7899C28.3548 18.2184 28.8056 17.7734 28.7987 17.2142C28.7834 16.5387 28.7857 15.8629 28.8056 15.1876C28.8598 13.8867 28.8229 13.6539 29.7603 11.8896C30.5754 10.3537 31.0124 9.28555 30.5166 7.39582C30.0946 5.78794 28.3376 4.80998 27.67 4.4722C27.0416 4.15268 26.6888 3.83886 26.3822 3.25117C26.0766 2.66234 25.6397 1.35687 23.3292 0.39831C21.2654 -0.457549 19.9061 0.29903 19.0598 0.674467C18.2124 1.04876 17.3835 1.11951 15.9965 0.459932C13.9258 -0.431303 12.0154 0.0491192 10.8993 1.24504C9.78096 2.43868 8.61073 2.52769 7.49353 2.99099C6.37748 3.45544 5.54852 4.16866 4.44976 5.75599C2.99244 7.64459 2.8587 10.9254 2.97284 12.4066L2.974 12.4054Z" fill="url(#paint19_radial_277_11181)"/>
<path d="M2.974 12.4054L3.08468 17.0613C3.08468 17.9514 3.85484 18.2127 4.29181 18.2401C4.30647 18.2408 4.3211 18.2384 4.33481 18.2332C4.34851 18.228 4.36099 18.2201 4.37147 18.2099C4.38196 18.1998 4.39022 18.1876 4.39575 18.1741C4.40129 18.1607 4.40397 18.1462 4.40364 18.1317L4.34139 13.6721C4.34139 12.976 4.55583 12.2046 5.20609 11.6044C5.87249 10.9881 6.2864 10.3651 6.37748 9.6336C6.44435 9.08699 6.55273 8.79486 6.65419 8.61228C6.72913 8.47876 6.98047 8.50957 7.04734 8.64651C8.02273 10.6584 9.87666 11.3191 11.2809 11.4241C11.9012 11.4697 12.3324 10.9037 12.329 10.2875C12.3232 9.47955 12.4028 8.68417 12.5561 8.41258C15.096 11.4971 18.8073 11.4252 19.9061 11.391C21.0048 11.3545 23.7073 11.4252 25.6708 11.5861C27.2423 11.7151 27.5443 13.2271 27.5443 13.7429V18.1043C27.5443 18.1193 27.5473 18.1342 27.5531 18.148C27.5589 18.1618 27.5674 18.1744 27.5781 18.185C27.5888 18.1956 27.6015 18.204 27.6155 18.2098C27.6295 18.2155 27.6445 18.2184 27.6596 18.2184H27.7899C28.3548 18.2184 28.8056 17.7734 28.7987 17.2142C28.7834 16.5387 28.7857 15.8629 28.8056 15.1876C28.8598 13.8867 28.8229 13.6539 29.7603 11.8896C30.5754 10.3537 31.0124 9.28555 30.5166 7.39582C30.0946 5.78794 28.3376 4.80998 27.67 4.4722C27.0416 4.15268 26.6888 3.83886 26.3822 3.25117C26.0766 2.66234 25.6397 1.35687 23.3292 0.39831C21.2654 -0.457549 19.9061 0.29903 19.0598 0.674467C18.2124 1.04876 17.3835 1.11951 15.9965 0.459932C13.9258 -0.431303 12.0154 0.0491192 10.8993 1.24504C9.78096 2.43868 8.61073 2.52769 7.49353 2.99099C6.37748 3.45544 5.54852 4.16866 4.44976 5.75599C2.99244 7.64459 2.8587 10.9254 2.97284 12.4066L2.974 12.4054Z" fill="url(#paint20_radial_277_11181)"/>
<path d="M2.974 12.4054L3.08468 17.0613C3.08468 17.9514 3.85484 18.2127 4.29181 18.2401C4.30647 18.2408 4.3211 18.2384 4.33481 18.2332C4.34851 18.228 4.36099 18.2201 4.37147 18.2099C4.38196 18.1998 4.39022 18.1876 4.39575 18.1741C4.40129 18.1607 4.40397 18.1462 4.40364 18.1317L4.34139 13.6721C4.34139 12.976 4.55583 12.2046 5.20609 11.6044C5.87249 10.9881 6.2864 10.3651 6.37748 9.6336C6.44435 9.08699 6.55273 8.79486 6.65419 8.61228C6.72913 8.47876 6.98047 8.50957 7.04734 8.64651C8.02273 10.6584 9.87666 11.3191 11.2809 11.4241C11.9012 11.4697 12.3324 10.9037 12.329 10.2875C12.3232 9.47955 12.4028 8.68417 12.5561 8.41258C15.096 11.4971 18.8073 11.4252 19.9061 11.391C21.0048 11.3545 23.7073 11.4252 25.6708 11.5861C27.2423 11.7151 27.5443 13.2271 27.5443 13.7429V18.1043C27.5443 18.1193 27.5473 18.1342 27.5531 18.148C27.5589 18.1618 27.5674 18.1744 27.5781 18.185C27.5888 18.1956 27.6015 18.204 27.6155 18.2098C27.6295 18.2155 27.6445 18.2184 27.6596 18.2184H27.7899C28.3548 18.2184 28.8056 17.7734 28.7987 17.2142C28.7834 16.5387 28.7857 15.8629 28.8056 15.1876C28.8598 13.8867 28.8229 13.6539 29.7603 11.8896C30.5754 10.3537 31.0124 9.28555 30.5166 7.39582C30.0946 5.78794 28.3376 4.80998 27.67 4.4722C27.0416 4.15268 26.6888 3.83886 26.3822 3.25117C26.0766 2.66234 25.6397 1.35687 23.3292 0.39831C21.2654 -0.457549 19.9061 0.29903 19.0598 0.674467C18.2124 1.04876 17.3835 1.11951 15.9965 0.459932C13.9258 -0.431303 12.0154 0.0491192 10.8993 1.24504C9.78096 2.43868 8.61073 2.52769 7.49353 2.99099C6.37748 3.45544 5.54852 4.16866 4.44976 5.75599C2.99244 7.64459 2.8587 10.9254 2.97284 12.4066L2.974 12.4054Z" fill="url(#paint21_radial_277_11181)"/>
<path d="M2.974 12.4054L3.08468 17.0613C3.08468 17.9514 3.85484 18.2127 4.29181 18.2401C4.30647 18.2408 4.3211 18.2384 4.33481 18.2332C4.34851 18.228 4.36099 18.2201 4.37147 18.2099C4.38196 18.1998 4.39022 18.1876 4.39575 18.1741C4.40129 18.1607 4.40397 18.1462 4.40364 18.1317L4.34139 13.6721C4.34139 12.976 4.55583 12.2046 5.20609 11.6044C5.87249 10.9881 6.2864 10.3651 6.37748 9.6336C6.44435 9.08699 6.55273 8.79486 6.65419 8.61228C6.72913 8.47876 6.98047 8.50957 7.04734 8.64651C8.02273 10.6584 9.87666 11.3191 11.2809 11.4241C11.9012 11.4697 12.3324 10.9037 12.329 10.2875C12.3232 9.47955 12.4028 8.68417 12.5561 8.41258C15.096 11.4971 18.8073 11.4252 19.9061 11.391C21.0048 11.3545 23.7073 11.4252 25.6708 11.5861C27.2423 11.7151 27.5443 13.2271 27.5443 13.7429V18.1043C27.5443 18.1193 27.5473 18.1342 27.5531 18.148C27.5589 18.1618 27.5674 18.1744 27.5781 18.185C27.5888 18.1956 27.6015 18.204 27.6155 18.2098C27.6295 18.2155 27.6445 18.2184 27.6596 18.2184H27.7899C28.3548 18.2184 28.8056 17.7734 28.7987 17.2142C28.7834 16.5387 28.7857 15.8629 28.8056 15.1876C28.8598 13.8867 28.8229 13.6539 29.7603 11.8896C30.5754 10.3537 31.0124 9.28555 30.5166 7.39582C30.0946 5.78794 28.3376 4.80998 27.67 4.4722C27.0416 4.15268 26.6888 3.83886 26.3822 3.25117C26.0766 2.66234 25.6397 1.35687 23.3292 0.39831C21.2654 -0.457549 19.9061 0.29903 19.0598 0.674467C18.2124 1.04876 17.3835 1.11951 15.9965 0.459932C13.9258 -0.431303 12.0154 0.0491192 10.8993 1.24504C9.78096 2.43868 8.61073 2.52769 7.49353 2.99099C6.37748 3.45544 5.54852 4.16866 4.44976 5.75599C2.99244 7.64459 2.8587 10.9254 2.97284 12.4066L2.974 12.4054Z" fill="url(#paint22_radial_277_11181)"/>
</g>
<g filter="url(#filter10_f_277_11181)">
<path d="M7.19141 7.45508C7.43583 8.41364 8.49423 10.4232 10.7724 10.7838" stroke="url(#paint23_linear_277_11181)" stroke-width="0.4" stroke-linecap="round"/>
</g>
<g filter="url(#filter11_f_277_11181)">
<path d="M13.7505 21.101L15.4431 18.5129C15.4918 18.4388 15.56 18.3793 15.6403 18.3407C15.7207 18.3022 15.8101 18.286 15.899 18.294C15.988 18.302 16.073 18.3338 16.145 18.386C16.217 18.4383 16.2733 18.509 16.3078 18.5905L17.3662 21.101H17.3558C17.4275 21.2332 17.4613 21.3823 17.4536 21.5321C17.4459 21.682 17.3969 21.8269 17.312 21.9512C16.8969 22.5537 16.3723 22.944 15.5883 22.944C14.8159 22.944 14.1541 22.5537 13.7505 21.9512C13.5476 21.6522 13.5776 21.3646 13.7505 21.1022V21.101Z" fill="#CF928D"/>
</g>
<g filter="url(#filter12_f_277_11181)">
<path d="M14.1126 20.886L15.5538 17.9145C15.5926 17.8353 15.653 17.7685 15.7282 17.7217C15.8034 17.6748 15.8904 17.6498 15.9793 17.6494C16.0682 17.6491 16.1554 17.6734 16.231 17.7196C16.3066 17.7659 16.3676 17.8322 16.407 17.9111L17.9162 20.9556H17.9046C17.9764 21.0875 18.0104 21.2364 18.0029 21.386C17.9954 21.5357 17.9466 21.6804 17.862 21.8046C17.6576 22.1116 17.3795 22.3636 17.0525 22.5379C16.7255 22.7123 16.3599 22.8035 15.9885 22.8035C15.617 22.8035 15.2514 22.7123 14.9244 22.5379C14.5974 22.3636 14.3193 22.1116 14.1149 21.8046C14.0226 21.669 13.9731 21.5092 13.9727 21.3457C13.9722 21.1821 14.021 21.0221 14.1126 20.886Z" fill="#FAC4B1"/>
<path d="M14.1126 20.886L15.5538 17.9145C15.5926 17.8353 15.653 17.7685 15.7282 17.7217C15.8034 17.6748 15.8904 17.6498 15.9793 17.6494C16.0682 17.6491 16.1554 17.6734 16.231 17.7196C16.3066 17.7659 16.3676 17.8322 16.407 17.9111L17.9162 20.9556H17.9046C17.9764 21.0875 18.0104 21.2364 18.0029 21.386C17.9954 21.5357 17.9466 21.6804 17.862 21.8046C17.6576 22.1116 17.3795 22.3636 17.0525 22.5379C16.7255 22.7123 16.3599 22.8035 15.9885 22.8035C15.617 22.8035 15.2514 22.7123 14.9244 22.5379C14.5974 22.3636 14.3193 22.1116 14.1149 21.8046C14.0226 21.669 13.9731 21.5092 13.9727 21.3457C13.9722 21.1821 14.021 21.0221 14.1126 20.886Z" fill="url(#paint24_linear_277_11181)"/>
<path d="M14.1126 20.886L15.5538 17.9145C15.5926 17.8353 15.653 17.7685 15.7282 17.7217C15.8034 17.6748 15.8904 17.6498 15.9793 17.6494C16.0682 17.6491 16.1554 17.6734 16.231 17.7196C16.3066 17.7659 16.3676 17.8322 16.407 17.9111L17.9162 20.9556H17.9046C17.9764 21.0875 18.0104 21.2364 18.0029 21.386C17.9954 21.5357 17.9466 21.6804 17.862 21.8046C17.6576 22.1116 17.3795 22.3636 17.0525 22.5379C16.7255 22.7123 16.3599 22.8035 15.9885 22.8035C15.617 22.8035 15.2514 22.7123 14.9244 22.5379C14.5974 22.3636 14.3193 22.1116 14.1149 21.8046C14.0226 21.669 13.9731 21.5092 13.9727 21.3457C13.9722 21.1821 14.021 21.0221 14.1126 20.886Z" fill="url(#paint25_linear_277_11181)"/>
<path d="M14.1126 20.886L15.5538 17.9145C15.5926 17.8353 15.653 17.7685 15.7282 17.7217C15.8034 17.6748 15.8904 17.6498 15.9793 17.6494C16.0682 17.6491 16.1554 17.6734 16.231 17.7196C16.3066 17.7659 16.3676 17.8322 16.407 17.9111L17.9162 20.9556H17.9046C17.9764 21.0875 18.0104 21.2364 18.0029 21.386C17.9954 21.5357 17.9466 21.6804 17.862 21.8046C17.6576 22.1116 17.3795 22.3636 17.0525 22.5379C16.7255 22.7123 16.3599 22.8035 15.9885 22.8035C15.617 22.8035 15.2514 22.7123 14.9244 22.5379C14.5974 22.3636 14.3193 22.1116 14.1149 21.8046C14.0226 21.669 13.9731 21.5092 13.9727 21.3457C13.9722 21.1821 14.021 21.0221 14.1126 20.886Z" fill="url(#paint26_linear_277_11181)"/>
<path d="M14.1126 20.886L15.5538 17.9145C15.5926 17.8353 15.653 17.7685 15.7282 17.7217C15.8034 17.6748 15.8904 17.6498 15.9793 17.6494C16.0682 17.6491 16.1554 17.6734 16.231 17.7196C16.3066 17.7659 16.3676 17.8322 16.407 17.9111L17.9162 20.9556H17.9046C17.9764 21.0875 18.0104 21.2364 18.0029 21.386C17.9954 21.5357 17.9466 21.6804 17.862 21.8046C17.6576 22.1116 17.3795 22.3636 17.0525 22.5379C16.7255 22.7123 16.3599 22.8035 15.9885 22.8035C15.617 22.8035 15.2514 22.7123 14.9244 22.5379C14.5974 22.3636 14.3193 22.1116 14.1149 21.8046C14.0226 21.669 13.9731 21.5092 13.9727 21.3457C13.9722 21.1821 14.021 21.0221 14.1126 20.886Z" fill="url(#paint27_radial_277_11181)"/>
</g>
<path d="M14.1126 20.886L15.5538 17.9145C15.5926 17.8353 15.653 17.7685 15.7282 17.7217C15.8034 17.6748 15.8904 17.6498 15.9793 17.6494C16.0682 17.6491 16.1554 17.6734 16.231 17.7196C16.3066 17.7659 16.3676 17.8322 16.407 17.9111L17.9162 20.9556H17.9046C17.9764 21.0875 18.0104 21.2364 18.0029 21.386C17.9954 21.5357 17.9466 21.6804 17.862 21.8046C17.6576 22.1116 17.3795 22.3636 17.0525 22.5379C16.7255 22.7123 16.3599 22.8035 15.9885 22.8035C15.617 22.8035 15.2514 22.7123 14.9244 22.5379C14.5974 22.3636 14.3193 22.1116 14.1149 21.8046C14.0226 21.669 13.9731 21.5092 13.9727 21.3457C13.9722 21.1821 14.021 21.0221 14.1126 20.886Z" fill="url(#paint28_radial_277_11181)"/>
<path d="M21.5242 15.3857C22.3248 15.3856 23.1025 15.6505 23.7335 16.1384C24.3644 16.6262 24.8124 17.3088 25.0061 18.0777C25.0326 18.181 25.0348 18.2889 25.0125 18.3931C24.9902 18.4973 24.944 18.5951 24.8775 18.6789C24.811 18.7627 24.7259 18.8303 24.6289 18.8764C24.5319 18.9225 24.4254 18.946 24.3178 18.945H18.5865C18.4995 18.9454 18.4135 18.9268 18.3346 18.8906C18.2557 18.8543 18.1858 18.8013 18.13 18.7352C18.0742 18.6692 18.0338 18.5918 18.0116 18.5085C17.9895 18.4252 17.9862 18.3381 18.002 18.2534C18.1625 17.4456 18.6015 16.718 19.244 16.1949C19.8864 15.6719 20.6924 15.3859 21.5242 15.3857Z" fill="white"/>
<path d="M20.9899 16.0762C21.3425 16.0762 21.6903 16.1568 22.0063 16.3117C22.3223 16.4665 22.5979 16.6914 22.8118 16.9688C23.0256 17.2463 23.1719 17.5689 23.2393 17.9114C23.3066 18.254 23.2932 18.6073 23.2001 18.9439H18.7705C18.7167 18.749 18.6888 18.548 18.6875 18.3459C18.6875 17.0975 19.7194 16.0762 20.9899 16.0762Z" fill="url(#paint29_radial_277_11181)"/>
<path d="M19.6809 18.3466C19.6809 17.6243 20.2643 17.0469 20.993 17.0469C21.7228 17.0469 22.3073 17.6243 22.3073 18.3466C22.3073 18.5635 22.2543 18.7689 22.1609 18.9446H19.8366C19.7314 18.7627 19.6772 18.5562 19.6798 18.3466H19.6809Z" fill="black"/>
<g filter="url(#filter13_f_277_11181)">
<path d="M20.8249 16.557C20.9886 16.7738 20.6474 17.0363 20.2588 17.3239C19.8703 17.6114 19.5821 17.8134 19.4195 17.5977C19.2558 17.3809 19.4379 16.9724 19.8265 16.6848C20.215 16.3984 20.6612 16.3402 20.8249 16.557Z" fill="#C7A7A3"/>
<path d="M20.8249 16.557C20.9886 16.7738 20.6474 17.0363 20.2588 17.3239C19.8703 17.6114 19.5821 17.8134 19.4195 17.5977C19.2558 17.3809 19.4379 16.9724 19.8265 16.6848C20.215 16.3984 20.6612 16.3402 20.8249 16.557Z" fill="url(#paint30_radial_277_11181)"/>
</g>
<g filter="url(#filter14_f_277_11181)">
<path d="M23.0359 18.0475C22.9674 17.6035 22.7593 17.1922 22.441 16.8721L21.7734 17.5967L22.0744 18.1764L23.0359 18.0475Z" fill="url(#paint31_linear_277_11181)"/>
</g>
<path d="M10.4411 15.3994C9.64383 15.3996 8.86951 15.6637 8.24131 16.1496C7.61312 16.6356 7.16711 17.3154 6.97421 18.0811C6.94817 18.1838 6.94622 18.2911 6.96853 18.3947C6.99084 18.4982 7.03681 18.5954 7.10291 18.6787C7.16902 18.7619 7.25351 18.8291 7.34991 18.8751C7.44631 18.9211 7.55206 18.9446 7.65906 18.9438H13.3684C13.455 18.9442 13.5406 18.9258 13.619 18.8897C13.6975 18.8536 13.767 18.8008 13.8225 18.7351C13.878 18.6693 13.9182 18.5923 13.9401 18.5094C13.9621 18.4266 13.9653 18.3399 13.9495 18.2557C13.7879 17.4519 13.3501 16.7282 12.7106 16.2075C12.0711 15.6868 11.2692 15.4013 10.4411 15.3994Z" fill="white"/>
<path d="M10.9695 16.0879C10.6184 16.088 10.272 16.1683 9.95731 16.3225C9.64262 16.4768 9.36813 16.7008 9.15518 16.9771C8.94222 17.2535 8.79656 17.5748 8.7295 17.9159C8.66245 18.2571 8.67582 18.609 8.76858 18.9442H13.1809C13.2346 18.75 13.2625 18.5498 13.2639 18.3485C13.2596 17.7486 13.0162 17.1746 12.5865 16.7514C12.1568 16.3283 11.5757 16.0902 10.9695 16.089V16.0879Z" fill="url(#paint32_radial_277_11181)"/>
<path d="M12.275 18.3489C12.2758 18.1787 12.2425 18.01 12.1771 17.8526C12.1117 17.6952 12.0154 17.5522 11.8939 17.4318C11.7723 17.3114 11.6279 17.216 11.4689 17.1511C11.3099 17.0862 11.1396 17.0531 10.9676 17.0537C10.7956 17.0531 10.6253 17.0862 10.4663 17.1511C10.3073 17.216 10.1629 17.3114 10.0413 17.4318C9.9198 17.5522 9.82354 17.6952 9.75812 17.8526C9.6927 18.01 9.65941 18.1787 9.66017 18.3489C9.66017 18.5646 9.71205 18.77 9.80544 18.9446H12.1205C12.2128 18.77 12.2762 18.5646 12.2762 18.3489H12.275Z" fill="black"/>
<g filter="url(#filter15_f_277_11181)">
<path d="M13.0547 18.0826C13.0547 17.3523 12.4551 16.865 12.2926 16.7178L11.5547 17.4253L12.0078 18.3393L13.0547 18.0826Z" fill="url(#paint33_linear_277_11181)"/>
</g>
<g filter="url(#filter16_f_277_11181)">
<path d="M10.5181 17.4955C11.0048 17.2402 11.2936 16.8356 11.163 16.5917C11.0324 16.3478 10.532 16.3569 10.0453 16.6121C9.55862 16.8673 9.26991 17.272 9.40047 17.5159C9.53104 17.7598 10.0314 17.7507 10.5181 17.4955Z" fill="#C7A7A3" fill-opacity="0.9"/>
<path d="M10.5181 17.4955C11.0048 17.2402 11.2936 16.8356 11.163 16.5917C11.0324 16.3478 10.532 16.3569 10.0453 16.6121C9.55862 16.8673 9.26991 17.272 9.40047 17.5159C9.53104 17.7598 10.0314 17.7507 10.5181 17.4955Z" fill="url(#paint34_radial_277_11181)"/>
</g>
<g filter="url(#filter17_f_277_11181)">
<path d="M17.695 10.2878C13.9664 10.2878 11.9072 6.01986 11.4922 3.68965C16.8972 -0.678661 23.3963 3.18754 27.0892 5.93428C30.043 8.13098 28.92 11.2475 28.1522 12.3178C27.8905 11.3901 26.8298 10.6495 25.6572 10.4635C24.0892 10.2124 21.4225 10.2878 17.695 10.2878Z" fill="url(#paint35_radial_277_11181)"/>
<path d="M17.695 10.2878C13.9664 10.2878 11.9072 6.01986 11.4922 3.68965C16.8972 -0.678661 23.3963 3.18754 27.0892 5.93428C30.043 8.13098 28.92 11.2475 28.1522 12.3178C27.8905 11.3901 26.8298 10.6495 25.6572 10.4635C24.0892 10.2124 21.4225 10.2878 17.695 10.2878Z" fill="url(#paint36_radial_277_11181)"/>
</g>
<g filter="url(#filter18_f_277_11181)">
<path d="M11.4922 5.18652C11.5464 5.60304 11.8957 6.75902 12.8619 8.05765" stroke="url(#paint37_linear_277_11181)" stroke-width="0.15"/>
</g>
<g filter="url(#filter19_f_277_11181)">
<path d="M23.6709 5.04004H18.9197C18.5307 5.04004 18.1577 5.19297 17.8827 5.46518C17.6076 5.7374 17.4531 6.10661 17.4531 6.49158C17.4531 6.87655 17.6076 7.24575 17.8827 7.51797C18.1577 7.79018 18.5307 7.94311 18.9197 7.94311H24.5691C27.056 7.94311 28.1155 8.63465 28.3334 8.98042C27.5321 5.82743 24.8907 5.04004 23.6709 5.04004Z" fill="#504A4C"/>
</g>
<g filter="url(#filter20_f_277_11181)">
<path d="M28.332 17.2183V14.2422" stroke="url(#paint38_linear_277_11181)" stroke-width="0.4" stroke-linecap="round"/>
</g>
<g filter="url(#filter21_f_277_11181)">
<path d="M11.8491 10.4632C11.8295 10.1402 11.8491 8.70125 12.1558 7.73242" stroke="url(#paint39_linear_277_11181)" stroke-width="0.4" stroke-linecap="round"/>
</g>
<g filter="url(#filter22_f_277_11181)">
<path d="M11.8477 5.09863C12.1128 5.96704 12.9683 7.96177 14.2804 8.99565" stroke="url(#paint40_linear_277_11181)" stroke-width="0.4" stroke-linecap="round"/>
</g>
<defs>
<filter id="filter0_i_277_11181" x="1" y="14.2422" width="7.69219" height="7.41748" filterUnits="userSpaceOnUse" color-interpolation-filters="sRGB">
<feFlood flood-opacity="0" result="BackgroundImageFix"/>
<feBlend mode="normal" in="SourceGraphic" in2="BackgroundImageFix" result="shape"/>
<feColorMatrix in="SourceAlpha" type="matrix" values="0 0 0 0 0 0 0 0 0 0 0 0 0 0 0 0 0 0 127 0" result="hardAlpha"/>
<feOffset dx="0.2"/>
<feGaussianBlur stdDeviation="0.15"/>
<feComposite in2="hardAlpha" operator="arithmetic" k2="-1" k3="1"/>
<feColorMatrix type="matrix" values="0 0 0 0 0.917647 0 0 0 0 0.694118 0 0 0 0 0.607843 0 0 0 1 0"/>
<feBlend mode="normal" in2="shape" result="effect1_innerShadow_277_11181"/>
</filter>
<filter id="filter1_f_277_11181" x="1.80469" y="15.0322" width="5.88672" height="5.83838" filterUnits="userSpaceOnUse" color-interpolation-filters="sRGB">
<feFlood flood-opacity="0" result="BackgroundImageFix"/>
<feBlend mode="normal" in="SourceGraphic" in2="BackgroundImageFix" result="shape"/>
<feGaussianBlur stdDeviation="0.25" result="effect1_foregroundBlur_277_11181"/>
</filter>
<filter id="filter2_i_277_11181" x="23.5078" y="13.9922" width="7.74219" height="7.66748" filterUnits="userSpaceOnUse" color-interpolation-filters="sRGB">
<feFlood flood-opacity="0" result="BackgroundImageFix"/>
<feBlend mode="normal" in="SourceGraphic" in2="BackgroundImageFix" result="shape"/>
<feColorMatrix in="SourceAlpha" type="matrix" values="0 0 0 0 0 0 0 0 0 0 0 0 0 0 0 0 0 0 127 0" result="hardAlpha"/>
<feOffset dx="0.25" dy="-0.25"/>
<feGaussianBlur stdDeviation="0.25"/>
<feComposite in2="hardAlpha" operator="arithmetic" k2="-1" k3="1"/>
<feColorMatrix type="matrix" values="0 0 0 0 0.843137 0 0 0 0 0.623529 0 0 0 0 0.580392 0 0 0 1 0"/>
<feBlend mode="normal" in2="shape" result="effect1_innerShadow_277_11181"/>
</filter>
<filter id="filter3_f_277_11181" x="24.3086" y="15.0322" width="5.88672" height="5.83838" filterUnits="userSpaceOnUse" color-interpolation-filters="sRGB">
<feFlood flood-opacity="0" result="BackgroundImageFix"/>
<feBlend mode="normal" in="SourceGraphic" in2="BackgroundImageFix" result="shape"/>
<feGaussianBlur stdDeviation="0.25" result="effect1_foregroundBlur_277_11181"/>
</filter>
<filter id="filter4_i_277_11181" x="4.17188" y="2.33008" width="24.6367" height="29.6699" filterUnits="userSpaceOnUse" color-interpolation-filters="sRGB">
<feFlood flood-opacity="0" result="BackgroundImageFix"/>
<feBlend mode="normal" in="SourceGraphic" in2="BackgroundImageFix" result="shape"/>
<feColorMatrix in="SourceAlpha" type="matrix" values="0 0 0 0 0 0 0 0 0 0 0 0 0 0 0 0 0 0 127 0" result="hardAlpha"/>
<feOffset dx="1"/>
<feGaussianBlur stdDeviation="1.25"/>
<feComposite in2="hardAlpha" operator="arithmetic" k2="-1" k3="1"/>
<feColorMatrix type="matrix" values="0 0 0 0 0.913725 0 0 0 0 0.686275 0 0 0 0 0.592157 0 0 0 1 0"/>
<feBlend mode="normal" in2="shape" result="effect1_innerShadow_277_11181"/>
</filter>
<filter id="filter5_i_277_11181" x="7.92578" y="12.7443" width="4.04766" height="1.53301" filterUnits="userSpaceOnUse" color-interpolation-filters="sRGB">
<feFlood flood-opacity="0" result="BackgroundImageFix"/>
<feBlend mode="normal" in="SourceGraphic" in2="BackgroundImageFix" result="shape"/>
<feColorMatrix in="SourceAlpha" type="matrix" values="0 0 0 0 0 0 0 0 0 0 0 0 0 0 0 0 0 0 127 0" result="hardAlpha"/>
<feOffset dx="0.2" dy="-0.2"/>
<feGaussianBlur stdDeviation="0.2"/>
<feComposite in2="hardAlpha" operator="arithmetic" k2="-1" k3="1"/>
<feColorMatrix type="matrix" values="0 0 0 0 0.0352941 0 0 0 0 0.027451 0 0 0 0 0.0313726 0 0 0 1 0"/>
<feBlend mode="normal" in2="shape" result="effect1_innerShadow_277_11181"/>
</filter>
<filter id="filter6_f_277_11181" x="7.97734" y="12.9944" width="3.74453" height="1.23281" filterUnits="userSpaceOnUse" color-interpolation-filters="sRGB">
<feFlood flood-opacity="0" result="BackgroundImageFix"/>
<feBlend mode="normal" in="SourceGraphic" in2="BackgroundImageFix" result="shape"/>
<feGaussianBlur stdDeviation="0.15" result="effect1_foregroundBlur_277_11181"/>
</filter>
<filter id="filter7_i_277_11181" x="19.5703" y="12.7443" width="4.04766" height="1.53301" filterUnits="userSpaceOnUse" color-interpolation-filters="sRGB">
<feFlood flood-opacity="0" result="BackgroundImageFix"/>
<feBlend mode="normal" in="SourceGraphic" in2="BackgroundImageFix" result="shape"/>
<feColorMatrix in="SourceAlpha" type="matrix" values="0 0 0 0 0 0 0 0 0 0 0 0 0 0 0 0 0 0 127 0" result="hardAlpha"/>
<feOffset dx="0.2" dy="-0.2"/>
<feGaussianBlur stdDeviation="0.2"/>
<feComposite in2="hardAlpha" operator="arithmetic" k2="-1" k3="1"/>
<feColorMatrix type="matrix" values="0 0 0 0 0.0352941 0 0 0 0 0.027451 0 0 0 0 0.0313726 0 0 0 1 0"/>
<feBlend mode="normal" in2="shape" result="effect1_innerShadow_277_11181"/>
</filter>
<filter id="filter8_f_277_11181" x="19.6219" y="12.9944" width="3.74453" height="1.23281" filterUnits="userSpaceOnUse" color-interpolation-filters="sRGB">
<feFlood flood-opacity="0" result="BackgroundImageFix"/>
<feBlend mode="normal" in="SourceGraphic" in2="BackgroundImageFix" result="shape"/>
<feGaussianBlur stdDeviation="0.15" result="effect1_foregroundBlur_277_11181"/>
</filter>
<filter id="filter9_i_277_11181" x="2.94141" y="-1" width="27.7852" height="19.2402" filterUnits="userSpaceOnUse" color-interpolation-filters="sRGB">
<feFlood flood-opacity="0" result="BackgroundImageFix"/>
<feBlend mode="normal" in="SourceGraphic" in2="BackgroundImageFix" result="shape"/>
<feColorMatrix in="SourceAlpha" type="matrix" values="0 0 0 0 0 0 0 0 0 0 0 0 0 0 0 0 0 0 127 0" result="hardAlpha"/>
<feOffset dy="-1"/>
<feGaussianBlur stdDeviation="0.5"/>
<feComposite in2="hardAlpha" operator="arithmetic" k2="-1" k3="1"/>
<feColorMatrix type="matrix" values="0 0 0 0 0.105882 0 0 0 0 0.0588235 0 0 0 0 0.0745098 0 0 0 1 0"/>
<feBlend mode="normal" in2="shape" result="effect1_innerShadow_277_11181"/>
</filter>
<filter id="filter10_f_277_11181" x="6.79219" y="7.05488" width="4.38047" height="4.129" filterUnits="userSpaceOnUse" color-interpolation-filters="sRGB">
<feFlood flood-opacity="0" result="BackgroundImageFix"/>
<feBlend mode="normal" in="SourceGraphic" in2="BackgroundImageFix" result="shape"/>
<feGaussianBlur stdDeviation="0.1" result="effect1_foregroundBlur_277_11181"/>
</filter>
<filter id="filter11_f_277_11181" x="13.1094" y="17.792" width="4.84375" height="5.65186" filterUnits="userSpaceOnUse" color-interpolation-filters="sRGB">
<feFlood flood-opacity="0" result="BackgroundImageFix"/>
<feBlend mode="normal" in="SourceGraphic" in2="BackgroundImageFix" result="shape"/>
<feGaussianBlur stdDeviation="0.25" result="effect1_foregroundBlur_277_11181"/>
</filter>
<filter id="filter12_f_277_11181" x="13.7227" y="17.3994" width="4.53125" height="5.6543" filterUnits="userSpaceOnUse" color-interpolation-filters="sRGB">
<feFlood flood-opacity="0" result="BackgroundImageFix"/>
<feBlend mode="normal" in="SourceGraphic" in2="BackgroundImageFix" result="shape"/>
<feGaussianBlur stdDeviation="0.125" result="effect1_foregroundBlur_277_11181"/>
</filter>
<filter id="filter13_f_277_11181" x="19.2594" y="16.3258" width="1.70781" height="1.46221" filterUnits="userSpaceOnUse" color-interpolation-filters="sRGB">
<feFlood flood-opacity="0" result="BackgroundImageFix"/>
<feBlend mode="normal" in="SourceGraphic" in2="BackgroundImageFix" result="shape"/>
<feGaussianBlur stdDeviation="0.05" result="effect1_foregroundBlur_277_11181"/>
</filter>
<filter id="filter14_f_277_11181" x="21.5734" y="16.6721" width="1.66172" height="1.7042" filterUnits="userSpaceOnUse" color-interpolation-filters="sRGB">
<feFlood flood-opacity="0" result="BackgroundImageFix"/>
<feBlend mode="normal" in="SourceGraphic" in2="BackgroundImageFix" result="shape"/>
<feGaussianBlur stdDeviation="0.1" result="effect1_foregroundBlur_277_11181"/>
</filter>
<filter id="filter15_f_277_11181" x="11.3547" y="16.5178" width="1.9" height="2.02158" filterUnits="userSpaceOnUse" color-interpolation-filters="sRGB">
<feFlood flood-opacity="0" result="BackgroundImageFix"/>
<feBlend mode="normal" in="SourceGraphic" in2="BackgroundImageFix" result="shape"/>
<feGaussianBlur stdDeviation="0.1" result="effect1_foregroundBlur_277_11181"/>
</filter>
<filter id="filter16_f_277_11181" x="9.26719" y="16.3146" width="2.02813" height="1.47832" filterUnits="userSpaceOnUse" color-interpolation-filters="sRGB">
<feFlood flood-opacity="0" result="BackgroundImageFix"/>
<feBlend mode="normal" in="SourceGraphic" in2="BackgroundImageFix" result="shape"/>
<feGaussianBlur stdDeviation="0.05" result="effect1_foregroundBlur_277_11181"/>
</filter>
<filter id="filter17_f_277_11181" x="10.4922" y="0.71875" width="19.5234" height="12.5991" filterUnits="userSpaceOnUse" color-interpolation-filters="sRGB">
<feFlood flood-opacity="0" result="BackgroundImageFix"/>
<feBlend mode="normal" in="SourceGraphic" in2="BackgroundImageFix" result="shape"/>
<feGaussianBlur stdDeviation="0.5" result="effect1_foregroundBlur_277_11181"/>
</filter>
<filter id="filter18_f_277_11181" x="11.168" y="4.92676" width="2.00391" height="3.42578" filterUnits="userSpaceOnUse" color-interpolation-filters="sRGB">
<feFlood flood-opacity="0" result="BackgroundImageFix"/>
<feBlend mode="normal" in="SourceGraphic" in2="BackgroundImageFix" result="shape"/>
<feGaussianBlur stdDeviation="0.125" result="effect1_foregroundBlur_277_11181"/>
</filter>
<filter id="filter19_f_277_11181" x="15.9531" y="3.54004" width="13.8789" height="6.94043" filterUnits="userSpaceOnUse" color-interpolation-filters="sRGB">
<feFlood flood-opacity="0" result="BackgroundImageFix"/>
<feBlend mode="normal" in="SourceGraphic" in2="BackgroundImageFix" result="shape"/>
<feGaussianBlur stdDeviation="0.75" result="effect1_foregroundBlur_277_11181"/>
</filter>
<filter id="filter20_f_277_11181" x="27.7328" y="13.642" width="1.19844" height="4.17646" filterUnits="userSpaceOnUse" color-interpolation-filters="sRGB">
<feFlood flood-opacity="0" result="BackgroundImageFix"/>
<feBlend mode="normal" in="SourceGraphic" in2="BackgroundImageFix" result="shape"/>
<feGaussianBlur stdDeviation="0.2" result="effect1_foregroundBlur_277_11181"/>
</filter>
<filter id="filter21_f_277_11181" x="11.4445" y="7.33223" width="1.11094" height="3.53086" filterUnits="userSpaceOnUse" color-interpolation-filters="sRGB">
<feFlood flood-opacity="0" result="BackgroundImageFix"/>
<feBlend mode="normal" in="SourceGraphic" in2="BackgroundImageFix" result="shape"/>
<feGaussianBlur stdDeviation="0.1" result="effect1_foregroundBlur_277_11181"/>
</filter>
<filter id="filter22_f_277_11181" x="11.4484" y="4.69844" width="3.23203" height="4.69736" filterUnits="userSpaceOnUse" color-interpolation-filters="sRGB">
<feFlood flood-opacity="0" result="BackgroundImageFix"/>
<feBlend mode="normal" in="SourceGraphic" in2="BackgroundImageFix" result="shape"/>
<feGaussianBlur stdDeviation="0.1" result="effect1_foregroundBlur_277_11181"/>
</filter>
<radialGradient id="paint0_radial_277_11181" cx="0" cy="0" r="1" gradientUnits="userSpaceOnUse" gradientTransform="translate(1 17.9509) scale(3.93875 6.82233)">
<stop offset="0.351" stop-color="#CF9888"/>
<stop offset="1" stop-color="#BE8C77"/>
</radialGradient>
<linearGradient id="paint1_linear_277_11181" x1="4.74892" y1="18.6293" x2="3.17516" y2="18.6293" gradientUnits="userSpaceOnUse">
<stop stop-color="#BA7C6B"/>
<stop offset="1" stop-color="#BE8474"/>
</linearGradient>
<linearGradient id="paint2_linear_277_11181" x1="29.6933" y1="15.526" x2="27.8895" y2="21.1718" gradientUnits="userSpaceOnUse">
<stop stop-color="#FBD3BD"/>
<stop offset="1" stop-color="#F0B8A4"/>
</linearGradient>
<radialGradient id="paint3_radial_277_11181" cx="0" cy="0" r="1" gradientUnits="userSpaceOnUse" gradientTransform="translate(28.0896 17.3632) rotate(-35.7805) scale(2.28719 2.60219)">
<stop offset="0.543" stop-color="#D9AA94"/>
<stop offset="1" stop-color="#D9AA94" stop-opacity="0"/>
</radialGradient>
<radialGradient id="paint4_radial_277_11181" cx="0" cy="0" r="1" gradientUnits="userSpaceOnUse" gradientTransform="translate(27.1514 19.9485) rotate(-61.2196) scale(4.19074 2.46652)">
<stop offset="0.755" stop-color="#D6A38D" stop-opacity="0"/>
<stop offset="0.916" stop-color="#D6A38D"/>
</radialGradient>
<radialGradient id="paint5_radial_277_11181" cx="0" cy="0" r="1" gradientUnits="userSpaceOnUse" gradientTransform="translate(27.2528 17.9515) rotate(44.4131) scale(0.891782 1.14945)">
<stop stop-color="#D5A58E"/>
<stop offset="1" stop-color="#D5A58E" stop-opacity="0"/>
</radialGradient>
<radialGradient id="paint6_radial_277_11181" cx="0" cy="0" r="1" gradientUnits="userSpaceOnUse" gradientTransform="translate(24.0009 17.165) rotate(152.82) scale(19.765 22.252)">
<stop stop-color="#FFDCC1"/>
<stop offset="0.401" stop-color="#EEB8A8"/>
<stop offset="0.854" stop-color="#D7A296"/>
</radialGradient>
<radialGradient id="paint7_radial_277_11181" cx="0" cy="0" r="1" gradientUnits="userSpaceOnUse" gradientTransform="translate(20.3253 18.7044) rotate(180) scale(5.47647 3.40203)">
<stop stop-color="#FFE0C1"/>
<stop offset="1" stop-color="#FFE0C1" stop-opacity="0"/>
</radialGradient>
<radialGradient id="paint8_radial_277_11181" cx="0" cy="0" r="1" gradientUnits="userSpaceOnUse" gradientTransform="translate(21.6581 16.1094) rotate(-90) scale(2.82467 3.71867)">
<stop offset="0.232" stop-color="#F9BDAB"/>
<stop offset="1" stop-color="#F9BDAB" stop-opacity="0"/>
</radialGradient>
<radialGradient id="paint9_radial_277_11181" cx="0" cy="0" r="1" gradientUnits="userSpaceOnUse" gradientTransform="translate(11.7509 16.5214) rotate(-90) scale(2.59527 2.83806)">
<stop offset="0.053" stop-color="#CF968E"/>
<stop offset="1" stop-color="#CF968E" stop-opacity="0"/>
</radialGradient>
<linearGradient id="paint10_linear_277_11181" x1="29.0427" y1="17.165" x2="25.532" y2="17.165" gradientUnits="userSpaceOnUse">
<stop stop-color="#FFD4B8"/>
<stop offset="1" stop-color="#FFD4B8" stop-opacity="0"/>
</linearGradient>
<radialGradient id="paint11_radial_277_11181" cx="0" cy="0" r="1" gradientUnits="userSpaceOnUse" gradientTransform="translate(14.0925 7.68548) rotate(40.3104) scale(5.62258 3.33699)">
<stop offset="0.015" stop-color="#AB7A6E"/>
<stop offset="1" stop-color="#AB7A6E" stop-opacity="0"/>
</radialGradient>
<radialGradient id="paint12_radial_277_11181" cx="0" cy="0" r="1" gradientUnits="userSpaceOnUse" gradientTransform="translate(7.85913 8.13136) rotate(42.5484) scale(4.37709 2.289)">
<stop stop-color="#B48276"/>
<stop offset="1" stop-color="#B48276" stop-opacity="0"/>
</radialGradient>
<radialGradient id="paint13_radial_277_11181" cx="0" cy="0" r="1" gradientUnits="userSpaceOnUse" gradientTransform="translate(4.6084 9.13587) rotate(106.461) scale(3.69785 2.83014)">
<stop offset="0.51" stop-color="#AD7966"/>
<stop offset="1" stop-color="#AD7966" stop-opacity="0"/>
</radialGradient>
<radialGradient id="paint14_radial_277_11181" cx="0" cy="0" r="1" gradientUnits="userSpaceOnUse" gradientTransform="translate(17.6597 14.9957) rotate(96.8856) scale(18.0318 20.6251)">
<stop offset="0.638" stop-color="#B57894" stop-opacity="0"/>
<stop offset="1" stop-color="#B57894"/>
</radialGradient>
<radialGradient id="paint15_radial_277_11181" cx="0" cy="0" r="1" gradientUnits="userSpaceOnUse" gradientTransform="translate(9.76896 10.4676) rotate(120.513) scale(1.2418 2.6639)">
<stop offset="0.15" stop-color="#B28075"/>
<stop offset="1" stop-color="#B28075" stop-opacity="0"/>
</radialGradient>
<linearGradient id="paint16_linear_277_11181" x1="10.9922" y1="13.6106" x2="8.16581" y2="14.11" gradientUnits="userSpaceOnUse">
<stop stop-color="#353535"/>
<stop offset="1" stop-color="#353535" stop-opacity="0"/>
</linearGradient>
<linearGradient id="paint17_linear_277_11181" x1="22.6368" y1="13.6106" x2="19.8103" y2="14.11" gradientUnits="userSpaceOnUse">
<stop stop-color="#353535"/>
<stop offset="1" stop-color="#353535" stop-opacity="0"/>
</linearGradient>
<radialGradient id="paint18_radial_277_11181" cx="0" cy="0" r="1" gradientUnits="userSpaceOnUse" gradientTransform="translate(4.17997 16.7395) rotate(-90) scale(7.15648 8.4362)">
<stop stop-color="#1A151A"/>
<stop offset="1" stop-color="#1A151A" stop-opacity="0"/>
</radialGradient>
<radialGradient id="paint19_radial_277_11181" cx="0" cy="0" r="1" gradientUnits="userSpaceOnUse" gradientTransform="translate(26.8387 2.65207) rotate(65.6774) scale(6.5316 4.50543)">
<stop stop-color="#4F484B"/>
<stop offset="1" stop-color="#4F484B" stop-opacity="0"/>
</radialGradient>
<radialGradient id="paint20_radial_277_11181" cx="0" cy="0" r="1" gradientUnits="userSpaceOnUse" gradientTransform="translate(8.87821 1.39909) rotate(149.295) scale(5.52144 5.17135)">
<stop stop-color="#434041"/>
<stop offset="1" stop-color="#434041" stop-opacity="0"/>
</radialGradient>
<radialGradient id="paint21_radial_277_11181" cx="0" cy="0" r="1" gradientUnits="userSpaceOnUse" gradientTransform="translate(2.39005 9.46582) rotate(27.8798) scale(5.19175 7.99541)">
<stop stop-color="#514745"/>
<stop offset="1" stop-color="#514745" stop-opacity="0"/>
</radialGradient>
<radialGradient id="paint22_radial_277_11181" cx="0" cy="0" r="1" gradientUnits="userSpaceOnUse" gradientTransform="translate(27.6787 3.71532) rotate(67.7896) scale(8.06455 2.23385)">
<stop stop-color="#514B4D"/>
<stop offset="1" stop-color="#514B4D" stop-opacity="0"/>
</radialGradient>
<linearGradient id="paint23_linear_277_11181" x1="7.90392" y1="8.08157" x2="10.8585" y2="11.1462" gradientUnits="userSpaceOnUse">
<stop stop-color="#3D383A"/>
<stop offset="1" stop-color="#3D383A" stop-opacity="0"/>
</linearGradient>
<linearGradient id="paint24_linear_277_11181" x1="17.5795" y1="19.859" x2="16.2541" y2="20.0313" gradientUnits="userSpaceOnUse">
<stop stop-color="#FFDAC2"/>
<stop offset="1" stop-color="#FFDAC2" stop-opacity="0"/>
</linearGradient>
<linearGradient id="paint25_linear_277_11181" x1="13.6941" y1="21.4817" x2="15.5667" y2="21.7728" gradientUnits="userSpaceOnUse">
<stop stop-color="#DEA790"/>
<stop offset="1" stop-color="#DEA790" stop-opacity="0"/>
</linearGradient>
<linearGradient id="paint26_linear_277_11181" x1="15.9885" y1="22.9264" x2="15.9885" y2="21.2147" gradientUnits="userSpaceOnUse">
<stop stop-color="#D49597"/>
<stop offset="1" stop-color="#D49597" stop-opacity="0"/>
</linearGradient>
<radialGradient id="paint27_radial_277_11181" cx="0" cy="0" r="1" gradientUnits="userSpaceOnUse" gradientTransform="translate(16.6987 21.4338) rotate(180) scale(1.34502 0.417659)">
<stop stop-color="#FFD6C2"/>
<stop offset="1" stop-color="#FFD6C2" stop-opacity="0"/>
</radialGradient>
<radialGradient id="paint28_radial_277_11181" cx="0" cy="0" r="1" gradientUnits="userSpaceOnUse" gradientTransform="translate(15.9885 19.1994) rotate(90) scale(3.74439 3.15906)">
<stop offset="0.867" stop-color="#CD8D8E" stop-opacity="0"/>
<stop offset="1" stop-color="#CD8D8E"/>
</radialGradient>
<radialGradient id="paint29_radial_277_11181" cx="0" cy="0" r="1" gradientUnits="userSpaceOnUse" gradientTransform="translate(20.9853 17.2892) rotate(90) scale(2.06277 3.31498)">
<stop offset="0.802" stop-color="#7D574A"/>
<stop offset="1" stop-color="#664944"/>
</radialGradient>
<radialGradient id="paint30_radial_277_11181" cx="0" cy="0" r="1" gradientUnits="userSpaceOnUse" gradientTransform="translate(20.4018 17.5042) rotate(-128.098) scale(0.965544 1.33266)">
<stop offset="0.766" stop-color="#FFE6E2" stop-opacity="0"/>
<stop offset="0.966" stop-color="#FFE6E2"/>
</radialGradient>
<linearGradient id="paint31_linear_277_11181" x1="22.9863" y1="17.4267" x2="22.185" y2="17.9259" gradientUnits="userSpaceOnUse">
<stop stop-color="#B4948D"/>
<stop offset="1" stop-color="#B4948D" stop-opacity="0"/>
</linearGradient>
<radialGradient id="paint32_radial_277_11181" cx="0" cy="0" r="1" gradientUnits="userSpaceOnUse" gradientTransform="translate(10.9742 17.2964) rotate(90) scale(2.0549 3.30234)">
<stop offset="0.802" stop-color="#7D574A"/>
<stop offset="1" stop-color="#664944"/>
</radialGradient>
<linearGradient id="paint33_linear_277_11181" x1="12.8771" y1="17.4321" x2="12.0781" y2="17.929" gradientUnits="userSpaceOnUse">
<stop stop-color="#B4948D"/>
<stop offset="1" stop-color="#B4948D" stop-opacity="0"/>
</linearGradient>
<radialGradient id="paint34_radial_277_11181" cx="0" cy="0" r="1" gradientUnits="userSpaceOnUse" gradientTransform="translate(10.6244 17.7768) rotate(-119.061) scale(1.25452 1.51625)">
<stop offset="0.766" stop-color="#FFE6E2" stop-opacity="0"/>
<stop offset="0.966" stop-color="#FFE6E2"/>
</radialGradient>
<radialGradient id="paint35_radial_277_11181" cx="0" cy="0" r="1" gradientUnits="userSpaceOnUse" gradientTransform="translate(19.3656 10.953) rotate(-66.7748) scale(7.92546 13.0625)">
<stop offset="0.914" stop-color="#4C4749" stop-opacity="0"/>
<stop offset="1" stop-color="#4C4749"/>
</radialGradient>
<radialGradient id="paint36_radial_277_11181" cx="0" cy="0" r="1" gradientUnits="userSpaceOnUse" gradientTransform="translate(19.5245 2.61268) rotate(101.316) scale(8.2662 13.6567)">
<stop offset="0.739" stop-color="#221C27" stop-opacity="0"/>
<stop offset="1" stop-color="#221C27"/>
</radialGradient>
<linearGradient id="paint37_linear_277_11181" x1="11.4933" y1="5.90202" x2="13.7346" y2="9.31019" gradientUnits="userSpaceOnUse">
<stop stop-color="#261C1C"/>
<stop offset="1" stop-color="#261C1C" stop-opacity="0"/>
</linearGradient>
<linearGradient id="paint38_linear_277_11181" x1="-nan" y1="-nan" x2="-nan" y2="-nan" gradientUnits="userSpaceOnUse">
<stop offset="0.356" stop-color="#3B3739"/>
<stop offset="1" stop-color="#3B3739" stop-opacity="0"/>
</linearGradient>
<linearGradient id="paint39_linear_277_11181" x1="11.8157" y1="10.2669" x2="12.0812" y2="7.59494" gradientUnits="userSpaceOnUse">
<stop offset="0.37" stop-color="#3D383A"/>
<stop offset="1" stop-color="#3D383A" stop-opacity="0"/>
</linearGradient>
<linearGradient id="paint40_linear_277_11181" x1="11.986" y1="5.09863" x2="14.4242" y2="8.76439" gradientUnits="userSpaceOnUse">
<stop stop-color="#3D383A"/>
<stop offset="1" stop-color="#3D383A" stop-opacity="0"/>
</linearGradient>
</defs>
</svg>
