<svg width="32" height="32" viewBox="0 0 32 32" fill="none" xmlns="http://www.w3.org/2000/svg">
<path fill-rule="evenodd" clip-rule="evenodd" d="M12.61 5.79361C12.5515 6.48291 11.7208 6.82865 11.1927 6.38071C10.503 5.79361 9.77096 5.22064 9.22657 4.91512C7.74957 4.08339 6.86358 3.92031 5.43428 5.3174L5.39633 5.35654C5.38901 5.3637 5.38178 5.37095 5.37464 5.37828L5.35729 5.39568C3.96486 6.82865 4.12536 7.71583 4.95604 9.19664C5.26403 9.74896 5.84529 10.4926 6.43739 11.1917C6.88527 11.7201 6.54041 12.5562 5.85071 12.6127C4.93978 12.6877 4.00499 12.8019 3.3977 12.9715C1.7667 13.4314 1.02603 13.9446 1 15.9451V16.056C1.02603 18.0565 1.7667 18.5697 3.39662 19.0285C3.99523 19.197 4.91267 19.3101 5.81058 19.3851C6.4992 19.4427 6.84406 20.2766 6.39727 20.805C5.82034 21.49 5.25752 22.2141 4.95496 22.7523C4.12536 24.2331 3.96486 25.1213 5.35729 26.5543L5.37464 26.5728L5.39633 26.5945L5.43428 26.6326C6.86358 28.0286 7.74957 27.8666 9.22657 27.0349C9.77747 26.725 10.5214 26.1401 11.2198 25.5454C11.7479 25.0974 12.5808 25.4432 12.6371 26.1346C12.7131 27.0479 12.8258 27.9873 12.9972 28.5972C13.4537 30.2324 13.9667 30.975 15.962 31H16.0716C18.0669 30.9739 18.5799 30.2324 19.0375 28.5972C19.2034 28.0036 19.3151 27.0979 19.39 26.2075C19.4485 25.5171 20.2792 25.1724 20.8073 25.6204C21.497 26.2064 22.229 26.7794 22.7734 27.086C24.2504 27.9177 25.1353 28.0797 26.5657 26.6837L26.6037 26.6445L26.6167 26.6315L26.6254 26.6228L26.6427 26.6054C28.0351 25.1724 27.8746 24.2842 27.044 22.8034C26.736 22.2521 26.1547 21.5074 25.5626 20.8094C25.1147 20.2799 25.4596 19.4449 26.1493 19.3884C27.0602 19.3123 27.995 19.1992 28.6023 19.0285C30.2333 18.5697 30.974 18.0565 31 16.056V15.9451C30.974 13.9446 30.2333 13.4314 28.6034 12.9726C28.0048 12.8041 27.0873 12.691 26.1894 12.616C25.5008 12.5584 25.1559 11.7245 25.6027 11.1961C26.1797 10.5111 26.7425 9.78701 27.045 9.24774C27.8746 7.76693 28.0351 6.87975 26.6427 5.44678L26.6254 5.4283L26.6037 5.40655L26.5657 5.3685C25.1353 3.97141 24.2504 4.1334 22.7734 4.96622C22.2225 5.27608 21.4786 5.86102 20.7802 6.45573C20.2521 6.90367 19.4192 6.55793 19.3618 5.86645C19.2869 4.95318 19.1742 4.01272 19.0039 3.40387C18.5463 1.76867 18.0333 1.02609 16.038 1H15.9284C13.9331 1.02609 13.4201 1.76867 12.9625 3.40278C12.7966 3.99641 12.6849 4.90316 12.61 5.79252V5.79361ZM15.9957 21.8781C17.5505 21.8781 19.0416 21.2589 20.1411 20.1566C21.2405 19.0544 21.8582 17.5594 21.8582 16.0005C21.8582 14.4417 21.2405 12.9467 20.1411 11.8445C19.0416 10.7422 17.5505 10.123 15.9957 10.123C14.4408 10.123 12.9497 10.7422 11.8503 11.8445C10.7508 12.9467 10.1332 14.4417 10.1332 16.0005C10.1332 17.5594 10.7508 19.0544 11.8503 20.1566C12.9497 21.2589 14.4408 21.8781 15.9957 21.8781Z" fill="url(#paint0_linear_277_13098)"/>
<g filter="url(#filter0_iii_277_13098)">
<path fill-rule="evenodd" clip-rule="evenodd" d="M12.61 5.79361C12.5515 6.48291 11.7208 6.82865 11.1927 6.38071C10.503 5.79361 9.77096 5.22064 9.22657 4.91512C7.74957 4.08339 6.86358 3.92031 5.43428 5.3174L5.39633 5.35654C5.38901 5.3637 5.38178 5.37095 5.37464 5.37828L5.35729 5.39568C3.96486 6.82865 4.12536 7.71583 4.95604 9.19664C5.26403 9.74896 5.84529 10.4926 6.43739 11.1917C6.88527 11.7201 6.54041 12.5562 5.85071 12.6127C4.93978 12.6877 4.00499 12.8019 3.3977 12.9715C1.7667 13.4314 1.02603 13.9446 1 15.9451V16.056C1.02603 18.0565 1.7667 18.5697 3.39662 19.0285C3.99523 19.197 4.91267 19.3101 5.81058 19.3851C6.4992 19.4427 6.84406 20.2766 6.39727 20.805C5.82034 21.49 5.25752 22.2141 4.95496 22.7523C4.12536 24.2331 3.96486 25.1213 5.35729 26.5543L5.37464 26.5728L5.39633 26.5945L5.43428 26.6326C6.86358 28.0286 7.74957 27.8666 9.22657 27.0349C9.77747 26.725 10.5214 26.1401 11.2198 25.5454C11.7479 25.0974 12.5808 25.4432 12.6371 26.1346C12.7131 27.0479 12.8258 27.9873 12.9972 28.5972C13.4537 30.2324 13.9667 30.975 15.962 31H16.0716C18.0669 30.9739 18.5799 30.2324 19.0375 28.5972C19.2034 28.0036 19.3151 27.0979 19.39 26.2075C19.4485 25.5171 20.2792 25.1724 20.8073 25.6204C21.497 26.2064 22.229 26.7794 22.7734 27.086C24.2504 27.9177 25.1353 28.0797 26.5657 26.6837L26.6037 26.6445L26.6167 26.6315L26.6254 26.6228L26.6427 26.6054C28.0351 25.1724 27.8746 24.2842 27.044 22.8034C26.736 22.2521 26.1547 21.5074 25.5626 20.8094C25.1147 20.2799 25.4596 19.4449 26.1493 19.3884C27.0602 19.3123 27.995 19.1992 28.6023 19.0285C30.2333 18.5697 30.974 18.0565 31 16.056V15.9451C30.974 13.9446 30.2333 13.4314 28.6034 12.9726C28.0048 12.8041 27.0873 12.691 26.1894 12.616C25.5008 12.5584 25.1559 11.7245 25.6027 11.1961C26.1797 10.5111 26.7425 9.78701 27.045 9.24774C27.8746 7.76693 28.0351 6.87975 26.6427 5.44678L26.6254 5.4283L26.6037 5.40655L26.5657 5.3685C25.1353 3.97141 24.2504 4.1334 22.7734 4.96622C22.2225 5.27608 21.4786 5.86102 20.7802 6.45573C20.2521 6.90367 19.4192 6.55793 19.3618 5.86645C19.2869 4.95318 19.1742 4.01272 19.0039 3.40387C18.5463 1.76867 18.0333 1.02609 16.038 1H15.9284C13.9331 1.02609 13.4201 1.76867 12.9625 3.40278C12.7966 3.99641 12.6849 4.90316 12.61 5.79252V5.79361ZM15.9957 21.8781C17.5505 21.8781 19.0416 21.2589 20.1411 20.1566C21.2405 19.0544 21.8582 17.5594 21.8582 16.0005C21.8582 14.4417 21.2405 12.9467 20.1411 11.8445C19.0416 10.7422 17.5505 10.123 15.9957 10.123C14.4408 10.123 12.9497 10.7422 11.8503 11.8445C10.7508 12.9467 10.1332 14.4417 10.1332 16.0005C10.1332 17.5594 10.7508 19.0544 11.8503 20.1566C12.9497 21.2589 14.4408 21.8781 15.9957 21.8781Z" fill="url(#paint1_linear_277_13098)"/>
</g>
<g filter="url(#filter1_f_277_13098)">
<path fill-rule="evenodd" clip-rule="evenodd" d="M15.9992 24.8505C18.3404 24.8505 20.5857 23.9181 22.2411 22.2584C23.8966 20.5987 24.8266 18.3476 24.8266 16.0005C24.8266 13.6533 23.8966 11.4022 22.2411 9.74252C20.5857 8.08281 18.3404 7.15039 15.9992 7.15039C13.6581 7.15039 11.4128 8.08281 9.75735 9.74252C8.1019 11.4022 7.17188 13.6533 7.17188 16.0005C7.17188 18.3476 8.1019 20.5987 9.75735 22.2584C11.4128 23.9181 13.6581 24.8505 15.9992 24.8505ZM15.9992 21.4399C17.4382 21.4399 18.8181 20.8668 19.8356 19.8467C20.8531 18.8266 21.4247 17.4431 21.4247 16.0005C21.4247 14.5578 20.8531 13.1743 19.8356 12.1542C18.8181 11.1341 17.4382 10.561 15.9992 10.561C14.5603 10.561 13.1803 11.1341 12.1629 12.1542C11.1454 13.1743 10.5738 14.5578 10.5738 16.0005C10.5738 17.4431 11.1454 18.8266 12.1629 19.8467C13.1803 20.8668 14.5603 21.4399 15.9992 21.4399Z" fill="url(#paint2_linear_277_13098)"/>
<path fill-rule="evenodd" clip-rule="evenodd" d="M15.9992 24.8505C18.3404 24.8505 20.5857 23.9181 22.2411 22.2584C23.8966 20.5987 24.8266 18.3476 24.8266 16.0005C24.8266 13.6533 23.8966 11.4022 22.2411 9.74252C20.5857 8.08281 18.3404 7.15039 15.9992 7.15039C13.6581 7.15039 11.4128 8.08281 9.75735 9.74252C8.1019 11.4022 7.17188 13.6533 7.17188 16.0005C7.17188 18.3476 8.1019 20.5987 9.75735 22.2584C11.4128 23.9181 13.6581 24.8505 15.9992 24.8505ZM15.9992 21.4399C17.4382 21.4399 18.8181 20.8668 19.8356 19.8467C20.8531 18.8266 21.4247 17.4431 21.4247 16.0005C21.4247 14.5578 20.8531 13.1743 19.8356 12.1542C18.8181 11.1341 17.4382 10.561 15.9992 10.561C14.5603 10.561 13.1803 11.1341 12.1629 12.1542C11.1454 13.1743 10.5738 14.5578 10.5738 16.0005C10.5738 17.4431 11.1454 18.8266 12.1629 19.8467C13.1803 20.8668 14.5603 21.4399 15.9992 21.4399Z" fill="url(#paint3_radial_277_13098)"/>
</g>
<g filter="url(#filter2_i_277_13098)">
<path fill-rule="evenodd" clip-rule="evenodd" d="M15.9992 24.5829C17.1315 24.5956 18.2552 24.3831 19.305 23.9575C20.3549 23.5318 21.3101 22.9017 22.1154 22.1034C22.9206 21.3051 23.5599 20.3546 23.9962 19.3069C24.4325 18.2591 24.6572 17.1351 24.6572 15.9997C24.6572 14.8644 24.4325 13.7403 23.9962 12.6926C23.5599 11.6449 22.9206 10.6944 22.1154 9.89606C21.3101 9.09778 20.3549 8.46758 19.305 8.04197C18.2552 7.61635 17.1315 7.40378 15.9992 7.41656C13.7285 7.41656 11.5508 8.32091 9.94515 9.93067C8.33953 11.5404 7.4375 13.7237 7.4375 16.0003C7.4375 18.2768 8.33953 20.4601 9.94515 22.0698C11.5508 23.6796 13.7285 24.584 15.9992 24.584V24.5829ZM15.9992 21.2744C16.6964 21.2845 17.3887 21.1554 18.0358 20.8949C18.6829 20.6343 19.2719 20.2474 19.7685 19.7566C20.2651 19.2658 20.6595 18.6809 20.9286 18.0359C21.1978 17.391 21.3364 16.6988 21.3364 15.9997C21.3364 15.3006 21.1978 14.6084 20.9286 13.9635C20.6595 13.3185 20.2651 12.7337 19.7685 12.2429C19.2719 11.7521 18.6829 11.3651 18.0358 11.1046C17.3887 10.844 16.6964 10.715 15.9992 10.725C14.6169 10.7449 13.298 11.3094 12.3275 12.2964C11.357 13.2835 10.813 14.6137 10.813 15.9997C10.813 17.3857 11.357 18.716 12.3275 19.703C13.298 20.69 14.6169 21.2545 15.9992 21.2744Z" fill="url(#paint4_radial_277_13098)"/>
</g>
<g filter="url(#filter3_f_277_13098)">
<path fill-rule="evenodd" clip-rule="evenodd" d="M16.0005 21.9887C16.7848 21.9887 17.5616 21.8338 18.2863 21.5328C19.011 21.2319 19.6694 20.7908 20.2241 20.2347C20.7787 19.6786 21.2187 19.0184 21.5189 18.2919C21.8191 17.5653 21.9736 16.7866 21.9736 16.0002C21.9736 15.2138 21.8191 14.4351 21.5189 13.7085C21.2187 12.9819 20.7787 12.3218 20.2241 11.7657C19.6694 11.2096 19.011 10.7685 18.2863 10.4676C17.5616 10.1666 16.7848 10.0117 16.0005 10.0117C14.4163 10.0117 12.897 10.6426 11.7768 11.7657C10.6567 12.8888 10.0273 14.412 10.0273 16.0002C10.0273 17.5884 10.6567 19.1116 11.7768 20.2347C12.897 21.3577 14.4163 21.9887 16.0005 21.9887ZM21.2622 16.0002C21.2622 16.6929 21.1261 17.3789 20.8616 18.0189C20.5972 18.659 20.2096 19.2405 19.721 19.7304C19.2324 20.2202 18.6524 20.6088 18.014 20.8739C17.3756 21.139 16.6914 21.2754 16.0005 21.2754C15.3095 21.2754 14.6253 21.139 13.9869 20.8739C13.3485 20.6088 12.7685 20.2202 12.2799 19.7304C11.7913 19.2405 11.4037 18.659 11.1393 18.0189C10.8748 17.3789 10.7387 16.6929 10.7387 16.0002C10.7387 14.6011 11.2931 13.2593 12.2799 12.27C13.2666 11.2807 14.605 10.7249 16.0005 10.7249C17.3959 10.7249 18.7343 11.2807 19.721 12.27C20.7078 13.2593 21.2622 14.6011 21.2622 16.0002Z" fill="url(#paint5_linear_277_13098)"/>
</g>
<path fill-rule="evenodd" clip-rule="evenodd" d="M16.0011 21.9468C17.5741 21.9468 19.0826 21.3204 20.1948 20.2053C21.3071 19.0902 21.9319 17.5778 21.9319 16.0008C21.9319 14.4238 21.3071 12.9114 20.1948 11.7963C19.0826 10.6811 17.5741 10.0547 16.0011 10.0547C14.4282 10.0547 12.9197 10.6811 11.8074 11.7963C10.6952 12.9114 10.0703 14.4238 10.0703 16.0008C10.0703 17.5778 10.6952 19.0902 11.8074 20.2053C12.9197 21.3204 14.4282 21.9468 16.0011 21.9468ZM16.0011 20.7063C17.2459 20.7063 18.4397 20.2105 19.3199 19.3281C20.2001 18.4456 20.6946 17.2487 20.6946 16.0008C20.6946 14.7528 20.2001 13.5559 19.3199 12.6734C18.4397 11.791 17.2459 11.2952 16.0011 11.2952C14.7563 11.2952 13.5625 11.791 12.6823 12.6734C11.8021 13.5559 11.3077 14.7528 11.3077 16.0008C11.3077 17.2487 11.8021 18.4456 12.6823 19.3281C13.5625 20.2105 14.7563 20.7063 16.0011 20.7063Z" fill="url(#paint6_radial_277_13098)"/>
<path fill-rule="evenodd" clip-rule="evenodd" d="M16.0011 21.9468C17.5741 21.9468 19.0826 21.3204 20.1948 20.2053C21.3071 19.0902 21.9319 17.5778 21.9319 16.0008C21.9319 14.4238 21.3071 12.9114 20.1948 11.7963C19.0826 10.6811 17.5741 10.0547 16.0011 10.0547C14.4282 10.0547 12.9197 10.6811 11.8074 11.7963C10.6952 12.9114 10.0703 14.4238 10.0703 16.0008C10.0703 17.5778 10.6952 19.0902 11.8074 20.2053C12.9197 21.3204 14.4282 21.9468 16.0011 21.9468ZM16.0011 20.7063C17.2459 20.7063 18.4397 20.2105 19.3199 19.3281C20.2001 18.4456 20.6946 17.2487 20.6946 16.0008C20.6946 14.7528 20.2001 13.5559 19.3199 12.6734C18.4397 11.791 17.2459 11.2952 16.0011 11.2952C14.7563 11.2952 13.5625 11.791 12.6823 12.6734C11.8021 13.5559 11.3077 14.7528 11.3077 16.0008C11.3077 17.2487 11.8021 18.4456 12.6823 19.3281C13.5625 20.2105 14.7563 20.7063 16.0011 20.7063Z" fill="url(#paint7_radial_277_13098)"/>
<path fill-rule="evenodd" clip-rule="evenodd" d="M15.9975 21.3678C16.7071 21.3779 17.4116 21.2466 18.0701 20.9813C18.7285 20.7161 19.3279 20.3223 19.8332 19.8228C20.3386 19.3233 20.7399 18.7281 21.0138 18.0718C21.2877 17.4154 21.4287 16.7111 21.4287 15.9996C21.4287 15.2881 21.2877 14.5838 21.0138 13.9274C20.7399 13.2711 20.3386 12.6759 19.8332 12.1764C19.3279 11.6769 18.7285 11.2831 18.0701 11.0179C17.4116 10.7527 16.7071 10.6213 15.9975 10.6314C14.5906 10.6515 13.2482 11.2259 12.2603 12.2304C11.2725 13.235 10.7187 14.589 10.7188 15.9996C10.7187 17.4103 11.2725 18.7642 12.2603 19.7688C13.2482 20.7733 14.5906 21.3477 15.9975 21.3678ZM20.691 16.0002C20.691 17.2481 20.1965 18.445 19.3163 19.3275C18.4361 20.2099 17.2423 20.7057 15.9975 20.7057C14.7527 20.7057 13.5589 20.2099 12.6787 19.3275C11.7985 18.445 11.3041 17.2481 11.3041 16.0002C11.3041 14.7522 11.7985 13.5553 12.6787 12.6728C13.5589 11.7904 14.7527 11.2946 15.9975 11.2946C17.2423 11.2946 18.4361 11.7904 19.3163 12.6728C20.1965 13.5553 20.691 14.7522 20.691 16.0002Z" fill="url(#paint8_radial_277_13098)"/>
<path fill-rule="evenodd" clip-rule="evenodd" d="M15.9975 21.3678C16.7071 21.3779 17.4116 21.2466 18.0701 20.9813C18.7285 20.7161 19.3279 20.3223 19.8332 19.8228C20.3386 19.3233 20.7399 18.7281 21.0138 18.0718C21.2877 17.4154 21.4287 16.7111 21.4287 15.9996C21.4287 15.2881 21.2877 14.5838 21.0138 13.9274C20.7399 13.2711 20.3386 12.6759 19.8332 12.1764C19.3279 11.6769 18.7285 11.2831 18.0701 11.0179C17.4116 10.7527 16.7071 10.6213 15.9975 10.6314C14.5906 10.6515 13.2482 11.2259 12.2603 12.2304C11.2725 13.235 10.7187 14.589 10.7188 15.9996C10.7187 17.4103 11.2725 18.7642 12.2603 19.7688C13.2482 20.7733 14.5906 21.3477 15.9975 21.3678ZM20.691 16.0002C20.691 17.2481 20.1965 18.445 19.3163 19.3275C18.4361 20.2099 17.2423 20.7057 15.9975 20.7057C14.7527 20.7057 13.5589 20.2099 12.6787 19.3275C11.7985 18.445 11.3041 17.2481 11.3041 16.0002C11.3041 14.7522 11.7985 13.5553 12.6787 12.6728C13.5589 11.7904 14.7527 11.2946 15.9975 11.2946C17.2423 11.2946 18.4361 11.7904 19.3163 12.6728C20.1965 13.5553 20.691 14.7522 20.691 16.0002Z" fill="url(#paint9_radial_277_13098)"/>
<path fill-rule="evenodd" clip-rule="evenodd" d="M15.9975 21.3678C16.7071 21.3779 17.4116 21.2466 18.0701 20.9813C18.7285 20.7161 19.3279 20.3223 19.8332 19.8228C20.3386 19.3233 20.7399 18.7281 21.0138 18.0718C21.2877 17.4154 21.4287 16.7111 21.4287 15.9996C21.4287 15.2881 21.2877 14.5838 21.0138 13.9274C20.7399 13.2711 20.3386 12.6759 19.8332 12.1764C19.3279 11.6769 18.7285 11.2831 18.0701 11.0179C17.4116 10.7527 16.7071 10.6213 15.9975 10.6314C14.5906 10.6515 13.2482 11.2259 12.2603 12.2304C11.2725 13.235 10.7187 14.589 10.7188 15.9996C10.7187 17.4103 11.2725 18.7642 12.2603 19.7688C13.2482 20.7733 14.5906 21.3477 15.9975 21.3678ZM20.691 16.0002C20.691 17.2481 20.1965 18.445 19.3163 19.3275C18.4361 20.2099 17.2423 20.7057 15.9975 20.7057C14.7527 20.7057 13.5589 20.2099 12.6787 19.3275C11.7985 18.445 11.3041 17.2481 11.3041 16.0002C11.3041 14.7522 11.7985 13.5553 12.6787 12.6728C13.5589 11.7904 14.7527 11.2946 15.9975 11.2946C17.2423 11.2946 18.4361 11.7904 19.3163 12.6728C20.1965 13.5553 20.691 14.7522 20.691 16.0002Z" fill="url(#paint10_radial_277_13098)"/>
<g filter="url(#filter4_f_277_13098)">
<path d="M15.9975 21.3678C16.7071 21.3779 17.4116 21.2466 18.0701 20.9813C18.7285 20.7161 19.3279 20.3223 19.8332 19.8228C20.3386 19.3233 20.7399 18.7281 21.0138 18.0718C21.2877 17.4154 21.4287 16.7111 21.4287 15.9996C21.4287 15.2881 21.2877 14.5838 21.0138 13.9274C20.7399 13.2711 20.3386 12.6759 19.8332 12.1764C19.3279 11.6769 18.7285 11.2831 18.0701 11.0179C17.4116 10.7527 16.7071 10.6213 15.9975 10.6314C14.5906 10.6515 13.2482 11.2259 12.2603 12.2304C11.2725 13.235 10.7187 14.589 10.7188 15.9996C10.7187 17.4103 11.2725 18.7642 12.2603 19.7688C13.2482 20.7733 14.5906 21.3477 15.9975 21.3678V21.3678Z" stroke="url(#paint11_radial_277_13098)" stroke-width="0.1"/>
</g>
<defs>
<filter id="filter0_iii_277_13098" x="0.8" y="0.8" width="30.4" height="30.4" filterUnits="userSpaceOnUse" color-interpolation-filters="sRGB">
<feFlood flood-opacity="0" result="BackgroundImageFix"/>
<feBlend mode="normal" in="SourceGraphic" in2="BackgroundImageFix" result="shape"/>
<feColorMatrix in="SourceAlpha" type="matrix" values="0 0 0 0 0 0 0 0 0 0 0 0 0 0 0 0 0 0 127 0" result="hardAlpha"/>
<feOffset dx="0.2" dy="-0.2"/>
<feGaussianBlur stdDeviation="0.2"/>
<feComposite in2="hardAlpha" operator="arithmetic" k2="-1" k3="1"/>
<feColorMatrix type="matrix" values="0 0 0 0 0.615686 0 0 0 0 0.533333 0 0 0 0 0.717647 0 0 0 1 0"/>
<feBlend mode="normal" in2="shape" result="effect1_innerShadow_277_13098"/>
<feColorMatrix in="SourceAlpha" type="matrix" values="0 0 0 0 0 0 0 0 0 0 0 0 0 0 0 0 0 0 127 0" result="hardAlpha"/>
<feOffset dx="-0.2" dy="0.2"/>
<feGaussianBlur stdDeviation="0.2"/>
<feComposite in2="hardAlpha" operator="arithmetic" k2="-1" k3="1"/>
<feColorMatrix type="matrix" values="0 0 0 0 0.941176 0 0 0 0 0.941176 0 0 0 0 0.960784 0 0 0 1 0"/>
<feBlend mode="normal" in2="effect1_innerShadow_277_13098" result="effect2_innerShadow_277_13098"/>
<feColorMatrix in="SourceAlpha" type="matrix" values="0 0 0 0 0 0 0 0 0 0 0 0 0 0 0 0 0 0 127 0" result="hardAlpha"/>
<feOffset dx="0.2" dy="0.1"/>
<feGaussianBlur stdDeviation="0.2"/>
<feComposite in2="hardAlpha" operator="arithmetic" k2="-1" k3="1"/>
<feColorMatrix type="matrix" values="0 0 0 0 0.607843 0 0 0 0 0.6 0 0 0 0 0.631373 0 0 0 1 0"/>
<feBlend mode="normal" in2="effect2_innerShadow_277_13098" result="effect3_innerShadow_277_13098"/>
</filter>
<filter id="filter1_f_277_13098" x="6.67188" y="6.65039" width="18.6562" height="18.7002" filterUnits="userSpaceOnUse" color-interpolation-filters="sRGB">
<feFlood flood-opacity="0" result="BackgroundImageFix"/>
<feBlend mode="normal" in="SourceGraphic" in2="BackgroundImageFix" result="shape"/>
<feGaussianBlur stdDeviation="0.25" result="effect1_foregroundBlur_277_13098"/>
</filter>
<filter id="filter2_i_277_13098" x="7.4375" y="7.16602" width="17.4688" height="17.418" filterUnits="userSpaceOnUse" color-interpolation-filters="sRGB">
<feFlood flood-opacity="0" result="BackgroundImageFix"/>
<feBlend mode="normal" in="SourceGraphic" in2="BackgroundImageFix" result="shape"/>
<feColorMatrix in="SourceAlpha" type="matrix" values="0 0 0 0 0 0 0 0 0 0 0 0 0 0 0 0 0 0 127 0" result="hardAlpha"/>
<feOffset dx="0.25" dy="-0.25"/>
<feGaussianBlur stdDeviation="0.25"/>
<feComposite in2="hardAlpha" operator="arithmetic" k2="-1" k3="1"/>
<feColorMatrix type="matrix" values="0 0 0 0 0.596078 0 0 0 0 0.521569 0 0 0 0 0.682353 0 0 0 1 0"/>
<feBlend mode="normal" in2="shape" result="effect1_innerShadow_277_13098"/>
</filter>
<filter id="filter3_f_277_13098" x="9.92734" y="9.91172" width="12.1453" height="12.1771" filterUnits="userSpaceOnUse" color-interpolation-filters="sRGB">
<feFlood flood-opacity="0" result="BackgroundImageFix"/>
<feBlend mode="normal" in="SourceGraphic" in2="BackgroundImageFix" result="shape"/>
<feGaussianBlur stdDeviation="0.05" result="effect1_foregroundBlur_277_13098"/>
</filter>
<filter id="filter4_f_277_13098" x="10.568" y="10.4808" width="11.0125" height="11.0376" filterUnits="userSpaceOnUse" color-interpolation-filters="sRGB">
<feFlood flood-opacity="0" result="BackgroundImageFix"/>
<feBlend mode="normal" in="SourceGraphic" in2="BackgroundImageFix" result="shape"/>
<feGaussianBlur stdDeviation="0.05" result="effect1_foregroundBlur_277_13098"/>
</filter>
<linearGradient id="paint0_linear_277_13098" x1="26.6416" y1="5.18802" x2="5.23645" y2="26.4699" gradientUnits="userSpaceOnUse">
<stop stop-color="#DED7EB"/>
<stop offset="1" stop-color="#C1B4D6"/>
</linearGradient>
<linearGradient id="paint1_linear_277_13098" x1="26.6416" y1="5.18802" x2="5.23645" y2="26.4699" gradientUnits="userSpaceOnUse">
<stop stop-color="#DED7EB"/>
<stop offset="1" stop-color="#C1B4D6"/>
</linearGradient>
<linearGradient id="paint2_linear_277_13098" x1="21.4214" y1="8.86496" x2="13.3573" y2="24.6054" gradientUnits="userSpaceOnUse">
<stop stop-color="#D0CCD9"/>
<stop offset="0.837" stop-color="#A38EBE"/>
</linearGradient>
<radialGradient id="paint3_radial_277_13098" cx="0" cy="0" r="1" gradientUnits="userSpaceOnUse" gradientTransform="translate(8.7472 11.2351) rotate(26.8232) scale(4.3671 12.1094)">
<stop stop-color="#908B9A"/>
<stop offset="1" stop-color="#908B9A" stop-opacity="0"/>
</radialGradient>
<radialGradient id="paint4_radial_277_13098" cx="0" cy="0" r="1" gradientUnits="userSpaceOnUse" gradientTransform="translate(21.3881 10.725) rotate(133.736) scale(16.1763 21.1013)">
<stop offset="0.033" stop-color="#E5DFF0"/>
<stop offset="1" stop-color="#9B8BAE"/>
</radialGradient>
<linearGradient id="paint5_linear_277_13098" x1="19.1518" y1="10.5553" x2="15.9854" y2="21.9845" gradientUnits="userSpaceOnUse">
<stop stop-color="#AEA9B7"/>
<stop offset="1" stop-color="#9888AC"/>
</linearGradient>
<radialGradient id="paint6_radial_277_13098" cx="0" cy="0" r="1" gradientUnits="userSpaceOnUse" gradientTransform="translate(20.8125 12.494) rotate(128.638) scale(12.1031 12.0963)">
<stop stop-color="#E6E0F1"/>
<stop offset="1" stop-color="#A89ABA"/>
</radialGradient>
<radialGradient id="paint7_radial_277_13098" cx="0" cy="0" r="1" gradientUnits="userSpaceOnUse" gradientTransform="translate(10.7828 12.6967) rotate(32.6409) scale(5.79525 11.6952)">
<stop stop-color="#90899A"/>
<stop offset="1" stop-color="#90899A" stop-opacity="0"/>
</radialGradient>
<radialGradient id="paint8_radial_277_13098" cx="0" cy="0" r="1" gradientUnits="userSpaceOnUse" gradientTransform="translate(19.8935 12.6615) rotate(136.264) scale(10.2716 10.2122)">
<stop offset="0.246" stop-color="#C9BFD7"/>
<stop offset="1" stop-color="#ADA4BB"/>
</radialGradient>
<radialGradient id="paint9_radial_277_13098" cx="0" cy="0" r="1" gradientUnits="userSpaceOnUse" gradientTransform="translate(11.7281 20.0012) rotate(-45.5898) scale(5.32698 8.46775)">
<stop offset="0.343" stop-color="#BCB6C4"/>
<stop offset="1" stop-color="#BCB6C4" stop-opacity="0"/>
</radialGradient>
<radialGradient id="paint10_radial_277_13098" cx="0" cy="0" r="1" gradientUnits="userSpaceOnUse" gradientTransform="translate(12.5056 11.2685) rotate(49.3317) scale(4.52419 8.02864)">
<stop offset="0.194" stop-color="#A294B3"/>
<stop offset="1" stop-color="#A294B3" stop-opacity="0"/>
</radialGradient>
<radialGradient id="paint11_radial_277_13098" cx="0" cy="0" r="1" gradientUnits="userSpaceOnUse" gradientTransform="translate(21.5298 15.4662) rotate(152.729) scale(7.44267 7.38672)">
<stop offset="0.588" stop-color="#CCC3DA"/>
<stop offset="1" stop-color="#A197AF"/>
</radialGradient>
</defs>
</svg>
