<svg width="32" height="32" viewBox="0 0 32 32" fill="none" xmlns="http://www.w3.org/2000/svg">
<g filter="url(#filter0_i_277_10159)">
<path d="M11.7426 8.33203L28.8456 25.4371C29.1344 25.7213 29.364 26.0598 29.5212 26.4331C29.6785 26.8065 29.7603 27.2072 29.7619 27.6123C29.7635 28.0174 29.6849 28.4188 29.5306 28.7934C29.3763 29.168 29.1494 29.5083 28.863 29.7947C28.5765 30.0812 28.2362 30.3081 27.8616 30.4624C27.487 30.6166 27.0856 30.6952 26.6805 30.6936C26.2754 30.692 25.8747 30.6102 25.5013 30.453C25.128 30.2957 24.7895 30.0661 24.5053 29.7774L7.40234 12.6734L11.7426 8.33203Z" fill="#A3796E"/>
<path d="M11.7426 8.33203L28.8456 25.4371C29.1344 25.7213 29.364 26.0598 29.5212 26.4331C29.6785 26.8065 29.7603 27.2072 29.7619 27.6123C29.7635 28.0174 29.6849 28.4188 29.5306 28.7934C29.3763 29.168 29.1494 29.5083 28.863 29.7947C28.5765 30.0812 28.2362 30.3081 27.8616 30.4624C27.487 30.6166 27.0856 30.6952 26.6805 30.6936C26.2754 30.692 25.8747 30.6102 25.5013 30.453C25.128 30.2957 24.7895 30.0661 24.5053 29.7774L7.40234 12.6734L11.7426 8.33203Z" fill="url(#paint0_linear_277_10159)"/>
<path d="M11.7426 8.33203L28.8456 25.4371C29.1344 25.7213 29.364 26.0598 29.5212 26.4331C29.6785 26.8065 29.7603 27.2072 29.7619 27.6123C29.7635 28.0174 29.6849 28.4188 29.5306 28.7934C29.3763 29.168 29.1494 29.5083 28.863 29.7947C28.5765 30.0812 28.2362 30.3081 27.8616 30.4624C27.487 30.6166 27.0856 30.6952 26.6805 30.6936C26.2754 30.692 25.8747 30.6102 25.5013 30.453C25.128 30.2957 24.7895 30.0661 24.5053 29.7774L7.40234 12.6734L11.7426 8.33203Z" fill="url(#paint1_linear_277_10159)"/>
</g>
<g filter="url(#filter1_f_277_10159)">
<path d="M11.7019 11.7378C11.5611 11.586 11.4846 11.3855 11.4884 11.1784C11.4923 10.9714 11.5762 10.7739 11.7226 10.6274C11.8689 10.4809 12.0663 10.3968 12.2734 10.3927C12.4804 10.3887 12.681 10.465 12.833 10.6057L28.4056 26.1772C28.55 26.3285 28.6296 26.5303 28.6271 26.7395C28.6247 26.9486 28.5406 27.1486 28.3927 27.2965C28.2448 27.4444 28.0448 27.5285 27.8357 27.5309C27.6265 27.5333 27.4247 27.4538 27.2734 27.3094L11.7019 11.7378Z" fill="url(#paint2_linear_277_10159)"/>
<path d="M11.7019 11.7378C11.5611 11.586 11.4846 11.3855 11.4884 11.1784C11.4923 10.9714 11.5762 10.7739 11.7226 10.6274C11.8689 10.4809 12.0663 10.3968 12.2734 10.3927C12.4804 10.3887 12.681 10.465 12.833 10.6057L28.4056 26.1772C28.55 26.3285 28.6296 26.5303 28.6271 26.7395C28.6247 26.9486 28.5406 27.1486 28.3927 27.2965C28.2448 27.4444 28.0448 27.5285 27.8357 27.5309C27.6265 27.5333 27.4247 27.4538 27.2734 27.3094L11.7019 11.7378Z" fill="url(#paint3_radial_277_10159)"/>
</g>
<g filter="url(#filter2_i_277_10159)">
<path d="M1.85298 11.2805C2.59936 10.5342 3.49523 10.7495 4.46009 11.2283C4.64512 11.3192 4.81028 11.4436 4.95559 11.5889L7.92752 14.5619C8.03206 14.6664 8.12614 14.7793 8.19931 14.9069C8.79412 15.9324 8.83175 16.9599 8.23067 17.56L7.07661 18.6837C7.02762 18.7326 6.96127 18.76 6.8921 18.76C6.82293 18.76 6.75658 18.7326 6.7076 18.6837L0.77209 12.7461C0.747753 12.7219 0.728444 12.693 0.715269 12.6613C0.702094 12.6295 0.695312 12.5955 0.695312 12.5611C0.695312 12.5267 0.702094 12.4927 0.715269 12.4609C0.728444 12.4292 0.747753 12.4003 0.77209 12.3761L1.85298 11.2785V11.2805Z" fill="#ADA9B9"/>
<path d="M1.85298 11.2805C2.59936 10.5342 3.49523 10.7495 4.46009 11.2283C4.64512 11.3192 4.81028 11.4436 4.95559 11.5889L7.92752 14.5619C8.03206 14.6664 8.12614 14.7793 8.19931 14.9069C8.79412 15.9324 8.83175 16.9599 8.23067 17.56L7.07661 18.6837C7.02762 18.7326 6.96127 18.76 6.8921 18.76C6.82293 18.76 6.75658 18.7326 6.7076 18.6837L0.77209 12.7461C0.747753 12.7219 0.728444 12.693 0.715269 12.6613C0.702094 12.6295 0.695312 12.5955 0.695312 12.5611C0.695312 12.5267 0.702094 12.4927 0.715269 12.4609C0.728444 12.4292 0.747753 12.4003 0.77209 12.3761L1.85298 11.2785V11.2805Z" fill="url(#paint4_radial_277_10159)"/>
<path d="M1.85298 11.2805C2.59936 10.5342 3.49523 10.7495 4.46009 11.2283C4.64512 11.3192 4.81028 11.4436 4.95559 11.5889L7.92752 14.5619C8.03206 14.6664 8.12614 14.7793 8.19931 14.9069C8.79412 15.9324 8.83175 16.9599 8.23067 17.56L7.07661 18.6837C7.02762 18.7326 6.96127 18.76 6.8921 18.76C6.82293 18.76 6.75658 18.7326 6.7076 18.6837L0.77209 12.7461C0.747753 12.7219 0.728444 12.693 0.715269 12.6613C0.702094 12.6295 0.695312 12.5955 0.695312 12.5611C0.695312 12.5267 0.702094 12.4927 0.715269 12.4609C0.728444 12.4292 0.747753 12.4003 0.77209 12.3761L1.85298 11.2785V11.2805Z" fill="url(#paint5_radial_277_10159)"/>
<path d="M1.85298 11.2805C2.59936 10.5342 3.49523 10.7495 4.46009 11.2283C4.64512 11.3192 4.81028 11.4436 4.95559 11.5889L7.92752 14.5619C8.03206 14.6664 8.12614 14.7793 8.19931 14.9069C8.79412 15.9324 8.83175 16.9599 8.23067 17.56L7.07661 18.6837C7.02762 18.7326 6.96127 18.76 6.8921 18.76C6.82293 18.76 6.75658 18.7326 6.7076 18.6837L0.77209 12.7461C0.747753 12.7219 0.728444 12.693 0.715269 12.6613C0.702094 12.6295 0.695312 12.5955 0.695312 12.5611C0.695312 12.5267 0.702094 12.4927 0.715269 12.4609C0.728444 12.4292 0.747753 12.4003 0.77209 12.3761L1.85298 11.2785V11.2805Z" fill="url(#paint6_radial_277_10159)"/>
<path d="M1.85298 11.2805C2.59936 10.5342 3.49523 10.7495 4.46009 11.2283C4.64512 11.3192 4.81028 11.4436 4.95559 11.5889L7.92752 14.5619C8.03206 14.6664 8.12614 14.7793 8.19931 14.9069C8.79412 15.9324 8.83175 16.9599 8.23067 17.56L7.07661 18.6837C7.02762 18.7326 6.96127 18.76 6.8921 18.76C6.82293 18.76 6.75658 18.7326 6.7076 18.6837L0.77209 12.7461C0.747753 12.7219 0.728444 12.693 0.715269 12.6613C0.702094 12.6295 0.695312 12.5955 0.695312 12.5611C0.695312 12.5267 0.702094 12.4927 0.715269 12.4609C0.728444 12.4292 0.747753 12.4003 0.77209 12.3761L1.85298 11.2785V11.2805Z" fill="url(#paint7_radial_277_10159)"/>
</g>
<path d="M11.7426 8.33203L28.8456 25.4371C29.1344 25.7213 29.364 26.0598 29.5212 26.4331C29.6785 26.8065 29.7603 27.2072 29.7619 27.6123C29.7635 28.0174 29.6849 28.4188 29.5306 28.7934C29.3763 29.168 29.1494 29.5083 28.863 29.7947C28.5765 30.0812 28.2362 30.3081 27.8616 30.4624C27.487 30.6166 27.0856 30.6952 26.6805 30.6936C26.2754 30.692 25.8747 30.6102 25.5013 30.453C25.128 30.2957 24.7895 30.0661 24.5053 29.7774L7.40234 12.6734L11.7426 8.33203Z" fill="url(#paint8_radial_277_10159)"/>
<g filter="url(#filter3_i_277_10159)">
<path d="M12.7442 6.98009C12.6465 7.07806 12.5917 7.21076 12.5917 7.3491C12.5917 7.48744 12.6465 7.62013 12.7442 7.71811L14.9823 9.95516C15.0211 9.99399 15.052 10.0401 15.073 10.0909C15.0941 10.1416 15.1049 10.196 15.1049 10.251C15.1049 10.3059 15.0941 10.3604 15.073 10.4111C15.052 10.4619 15.0211 10.508 14.9823 10.5468L9.60498 15.9252C9.56615 15.964 9.52003 15.9949 9.46927 16.0159C9.41851 16.037 9.3641 16.0478 9.30915 16.0478C9.2542 16.0478 9.19979 16.037 9.14902 16.0159C9.09826 15.9949 9.05215 15.964 9.01331 15.9252L4.16288 11.0747C4.01606 10.9277 3.93359 10.7285 3.93359 10.5207C3.93359 10.3129 4.01606 10.1137 4.16288 9.96666L11.0162 3.11229C11.2308 2.89774 11.4895 2.73247 11.7743 2.62795C12.0592 2.52343 12.3634 2.48217 12.6658 2.50703L15.9576 2.77882C16.0368 2.78562 16.1124 2.81484 16.1756 2.86308C16.2387 2.91131 16.2868 2.97654 16.3143 3.05114C16.3417 3.12574 16.3473 3.20661 16.3304 3.28428C16.3135 3.36194 16.2748 3.43319 16.2189 3.48966L12.7442 6.98009Z" fill="#CAC3DA"/>
</g>
<path d="M12.7442 6.98009C12.6465 7.07806 12.5917 7.21076 12.5917 7.3491C12.5917 7.48744 12.6465 7.62013 12.7442 7.71811L14.9823 9.95516C15.0211 9.99399 15.052 10.0401 15.073 10.0909C15.0941 10.1416 15.1049 10.196 15.1049 10.251C15.1049 10.3059 15.0941 10.3604 15.073 10.4111C15.052 10.4619 15.0211 10.508 14.9823 10.5468L9.60498 15.9252C9.56615 15.964 9.52003 15.9949 9.46927 16.0159C9.41851 16.037 9.3641 16.0478 9.30915 16.0478C9.2542 16.0478 9.19979 16.037 9.14902 16.0159C9.09826 15.9949 9.05215 15.964 9.01331 15.9252L4.16288 11.0747C4.01606 10.9277 3.93359 10.7285 3.93359 10.5207C3.93359 10.3129 4.01606 10.1137 4.16288 9.96666L11.0162 3.11229C11.2308 2.89774 11.4895 2.73247 11.7743 2.62795C12.0592 2.52343 12.3634 2.48217 12.6658 2.50703L15.9576 2.77882C16.0368 2.78562 16.1124 2.81484 16.1756 2.86308C16.2387 2.91131 16.2868 2.97654 16.3143 3.05114C16.3417 3.12574 16.3473 3.20661 16.3304 3.28428C16.3135 3.36194 16.2748 3.43319 16.2189 3.48966L12.7442 6.98009Z" fill="url(#paint9_linear_277_10159)"/>
<path d="M12.7442 6.98009C12.6465 7.07806 12.5917 7.21076 12.5917 7.3491C12.5917 7.48744 12.6465 7.62013 12.7442 7.71811L14.9823 9.95516C15.0211 9.99399 15.052 10.0401 15.073 10.0909C15.0941 10.1416 15.1049 10.196 15.1049 10.251C15.1049 10.3059 15.0941 10.3604 15.073 10.4111C15.052 10.4619 15.0211 10.508 14.9823 10.5468L9.60498 15.9252C9.56615 15.964 9.52003 15.9949 9.46927 16.0159C9.41851 16.037 9.3641 16.0478 9.30915 16.0478C9.2542 16.0478 9.19979 16.037 9.14902 16.0159C9.09826 15.9949 9.05215 15.964 9.01331 15.9252L4.16288 11.0747C4.01606 10.9277 3.93359 10.7285 3.93359 10.5207C3.93359 10.3129 4.01606 10.1137 4.16288 9.96666L11.0162 3.11229C11.2308 2.89774 11.4895 2.73247 11.7743 2.62795C12.0592 2.52343 12.3634 2.48217 12.6658 2.50703L15.9576 2.77882C16.0368 2.78562 16.1124 2.81484 16.1756 2.86308C16.2387 2.91131 16.2868 2.97654 16.3143 3.05114C16.3417 3.12574 16.3473 3.20661 16.3304 3.28428C16.3135 3.36194 16.2748 3.43319 16.2189 3.48966L12.7442 6.98009Z" fill="url(#paint10_radial_277_10159)"/>
<path d="M12.7442 6.98009C12.6465 7.07806 12.5917 7.21076 12.5917 7.3491C12.5917 7.48744 12.6465 7.62013 12.7442 7.71811L14.9823 9.95516C15.0211 9.99399 15.052 10.0401 15.073 10.0909C15.0941 10.1416 15.1049 10.196 15.1049 10.251C15.1049 10.3059 15.0941 10.3604 15.073 10.4111C15.052 10.4619 15.0211 10.508 14.9823 10.5468L9.60498 15.9252C9.56615 15.964 9.52003 15.9949 9.46927 16.0159C9.41851 16.037 9.3641 16.0478 9.30915 16.0478C9.2542 16.0478 9.19979 16.037 9.14902 16.0159C9.09826 15.9949 9.05215 15.964 9.01331 15.9252L4.16288 11.0747C4.01606 10.9277 3.93359 10.7285 3.93359 10.5207C3.93359 10.3129 4.01606 10.1137 4.16288 9.96666L11.0162 3.11229C11.2308 2.89774 11.4895 2.73247 11.7743 2.62795C12.0592 2.52343 12.3634 2.48217 12.6658 2.50703L15.9576 2.77882C16.0368 2.78562 16.1124 2.81484 16.1756 2.86308C16.2387 2.91131 16.2868 2.97654 16.3143 3.05114C16.3417 3.12574 16.3473 3.20661 16.3304 3.28428C16.3135 3.36194 16.2748 3.43319 16.2189 3.48966L12.7442 6.98009Z" fill="url(#paint11_radial_277_10159)"/>
<g filter="url(#filter4_f_277_10159)">
<path d="M6.23047 12.4395L11.571 7.09891L14.7332 10.2611L9.39266 15.6016L6.23047 12.4395Z" fill="url(#paint12_linear_277_10159)"/>
<path d="M6.23047 12.4395L11.571 7.09891L14.7332 10.2611L9.39266 15.6016L6.23047 12.4395Z" fill="url(#paint13_linear_277_10159)"/>
</g>
<g filter="url(#filter5_ii_277_10159)">
<path d="M25.8486 3.5669C26.2061 3.66098 26.2929 4.10107 26.0316 4.36241L23.4987 6.89634C23.3519 7.04335 23.2694 7.24262 23.2694 7.45038C23.2694 7.65814 23.3519 7.85741 23.4987 8.00442L25.1169 9.62471C25.1897 9.69757 25.2761 9.75536 25.3713 9.79479C25.4665 9.83423 25.5684 9.85452 25.6714 9.85452C25.7744 9.85452 25.8764 9.83423 25.9716 9.79479C26.0667 9.75536 26.1532 9.69757 26.226 9.62471L28.7693 7.08033C29.0296 6.81899 29.4697 6.90575 29.5649 7.26117C29.8045 8.14613 29.8076 9.07852 29.5737 9.96504C29.3399 10.8516 28.8773 11.6611 28.2323 12.3127C27.5872 12.9643 26.7824 13.435 25.8983 13.6778C25.0142 13.9207 24.0818 13.9271 23.1945 13.6964C23.0812 13.6648 22.9616 13.6634 22.8476 13.6922C22.7336 13.7209 22.629 13.779 22.5443 13.8605L13.5658 22.839C13.4849 22.9231 13.4273 23.0267 13.3983 23.1398C13.3694 23.2528 13.3702 23.3714 13.4006 23.484C13.6239 24.3676 13.6127 25.2942 13.368 26.1721C13.1233 27.05 12.6537 27.8489 12.0055 28.4896C11.3574 29.1304 10.5532 29.5908 9.67255 29.8254C8.79187 30.06 7.86521 30.0606 6.98422 29.8272C6.62775 29.7331 6.53994 29.293 6.80128 29.0317L9.33521 26.4977C9.48203 26.3507 9.5645 26.1515 9.5645 25.9437C9.5645 25.7359 9.48203 25.5367 9.33521 25.3897L7.71596 23.7694C7.56896 23.6225 7.36969 23.5401 7.16193 23.5401C6.95416 23.5401 6.7549 23.6225 6.60789 23.7694L4.06455 26.3148C3.80321 26.5761 3.36417 26.4894 3.26904 26.1339C3.03183 25.2502 3.0301 24.3198 3.26401 23.4352C3.49793 22.5506 3.95934 21.7427 4.60237 21.0917C5.2454 20.4407 6.04764 19.9695 6.92931 19.7247C7.81098 19.48 8.74135 19.4703 9.62791 19.6967C9.85789 19.7552 10.1077 19.6998 10.276 19.5315L19.264 10.5436C19.345 10.4598 19.4029 10.3564 19.4322 10.2436C19.4615 10.1308 19.4612 10.0123 19.4312 9.89964C19.2102 9.01659 19.2233 8.09117 19.4692 7.21471C19.715 6.33826 20.1852 5.54106 20.8332 4.90178C21.4812 4.26251 22.2848 3.80325 23.1645 3.56934C24.0442 3.33543 24.9697 3.33495 25.8497 3.56794L25.8486 3.5669Z" fill="url(#paint14_linear_277_10159)"/>
<path d="M25.8486 3.5669C26.2061 3.66098 26.2929 4.10107 26.0316 4.36241L23.4987 6.89634C23.3519 7.04335 23.2694 7.24262 23.2694 7.45038C23.2694 7.65814 23.3519 7.85741 23.4987 8.00442L25.1169 9.62471C25.1897 9.69757 25.2761 9.75536 25.3713 9.79479C25.4665 9.83423 25.5684 9.85452 25.6714 9.85452C25.7744 9.85452 25.8764 9.83423 25.9716 9.79479C26.0667 9.75536 26.1532 9.69757 26.226 9.62471L28.7693 7.08033C29.0296 6.81899 29.4697 6.90575 29.5649 7.26117C29.8045 8.14613 29.8076 9.07852 29.5737 9.96504C29.3399 10.8516 28.8773 11.6611 28.2323 12.3127C27.5872 12.9643 26.7824 13.435 25.8983 13.6778C25.0142 13.9207 24.0818 13.9271 23.1945 13.6964C23.0812 13.6648 22.9616 13.6634 22.8476 13.6922C22.7336 13.7209 22.629 13.779 22.5443 13.8605L13.5658 22.839C13.4849 22.9231 13.4273 23.0267 13.3983 23.1398C13.3694 23.2528 13.3702 23.3714 13.4006 23.484C13.6239 24.3676 13.6127 25.2942 13.368 26.1721C13.1233 27.05 12.6537 27.8489 12.0055 28.4896C11.3574 29.1304 10.5532 29.5908 9.67255 29.8254C8.79187 30.06 7.86521 30.0606 6.98422 29.8272C6.62775 29.7331 6.53994 29.293 6.80128 29.0317L9.33521 26.4977C9.48203 26.3507 9.5645 26.1515 9.5645 25.9437C9.5645 25.7359 9.48203 25.5367 9.33521 25.3897L7.71596 23.7694C7.56896 23.6225 7.36969 23.5401 7.16193 23.5401C6.95416 23.5401 6.7549 23.6225 6.60789 23.7694L4.06455 26.3148C3.80321 26.5761 3.36417 26.4894 3.26904 26.1339C3.03183 25.2502 3.0301 24.3198 3.26401 23.4352C3.49793 22.5506 3.95934 21.7427 4.60237 21.0917C5.2454 20.4407 6.04764 19.9695 6.92931 19.7247C7.81098 19.48 8.74135 19.4703 9.62791 19.6967C9.85789 19.7552 10.1077 19.6998 10.276 19.5315L19.264 10.5436C19.345 10.4598 19.4029 10.3564 19.4322 10.2436C19.4615 10.1308 19.4612 10.0123 19.4312 9.89964C19.2102 9.01659 19.2233 8.09117 19.4692 7.21471C19.715 6.33826 20.1852 5.54106 20.8332 4.90178C21.4812 4.26251 22.2848 3.80325 23.1645 3.56934C24.0442 3.33543 24.9697 3.33495 25.8497 3.56794L25.8486 3.5669Z" fill="url(#paint15_radial_277_10159)"/>
</g>
<path d="M19.6562 10.1602L22.9559 13.4598L13.4006 23.0152L10.1009 19.7155L19.6562 10.1602Z" fill="url(#paint16_linear_277_10159)"/>
<path d="M19.6562 10.1602L22.9559 13.4598L13.4006 23.0152L10.1009 19.7155L19.6562 10.1602Z" fill="url(#paint17_linear_277_10159)"/>
<path d="M19.6562 10.1602L22.9559 13.4598L13.4006 23.0152L10.1009 19.7155L19.6562 10.1602Z" fill="url(#paint18_linear_277_10159)"/>
<path d="M19.6562 10.1602L22.9559 13.4598L13.4006 23.0152L10.1009 19.7155L19.6562 10.1602Z" fill="url(#paint19_radial_277_10159)"/>
<path d="M6.8006 29.0332C6.53926 29.2946 6.62707 29.7347 6.98354 29.8287C8.09745 30.1231 9.27736 30.0418 10.3403 29.5974C11.4033 29.153 12.29 28.3703 12.863 27.3707C13.4359 26.3711 13.6631 25.2104 13.5093 24.0686C13.3556 22.9267 12.8294 21.8675 12.0124 21.0551C11.1954 20.2427 10.1332 19.7226 8.99055 19.5752C7.84786 19.4279 6.68847 19.6616 5.69213 20.2402C4.69579 20.8188 3.91814 21.7099 3.47974 22.7753C3.04134 23.8408 2.96667 25.0212 3.26731 26.1334C3.36453 26.4888 3.80358 26.5746 4.06387 26.3143L6.60721 23.7709C6.75421 23.6241 6.95348 23.5416 7.16125 23.5416C7.36901 23.5416 7.56828 23.6241 7.71528 23.7709L9.33558 25.3912C9.4824 25.5382 9.56487 25.7375 9.56487 25.9453C9.56487 26.153 9.4824 26.3523 9.33558 26.4993L6.79955 29.0332H6.8006Z" fill="url(#paint20_radial_277_10159)"/>
<path d="M6.8006 29.0332C6.53926 29.2946 6.62707 29.7347 6.98354 29.8287C8.09745 30.1231 9.27736 30.0418 10.3403 29.5974C11.4033 29.153 12.29 28.3703 12.863 27.3707C13.4359 26.3711 13.6631 25.2104 13.5093 24.0686C13.3556 22.9267 12.8294 21.8675 12.0124 21.0551C11.1954 20.2427 10.1332 19.7226 8.99055 19.5752C7.84786 19.4279 6.68847 19.6616 5.69213 20.2402C4.69579 20.8188 3.91814 21.7099 3.47974 22.7753C3.04134 23.8408 2.96667 25.0212 3.26731 26.1334C3.36453 26.4888 3.80358 26.5746 4.06387 26.3143L6.60721 23.7709C6.75421 23.6241 6.95348 23.5416 7.16125 23.5416C7.36901 23.5416 7.56828 23.6241 7.71528 23.7709L9.33558 25.3912C9.4824 25.5382 9.56487 25.7375 9.56487 25.9453C9.56487 26.153 9.4824 26.3523 9.33558 26.4993L6.79955 29.0332H6.8006Z" fill="url(#paint21_radial_277_10159)"/>
<path d="M6.8006 29.0332C6.53926 29.2946 6.62707 29.7347 6.98354 29.8287C8.09745 30.1231 9.27736 30.0418 10.3403 29.5974C11.4033 29.153 12.29 28.3703 12.863 27.3707C13.4359 26.3711 13.6631 25.2104 13.5093 24.0686C13.3556 22.9267 12.8294 21.8675 12.0124 21.0551C11.1954 20.2427 10.1332 19.7226 8.99055 19.5752C7.84786 19.4279 6.68847 19.6616 5.69213 20.2402C4.69579 20.8188 3.91814 21.7099 3.47974 22.7753C3.04134 23.8408 2.96667 25.0212 3.26731 26.1334C3.36453 26.4888 3.80358 26.5746 4.06387 26.3143L6.60721 23.7709C6.75421 23.6241 6.95348 23.5416 7.16125 23.5416C7.36901 23.5416 7.56828 23.6241 7.71528 23.7709L9.33558 25.3912C9.4824 25.5382 9.56487 25.7375 9.56487 25.9453C9.56487 26.153 9.4824 26.3523 9.33558 26.4993L6.79955 29.0332H6.8006Z" fill="url(#paint22_radial_277_10159)"/>
<path d="M25.848 3.56717C26.2055 3.66125 26.2923 4.10135 26.0309 4.36269L23.498 6.89662C23.3512 7.04362 23.2687 7.24289 23.2687 7.45065C23.2687 7.65842 23.3512 7.85769 23.498 8.00469L25.1162 9.62499C25.1891 9.69784 25.2755 9.75564 25.3707 9.79507C25.4658 9.8345 25.5678 9.8548 25.6708 9.8548C25.7738 9.8548 25.8758 9.8345 25.9709 9.79507C26.0661 9.75564 26.1526 9.69784 26.2254 9.62499L28.7687 7.0806C29.029 6.81926 29.4691 6.90603 29.5642 7.26145C29.7984 8.12668 29.8065 9.03754 29.5877 9.9068C29.3689 10.7761 28.9306 11.5746 28.3148 12.2259C27.6989 12.8772 26.9262 13.3595 26.0705 13.6265C25.2149 13.8935 24.305 13.9364 23.428 13.751C23.249 13.7106 23.0856 13.6191 22.9576 13.4876L19.6501 10.1801C19.5186 10.0521 19.4271 9.88867 19.3867 9.70966C19.2017 8.83501 19.2439 7.92758 19.5091 7.07384C19.7742 6.22009 20.2536 5.44847 20.9015 4.83252C21.5495 4.21656 22.3443 3.77679 23.2104 3.55511C24.0765 3.33343 24.9849 3.33722 25.849 3.56613L25.848 3.56717Z" fill="url(#paint23_radial_277_10159)"/>
<path d="M25.848 3.56717C26.2055 3.66125 26.2923 4.10135 26.0309 4.36269L23.498 6.89662C23.3512 7.04362 23.2687 7.24289 23.2687 7.45065C23.2687 7.65842 23.3512 7.85769 23.498 8.00469L25.1162 9.62499C25.1891 9.69784 25.2755 9.75564 25.3707 9.79507C25.4658 9.8345 25.5678 9.8548 25.6708 9.8548C25.7738 9.8548 25.8758 9.8345 25.9709 9.79507C26.0661 9.75564 26.1526 9.69784 26.2254 9.62499L28.7687 7.0806C29.029 6.81926 29.4691 6.90603 29.5642 7.26145C29.7984 8.12668 29.8065 9.03754 29.5877 9.9068C29.3689 10.7761 28.9306 11.5746 28.3148 12.2259C27.6989 12.8772 26.9262 13.3595 26.0705 13.6265C25.2149 13.8935 24.305 13.9364 23.428 13.751C23.249 13.7106 23.0856 13.6191 22.9576 13.4876L19.6501 10.1801C19.5186 10.0521 19.4271 9.88867 19.3867 9.70966C19.2017 8.83501 19.2439 7.92758 19.5091 7.07384C19.7742 6.22009 20.2536 5.44847 20.9015 4.83252C21.5495 4.21656 22.3443 3.77679 23.2104 3.55511C24.0765 3.33343 24.9849 3.33722 25.849 3.56613L25.848 3.56717Z" fill="url(#paint24_radial_277_10159)"/>
<defs>
<filter id="filter0_i_277_10159" x="7.40234" y="8.18203" width="22.3594" height="22.5113" filterUnits="userSpaceOnUse" color-interpolation-filters="sRGB">
<feFlood flood-opacity="0" result="BackgroundImageFix"/>
<feBlend mode="normal" in="SourceGraphic" in2="BackgroundImageFix" result="shape"/>
<feColorMatrix in="SourceAlpha" type="matrix" values="0 0 0 0 0 0 0 0 0 0 0 0 0 0 0 0 0 0 127 0" result="hardAlpha"/>
<feOffset dy="-0.15"/>
<feGaussianBlur stdDeviation="0.15"/>
<feComposite in2="hardAlpha" operator="arithmetic" k2="-1" k3="1"/>
<feColorMatrix type="matrix" values="0 0 0 0 0.643137 0 0 0 0 0.384314 0 0 0 0 0.737255 0 0 0 1 0"/>
<feBlend mode="normal" in2="shape" result="effect1_innerShadow_277_10159"/>
</filter>
<filter id="filter1_f_277_10159" x="10.4883" y="9.39258" width="19.1406" height="19.1387" filterUnits="userSpaceOnUse" color-interpolation-filters="sRGB">
<feFlood flood-opacity="0" result="BackgroundImageFix"/>
<feBlend mode="normal" in="SourceGraphic" in2="BackgroundImageFix" result="shape"/>
<feGaussianBlur stdDeviation="0.5" result="effect1_foregroundBlur_277_10159"/>
</filter>
<filter id="filter2_i_277_10159" x="0.695312" y="10.643" width="8.11875" height="8.1168" filterUnits="userSpaceOnUse" color-interpolation-filters="sRGB">
<feFlood flood-opacity="0" result="BackgroundImageFix"/>
<feBlend mode="normal" in="SourceGraphic" in2="BackgroundImageFix" result="shape"/>
<feColorMatrix in="SourceAlpha" type="matrix" values="0 0 0 0 0 0 0 0 0 0 0 0 0 0 0 0 0 0 127 0" result="hardAlpha"/>
<feOffset dx="0.15" dy="-0.15"/>
<feGaussianBlur stdDeviation="0.375"/>
<feComposite in2="hardAlpha" operator="arithmetic" k2="-1" k3="1"/>
<feColorMatrix type="matrix" values="0 0 0 0 0.552941 0 0 0 0 0.541176 0 0 0 0 0.592157 0 0 0 1 0"/>
<feBlend mode="normal" in2="shape" result="effect1_innerShadow_277_10159"/>
</filter>
<filter id="filter3_i_277_10159" x="3.93359" y="2.25" width="12.6562" height="13.7979" filterUnits="userSpaceOnUse" color-interpolation-filters="sRGB">
<feFlood flood-opacity="0" result="BackgroundImageFix"/>
<feBlend mode="normal" in="SourceGraphic" in2="BackgroundImageFix" result="shape"/>
<feColorMatrix in="SourceAlpha" type="matrix" values="0 0 0 0 0 0 0 0 0 0 0 0 0 0 0 0 0 0 127 0" result="hardAlpha"/>
<feOffset dx="0.25" dy="-0.25"/>
<feGaussianBlur stdDeviation="0.5"/>
<feComposite in2="hardAlpha" operator="arithmetic" k2="-1" k3="1"/>
<feColorMatrix type="matrix" values="0 0 0 0 0.537255 0 0 0 0 0.52549 0 0 0 0 0.596078 0 0 0 1 0"/>
<feBlend mode="normal" in2="shape" result="effect1_innerShadow_277_10159"/>
</filter>
<filter id="filter4_f_277_10159" x="5.23047" y="6.09863" width="10.5039" height="10.5029" filterUnits="userSpaceOnUse" color-interpolation-filters="sRGB">
<feFlood flood-opacity="0" result="BackgroundImageFix"/>
<feBlend mode="normal" in="SourceGraphic" in2="BackgroundImageFix" result="shape"/>
<feGaussianBlur stdDeviation="0.5" result="effect1_foregroundBlur_277_10159"/>
</filter>
<filter id="filter5_ii_277_10159" x="2.88984" y="3.19355" width="27.0563" height="27.0084" filterUnits="userSpaceOnUse" color-interpolation-filters="sRGB">
<feFlood flood-opacity="0" result="BackgroundImageFix"/>
<feBlend mode="normal" in="SourceGraphic" in2="BackgroundImageFix" result="shape"/>
<feColorMatrix in="SourceAlpha" type="matrix" values="0 0 0 0 0 0 0 0 0 0 0 0 0 0 0 0 0 0 127 0" result="hardAlpha"/>
<feOffset dx="0.2" dy="0.2"/>
<feGaussianBlur stdDeviation="0.3"/>
<feComposite in2="hardAlpha" operator="arithmetic" k2="-1" k3="1"/>
<feColorMatrix type="matrix" values="0 0 0 0 0.701961 0 0 0 0 0.686275 0 0 0 0 0.733333 0 0 0 1 0"/>
<feBlend mode="normal" in2="shape" result="effect1_innerShadow_277_10159"/>
<feColorMatrix in="SourceAlpha" type="matrix" values="0 0 0 0 0 0 0 0 0 0 0 0 0 0 0 0 0 0 127 0" result="hardAlpha"/>
<feOffset dx="-0.2" dy="-0.2"/>
<feGaussianBlur stdDeviation="0.2"/>
<feComposite in2="hardAlpha" operator="arithmetic" k2="-1" k3="1"/>
<feColorMatrix type="matrix" values="0 0 0 0 0.866667 0 0 0 0 0.854902 0 0 0 0 0.894118 0 0 0 1 0"/>
<feBlend mode="normal" in2="effect1_innerShadow_277_10159" result="effect2_innerShadow_277_10159"/>
</filter>
<linearGradient id="paint0_linear_277_10159" x1="30.8778" y1="28.431" x2="26.3368" y2="23.89" gradientUnits="userSpaceOnUse">
<stop offset="0.065" stop-color="#7F494F"/>
<stop offset="1" stop-color="#7F494F" stop-opacity="0"/>
</linearGradient>
<linearGradient id="paint1_linear_277_10159" x1="17.6802" y1="21.8652" x2="21.4038" y2="18.0099" gradientUnits="userSpaceOnUse">
<stop offset="0.058" stop-color="#733464"/>
<stop offset="1" stop-color="#7C425A" stop-opacity="0"/>
</linearGradient>
<linearGradient id="paint2_linear_277_10159" x1="17.6478" y1="17.389" x2="27.2515" y2="26.8306" gradientUnits="userSpaceOnUse">
<stop stop-color="#A77975"/>
<stop offset="1" stop-color="#8F6969"/>
</linearGradient>
<radialGradient id="paint3_radial_277_10159" cx="0" cy="0" r="1" gradientUnits="userSpaceOnUse" gradientTransform="translate(28.9502 27.0919) rotate(-144.273) scale(2.2937 2.9362)">
<stop stop-color="#9B7775"/>
<stop offset="1" stop-color="#9B7775" stop-opacity="0"/>
</radialGradient>
<radialGradient id="paint4_radial_277_10159" cx="0" cy="0" r="1" gradientUnits="userSpaceOnUse" gradientTransform="translate(4.67961 16.5617) rotate(-45.6097) scale(3.2222 3.22304)">
<stop stop-color="#CABFDD"/>
<stop offset="1" stop-color="#CABFDD" stop-opacity="0"/>
</radialGradient>
<radialGradient id="paint5_radial_277_10159" cx="0" cy="0" r="1" gradientUnits="userSpaceOnUse" gradientTransform="translate(3.92752 15.886) rotate(-47.332) scale(5.10916 11.8468)">
<stop offset="0.599" stop-color="#BBB9C3" stop-opacity="0"/>
<stop offset="0.776" stop-color="#8C889A"/>
</radialGradient>
<radialGradient id="paint6_radial_277_10159" cx="0" cy="0" r="1" gradientUnits="userSpaceOnUse" gradientTransform="translate(5.82218 13.7957) rotate(131.009) scale(1.99136 6.10851)">
<stop stop-color="#DED9EA"/>
<stop offset="1" stop-color="#CAC1DC" stop-opacity="0"/>
</radialGradient>
<radialGradient id="paint7_radial_277_10159" cx="0" cy="0" r="1" gradientUnits="userSpaceOnUse" gradientTransform="translate(7.06377 13.6005) rotate(-177.818) scale(6.8651 8.85667)">
<stop offset="0.547" stop-color="#8F8C98" stop-opacity="0"/>
<stop offset="1" stop-color="#8F8C98"/>
</radialGradient>
<radialGradient id="paint8_radial_277_10159" cx="0" cy="0" r="1" gradientUnits="userSpaceOnUse" gradientTransform="translate(16.1046 16.578) rotate(-132.466) scale(2.87579 22.6498)">
<stop offset="0.319" stop-color="#563235"/>
<stop offset="1" stop-color="#563235" stop-opacity="0"/>
</radialGradient>
<linearGradient id="paint9_linear_277_10159" x1="14.0435" y1="2.71296" x2="13.9411" y2="3.99979" gradientUnits="userSpaceOnUse">
<stop stop-color="#CCCCD3"/>
<stop offset="1" stop-color="#CCCCD3" stop-opacity="0"/>
</linearGradient>
<radialGradient id="paint10_radial_277_10159" cx="0" cy="0" r="1" gradientUnits="userSpaceOnUse" gradientTransform="translate(15.7361 3.35631) rotate(136.759) scale(1.75467 0.353182)">
<stop stop-color="#DFDDE8"/>
<stop offset="1" stop-color="#CCC9D6" stop-opacity="0"/>
</radialGradient>
<radialGradient id="paint11_radial_277_10159" cx="0" cy="0" r="1" gradientUnits="userSpaceOnUse" gradientTransform="translate(15.4652 8.63801) rotate(145.582) scale(4.43309 3.5418)">
<stop offset="0.201" stop-color="#ECEAF4"/>
<stop offset="1" stop-color="#ECEAF4" stop-opacity="0"/>
</radialGradient>
<linearGradient id="paint12_linear_277_10159" x1="13.7545" y1="9.34601" x2="8.7141" y2="15.0251" gradientUnits="userSpaceOnUse">
<stop stop-color="#EDEAF7"/>
<stop offset="1" stop-color="#A89ABE"/>
</linearGradient>
<linearGradient id="paint13_linear_277_10159" x1="8.90111" y1="9.76881" x2="9.86425" y2="10.6994" gradientUnits="userSpaceOnUse">
<stop offset="0.111" stop-color="#B2ADC0"/>
<stop offset="1" stop-color="#B2ADC0" stop-opacity="0"/>
</linearGradient>
<linearGradient id="paint14_linear_277_10159" x1="13.1016" y1="13.4392" x2="18.5897" y2="19.9068" gradientUnits="userSpaceOnUse">
<stop stop-color="#BAB6C1"/>
<stop offset="1" stop-color="#E0DBE7"/>
</linearGradient>
<radialGradient id="paint15_radial_277_10159" cx="0" cy="0" r="1" gradientUnits="userSpaceOnUse" gradientTransform="translate(30.1534 6.57856) rotate(136.302) scale(6.09978 4.17819)">
<stop stop-color="#E1DFE7"/>
<stop offset="1" stop-color="#E1DFE7" stop-opacity="0"/>
</radialGradient>
<linearGradient id="paint16_linear_277_10159" x1="13.7074" y1="14.5006" x2="16.5362" y2="17.5083" gradientUnits="userSpaceOnUse">
<stop stop-color="#9E9AA4"/>
<stop offset="1" stop-color="#D2CED9" stop-opacity="0"/>
</linearGradient>
<linearGradient id="paint17_linear_277_10159" x1="21.5559" y1="11.5838" x2="20.9062" y2="12.1803" gradientUnits="userSpaceOnUse">
<stop offset="0.275" stop-color="#C8B4D9"/>
<stop offset="1" stop-color="#C8B4D9" stop-opacity="0"/>
</linearGradient>
<linearGradient id="paint18_linear_277_10159" x1="18.9526" y1="18.7937" x2="16.5281" y2="16.211" gradientUnits="userSpaceOnUse">
<stop stop-color="#D3C1E6"/>
<stop offset="1" stop-color="#D3C1E6" stop-opacity="0"/>
</linearGradient>
<radialGradient id="paint19_radial_277_10159" cx="0" cy="0" r="1" gradientUnits="userSpaceOnUse" gradientTransform="translate(12.2039 21.6218) rotate(-51.7097) scale(1.18618 2.62539)">
<stop offset="0.341" stop-color="#E0DBE9"/>
<stop offset="1" stop-color="#D3CEDA" stop-opacity="0"/>
</radialGradient>
<radialGradient id="paint20_radial_277_10159" cx="0" cy="0" r="1" gradientUnits="userSpaceOnUse" gradientTransform="translate(10.4876 25.1027) rotate(-163.225) scale(7.13088 8.3546)">
<stop offset="0.683" stop-color="#9D99A6" stop-opacity="0"/>
<stop offset="1" stop-color="#9D99A6"/>
</radialGradient>
<radialGradient id="paint21_radial_277_10159" cx="0" cy="0" r="1" gradientUnits="userSpaceOnUse" gradientTransform="translate(8.55993 22.9127) rotate(89.2527) scale(7.5141 10.364)">
<stop offset="0.406" stop-color="#E0D0EF" stop-opacity="0"/>
<stop offset="0.945" stop-color="#CBA8E2"/>
</radialGradient>
<radialGradient id="paint22_radial_277_10159" cx="0" cy="0" r="1" gradientUnits="userSpaceOnUse" gradientTransform="translate(12.4796 21.9659) rotate(133.719) scale(3.87586 3.8121)">
<stop stop-color="#E9E3F3"/>
<stop offset="1" stop-color="#E9E3F3" stop-opacity="0"/>
</radialGradient>
<radialGradient id="paint23_radial_277_10159" cx="0" cy="0" r="1" gradientUnits="userSpaceOnUse" gradientTransform="translate(24.2726 13.8649) rotate(-95.856) scale(6.40353 8.84162)">
<stop offset="0.012" stop-color="#C3A9D9"/>
<stop offset="1" stop-color="#C3A9D9" stop-opacity="0"/>
</radialGradient>
<radialGradient id="paint24_radial_277_10159" cx="0" cy="0" r="1" gradientUnits="userSpaceOnUse" gradientTransform="translate(27.278 9.42219) rotate(-160.812) scale(8.6472 9.17713)">
<stop offset="0.696" stop-color="#AFA6BB" stop-opacity="0"/>
<stop offset="0.956" stop-color="#9C98A3"/>
</radialGradient>
</defs>
</svg>
