<svg width="32" height="32" viewBox="0 0 32 32" fill="none" xmlns="http://www.w3.org/2000/svg">
<path d="M1.01134 18.1819H32V21.4546H1.01134V18.1819Z" fill="url(#paint0_linear_277_13068)"/>
<path d="M1.01134 18.1819H32V21.4546H1.01134V18.1819Z" fill="url(#paint1_radial_277_13068)"/>
<path d="M29.7852 28.0005V21.4551H26.4626V28.0005H29.7852Z" fill="url(#paint2_radial_277_13068)"/>
<path d="M22.0312 28.0005V21.4551H18.7087V28.0005H22.0312Z" fill="url(#paint3_radial_277_13068)"/>
<path d="M14.2891 28.0005V21.4551H10.9776V28.0005H14.2891Z" fill="url(#paint4_radial_277_13068)"/>
<path d="M6.54688 28.0005V21.4551H3.22429V28.0005H6.54688Z" fill="url(#paint5_radial_277_13068)"/>
<g filter="url(#filter0_i_277_13068)">
<path d="M1.01014 18.1816H24.2461L22.6956 19.7198C22.2747 20.1344 21.7099 20.3634 21.1229 20.3634H0.999063V18.1816H1.01014Z" fill="url(#paint6_linear_277_13068)"/>
<path d="M1.01014 18.1816H24.2461L22.6956 19.7198C22.2747 20.1344 21.7099 20.3634 21.1229 20.3634H0.999063V18.1816H1.01014Z" fill="url(#paint7_linear_277_13068)"/>
</g>
<g filter="url(#filter1_i_277_13068)">
<path d="M17.5027 4.56727C16.8603 4.19636 16.1183 4 15.3762 4H1.01156V18.1817H25.5655C27.9024 18.1817 29.7852 16.3163 29.7852 14.0254C29.7852 12.6181 29.0653 11.309 27.8802 10.5454L17.5027 4.56727Z" fill="url(#paint8_linear_277_13068)"/>
<path d="M17.5027 4.56727C16.8603 4.19636 16.1183 4 15.3762 4H1.01156V18.1817H25.5655C27.9024 18.1817 29.7852 16.3163 29.7852 14.0254C29.7852 12.6181 29.0653 11.309 27.8802 10.5454L17.5027 4.56727Z" fill="url(#paint9_linear_277_13068)"/>
</g>
<path d="M17.5027 4.56727C16.8603 4.19636 16.1183 4 15.3762 4H1.01156V18.1817H25.5655C27.9024 18.1817 29.7852 16.3163 29.7852 14.0254C29.7852 12.6181 29.0653 11.309 27.8802 10.5454L17.5027 4.56727Z" fill="url(#paint10_linear_277_13068)"/>
<g filter="url(#filter2_i_277_13068)">
<path d="M25.5658 18.1818H1.01192V16H29.2539C28.5451 17.2982 27.1607 18.1818 25.5658 18.1818Z" fill="url(#paint11_linear_277_13068)"/>
</g>
<path d="M29.2556 16.0001H1.0025V14.9092H29.6875C29.5989 15.3019 29.4438 15.6619 29.2556 16.0001Z" fill="url(#paint12_linear_277_13068)"/>
<g filter="url(#filter3_i_277_13068)">
<path d="M19.8259 13.8185H22.0409C22.65 13.8185 23.1484 13.3276 23.1484 12.7276C23.1484 12.1276 22.65 11.6367 22.0409 11.6367H19.8259C19.2167 11.6367 18.7183 12.1276 18.7183 12.7276C18.7183 13.3385 19.2167 13.8185 19.8259 13.8185Z" fill="url(#paint13_radial_277_13068)"/>
</g>
<path d="M1.01086 10.5452H8.81894C9.09799 10.5452 9.36561 10.436 9.56293 10.2416C9.76024 10.0473 9.87109 9.78366 9.87109 9.5088V6.13792C9.87109 5.55974 9.39486 5.10156 8.81894 5.10156H1.01086V10.5452Z" fill="url(#paint14_radial_277_13068)"/>
<path d="M1.01086 10.5452H8.81894C9.09799 10.5452 9.36561 10.436 9.56293 10.2416C9.76024 10.0473 9.87109 9.78366 9.87109 9.5088V6.13792C9.87109 5.55974 9.39486 5.10156 8.81894 5.10156H1.01086V10.5452Z" fill="url(#paint15_linear_277_13068)"/>
<path d="M1.01086 10.5452H8.81894C9.09799 10.5452 9.36561 10.436 9.56293 10.2416C9.76024 10.0473 9.87109 9.78366 9.87109 9.5088V6.13792C9.87109 5.55974 9.39486 5.10156 8.81894 5.10156H1.01086V10.5452Z" fill="url(#paint16_linear_277_13068)"/>
<path d="M14.2335 5.09082H18.3978L25.785 9.34533C25.785 9.34533 27.845 10.5344 27.8672 10.5453H14.2224C13.6354 10.5453 13.1703 10.0762 13.1703 9.50897V6.13809C13.174 5.86148 13.2872 5.59723 13.4858 5.40162C13.6844 5.20601 13.9527 5.09449 14.2335 5.09082Z" fill="url(#paint17_linear_277_13068)"/>
<path d="M14.2335 5.09082H18.3978L25.785 9.34533C25.785 9.34533 27.845 10.5344 27.8672 10.5453H14.2224C13.6354 10.5453 13.1703 10.0762 13.1703 9.50897V6.13809C13.174 5.86148 13.2872 5.59723 13.4858 5.40162C13.6844 5.20601 13.9527 5.09449 14.2335 5.09082Z" fill="url(#paint18_linear_277_13068)"/>
<path d="M14.2335 5.09082H18.3978L25.785 9.34533C25.785 9.34533 27.845 10.5344 27.8672 10.5453H14.2224C13.6354 10.5453 13.1703 10.0762 13.1703 9.50897V6.13809C13.174 5.86148 13.2872 5.59723 13.4858 5.40162C13.6844 5.20601 13.9527 5.09449 14.2335 5.09082Z" fill="url(#paint19_linear_277_13068)"/>
<path d="M14.2335 5.09082H18.3978L25.785 9.34533C25.785 9.34533 27.845 10.5344 27.8672 10.5453H14.2224C13.6354 10.5453 13.1703 10.0762 13.1703 9.50897V6.13809C13.174 5.86148 13.2872 5.59723 13.4858 5.40162C13.6844 5.20601 13.9527 5.09449 14.2335 5.09082Z" fill="url(#paint20_linear_277_13068)"/>
<defs>
<filter id="filter0_i_277_13068" x="1" y="17.8816" width="23.5461" height="2.48188" filterUnits="userSpaceOnUse" color-interpolation-filters="sRGB">
<feFlood flood-opacity="0" result="BackgroundImageFix"/>
<feBlend mode="normal" in="SourceGraphic" in2="BackgroundImageFix" result="shape"/>
<feColorMatrix in="SourceAlpha" type="matrix" values="0 0 0 0 0 0 0 0 0 0 0 0 0 0 0 0 0 0 127 0" result="hardAlpha"/>
<feOffset dx="0.3" dy="-0.3"/>
<feGaussianBlur stdDeviation="0.375"/>
<feComposite in2="hardAlpha" operator="arithmetic" k2="-1" k3="1"/>
<feColorMatrix type="matrix" values="0 0 0 0 0.192157 0 0 0 0 0.313726 0 0 0 0 0.623529 0 0 0 1 0"/>
<feBlend mode="normal" in2="shape" result="effect1_innerShadow_277_13068"/>
</filter>
<filter id="filter1_i_277_13068" x="1.01172" y="4" width="29.5734" height="14.1816" filterUnits="userSpaceOnUse" color-interpolation-filters="sRGB">
<feFlood flood-opacity="0" result="BackgroundImageFix"/>
<feBlend mode="normal" in="SourceGraphic" in2="BackgroundImageFix" result="shape"/>
<feColorMatrix in="SourceAlpha" type="matrix" values="0 0 0 0 0 0 0 0 0 0 0 0 0 0 0 0 0 0 127 0" result="hardAlpha"/>
<feOffset dx="0.8"/>
<feGaussianBlur stdDeviation="0.6"/>
<feComposite in2="hardAlpha" operator="arithmetic" k2="-1" k3="1"/>
<feColorMatrix type="matrix" values="0 0 0 0 0.670588 0 0 0 0 0.631373 0 0 0 0 0.65098 0 0 0 1 0"/>
<feBlend mode="normal" in2="shape" result="effect1_innerShadow_277_13068"/>
</filter>
<filter id="filter2_i_277_13068" x="1.01172" y="15.8" width="29.2422" height="2.38188" filterUnits="userSpaceOnUse" color-interpolation-filters="sRGB">
<feFlood flood-opacity="0" result="BackgroundImageFix"/>
<feBlend mode="normal" in="SourceGraphic" in2="BackgroundImageFix" result="shape"/>
<feColorMatrix in="SourceAlpha" type="matrix" values="0 0 0 0 0 0 0 0 0 0 0 0 0 0 0 0 0 0 127 0" result="hardAlpha"/>
<feOffset dx="1" dy="-0.2"/>
<feGaussianBlur stdDeviation="0.5"/>
<feComposite in2="hardAlpha" operator="arithmetic" k2="-1" k3="1"/>
<feColorMatrix type="matrix" values="0 0 0 0 0.141176 0 0 0 0 0.317647 0 0 0 0 0.607843 0 0 0 1 0"/>
<feBlend mode="normal" in2="shape" result="effect1_innerShadow_277_13068"/>
</filter>
<filter id="filter3_i_277_13068" x="18.7188" y="11.6367" width="4.42969" height="2.18188" filterUnits="userSpaceOnUse" color-interpolation-filters="sRGB">
<feFlood flood-opacity="0" result="BackgroundImageFix"/>
<feBlend mode="normal" in="SourceGraphic" in2="BackgroundImageFix" result="shape"/>
<feColorMatrix in="SourceAlpha" type="matrix" values="0 0 0 0 0 0 0 0 0 0 0 0 0 0 0 0 0 0 127 0" result="hardAlpha"/>
<feOffset/>
<feGaussianBlur stdDeviation="0.2"/>
<feComposite in2="hardAlpha" operator="arithmetic" k2="-1" k3="1"/>
<feColorMatrix type="matrix" values="0 0 0 0 0.909804 0 0 0 0 0.180392 0 0 0 0 0.0666667 0 0 0 1 0"/>
<feBlend mode="normal" in2="shape" result="effect1_innerShadow_277_13068"/>
</filter>
<linearGradient id="paint0_linear_277_13068" x1="1.01134" y1="19.8193" x2="32" y2="19.8193" gradientUnits="userSpaceOnUse">
<stop stop-color="#532B82"/>
<stop offset="1" stop-color="#231535"/>
</linearGradient>
<radialGradient id="paint1_radial_277_13068" cx="0" cy="0" r="1" gradientUnits="userSpaceOnUse" gradientTransform="translate(22.0821 19.6481) scale(10.4869 2.1167)">
<stop stop-color="#40305B"/>
<stop offset="1" stop-color="#3D2D57" stop-opacity="0"/>
</radialGradient>
<radialGradient id="paint2_radial_277_13068" cx="0" cy="0" r="1" gradientUnits="userSpaceOnUse" gradientTransform="translate(26.7206 27.7616) rotate(-90) scale(7.56812 3.28798)">
<stop offset="0.41" stop-color="#5B4080"/>
<stop offset="1" stop-color="#2D203F"/>
</radialGradient>
<radialGradient id="paint3_radial_277_13068" cx="0" cy="0" r="1" gradientUnits="userSpaceOnUse" gradientTransform="translate(18.9667 27.7616) rotate(-90) scale(7.56812 3.28798)">
<stop offset="0.41" stop-color="#5B4080"/>
<stop offset="1" stop-color="#2D203F"/>
</radialGradient>
<radialGradient id="paint4_radial_277_13068" cx="0" cy="0" r="1" gradientUnits="userSpaceOnUse" gradientTransform="translate(11.2345 27.7616) rotate(-90) scale(7.56812 3.27701)">
<stop offset="0.41" stop-color="#5B4080"/>
<stop offset="1" stop-color="#2D203F"/>
</radialGradient>
<radialGradient id="paint5_radial_277_13068" cx="0" cy="0" r="1" gradientUnits="userSpaceOnUse" gradientTransform="translate(3.48234 27.7616) rotate(-90) scale(7.56812 3.28798)">
<stop offset="0.41" stop-color="#5B4080"/>
<stop offset="1" stop-color="#2D203F"/>
</radialGradient>
<linearGradient id="paint6_linear_277_13068" x1="0.999063" y1="19.2758" x2="22.3533" y2="19.2758" gradientUnits="userSpaceOnUse">
<stop stop-color="#409FFB"/>
<stop offset="1" stop-color="#456BB0"/>
</linearGradient>
<linearGradient id="paint7_linear_277_13068" x1="12.6226" y1="17.8413" x2="12.6226" y2="18.3693" gradientUnits="userSpaceOnUse">
<stop stop-color="#295BB2"/>
<stop offset="1" stop-color="#295BB2" stop-opacity="0"/>
</linearGradient>
<linearGradient id="paint8_linear_277_13068" x1="8.05876" y1="12.9268" x2="8.05876" y2="4" gradientUnits="userSpaceOnUse">
<stop stop-color="#ECDFF2"/>
<stop offset="1" stop-color="#EFE8F1"/>
</linearGradient>
<linearGradient id="paint9_linear_277_13068" x1="29.083" y1="18.1817" x2="16.1969" y2="18.1817" gradientUnits="userSpaceOnUse">
<stop stop-color="#D7CCD7"/>
<stop offset="1" stop-color="#D7CCD7" stop-opacity="0"/>
</linearGradient>
<linearGradient id="paint10_linear_277_13068" x1="1.01156" y1="12.3268" x2="1.21424" y2="12.3268" gradientUnits="userSpaceOnUse">
<stop stop-color="#F0EFF1"/>
<stop offset="1" stop-color="#F0EFF1" stop-opacity="0"/>
</linearGradient>
<linearGradient id="paint11_linear_277_13068" x1="15.1329" y1="16.3153" x2="15.1329" y2="18.1818" gradientUnits="userSpaceOnUse">
<stop offset="0.353" stop-color="#50A9E4"/>
<stop offset="1" stop-color="#3D7AC3"/>
</linearGradient>
<linearGradient id="paint12_linear_277_13068" x1="1.0025" y1="15.4579" x2="29.6875" y2="15.4545" gradientUnits="userSpaceOnUse">
<stop stop-color="#6CF0FF"/>
<stop offset="0.93" stop-color="#70FBFF"/>
<stop offset="0.992" stop-color="#5DC9ED"/>
</linearGradient>
<radialGradient id="paint13_radial_277_13068" cx="0" cy="0" r="1" gradientUnits="userSpaceOnUse" gradientTransform="translate(22.5692 12.7309) rotate(180) scale(4.15952 1.79921)">
<stop stop-color="#FF6D46"/>
<stop offset="1" stop-color="#F43A21"/>
</radialGradient>
<radialGradient id="paint14_radial_277_13068" cx="0" cy="0" r="1" gradientUnits="userSpaceOnUse" gradientTransform="translate(7.54971 4.03903) rotate(91.6854) scale(4.78738 8.47015)">
<stop offset="0.117" stop-color="#0686FB"/>
<stop offset="1" stop-color="#50E9FF"/>
</radialGradient>
<linearGradient id="paint15_linear_277_13068" x1="5.44098" y1="4.54629" x2="5.44098" y2="6.04519" gradientUnits="userSpaceOnUse">
<stop stop-color="#037FF5"/>
<stop offset="1" stop-color="#037FF5" stop-opacity="0"/>
</linearGradient>
<linearGradient id="paint16_linear_277_13068" x1="5.44098" y1="10.8484" x2="5.44098" y2="9.73571" gradientUnits="userSpaceOnUse">
<stop stop-color="#2DD4FF"/>
<stop offset="1" stop-color="#2DD4FF" stop-opacity="0"/>
</linearGradient>
<linearGradient id="paint17_linear_277_13068" x1="24.4638" y1="10.5453" x2="12.7597" y2="6.39438" gradientUnits="userSpaceOnUse">
<stop stop-color="#59FDFF"/>
<stop offset="1" stop-color="#218FEA"/>
</linearGradient>
<linearGradient id="paint18_linear_277_13068" x1="18.1752" y1="10.9446" x2="18.1752" y2="9.60169" gradientUnits="userSpaceOnUse">
<stop stop-color="#1C9CE3"/>
<stop offset="1" stop-color="#1C9CE3" stop-opacity="0"/>
</linearGradient>
<linearGradient id="paint19_linear_277_13068" x1="28.4032" y1="11.3559" x2="20.5213" y2="10.5207" gradientUnits="userSpaceOnUse">
<stop stop-color="#5BFFFF"/>
<stop offset="1" stop-color="#5BFFFF" stop-opacity="0"/>
</linearGradient>
<linearGradient id="paint20_linear_277_13068" x1="18.3269" y1="4.34028" x2="18.3269" y2="6.91481" gradientUnits="userSpaceOnUse">
<stop stop-color="#047DE4"/>
<stop offset="1" stop-color="#047DE4" stop-opacity="0"/>
</linearGradient>
</defs>
</svg>
