<svg width="32" height="32" viewBox="0 0 32 32" fill="none" xmlns="http://www.w3.org/2000/svg">
<g filter="url(#filter0_i_277_11321)">
<path d="M26.7409 0.927734H5.26085C2.88823 0.927734 0.964844 2.85112 0.964844 5.22374V26.7038C0.964844 29.0764 2.88823 30.9998 5.26085 30.9998H26.7409C29.1135 30.9998 31.0369 29.0764 31.0369 26.7038V5.22374C31.0369 2.85112 29.1135 0.927734 26.7409 0.927734Z" fill="url(#paint0_linear_277_11321)"/>
<path d="M26.7409 0.927734H5.26085C2.88823 0.927734 0.964844 2.85112 0.964844 5.22374V26.7038C0.964844 29.0764 2.88823 30.9998 5.26085 30.9998H26.7409C29.1135 30.9998 31.0369 29.0764 31.0369 26.7038V5.22374C31.0369 2.85112 29.1135 0.927734 26.7409 0.927734Z" fill="url(#paint1_linear_277_11321)"/>
<path d="M26.7409 0.927734H5.26085C2.88823 0.927734 0.964844 2.85112 0.964844 5.22374V26.7038C0.964844 29.0764 2.88823 30.9998 5.26085 30.9998H26.7409C29.1135 30.9998 31.0369 29.0764 31.0369 26.7038V5.22374C31.0369 2.85112 29.1135 0.927734 26.7409 0.927734Z" fill="url(#paint2_linear_277_11321)"/>
<path d="M26.7409 0.927734H5.26085C2.88823 0.927734 0.964844 2.85112 0.964844 5.22374V26.7038C0.964844 29.0764 2.88823 30.9998 5.26085 30.9998H26.7409C29.1135 30.9998 31.0369 29.0764 31.0369 26.7038V5.22374C31.0369 2.85112 29.1135 0.927734 26.7409 0.927734Z" fill="url(#paint3_radial_277_11321)"/>
<path d="M26.7409 0.927734H5.26085C2.88823 0.927734 0.964844 2.85112 0.964844 5.22374V26.7038C0.964844 29.0764 2.88823 30.9998 5.26085 30.9998H26.7409C29.1135 30.9998 31.0369 29.0764 31.0369 26.7038V5.22374C31.0369 2.85112 29.1135 0.927734 26.7409 0.927734Z" fill="url(#paint4_radial_277_11321)"/>
</g>
<g filter="url(#filter1_ii_277_11321)">
<path d="M18.1484 30.8094H26.7404C27.4946 30.8108 28.2357 30.6125 28.8884 30.2349V17.1159C28.8884 16.3749 28.287 15.7734 27.5459 15.7734H19.4909C18.7499 15.7734 18.1484 16.3749 18.1484 17.1159V30.8094Z" fill="#2D2934"/>
<path d="M18.1484 30.8094H26.7404C27.4946 30.8108 28.2357 30.6125 28.8884 30.2349V17.1159C28.8884 16.3749 28.287 15.7734 27.5459 15.7734H19.4909C18.7499 15.7734 18.1484 16.3749 18.1484 17.1159V30.8094Z" fill="url(#paint5_linear_277_11321)"/>
</g>
<g filter="url(#filter2_ii_277_11321)">
<path d="M18.1484 30.8094H26.7404C27.4946 30.8108 28.2357 30.6125 28.8884 30.2349V17.1159C28.8884 16.3749 28.287 15.7734 27.5459 15.7734H19.4909C18.7499 15.7734 18.1484 16.3749 18.1484 17.1159V30.8094Z" fill="#316FAB"/>
<path d="M18.1484 30.8094H26.7404C27.4946 30.8108 28.2357 30.6125 28.8884 30.2349V17.1159C28.8884 16.3749 28.287 15.7734 27.5459 15.7734H19.4909C18.7499 15.7734 18.1484 16.3749 18.1484 17.1159V30.8094Z" fill="url(#paint6_linear_277_11321)"/>
</g>
<path d="M18.1484 30.8094H26.7404C27.4946 30.8108 28.2357 30.6125 28.8884 30.2349V17.1159C28.8884 16.3749 28.287 15.7734 27.5459 15.7734H19.4909C18.7499 15.7734 18.1484 16.3749 18.1484 17.1159V30.8094Z" fill="url(#paint7_linear_277_11321)"/>
<g filter="url(#filter3_i_277_11321)">
<path d="M19.3184 11.4573C18.9308 11.457 18.548 11.3716 18.1969 11.2072C17.8459 11.0428 17.5353 10.8033 17.2869 10.5058C17.0386 10.2082 16.8586 9.85967 16.7596 9.4849C16.6607 9.11013 16.6452 8.71821 16.7143 8.33681C16.7834 7.9554 16.9353 7.5938 17.1594 7.27754C17.3835 6.96128 17.6743 6.69807 18.0113 6.50648C18.3482 6.31489 18.7231 6.19959 19.1095 6.16873C19.4959 6.13787 19.8843 6.19219 20.2474 6.32786C20.6115 6.46426 21.0787 6.30853 21.2559 5.9627C21.5588 5.37194 22.0122 4.87155 22.5703 4.51208C23.1285 4.15261 23.7716 3.94677 24.4348 3.91536C25.0979 3.88395 25.7576 4.02807 26.3472 4.33318C26.9369 4.63828 27.4355 5.09357 27.7929 5.65306C28.1503 6.21255 28.3537 6.85643 28.3827 7.51969C28.4116 8.18295 28.265 8.8421 27.9577 9.43058C27.6504 10.0191 27.1932 10.516 26.6324 10.8713C26.0716 11.2266 25.4269 11.4276 24.7636 11.4541V11.4573H19.3184Z" fill="#D9D5FF"/>
<path d="M19.3184 11.4573C18.9308 11.457 18.548 11.3716 18.1969 11.2072C17.8459 11.0428 17.5353 10.8033 17.2869 10.5058C17.0386 10.2082 16.8586 9.85967 16.7596 9.4849C16.6607 9.11013 16.6452 8.71821 16.7143 8.33681C16.7834 7.9554 16.9353 7.5938 17.1594 7.27754C17.3835 6.96128 17.6743 6.69807 18.0113 6.50648C18.3482 6.31489 18.7231 6.19959 19.1095 6.16873C19.4959 6.13787 19.8843 6.19219 20.2474 6.32786C20.6115 6.46426 21.0787 6.30853 21.2559 5.9627C21.5588 5.37194 22.0122 4.87155 22.5703 4.51208C23.1285 4.15261 23.7716 3.94677 24.4348 3.91536C25.0979 3.88395 25.7576 4.02807 26.3472 4.33318C26.9369 4.63828 27.4355 5.09357 27.7929 5.65306C28.1503 6.21255 28.3537 6.85643 28.3827 7.51969C28.4116 8.18295 28.265 8.8421 27.9577 9.43058C27.6504 10.0191 27.1932 10.516 26.6324 10.8713C26.0716 11.2266 25.4269 11.4276 24.7636 11.4541V11.4573H19.3184Z" fill="url(#paint8_linear_277_11321)"/>
</g>
<g filter="url(#filter4_i_277_11321)">
<path d="M14.6897 6.08283C14.5131 6.08274 14.3387 6.04348 14.1791 5.96787C14.0195 5.89227 13.8787 5.78221 13.7667 5.64563C13.6548 5.50904 13.5745 5.34932 13.5317 5.17798C13.4889 5.00664 13.4846 4.82794 13.5192 4.65475C13.5538 4.48156 13.6263 4.31819 13.7316 4.17641C13.8369 4.03464 13.9724 3.91798 14.1282 3.83485C14.284 3.75172 14.4563 3.70417 14.6327 3.69565C14.8091 3.68712 14.9852 3.71783 15.1483 3.78555C15.2912 3.84569 15.477 3.7834 15.5446 3.64378C15.6753 3.37244 15.8757 3.14065 16.1252 2.97209C16.3748 2.80353 16.6646 2.70425 16.9651 2.68437C17.2656 2.6645 17.566 2.72475 17.8356 2.85898C18.1052 2.99321 18.3343 3.19659 18.4996 3.44836C18.6649 3.70013 18.7603 3.99125 18.7762 4.29199C18.7921 4.59273 18.7279 4.8923 18.5902 5.16011C18.4524 5.42791 18.246 5.65434 17.9921 5.81626C17.7382 5.97819 17.4458 6.06981 17.1449 6.08176H14.6897V6.08283Z" fill="#D6D5FF"/>
<path d="M14.6897 6.08283C14.5131 6.08274 14.3387 6.04348 14.1791 5.96787C14.0195 5.89227 13.8787 5.78221 13.7667 5.64563C13.6548 5.50904 13.5745 5.34932 13.5317 5.17798C13.4889 5.00664 13.4846 4.82794 13.5192 4.65475C13.5538 4.48156 13.6263 4.31819 13.7316 4.17641C13.8369 4.03464 13.9724 3.91798 14.1282 3.83485C14.284 3.75172 14.4563 3.70417 14.6327 3.69565C14.8091 3.68712 14.9852 3.71783 15.1483 3.78555C15.2912 3.84569 15.477 3.7834 15.5446 3.64378C15.6753 3.37244 15.8757 3.14065 16.1252 2.97209C16.3748 2.80353 16.6646 2.70425 16.9651 2.68437C17.2656 2.6645 17.566 2.72475 17.8356 2.85898C18.1052 2.99321 18.3343 3.19659 18.4996 3.44836C18.6649 3.70013 18.7603 3.99125 18.7762 4.29199C18.7921 4.59273 18.7279 4.8923 18.5902 5.16011C18.4524 5.42791 18.246 5.65434 17.9921 5.81626C17.7382 5.97819 17.4458 6.06981 17.1449 6.08176H14.6897V6.08283Z" fill="url(#paint9_linear_277_11321)"/>
</g>
<g filter="url(#filter5_ii_277_11321)">
<path d="M5.26128 30.8092H12.7793V6.3757C12.7793 5.63464 12.1778 5.0332 11.4368 5.0332H9.82579C9.08473 5.0332 8.48329 5.63464 8.48329 6.3757V7.1812H4.45578C3.71472 7.1812 3.11328 7.78264 3.11328 8.52371V30.2346C3.74479 30.5998 4.47834 30.8092 5.26128 30.8092Z" fill="#3495DE"/>
<path d="M5.26128 30.8092H12.7793V6.3757C12.7793 5.63464 12.1778 5.0332 11.4368 5.0332H9.82579C9.08473 5.0332 8.48329 5.63464 8.48329 6.3757V7.1812H4.45578C3.71472 7.1812 3.11328 7.78264 3.11328 8.52371V30.2346C3.74479 30.5998 4.47834 30.8092 5.26128 30.8092Z" fill="url(#paint10_linear_277_11321)"/>
</g>
<path d="M5.26128 30.8092H12.7793V6.3757C12.7793 5.63464 12.1778 5.0332 11.4368 5.0332H9.82579C9.08473 5.0332 8.48329 5.63464 8.48329 6.3757V7.1812H4.45578C3.71472 7.1812 3.11328 7.78264 3.11328 8.52371V30.2346C3.74479 30.5998 4.47834 30.8092 5.26128 30.8092Z" fill="url(#paint11_linear_277_11321)"/>
<g filter="url(#filter6_i_277_11321)">
<path d="M23.5195 30.8101H26.7415C27.8809 30.8101 28.9736 30.3575 29.7793 29.5518C30.5849 28.7462 31.0375 27.6535 31.0375 26.5141V18.9961H24.862C24.121 18.9961 23.5195 19.5975 23.5195 20.3386V30.8101Z" fill="url(#paint12_linear_277_11321)"/>
</g>
<g filter="url(#filter7_i_277_11321)">
<path d="M23.5195 30.8101H26.7415C27.8809 30.8101 28.9736 30.3575 29.7793 29.5518C30.5849 28.7462 31.0375 27.6535 31.0375 26.5141V18.9961H24.862C24.121 18.9961 23.5195 19.5975 23.5195 20.3386V30.8101Z" fill="url(#paint13_linear_277_11321)"/>
</g>
<path d="M23.5195 30.8101H26.7415C27.8809 30.8101 28.9736 30.3575 29.7793 29.5518C30.5849 28.7462 31.0375 27.6535 31.0375 26.5141V18.9961H24.862C24.121 18.9961 23.5195 19.5975 23.5195 20.3386V30.8101Z" fill="url(#paint14_linear_277_11321)"/>
<g filter="url(#filter8_i_277_11321)">
<path d="M0.964844 13.626V26.514C0.964844 27.6534 1.41746 28.7461 2.22311 29.5517C3.02877 30.3574 4.12148 30.81 5.26085 30.81H6.33485V14.9685C6.33485 14.2274 5.73341 13.626 4.99235 13.626H0.964844Z" fill="url(#paint15_linear_277_11321)"/>
</g>
<path d="M0.964844 13.626V26.514C0.964844 27.6534 1.41746 28.7461 2.22311 29.5517C3.02877 30.3574 4.12148 30.81 5.26085 30.81H6.33485V14.9685C6.33485 14.2274 5.73341 13.626 4.99235 13.626H0.964844Z" fill="url(#paint16_linear_277_11321)"/>
<g filter="url(#filter9_ii_277_11321)">
<path d="M8.48438 30.8093H21.3724V24.6338C21.3724 23.8928 20.7709 23.2913 20.0299 23.2913H19.2244V11.7458C19.2244 11.0048 18.6229 10.4033 17.8819 10.4033H9.82688C9.08582 10.4033 8.48438 11.0048 8.48438 11.7458V30.8093Z" fill="url(#paint17_linear_277_11321)"/>
</g>
<path d="M8.48438 30.8093H21.3724V24.6338C21.3724 23.8928 20.7709 23.2913 20.0299 23.2913H19.2244V11.7458C19.2244 11.0048 18.6229 10.4033 17.8819 10.4033H9.82688C9.08582 10.4033 8.48438 11.0048 8.48438 11.7458V30.8093Z" fill="url(#paint18_linear_277_11321)"/>
<g filter="url(#filter10_i_277_11321)">
<path fill-rule="evenodd" clip-rule="evenodd" d="M31.0378 25.4395H25.6678C25.3829 25.4395 25.1097 25.5526 24.9083 25.754C24.7069 25.9554 24.5938 26.2286 24.5938 26.5135C24.5938 26.7983 24.7069 27.0715 24.9083 27.2729C25.1097 27.4743 25.3829 27.5875 25.6678 27.5875H30.9024C30.9925 27.2366 31.038 26.8757 31.0378 26.5135V25.4395Z" fill="url(#paint19_linear_277_11321)"/>
</g>
<g filter="url(#filter11_i_277_11321)">
<path d="M24.5938 22.2176C24.5938 21.9327 24.7069 21.6595 24.9083 21.4581C25.1097 21.2567 25.3829 21.1436 25.6678 21.1436H31.0378V23.2916H25.6678C25.3829 23.2916 25.1097 23.1784 24.9083 22.977C24.7069 22.7756 24.5938 22.5024 24.5938 22.2176Z" fill="url(#paint20_linear_277_11321)"/>
</g>
<g filter="url(#filter12_i_277_11321)">
<path d="M16.7331 12.5684H15.2714C15.0935 12.5684 14.9492 12.7126 14.9492 12.8906V14.3512C14.9492 14.5291 15.0935 14.6734 15.2714 14.6734H16.7331C16.9111 14.6734 17.0553 14.5291 17.0553 14.3512V12.8906C17.0553 12.7126 16.9111 12.5684 16.7331 12.5684Z" fill="url(#paint21_linear_277_11321)"/>
</g>
<g filter="url(#filter13_i_277_11321)">
<path d="M12.4363 12.5684H10.9745C10.7966 12.5684 10.6523 12.7126 10.6523 12.8906V14.3512C10.6523 14.5291 10.7966 14.6734 10.9745 14.6734H12.4363C12.6142 14.6734 12.7585 14.5291 12.7585 14.3512V12.8906C12.7585 12.7126 12.6142 12.5684 12.4363 12.5684Z" fill="url(#paint22_linear_277_11321)"/>
</g>
<g filter="url(#filter14_i_277_11321)">
<path d="M3.84642 15.7949H2.3847C2.20675 15.7949 2.0625 15.9392 2.0625 16.1171V17.5778C2.0625 17.7557 2.20675 17.9 2.3847 17.9H3.84642C4.02436 17.9 4.16862 17.7557 4.16862 17.5778V16.1171C4.16862 15.9392 4.02436 15.7949 3.84642 15.7949Z" fill="url(#paint23_linear_277_11321)"/>
</g>
<g filter="url(#filter15_i_277_11321)">
<path d="M3.84251 20.0908H2.38079C2.20285 20.0908 2.05859 20.2351 2.05859 20.413V21.8737C2.05859 22.0516 2.20285 22.1959 2.38079 22.1959H3.84251C4.02046 22.1959 4.16471 22.0516 4.16471 21.8737V20.413C4.16471 20.2351 4.02046 20.0908 3.84251 20.0908Z" fill="url(#paint24_linear_277_11321)"/>
</g>
<g filter="url(#filter16_i_277_11321)">
<path d="M3.84251 24.3867H2.38079C2.20285 24.3867 2.05859 24.531 2.05859 24.7089V26.1696C2.05859 26.3475 2.20285 26.4918 2.38079 26.4918H3.84251C4.02046 26.4918 4.16471 26.3475 4.16471 26.1696V24.7089C4.16471 24.531 4.02046 24.3867 3.84251 24.3867Z" fill="url(#paint25_linear_277_11321)"/>
</g>
<g filter="url(#filter17_i_277_11321)">
<path d="M16.7331 16.8691H15.2714C15.0935 16.8691 14.9492 17.0134 14.9492 17.1913V18.652C14.9492 18.8299 15.0935 18.9742 15.2714 18.9742H16.7331C16.9111 18.9742 17.0553 18.8299 17.0553 18.652V17.1913C17.0553 17.0134 16.9111 16.8691 16.7331 16.8691Z" fill="url(#paint26_linear_277_11321)"/>
</g>
<g filter="url(#filter18_i_277_11321)">
<path d="M16.7331 21.1699H15.2714C15.0935 21.1699 14.9492 21.3142 14.9492 21.4921V22.9528C14.9492 23.1307 15.0935 23.275 15.2714 23.275H16.7331C16.9111 23.275 17.0553 23.1307 17.0553 22.9528V21.4921C17.0553 21.3142 16.9111 21.1699 16.7331 21.1699Z" fill="url(#paint27_linear_277_11321)"/>
</g>
<g filter="url(#filter19_i_277_11321)">
<path d="M16.7331 25.4707H15.2714C15.0935 25.4707 14.9492 25.615 14.9492 25.7929V27.2535C14.9492 27.4315 15.0935 27.5757 15.2714 27.5757H16.7331C16.9111 27.5757 17.0553 27.4315 17.0553 27.2535V25.7929C17.0553 25.615 16.9111 25.4707 16.7331 25.4707Z" fill="url(#paint28_linear_277_11321)"/>
</g>
<g filter="url(#filter20_i_277_11321)">
<path d="M12.4363 16.8691H10.9745C10.7966 16.8691 10.6523 17.0134 10.6523 17.1913V18.652C10.6523 18.8299 10.7966 18.9742 10.9745 18.9742H12.4363C12.6142 18.9742 12.7585 18.8299 12.7585 18.652V17.1913C12.7585 17.0134 12.6142 16.8691 12.4363 16.8691Z" fill="url(#paint29_linear_277_11321)"/>
</g>
<g filter="url(#filter21_i_277_11321)">
<path d="M12.4363 21.1699H10.9745C10.7966 21.1699 10.6523 21.3142 10.6523 21.4921V22.9528C10.6523 23.1307 10.7966 23.275 10.9745 23.275H12.4363C12.6142 23.275 12.7585 23.1307 12.7585 22.9528V21.4921C12.7585 21.3142 12.6142 21.1699 12.4363 21.1699Z" fill="url(#paint30_linear_277_11321)"/>
</g>
<g filter="url(#filter22_i_277_11321)">
<path d="M12.4363 25.4707H10.9745C10.7966 25.4707 10.6523 25.615 10.6523 25.7929V27.2535C10.6523 27.4315 10.7966 27.5757 10.9745 27.5757H12.4363C12.6142 27.5757 12.7585 27.4315 12.7585 27.2535V25.7929C12.7585 25.615 12.6142 25.4707 12.4363 25.4707Z" fill="url(#paint31_linear_277_11321)"/>
</g>
<g filter="url(#filter23_f_277_11321)">
<path d="M21.2891 7.87426C21.1709 7.12246 20.6479 6.62305 19.8574 6.62305C19.067 6.62305 18.4258 7.18368 18.4258 7.87426C18.4258 8.1245 18.5106 8.35756 18.6556 8.55303L18.7952 8.75601C19.0917 9.18515 19.4878 9.53592 19.9497 9.77818C20.4116 10.0204 20.9254 10.1469 21.4469 10.1468H22.8861L22.1987 9.74624C22.0109 9.63882 21.848 9.49284 21.7206 9.31791C21.5932 9.14297 21.5044 8.94306 21.4598 8.73131C21.3997 8.43489 21.3428 8.13631 21.2891 7.87426Z" fill="url(#paint32_linear_277_11321)"/>
</g>
<g filter="url(#filter24_f_277_11321)">
<path d="M15.58 4.46815C15.5263 4.12984 15.29 3.9043 14.9356 3.9043C14.578 3.9043 14.2891 4.15669 14.2891 4.46815C14.2891 4.58092 14.3277 4.68617 14.3922 4.77424C14.7036 5.22532 15.2149 5.49382 15.7615 5.49382H16.2996C16.1175 5.38845 15.9598 5.24558 15.837 5.07468C15.7143 4.90379 15.6292 4.70876 15.5875 4.50252L15.58 4.46815Z" fill="url(#paint33_linear_277_11321)"/>
</g>
<g filter="url(#filter25_f_277_11321)">
<path d="M24.9503 9.89967C26.4611 9.89967 27.6858 8.67495 27.6858 7.16419C27.6858 5.65343 26.4611 4.42871 24.9503 4.42871C23.4396 4.42871 22.2148 5.65343 22.2148 7.16419C22.2148 8.67495 23.4396 9.89967 24.9503 9.89967Z" fill="url(#paint34_radial_277_11321)"/>
</g>
<g filter="url(#filter26_f_277_11321)">
<path d="M17.229 5.38095C17.91 5.38095 18.462 4.82893 18.462 4.14799C18.462 3.46705 17.91 2.91504 17.229 2.91504C16.5481 2.91504 15.9961 3.46705 15.9961 4.14799C15.9961 4.82893 16.5481 5.38095 17.229 5.38095Z" fill="url(#paint35_radial_277_11321)"/>
</g>
<defs>
<filter id="filter0_i_277_11321" x="0.964844" y="0.927734" width="30.2203" height="30.2218" filterUnits="userSpaceOnUse" color-interpolation-filters="sRGB">
<feFlood flood-opacity="0" result="BackgroundImageFix"/>
<feBlend mode="normal" in="SourceGraphic" in2="BackgroundImageFix" result="shape"/>
<feColorMatrix in="SourceAlpha" type="matrix" values="0 0 0 0 0 0 0 0 0 0 0 0 0 0 0 0 0 0 127 0" result="hardAlpha"/>
<feOffset dx="0.15" dy="0.15"/>
<feGaussianBlur stdDeviation="0.3"/>
<feComposite in2="hardAlpha" operator="arithmetic" k2="-1" k3="1"/>
<feColorMatrix type="matrix" values="0 0 0 0 0.219608 0 0 0 0 0.690196 0 0 0 0 0.780392 0 0 0 1 0"/>
<feBlend mode="normal" in2="shape" result="effect1_innerShadow_277_11321"/>
</filter>
<filter id="filter1_ii_277_11321" x="17.9484" y="15.5734" width="11.1383" height="15.4361" filterUnits="userSpaceOnUse" color-interpolation-filters="sRGB">
<feFlood flood-opacity="0" result="BackgroundImageFix"/>
<feBlend mode="normal" in="SourceGraphic" in2="BackgroundImageFix" result="shape"/>
<feColorMatrix in="SourceAlpha" type="matrix" values="0 0 0 0 0 0 0 0 0 0 0 0 0 0 0 0 0 0 127 0" result="hardAlpha"/>
<feOffset dx="-0.2" dy="0.2"/>
<feGaussianBlur stdDeviation="0.2"/>
<feComposite in2="hardAlpha" operator="arithmetic" k2="-1" k3="1"/>
<feColorMatrix type="matrix" values="0 0 0 0 0.27451 0 0 0 0 0.266667 0 0 0 0 0.282353 0 0 0 1 0"/>
<feBlend mode="normal" in2="shape" result="effect1_innerShadow_277_11321"/>
<feColorMatrix in="SourceAlpha" type="matrix" values="0 0 0 0 0 0 0 0 0 0 0 0 0 0 0 0 0 0 127 0" result="hardAlpha"/>
<feOffset dx="0.2" dy="-0.2"/>
<feGaussianBlur stdDeviation="0.2"/>
<feComposite in2="hardAlpha" operator="arithmetic" k2="-1" k3="1"/>
<feColorMatrix type="matrix" values="0 0 0 0 0.0509804 0 0 0 0 0.027451 0 0 0 0 0.0823529 0 0 0 1 0"/>
<feBlend mode="normal" in2="effect1_innerShadow_277_11321" result="effect2_innerShadow_277_11321"/>
</filter>
<filter id="filter2_ii_277_11321" x="17.9484" y="15.5734" width="11.1383" height="15.4361" filterUnits="userSpaceOnUse" color-interpolation-filters="sRGB">
<feFlood flood-opacity="0" result="BackgroundImageFix"/>
<feBlend mode="normal" in="SourceGraphic" in2="BackgroundImageFix" result="shape"/>
<feColorMatrix in="SourceAlpha" type="matrix" values="0 0 0 0 0 0 0 0 0 0 0 0 0 0 0 0 0 0 127 0" result="hardAlpha"/>
<feOffset dx="-0.2" dy="0.2"/>
<feGaussianBlur stdDeviation="0.2"/>
<feComposite in2="hardAlpha" operator="arithmetic" k2="-1" k3="1"/>
<feColorMatrix type="matrix" values="0 0 0 0 0.25098 0 0 0 0 0.603922 0 0 0 0 0.862745 0 0 0 1 0"/>
<feBlend mode="normal" in2="shape" result="effect1_innerShadow_277_11321"/>
<feColorMatrix in="SourceAlpha" type="matrix" values="0 0 0 0 0 0 0 0 0 0 0 0 0 0 0 0 0 0 127 0" result="hardAlpha"/>
<feOffset dx="0.2" dy="-0.2"/>
<feGaussianBlur stdDeviation="0.2"/>
<feComposite in2="hardAlpha" operator="arithmetic" k2="-1" k3="1"/>
<feColorMatrix type="matrix" values="0 0 0 0 0.184314 0 0 0 0 0.478431 0 0 0 0 0.705882 0 0 0 1 0"/>
<feBlend mode="normal" in2="effect1_innerShadow_277_11321" result="effect2_innerShadow_277_11321"/>
</filter>
<filter id="filter3_i_277_11321" x="16.6719" y="3.91113" width="11.8648" height="7.54639" filterUnits="userSpaceOnUse" color-interpolation-filters="sRGB">
<feFlood flood-opacity="0" result="BackgroundImageFix"/>
<feBlend mode="normal" in="SourceGraphic" in2="BackgroundImageFix" result="shape"/>
<feColorMatrix in="SourceAlpha" type="matrix" values="0 0 0 0 0 0 0 0 0 0 0 0 0 0 0 0 0 0 127 0" result="hardAlpha"/>
<feOffset dx="0.15"/>
<feGaussianBlur stdDeviation="0.5"/>
<feComposite in2="hardAlpha" operator="arithmetic" k2="-1" k3="1"/>
<feColorMatrix type="matrix" values="0 0 0 0 0.741176 0 0 0 0 0.717647 0 0 0 0 1 0 0 0 1 0"/>
<feBlend mode="normal" in2="shape" result="effect1_innerShadow_277_11321"/>
</filter>
<filter id="filter4_i_277_11321" x="13.4961" y="2.68066" width="5.43125" height="3.40234" filterUnits="userSpaceOnUse" color-interpolation-filters="sRGB">
<feFlood flood-opacity="0" result="BackgroundImageFix"/>
<feBlend mode="normal" in="SourceGraphic" in2="BackgroundImageFix" result="shape"/>
<feColorMatrix in="SourceAlpha" type="matrix" values="0 0 0 0 0 0 0 0 0 0 0 0 0 0 0 0 0 0 127 0" result="hardAlpha"/>
<feOffset dx="0.15"/>
<feGaussianBlur stdDeviation="0.25"/>
<feComposite in2="hardAlpha" operator="arithmetic" k2="-1" k3="1"/>
<feColorMatrix type="matrix" values="0 0 0 0 0.741176 0 0 0 0 0.717647 0 0 0 0 1 0 0 0 1 0"/>
<feBlend mode="normal" in2="shape" result="effect1_innerShadow_277_11321"/>
</filter>
<filter id="filter5_ii_277_11321" x="2.91328" y="4.8332" width="10.0641" height="26.1759" filterUnits="userSpaceOnUse" color-interpolation-filters="sRGB">
<feFlood flood-opacity="0" result="BackgroundImageFix"/>
<feBlend mode="normal" in="SourceGraphic" in2="BackgroundImageFix" result="shape"/>
<feColorMatrix in="SourceAlpha" type="matrix" values="0 0 0 0 0 0 0 0 0 0 0 0 0 0 0 0 0 0 127 0" result="hardAlpha"/>
<feOffset dx="-0.2" dy="0.2"/>
<feGaussianBlur stdDeviation="0.2"/>
<feComposite in2="hardAlpha" operator="arithmetic" k2="-1" k3="1"/>
<feColorMatrix type="matrix" values="0 0 0 0 0.25098 0 0 0 0 0.603922 0 0 0 0 0.862745 0 0 0 1 0"/>
<feBlend mode="normal" in2="shape" result="effect1_innerShadow_277_11321"/>
<feColorMatrix in="SourceAlpha" type="matrix" values="0 0 0 0 0 0 0 0 0 0 0 0 0 0 0 0 0 0 127 0" result="hardAlpha"/>
<feOffset dx="0.2" dy="-0.2"/>
<feGaussianBlur stdDeviation="0.2"/>
<feComposite in2="hardAlpha" operator="arithmetic" k2="-1" k3="1"/>
<feColorMatrix type="matrix" values="0 0 0 0 0.184314 0 0 0 0 0.478431 0 0 0 0 0.705882 0 0 0 1 0"/>
<feBlend mode="normal" in2="effect1_innerShadow_277_11321" result="effect2_innerShadow_277_11321"/>
</filter>
<filter id="filter6_i_277_11321" x="23.5195" y="18.9961" width="7.71953" height="11.814" filterUnits="userSpaceOnUse" color-interpolation-filters="sRGB">
<feFlood flood-opacity="0" result="BackgroundImageFix"/>
<feBlend mode="normal" in="SourceGraphic" in2="BackgroundImageFix" result="shape"/>
<feColorMatrix in="SourceAlpha" type="matrix" values="0 0 0 0 0 0 0 0 0 0 0 0 0 0 0 0 0 0 127 0" result="hardAlpha"/>
<feOffset dx="0.2"/>
<feGaussianBlur stdDeviation="0.2"/>
<feComposite in2="hardAlpha" operator="arithmetic" k2="-1" k3="1"/>
<feColorMatrix type="matrix" values="0 0 0 0 0.356863 0 0 0 0 0.501961 0 0 0 0 0.666667 0 0 0 1 0"/>
<feBlend mode="normal" in2="shape" result="effect1_innerShadow_277_11321"/>
</filter>
<filter id="filter7_i_277_11321" x="23.5195" y="18.9961" width="7.71953" height="11.814" filterUnits="userSpaceOnUse" color-interpolation-filters="sRGB">
<feFlood flood-opacity="0" result="BackgroundImageFix"/>
<feBlend mode="normal" in="SourceGraphic" in2="BackgroundImageFix" result="shape"/>
<feColorMatrix in="SourceAlpha" type="matrix" values="0 0 0 0 0 0 0 0 0 0 0 0 0 0 0 0 0 0 127 0" result="hardAlpha"/>
<feOffset dx="0.2"/>
<feGaussianBlur stdDeviation="0.2"/>
<feComposite in2="hardAlpha" operator="arithmetic" k2="-1" k3="1"/>
<feColorMatrix type="matrix" values="0 0 0 0 0.129412 0 0 0 0 0.309804 0 0 0 0 0.682353 0 0 0 1 0"/>
<feBlend mode="normal" in2="shape" result="effect1_innerShadow_277_11321"/>
</filter>
<filter id="filter8_i_277_11321" x="0.764844" y="13.626" width="5.57109" height="17.1841" filterUnits="userSpaceOnUse" color-interpolation-filters="sRGB">
<feFlood flood-opacity="0" result="BackgroundImageFix"/>
<feBlend mode="normal" in="SourceGraphic" in2="BackgroundImageFix" result="shape"/>
<feColorMatrix in="SourceAlpha" type="matrix" values="0 0 0 0 0 0 0 0 0 0 0 0 0 0 0 0 0 0 127 0" result="hardAlpha"/>
<feOffset dx="-0.2"/>
<feGaussianBlur stdDeviation="0.2"/>
<feComposite in2="hardAlpha" operator="arithmetic" k2="-1" k3="1"/>
<feColorMatrix type="matrix" values="0 0 0 0 0.321569 0 0 0 0 0.529412 0 0 0 0 0.835294 0 0 0 1 0"/>
<feBlend mode="normal" in2="shape" result="effect1_innerShadow_277_11321"/>
</filter>
<filter id="filter9_ii_277_11321" x="8.28437" y="10.4033" width="13.2867" height="20.4062" filterUnits="userSpaceOnUse" color-interpolation-filters="sRGB">
<feFlood flood-opacity="0" result="BackgroundImageFix"/>
<feBlend mode="normal" in="SourceGraphic" in2="BackgroundImageFix" result="shape"/>
<feColorMatrix in="SourceAlpha" type="matrix" values="0 0 0 0 0 0 0 0 0 0 0 0 0 0 0 0 0 0 127 0" result="hardAlpha"/>
<feOffset dx="-0.2"/>
<feGaussianBlur stdDeviation="0.2"/>
<feComposite in2="hardAlpha" operator="arithmetic" k2="-1" k3="1"/>
<feColorMatrix type="matrix" values="0 0 0 0 0.321569 0 0 0 0 0.529412 0 0 0 0 0.835294 0 0 0 1 0"/>
<feBlend mode="normal" in2="shape" result="effect1_innerShadow_277_11321"/>
<feColorMatrix in="SourceAlpha" type="matrix" values="0 0 0 0 0 0 0 0 0 0 0 0 0 0 0 0 0 0 127 0" result="hardAlpha"/>
<feOffset dx="0.2"/>
<feGaussianBlur stdDeviation="0.2"/>
<feComposite in2="hardAlpha" operator="arithmetic" k2="-1" k3="1"/>
<feColorMatrix type="matrix" values="0 0 0 0 0.223529 0 0 0 0 0.470588 0 0 0 0 0.788235 0 0 0 1 0"/>
<feBlend mode="normal" in2="effect1_innerShadow_277_11321" result="effect2_innerShadow_277_11321"/>
</filter>
<filter id="filter10_i_277_11321" x="24.5938" y="25.4395" width="6.54531" height="2.34795" filterUnits="userSpaceOnUse" color-interpolation-filters="sRGB">
<feFlood flood-opacity="0" result="BackgroundImageFix"/>
<feBlend mode="normal" in="SourceGraphic" in2="BackgroundImageFix" result="shape"/>
<feColorMatrix in="SourceAlpha" type="matrix" values="0 0 0 0 0 0 0 0 0 0 0 0 0 0 0 0 0 0 127 0" result="hardAlpha"/>
<feOffset dx="0.1" dy="0.2"/>
<feGaussianBlur stdDeviation="0.15"/>
<feComposite in2="hardAlpha" operator="arithmetic" k2="-1" k3="1"/>
<feColorMatrix type="matrix" values="0 0 0 0 0.921569 0 0 0 0 0.666667 0 0 0 0 0.403922 0 0 0 1 0"/>
<feBlend mode="normal" in2="shape" result="effect1_innerShadow_277_11321"/>
</filter>
<filter id="filter11_i_277_11321" x="24.5938" y="21.1436" width="6.54531" height="2.34795" filterUnits="userSpaceOnUse" color-interpolation-filters="sRGB">
<feFlood flood-opacity="0" result="BackgroundImageFix"/>
<feBlend mode="normal" in="SourceGraphic" in2="BackgroundImageFix" result="shape"/>
<feColorMatrix in="SourceAlpha" type="matrix" values="0 0 0 0 0 0 0 0 0 0 0 0 0 0 0 0 0 0 127 0" result="hardAlpha"/>
<feOffset dx="0.1" dy="0.2"/>
<feGaussianBlur stdDeviation="0.15"/>
<feComposite in2="hardAlpha" operator="arithmetic" k2="-1" k3="1"/>
<feColorMatrix type="matrix" values="0 0 0 0 0.921569 0 0 0 0 0.666667 0 0 0 0 0.403922 0 0 0 1 0"/>
<feBlend mode="normal" in2="shape" result="effect1_innerShadow_277_11321"/>
</filter>
<filter id="filter12_i_277_11321" x="14.7492" y="12.5684" width="2.30547" height="2.30498" filterUnits="userSpaceOnUse" color-interpolation-filters="sRGB">
<feFlood flood-opacity="0" result="BackgroundImageFix"/>
<feBlend mode="normal" in="SourceGraphic" in2="BackgroundImageFix" result="shape"/>
<feColorMatrix in="SourceAlpha" type="matrix" values="0 0 0 0 0 0 0 0 0 0 0 0 0 0 0 0 0 0 127 0" result="hardAlpha"/>
<feOffset dx="-0.2" dy="0.2"/>
<feGaussianBlur stdDeviation="0.15"/>
<feComposite in2="hardAlpha" operator="arithmetic" k2="-1" k3="1"/>
<feColorMatrix type="matrix" values="0 0 0 0 0.0392157 0 0 0 0 0.0196078 0 0 0 0 0.0588235 0 0 0 1 0"/>
<feBlend mode="normal" in2="shape" result="effect1_innerShadow_277_11321"/>
</filter>
<filter id="filter13_i_277_11321" x="10.4523" y="12.5684" width="2.30547" height="2.30498" filterUnits="userSpaceOnUse" color-interpolation-filters="sRGB">
<feFlood flood-opacity="0" result="BackgroundImageFix"/>
<feBlend mode="normal" in="SourceGraphic" in2="BackgroundImageFix" result="shape"/>
<feColorMatrix in="SourceAlpha" type="matrix" values="0 0 0 0 0 0 0 0 0 0 0 0 0 0 0 0 0 0 127 0" result="hardAlpha"/>
<feOffset dx="-0.2" dy="0.2"/>
<feGaussianBlur stdDeviation="0.15"/>
<feComposite in2="hardAlpha" operator="arithmetic" k2="-1" k3="1"/>
<feColorMatrix type="matrix" values="0 0 0 0 0.968627 0 0 0 0 0.72549 0 0 0 0 0.392157 0 0 0 1 0"/>
<feBlend mode="normal" in2="shape" result="effect1_innerShadow_277_11321"/>
</filter>
<filter id="filter14_i_277_11321" x="1.8625" y="15.7949" width="2.30547" height="2.30498" filterUnits="userSpaceOnUse" color-interpolation-filters="sRGB">
<feFlood flood-opacity="0" result="BackgroundImageFix"/>
<feBlend mode="normal" in="SourceGraphic" in2="BackgroundImageFix" result="shape"/>
<feColorMatrix in="SourceAlpha" type="matrix" values="0 0 0 0 0 0 0 0 0 0 0 0 0 0 0 0 0 0 127 0" result="hardAlpha"/>
<feOffset dx="-0.2" dy="0.2"/>
<feGaussianBlur stdDeviation="0.15"/>
<feComposite in2="hardAlpha" operator="arithmetic" k2="-1" k3="1"/>
<feColorMatrix type="matrix" values="0 0 0 0 0.0392157 0 0 0 0 0.0196078 0 0 0 0 0.0588235 0 0 0 1 0"/>
<feBlend mode="normal" in2="shape" result="effect1_innerShadow_277_11321"/>
</filter>
<filter id="filter15_i_277_11321" x="1.85859" y="20.0908" width="2.30547" height="2.30498" filterUnits="userSpaceOnUse" color-interpolation-filters="sRGB">
<feFlood flood-opacity="0" result="BackgroundImageFix"/>
<feBlend mode="normal" in="SourceGraphic" in2="BackgroundImageFix" result="shape"/>
<feColorMatrix in="SourceAlpha" type="matrix" values="0 0 0 0 0 0 0 0 0 0 0 0 0 0 0 0 0 0 127 0" result="hardAlpha"/>
<feOffset dx="-0.2" dy="0.2"/>
<feGaussianBlur stdDeviation="0.15"/>
<feComposite in2="hardAlpha" operator="arithmetic" k2="-1" k3="1"/>
<feColorMatrix type="matrix" values="0 0 0 0 0.968627 0 0 0 0 0.72549 0 0 0 0 0.392157 0 0 0 1 0"/>
<feBlend mode="normal" in2="shape" result="effect1_innerShadow_277_11321"/>
</filter>
<filter id="filter16_i_277_11321" x="1.85859" y="24.3867" width="2.30547" height="2.30498" filterUnits="userSpaceOnUse" color-interpolation-filters="sRGB">
<feFlood flood-opacity="0" result="BackgroundImageFix"/>
<feBlend mode="normal" in="SourceGraphic" in2="BackgroundImageFix" result="shape"/>
<feColorMatrix in="SourceAlpha" type="matrix" values="0 0 0 0 0 0 0 0 0 0 0 0 0 0 0 0 0 0 127 0" result="hardAlpha"/>
<feOffset dx="-0.2" dy="0.2"/>
<feGaussianBlur stdDeviation="0.15"/>
<feComposite in2="hardAlpha" operator="arithmetic" k2="-1" k3="1"/>
<feColorMatrix type="matrix" values="0 0 0 0 0.968627 0 0 0 0 0.72549 0 0 0 0 0.392157 0 0 0 1 0"/>
<feBlend mode="normal" in2="shape" result="effect1_innerShadow_277_11321"/>
</filter>
<filter id="filter17_i_277_11321" x="14.7492" y="16.8691" width="2.30547" height="2.30498" filterUnits="userSpaceOnUse" color-interpolation-filters="sRGB">
<feFlood flood-opacity="0" result="BackgroundImageFix"/>
<feBlend mode="normal" in="SourceGraphic" in2="BackgroundImageFix" result="shape"/>
<feColorMatrix in="SourceAlpha" type="matrix" values="0 0 0 0 0 0 0 0 0 0 0 0 0 0 0 0 0 0 127 0" result="hardAlpha"/>
<feOffset dx="-0.2" dy="0.2"/>
<feGaussianBlur stdDeviation="0.15"/>
<feComposite in2="hardAlpha" operator="arithmetic" k2="-1" k3="1"/>
<feColorMatrix type="matrix" values="0 0 0 0 0.968627 0 0 0 0 0.72549 0 0 0 0 0.392157 0 0 0 1 0"/>
<feBlend mode="normal" in2="shape" result="effect1_innerShadow_277_11321"/>
</filter>
<filter id="filter18_i_277_11321" x="14.7492" y="21.1699" width="2.30547" height="2.30498" filterUnits="userSpaceOnUse" color-interpolation-filters="sRGB">
<feFlood flood-opacity="0" result="BackgroundImageFix"/>
<feBlend mode="normal" in="SourceGraphic" in2="BackgroundImageFix" result="shape"/>
<feColorMatrix in="SourceAlpha" type="matrix" values="0 0 0 0 0 0 0 0 0 0 0 0 0 0 0 0 0 0 127 0" result="hardAlpha"/>
<feOffset dx="-0.2" dy="0.2"/>
<feGaussianBlur stdDeviation="0.15"/>
<feComposite in2="hardAlpha" operator="arithmetic" k2="-1" k3="1"/>
<feColorMatrix type="matrix" values="0 0 0 0 0.968627 0 0 0 0 0.72549 0 0 0 0 0.392157 0 0 0 1 0"/>
<feBlend mode="normal" in2="shape" result="effect1_innerShadow_277_11321"/>
</filter>
<filter id="filter19_i_277_11321" x="14.7492" y="25.4707" width="2.30547" height="2.30498" filterUnits="userSpaceOnUse" color-interpolation-filters="sRGB">
<feFlood flood-opacity="0" result="BackgroundImageFix"/>
<feBlend mode="normal" in="SourceGraphic" in2="BackgroundImageFix" result="shape"/>
<feColorMatrix in="SourceAlpha" type="matrix" values="0 0 0 0 0 0 0 0 0 0 0 0 0 0 0 0 0 0 127 0" result="hardAlpha"/>
<feOffset dx="-0.2" dy="0.2"/>
<feGaussianBlur stdDeviation="0.15"/>
<feComposite in2="hardAlpha" operator="arithmetic" k2="-1" k3="1"/>
<feColorMatrix type="matrix" values="0 0 0 0 0.0392157 0 0 0 0 0.0196078 0 0 0 0 0.0588235 0 0 0 1 0"/>
<feBlend mode="normal" in2="shape" result="effect1_innerShadow_277_11321"/>
</filter>
<filter id="filter20_i_277_11321" x="10.4523" y="16.8691" width="2.30547" height="2.30498" filterUnits="userSpaceOnUse" color-interpolation-filters="sRGB">
<feFlood flood-opacity="0" result="BackgroundImageFix"/>
<feBlend mode="normal" in="SourceGraphic" in2="BackgroundImageFix" result="shape"/>
<feColorMatrix in="SourceAlpha" type="matrix" values="0 0 0 0 0 0 0 0 0 0 0 0 0 0 0 0 0 0 127 0" result="hardAlpha"/>
<feOffset dx="-0.2" dy="0.2"/>
<feGaussianBlur stdDeviation="0.15"/>
<feComposite in2="hardAlpha" operator="arithmetic" k2="-1" k3="1"/>
<feColorMatrix type="matrix" values="0 0 0 0 0.968627 0 0 0 0 0.72549 0 0 0 0 0.392157 0 0 0 1 0"/>
<feBlend mode="normal" in2="shape" result="effect1_innerShadow_277_11321"/>
</filter>
<filter id="filter21_i_277_11321" x="10.4523" y="21.1699" width="2.30547" height="2.30498" filterUnits="userSpaceOnUse" color-interpolation-filters="sRGB">
<feFlood flood-opacity="0" result="BackgroundImageFix"/>
<feBlend mode="normal" in="SourceGraphic" in2="BackgroundImageFix" result="shape"/>
<feColorMatrix in="SourceAlpha" type="matrix" values="0 0 0 0 0 0 0 0 0 0 0 0 0 0 0 0 0 0 127 0" result="hardAlpha"/>
<feOffset dx="-0.2" dy="0.2"/>
<feGaussianBlur stdDeviation="0.15"/>
<feComposite in2="hardAlpha" operator="arithmetic" k2="-1" k3="1"/>
<feColorMatrix type="matrix" values="0 0 0 0 0.0392157 0 0 0 0 0.0196078 0 0 0 0 0.0588235 0 0 0 1 0"/>
<feBlend mode="normal" in2="shape" result="effect1_innerShadow_277_11321"/>
</filter>
<filter id="filter22_i_277_11321" x="10.4523" y="25.4707" width="2.30547" height="2.30498" filterUnits="userSpaceOnUse" color-interpolation-filters="sRGB">
<feFlood flood-opacity="0" result="BackgroundImageFix"/>
<feBlend mode="normal" in="SourceGraphic" in2="BackgroundImageFix" result="shape"/>
<feColorMatrix in="SourceAlpha" type="matrix" values="0 0 0 0 0 0 0 0 0 0 0 0 0 0 0 0 0 0 127 0" result="hardAlpha"/>
<feOffset dx="-0.2" dy="0.2"/>
<feGaussianBlur stdDeviation="0.15"/>
<feComposite in2="hardAlpha" operator="arithmetic" k2="-1" k3="1"/>
<feColorMatrix type="matrix" values="0 0 0 0 0.968627 0 0 0 0 0.72549 0 0 0 0 0.392157 0 0 0 1 0"/>
<feBlend mode="normal" in2="shape" result="effect1_innerShadow_277_11321"/>
</filter>
<filter id="filter23_f_277_11321" x="17.4258" y="5.62305" width="6.46094" height="5.52393" filterUnits="userSpaceOnUse" color-interpolation-filters="sRGB">
<feFlood flood-opacity="0" result="BackgroundImageFix"/>
<feBlend mode="normal" in="SourceGraphic" in2="BackgroundImageFix" result="shape"/>
<feGaussianBlur stdDeviation="0.5" result="effect1_foregroundBlur_277_11321"/>
</filter>
<filter id="filter24_f_277_11321" x="13.7891" y="3.4043" width="3.01172" height="2.58936" filterUnits="userSpaceOnUse" color-interpolation-filters="sRGB">
<feFlood flood-opacity="0" result="BackgroundImageFix"/>
<feBlend mode="normal" in="SourceGraphic" in2="BackgroundImageFix" result="shape"/>
<feGaussianBlur stdDeviation="0.25" result="effect1_foregroundBlur_277_11321"/>
</filter>
<filter id="filter25_f_277_11321" x="21.2148" y="3.42871" width="7.47266" height="7.47119" filterUnits="userSpaceOnUse" color-interpolation-filters="sRGB">
<feFlood flood-opacity="0" result="BackgroundImageFix"/>
<feBlend mode="normal" in="SourceGraphic" in2="BackgroundImageFix" result="shape"/>
<feGaussianBlur stdDeviation="0.5" result="effect1_foregroundBlur_277_11321"/>
</filter>
<filter id="filter26_f_277_11321" x="15.4961" y="2.41504" width="3.46484" height="3.46582" filterUnits="userSpaceOnUse" color-interpolation-filters="sRGB">
<feFlood flood-opacity="0" result="BackgroundImageFix"/>
<feBlend mode="normal" in="SourceGraphic" in2="BackgroundImageFix" result="shape"/>
<feGaussianBlur stdDeviation="0.25" result="effect1_foregroundBlur_277_11321"/>
</filter>
<linearGradient id="paint0_linear_277_11321" x1="16.0009" y1="3.28517" x2="16.0009" y2="29.9644" gradientUnits="userSpaceOnUse">
<stop stop-color="#51D9FB"/>
<stop offset="0.584715" stop-color="#A4DCFF"/>
<stop offset="0.928681" stop-color="#7897D5"/>
</linearGradient>
<linearGradient id="paint1_linear_277_11321" x1="0.436435" y1="12.4163" x2="5.81825" y2="12.4163" gradientUnits="userSpaceOnUse">
<stop stop-color="#6EC5E3"/>
<stop offset="1" stop-color="#6EC5E3" stop-opacity="0"/>
</linearGradient>
<linearGradient id="paint2_linear_277_11321" x1="16.0009" y1="0.0749778" x2="16.0009" y2="4.20666" gradientUnits="userSpaceOnUse">
<stop stop-color="#3ECAE6"/>
<stop offset="1" stop-color="#3ECAE6" stop-opacity="0"/>
</linearGradient>
<radialGradient id="paint3_radial_277_11321" cx="0" cy="0" r="1" gradientUnits="userSpaceOnUse" gradientTransform="translate(29.4151 18.8313) rotate(180) scale(3.09898 14.19)">
<stop stop-color="#B4E7FF"/>
<stop offset="1" stop-color="#B4E7FF" stop-opacity="0"/>
</radialGradient>
<radialGradient id="paint4_radial_277_11321" cx="0" cy="0" r="1" gradientUnits="userSpaceOnUse" gradientTransform="translate(30.6098 2.52189) rotate(135) scale(2.53731 3.66598)">
<stop stop-color="#60E0FF"/>
<stop offset="1" stop-color="#60E0FF" stop-opacity="0"/>
</radialGradient>
<linearGradient id="paint5_linear_277_11321" x1="21.4381" y1="29.569" x2="21.4252" y2="19.7054" gradientUnits="userSpaceOnUse">
<stop stop-color="#210B39"/>
<stop offset="0.517" stop-color="#180D25"/>
<stop offset="1" stop-color="#180D25" stop-opacity="0"/>
</linearGradient>
<linearGradient id="paint6_linear_277_11321" x1="21.4832" y1="25.4835" x2="21.4488" y2="19.7054" gradientUnits="userSpaceOnUse">
<stop stop-color="#214997"/>
<stop offset="1" stop-color="#214997" stop-opacity="0"/>
</linearGradient>
<linearGradient id="paint7_linear_277_11321" x1="21.4832" y1="30.8094" x2="21.4177" y2="19.7064" gradientUnits="userSpaceOnUse">
<stop stop-color="#214997"/>
<stop offset="1" stop-color="#214997" stop-opacity="0"/>
</linearGradient>
<linearGradient id="paint8_linear_277_11321" x1="22.1409" y1="13.0511" x2="22.1409" y2="9.50798" gradientUnits="userSpaceOnUse">
<stop stop-color="#BCB7FF"/>
<stop offset="1" stop-color="#BCB7FF" stop-opacity="0"/>
</linearGradient>
<linearGradient id="paint9_linear_277_11321" x1="15.9624" y1="6.80134" x2="15.9624" y2="5.2043" gradientUnits="userSpaceOnUse">
<stop stop-color="#BCB7FF"/>
<stop offset="1" stop-color="#BCB7FF" stop-opacity="0"/>
</linearGradient>
<linearGradient id="paint10_linear_277_11321" x1="6.11511" y1="21.6802" x2="6.00234" y2="11.7758" gradientUnits="userSpaceOnUse">
<stop stop-color="#214997"/>
<stop offset="1" stop-color="#214997" stop-opacity="0"/>
</linearGradient>
<linearGradient id="paint11_linear_277_11321" x1="6.11511" y1="21.6802" x2="6.00234" y2="11.7758" gradientUnits="userSpaceOnUse">
<stop stop-color="#214997"/>
<stop offset="1" stop-color="#214997" stop-opacity="0"/>
</linearGradient>
<linearGradient id="paint12_linear_277_11321" x1="27.9047" y1="18.9961" x2="27.9047" y2="26.3702" gradientUnits="userSpaceOnUse">
<stop stop-color="#4791CD"/>
<stop offset="1" stop-color="#A1A0B4"/>
</linearGradient>
<linearGradient id="paint13_linear_277_11321" x1="27.9047" y1="18.9961" x2="27.9047" y2="26.3702" gradientUnits="userSpaceOnUse">
<stop stop-color="#3B89E5"/>
<stop offset="1" stop-color="#3D65C4"/>
</linearGradient>
<linearGradient id="paint14_linear_277_11321" x1="27.2785" y1="18.9961" x2="27.2785" y2="19.2528" gradientUnits="userSpaceOnUse">
<stop stop-color="#1988D7"/>
<stop offset="1" stop-color="#1988D7" stop-opacity="0"/>
</linearGradient>
<linearGradient id="paint15_linear_277_11321" x1="4.0977" y1="13.626" x2="4.0977" y2="24.352" gradientUnits="userSpaceOnUse">
<stop stop-color="#3BA0FD"/>
<stop offset="1" stop-color="#3E67C7"/>
</linearGradient>
<linearGradient id="paint16_linear_277_11321" x1="3.64985" y1="13.626" x2="3.64985" y2="13.9997" gradientUnits="userSpaceOnUse">
<stop stop-color="#1B99E8"/>
<stop offset="1" stop-color="#1B99E8" stop-opacity="0"/>
</linearGradient>
<linearGradient id="paint17_linear_277_11321" x1="16.0024" y1="10.4033" x2="16.0024" y2="23.1399" gradientUnits="userSpaceOnUse">
<stop stop-color="#3BA0FD"/>
<stop offset="1" stop-color="#3E67C7"/>
</linearGradient>
<linearGradient id="paint18_linear_277_11321" x1="14.9284" y1="10.4033" x2="14.9284" y2="10.8469" gradientUnits="userSpaceOnUse">
<stop stop-color="#1B99E8"/>
<stop offset="1" stop-color="#1B99E8" stop-opacity="0"/>
</linearGradient>
<linearGradient id="paint19_linear_277_11321" x1="27.8158" y1="26.0366" x2="27.8158" y2="27.5875" gradientUnits="userSpaceOnUse">
<stop stop-color="#FFE07B"/>
<stop offset="1" stop-color="#FFFF73"/>
</linearGradient>
<linearGradient id="paint20_linear_277_11321" x1="27.8158" y1="21.7407" x2="27.8158" y2="23.2916" gradientUnits="userSpaceOnUse">
<stop stop-color="#FFE07B"/>
<stop offset="1" stop-color="#FFFF73"/>
</linearGradient>
<linearGradient id="paint21_linear_277_11321" x1="17.0543" y1="12.5684" x2="14.9492" y2="14.6723" gradientUnits="userSpaceOnUse">
<stop stop-color="#282130"/>
<stop offset="1" stop-color="#383739"/>
</linearGradient>
<linearGradient id="paint22_linear_277_11321" x1="12.7574" y1="13.0162" x2="11.0336" y2="14.6723" gradientUnits="userSpaceOnUse">
<stop stop-color="#FFDC73"/>
<stop offset="1" stop-color="#FFFF7F"/>
</linearGradient>
<linearGradient id="paint23_linear_277_11321" x1="4.16754" y1="15.7949" x2="2.0625" y2="17.9" gradientUnits="userSpaceOnUse">
<stop stop-color="#282130"/>
<stop offset="1" stop-color="#383739"/>
</linearGradient>
<linearGradient id="paint24_linear_277_11321" x1="4.16364" y1="20.5387" x2="2.43986" y2="22.1959" gradientUnits="userSpaceOnUse">
<stop stop-color="#FFDC73"/>
<stop offset="1" stop-color="#FFFF7F"/>
</linearGradient>
<linearGradient id="paint25_linear_277_11321" x1="4.16364" y1="24.8346" x2="2.43986" y2="26.4918" gradientUnits="userSpaceOnUse">
<stop stop-color="#FFDC73"/>
<stop offset="1" stop-color="#FFFF7F"/>
</linearGradient>
<linearGradient id="paint26_linear_277_11321" x1="17.0543" y1="17.317" x2="15.3305" y2="18.9742" gradientUnits="userSpaceOnUse">
<stop stop-color="#FFDC73"/>
<stop offset="1" stop-color="#FFFF7F"/>
</linearGradient>
<linearGradient id="paint27_linear_277_11321" x1="17.0543" y1="21.6189" x2="15.3305" y2="23.275" gradientUnits="userSpaceOnUse">
<stop stop-color="#FFDC73"/>
<stop offset="1" stop-color="#FFFF7F"/>
</linearGradient>
<linearGradient id="paint28_linear_277_11321" x1="17.0543" y1="25.4707" x2="14.9492" y2="27.5757" gradientUnits="userSpaceOnUse">
<stop stop-color="#282130"/>
<stop offset="1" stop-color="#383739"/>
</linearGradient>
<linearGradient id="paint29_linear_277_11321" x1="12.7574" y1="17.317" x2="11.0336" y2="18.9742" gradientUnits="userSpaceOnUse">
<stop stop-color="#FFDC73"/>
<stop offset="1" stop-color="#FFFF7F"/>
</linearGradient>
<linearGradient id="paint30_linear_277_11321" x1="12.7574" y1="21.1699" x2="10.6523" y2="23.275" gradientUnits="userSpaceOnUse">
<stop stop-color="#282130"/>
<stop offset="1" stop-color="#383739"/>
</linearGradient>
<linearGradient id="paint31_linear_277_11321" x1="12.7574" y1="25.9186" x2="11.0336" y2="27.5757" gradientUnits="userSpaceOnUse">
<stop stop-color="#FFDC73"/>
<stop offset="1" stop-color="#FFFF7F"/>
</linearGradient>
<linearGradient id="paint32_linear_277_11321" x1="20.9293" y1="7.16112" x2="17.9973" y2="10.613" gradientUnits="userSpaceOnUse">
<stop stop-color="#ECEAFF"/>
<stop offset="1" stop-color="#ECEAFF" stop-opacity="0"/>
</linearGradient>
<linearGradient id="paint33_linear_277_11321" x1="15.4178" y1="4.14702" x2="14.0957" y2="5.70325" gradientUnits="userSpaceOnUse">
<stop stop-color="#ECEAFF"/>
<stop offset="1" stop-color="#ECEAFF" stop-opacity="0"/>
</linearGradient>
<radialGradient id="paint34_radial_277_11321" cx="0" cy="0" r="1" gradientUnits="userSpaceOnUse" gradientTransform="translate(26.4733 6.10737) rotate(138.136) scale(3.4701 4.31409)">
<stop stop-color="#EBE8FF"/>
<stop offset="1" stop-color="#ECEAFF" stop-opacity="0"/>
</radialGradient>
<radialGradient id="paint35_radial_277_11321" cx="0" cy="0" r="1" gradientUnits="userSpaceOnUse" gradientTransform="translate(17.9153 3.67114) rotate(138.136) scale(1.56445 1.94496)">
<stop stop-color="#EBE8FF"/>
<stop offset="1" stop-color="#ECEAFF" stop-opacity="0"/>
</radialGradient>
</defs>
</svg>
