<svg width="33" height="32" viewBox="0 0 33 32" fill="none" xmlns="http://www.w3.org/2000/svg">
<g filter="url(#filter0_i_277_17935)">
<path d="M4.94922 6.52C4.88364 6.5208 4.81863 6.50787 4.75835 6.48203C4.69807 6.4562 4.64386 6.41804 4.59922 6.37C4.39922 6.17 4.39922 5.86 4.59922 5.66C6.96922 3.3 10.1092 2 13.4592 2C14.6892 2 15.9192 2.18 17.0892 2.54C17.2147 2.57922 17.3196 2.66627 17.3814 2.7823C17.4432 2.89834 17.4568 3.03403 17.4192 3.16C17.3392 3.43 17.0592 3.58 16.7992 3.49C15.7152 3.1673 14.5903 3.00228 13.4592 3C10.3792 3 7.47922 4.2 5.30922 6.38C5.20922 6.48 5.07922 6.52 4.94922 6.52Z" fill="url(#paint0_radial_277_17935)"/>
</g>
<g filter="url(#filter1_i_277_17935)">
<path d="M3 16.4795C2.72 16.4795 2.5 16.2595 2.5 15.9795C2.5 9.93953 7.42 5.01953 13.46 5.01953C13.74 5.01953 13.96 5.23953 13.96 5.51953C13.96 5.79953 13.74 6.01953 13.46 6.01953C7.97 6.01953 3.5 10.4895 3.5 15.9795C3.5 16.2595 3.28 16.4795 3 16.4795Z" fill="url(#paint1_linear_277_17935)"/>
</g>
<path d="M5.5 16.01V18.88C5.5 25.03 10.49 30.02 16.64 30.02H24.28C24.97 30.02 25.53 29.46 25.53 28.77V28.14C25.53 21.99 20.54 17 14.39 17H6.5L5.5 16.01Z" fill="url(#paint2_linear_277_17935)"/>
<path d="M5.5 16.01V18.88C5.5 25.03 10.49 30.02 16.64 30.02H24.28C24.97 30.02 25.53 29.46 25.53 28.77V28.14C25.53 21.99 20.54 17 14.39 17H6.5L5.5 16.01Z" fill="url(#paint3_linear_277_17935)"/>
<g filter="url(#filter2_f_277_17935)">
<path d="M6.81641 17.3018V19.6418C6.81641 24.6578 11.1514 28.7278 16.4934 28.7278H23.1304C23.7304 28.7278 24.2164 28.2708 24.2164 27.7078V27.1948C24.2164 22.1788 19.8814 18.1088 14.5394 18.1088H7.68541L6.81641 17.3018Z" fill="url(#paint4_linear_277_17935)"/>
</g>
<g filter="url(#filter3_f_277_17935)">
<path d="M18.6186 26.4796L8.05559 20.5596C7.76889 20.4031 7.5561 20.1392 7.46402 19.8258C7.37194 19.5124 7.40811 19.1753 7.56459 18.8886C7.72107 18.6019 7.98503 18.3891 8.2984 18.297C8.61178 18.2049 8.94889 18.2411 9.23559 18.3976L19.9316 24.0726C20.0896 24.1588 20.2292 24.2753 20.3422 24.4154C20.4552 24.5556 20.5395 24.7166 20.5903 24.8893C20.6411 25.062 20.6574 25.2431 20.6382 25.4221C20.619 25.6011 20.5648 25.7746 20.4786 25.9326C20.3924 26.0906 20.2759 26.2302 20.1357 26.3432C19.9956 26.4562 19.8346 26.5405 19.6619 26.5913C19.4892 26.6421 19.3081 26.6584 19.1291 26.6392C18.9501 26.6201 18.7766 26.5658 18.6186 26.4796Z" fill="url(#paint5_linear_277_17935)"/>
</g>
<g filter="url(#filter4_i_277_17935)">
<path d="M23.3086 16.9305C23.0286 16.9305 22.8086 16.7105 22.8086 16.4305C22.8086 16.1505 23.0286 15.9305 23.3086 15.9305C24.5886 15.9305 25.8186 15.5405 26.8686 14.8105C27.6796 14.2341 28.3414 13.4725 28.7988 12.589C29.2562 11.7054 29.4961 10.7254 29.4986 9.73047C29.4986 9.45047 29.7186 9.23047 29.9986 9.23047C30.2786 9.23047 30.4986 9.46047 30.4986 9.73047C30.4986 12.0705 29.3586 14.2705 27.4386 15.6205C26.2324 16.4775 24.7882 16.9355 23.3086 16.9305Z" fill="url(#paint6_linear_277_17935)"/>
</g>
<g filter="url(#filter5_i_277_17935)">
<path d="M28.5002 4.48047V6.43047C28.5002 7.42195 28.3049 8.40372 27.9254 9.31973C27.546 10.2357 26.9899 11.068 26.2888 11.7691C24.8729 13.185 22.9525 13.9805 20.9502 13.9805H15.7602C15.5347 13.9805 15.3185 13.8909 15.1591 13.7315C14.9997 13.5721 14.9102 13.3559 14.9102 13.1305V12.7005C14.9102 8.53047 18.2902 5.00047 22.4602 5.00047H27.8102L28.5002 4.48047Z" fill="url(#paint7_linear_277_17935)"/>
</g>
<g filter="url(#filter6_f_277_17935)">
<path d="M27.7666 5.57031L27.1636 6.77631C27.1636 10.2233 24.3696 13.2193 20.9236 13.2193H16.3436C16.2513 13.2194 16.1598 13.2014 16.0744 13.1661C15.9891 13.1308 15.9115 13.079 15.8462 13.0137C15.7809 12.9484 15.7292 12.8708 15.6939 12.7855C15.6586 12.7001 15.6405 12.6087 15.6406 12.5163V12.1613C15.6406 8.71531 18.7256 5.79731 22.1716 5.79731L27.1636 5.88031L27.7666 5.57031Z" fill="url(#paint8_linear_277_17935)"/>
</g>
<g filter="url(#filter7_f_277_17935)">
<path d="M18.9687 6.578C17.7707 7.213 15.3588 9.234 15.2188 13.343" stroke="url(#paint9_linear_277_17935)" stroke-width="0.2" stroke-linecap="round"/>
</g>
<g filter="url(#filter8_f_277_17935)">
<path d="M23.1523 12.7301C25.0173 11.8331 27.7483 9.49412 27.6273 6.07812" stroke="url(#paint10_linear_277_17935)" stroke-width="0.6" stroke-linecap="round"/>
</g>
<path d="M18.9301 11.4095C19.0101 11.4095 19.1001 11.3895 19.1701 11.3495L27.2501 6.93953C28.0201 6.50953 28.5001 5.70953 28.5001 4.82953V2.52953C28.5001 2.24953 28.2701 2.01953 27.9901 2.01953C27.7101 2.01953 27.4801 2.24953 27.4801 2.52953V4.81953C27.4801 5.32953 27.2001 5.78953 26.7601 6.03953L18.6801 10.4495C18.4301 10.5795 18.3401 10.8895 18.4801 11.1395C18.5701 11.3095 18.7501 11.4095 18.9301 11.4095Z" fill="url(#paint11_linear_277_17935)"/>
<path d="M18.9301 11.4095C19.0101 11.4095 19.1001 11.3895 19.1701 11.3495L27.2501 6.93953C28.0201 6.50953 28.5001 5.70953 28.5001 4.82953V2.52953C28.5001 2.24953 28.2701 2.01953 27.9901 2.01953C27.7101 2.01953 27.4801 2.24953 27.4801 2.52953V4.81953C27.4801 5.32953 27.2001 5.78953 26.7601 6.03953L18.6801 10.4495C18.4301 10.5795 18.3401 10.8895 18.4801 11.1395C18.5701 11.3095 18.7501 11.4095 18.9301 11.4095Z" fill="url(#paint12_radial_277_17935)"/>
<path d="M18.9301 11.4095C19.0101 11.4095 19.1001 11.3895 19.1701 11.3495L27.2501 6.93953C28.0201 6.50953 28.5001 5.70953 28.5001 4.82953V2.52953C28.5001 2.24953 28.2701 2.01953 27.9901 2.01953C27.7101 2.01953 27.4801 2.24953 27.4801 2.52953V4.81953C27.4801 5.32953 27.2001 5.78953 26.7601 6.03953L18.6801 10.4495C18.4301 10.5795 18.3401 10.8895 18.4801 11.1395C18.5701 11.3095 18.7501 11.4095 18.9301 11.4095Z" fill="url(#paint13_radial_277_17935)"/>
<g filter="url(#filter9_f_277_17935)">
<path d="M19.2266 10.969L27.1476 6.584C27.4602 6.41107 27.7208 6.15755 27.9023 5.8498C28.0838 5.54204 28.1795 5.19128 28.1796 4.834V2.5" stroke="url(#paint14_linear_277_17935)" stroke-width="0.25" stroke-linecap="round"/>
</g>
<g filter="url(#filter10_f_277_17935)">
<path d="M30.2198 9.73535C30.2598 10.9344 29.5668 14.0634 26.8398 15.5454" stroke="url(#paint15_linear_277_17935)" stroke-width="0.2" stroke-linecap="round"/>
</g>
<g filter="url(#filter11_f_277_17935)">
<path d="M23.1328 16.5532C24.0548 16.5802 26.2138 16.2412 27.7478 14.9932" stroke="url(#paint16_linear_277_17935)" stroke-width="0.2" stroke-linecap="round"/>
</g>
<g filter="url(#filter12_f_277_17935)">
<path d="M17.2148 18.411C19.7048 19.031 24.6938 21.961 24.7248 28.728" stroke="url(#paint17_linear_277_17935)" stroke-width="0.5" stroke-linecap="round"/>
</g>
<g filter="url(#filter13_f_277_17935)">
<path d="M7.28125 20.9023C7.61125 22.8923 9.59825 27.1393 14.9112 28.2143" stroke="url(#paint18_radial_277_17935)" stroke-width="0.5" stroke-linecap="round"/>
</g>
<g filter="url(#filter14_ii_277_17935)">
<path fill-rule="evenodd" clip-rule="evenodd" d="M6.6 12.172C6.89174 12.172 7.17153 12.2879 7.37782 12.4942C7.58411 12.7005 7.7 12.9803 7.7 13.272V16.896C7.69992 17.0544 7.74168 17.2101 7.82105 17.3472C7.90041 17.4844 8.01458 17.5981 8.152 17.677L20.389 24.691C20.5179 24.7609 20.6315 24.8559 20.7232 24.9704C20.8148 25.0848 20.8827 25.2165 20.9227 25.3575C20.9628 25.4986 20.9742 25.6462 20.9564 25.7918C20.9385 25.9373 20.8917 26.0779 20.8188 26.2051C20.7459 26.3323 20.6482 26.4436 20.5316 26.5326C20.415 26.6215 20.2818 26.6862 20.1399 26.7229C19.9979 26.7596 19.85 26.7676 19.7049 26.7463C19.5598 26.725 19.4205 26.6749 19.295 26.599L7.06 19.586C6.5861 19.3147 6.19225 18.9231 5.91832 18.4507C5.64438 17.9784 5.50008 17.442 5.5 16.896V13.273C5.5 12.9813 5.61589 12.7015 5.82218 12.4952C6.02847 12.2889 6.30826 12.173 6.6 12.173V12.172Z" fill="url(#paint19_linear_277_17935)"/>
</g>
<path fill-rule="evenodd" clip-rule="evenodd" d="M6.6 12.172C6.89174 12.172 7.17153 12.2879 7.37782 12.4942C7.58411 12.7005 7.7 12.9803 7.7 13.272V16.896C7.69992 17.0544 7.74168 17.2101 7.82105 17.3472C7.90041 17.4844 8.01458 17.5981 8.152 17.677L20.389 24.691C20.5179 24.7609 20.6315 24.8559 20.7232 24.9704C20.8148 25.0848 20.8827 25.2165 20.9227 25.3575C20.9628 25.4986 20.9742 25.6462 20.9564 25.7918C20.9385 25.9373 20.8917 26.0779 20.8188 26.2051C20.7459 26.3323 20.6482 26.4436 20.5316 26.5326C20.415 26.6215 20.2818 26.6862 20.1399 26.7229C19.9979 26.7596 19.85 26.7676 19.7049 26.7463C19.5598 26.725 19.4205 26.6749 19.295 26.599L7.06 19.586C6.5861 19.3147 6.19225 18.9231 5.91832 18.4507C5.64438 17.9784 5.50008 17.442 5.5 16.896V13.273C5.5 12.9813 5.61589 12.7015 5.82218 12.4952C6.02847 12.2889 6.30826 12.173 6.6 12.173V12.172Z" fill="url(#paint20_linear_277_17935)"/>
<path fill-rule="evenodd" clip-rule="evenodd" d="M6.6 12.172C6.89174 12.172 7.17153 12.2879 7.37782 12.4942C7.58411 12.7005 7.7 12.9803 7.7 13.272V16.896C7.69992 17.0544 7.74168 17.2101 7.82105 17.3472C7.90041 17.4844 8.01458 17.5981 8.152 17.677L20.389 24.691C20.5179 24.7609 20.6315 24.8559 20.7232 24.9704C20.8148 25.0848 20.8827 25.2165 20.9227 25.3575C20.9628 25.4986 20.9742 25.6462 20.9564 25.7918C20.9385 25.9373 20.8917 26.0779 20.8188 26.2051C20.7459 26.3323 20.6482 26.4436 20.5316 26.5326C20.415 26.6215 20.2818 26.6862 20.1399 26.7229C19.9979 26.7596 19.85 26.7676 19.7049 26.7463C19.5598 26.725 19.4205 26.6749 19.295 26.599L7.06 19.586C6.5861 19.3147 6.19225 18.9231 5.91832 18.4507C5.64438 17.9784 5.50008 17.442 5.5 16.896V13.273C5.5 12.9813 5.61589 12.7015 5.82218 12.4952C6.02847 12.2889 6.30826 12.173 6.6 12.173V12.172Z" fill="url(#paint21_radial_277_17935)"/>
<path fill-rule="evenodd" clip-rule="evenodd" d="M6.6 12.172C6.89174 12.172 7.17153 12.2879 7.37782 12.4942C7.58411 12.7005 7.7 12.9803 7.7 13.272V16.896C7.69992 17.0544 7.74168 17.2101 7.82105 17.3472C7.90041 17.4844 8.01458 17.5981 8.152 17.677L20.389 24.691C20.5179 24.7609 20.6315 24.8559 20.7232 24.9704C20.8148 25.0848 20.8827 25.2165 20.9227 25.3575C20.9628 25.4986 20.9742 25.6462 20.9564 25.7918C20.9385 25.9373 20.8917 26.0779 20.8188 26.2051C20.7459 26.3323 20.6482 26.4436 20.5316 26.5326C20.415 26.6215 20.2818 26.6862 20.1399 26.7229C19.9979 26.7596 19.85 26.7676 19.7049 26.7463C19.5598 26.725 19.4205 26.6749 19.295 26.599L7.06 19.586C6.5861 19.3147 6.19225 18.9231 5.91832 18.4507C5.64438 17.9784 5.50008 17.442 5.5 16.896V13.273C5.5 12.9813 5.61589 12.7015 5.82218 12.4952C6.02847 12.2889 6.30826 12.173 6.6 12.173V12.172Z" fill="url(#paint22_radial_277_17935)"/>
<g filter="url(#filter15_f_277_17935)">
<path d="M6.99609 13.2734V16.7884C6.99613 17.1478 7.093 17.5006 7.27655 17.8096C7.46009 18.1186 7.7235 18.3725 8.03909 18.5444L20.3171 25.2304" stroke="url(#paint23_radial_277_17935)" stroke-width="0.5" stroke-linecap="round"/>
<path d="M6.99609 13.2734V16.7884C6.99613 17.1478 7.093 17.5006 7.27655 17.8096C7.46009 18.1186 7.7235 18.3725 8.03909 18.5444L20.3171 25.2304" stroke="url(#paint24_linear_277_17935)" stroke-width="0.5" stroke-linecap="round"/>
<path d="M6.99609 13.2734V16.7884C6.99613 17.1478 7.093 17.5006 7.27655 17.8096C7.46009 18.1186 7.7235 18.3725 8.03909 18.5444L20.3171 25.2304" stroke="url(#paint25_linear_277_17935)" stroke-width="0.5" stroke-linecap="round"/>
</g>
<g filter="url(#filter16_f_277_17935)">
<path d="M3.10223 15.9598C3.07623 14.2758 3.79723 10.0878 6.57423 7.92578" stroke="url(#paint26_linear_277_17935)" stroke-width="0.25" stroke-linecap="round"/>
</g>
<g filter="url(#filter17_f_277_17935)">
<path d="M13.5772 5.38574C10.9382 5.38574 8.30022 6.33874 6.57422 7.92574" stroke="url(#paint27_linear_277_17935)" stroke-width="0.25" stroke-linecap="round"/>
</g>
<g filter="url(#filter18_f_277_17935)">
<path d="M17.1272 2.96602C16.2012 2.72102 13.8692 2.28402 11.9492 2.49002" stroke="url(#paint28_linear_277_17935)" stroke-width="0.25" stroke-linecap="round"/>
</g>
<g filter="url(#filter19_f_277_17935)">
<path d="M4.86719 6.06032C5.40919 5.46032 6.94219 4.08532 8.73519 3.40332" stroke="url(#paint29_linear_277_17935)" stroke-width="0.25" stroke-linecap="round"/>
</g>
<defs>
<filter id="filter0_i_277_17935" x="4.29922" y="1.9" width="13.1422" height="4.62002" filterUnits="userSpaceOnUse" color-interpolation-filters="sRGB">
<feFlood flood-opacity="0" result="BackgroundImageFix"/>
<feBlend mode="normal" in="SourceGraphic" in2="BackgroundImageFix" result="shape"/>
<feColorMatrix in="SourceAlpha" type="matrix" values="0 0 0 0 0 0 0 0 0 0 0 0 0 0 0 0 0 0 127 0" result="hardAlpha"/>
<feOffset dx="-0.15" dy="-0.1"/>
<feGaussianBlur stdDeviation="0.125"/>
<feComposite in2="hardAlpha" operator="arithmetic" k2="-1" k3="1"/>
<feColorMatrix type="matrix" values="0 0 0 0 0.776471 0 0 0 0 0.733333 0 0 0 0 0.847059 0 0 0 1 0"/>
<feBlend mode="normal" in2="shape" result="effect1_innerShadow_277_17935"/>
</filter>
<filter id="filter1_i_277_17935" x="2.5" y="4.86953" width="11.4609" height="11.61" filterUnits="userSpaceOnUse" color-interpolation-filters="sRGB">
<feFlood flood-opacity="0" result="BackgroundImageFix"/>
<feBlend mode="normal" in="SourceGraphic" in2="BackgroundImageFix" result="shape"/>
<feColorMatrix in="SourceAlpha" type="matrix" values="0 0 0 0 0 0 0 0 0 0 0 0 0 0 0 0 0 0 127 0" result="hardAlpha"/>
<feOffset dy="-0.15"/>
<feGaussianBlur stdDeviation="0.075"/>
<feComposite in2="hardAlpha" operator="arithmetic" k2="-1" k3="1"/>
<feColorMatrix type="matrix" values="0 0 0 0 0.720229 0 0 0 0 0.669826 0 0 0 0 0.795833 0 0 0 1 0"/>
<feBlend mode="normal" in2="shape" result="effect1_innerShadow_277_17935"/>
</filter>
<filter id="filter2_f_277_17935" x="5.81641" y="16.3018" width="19.3984" height="13.426" filterUnits="userSpaceOnUse" color-interpolation-filters="sRGB">
<feFlood flood-opacity="0" result="BackgroundImageFix"/>
<feBlend mode="normal" in="SourceGraphic" in2="BackgroundImageFix" result="shape"/>
<feGaussianBlur stdDeviation="0.5" result="effect1_foregroundBlur_277_17935"/>
</filter>
<filter id="filter3_f_277_17935" x="6.41406" y="17.2471" width="15.2305" height="10.3999" filterUnits="userSpaceOnUse" color-interpolation-filters="sRGB">
<feFlood flood-opacity="0" result="BackgroundImageFix"/>
<feBlend mode="normal" in="SourceGraphic" in2="BackgroundImageFix" result="shape"/>
<feGaussianBlur stdDeviation="0.5" result="effect1_foregroundBlur_277_17935"/>
</filter>
<filter id="filter4_i_277_17935" x="22.8086" y="9.23047" width="7.69141" height="7.85007" filterUnits="userSpaceOnUse" color-interpolation-filters="sRGB">
<feFlood flood-opacity="0" result="BackgroundImageFix"/>
<feBlend mode="normal" in="SourceGraphic" in2="BackgroundImageFix" result="shape"/>
<feColorMatrix in="SourceAlpha" type="matrix" values="0 0 0 0 0 0 0 0 0 0 0 0 0 0 0 0 0 0 127 0" result="hardAlpha"/>
<feOffset dy="0.15"/>
<feGaussianBlur stdDeviation="0.125"/>
<feComposite in2="hardAlpha" operator="arithmetic" k2="-1" k3="1"/>
<feColorMatrix type="matrix" values="0 0 0 0 0.701961 0 0 0 0 0.690196 0 0 0 0 0.764706 0 0 0 1 0"/>
<feBlend mode="normal" in2="shape" result="effect1_innerShadow_277_17935"/>
</filter>
<filter id="filter5_i_277_17935" x="14.9102" y="4.48047" width="13.5898" height="9.5" filterUnits="userSpaceOnUse" color-interpolation-filters="sRGB">
<feFlood flood-opacity="0" result="BackgroundImageFix"/>
<feBlend mode="normal" in="SourceGraphic" in2="BackgroundImageFix" result="shape"/>
<feColorMatrix in="SourceAlpha" type="matrix" values="0 0 0 0 0 0 0 0 0 0 0 0 0 0 0 0 0 0 127 0" result="hardAlpha"/>
<feOffset/>
<feGaussianBlur stdDeviation="0.5"/>
<feComposite in2="hardAlpha" operator="arithmetic" k2="-1" k3="1"/>
<feColorMatrix type="matrix" values="0 0 0 0 0.309804 0 0 0 0 0.654902 0 0 0 0 0.537255 0 0 0 1 0"/>
<feBlend mode="normal" in2="shape" result="effect1_innerShadow_277_17935"/>
</filter>
<filter id="filter6_f_277_17935" x="15.1406" y="5.07031" width="13.125" height="8.64905" filterUnits="userSpaceOnUse" color-interpolation-filters="sRGB">
<feFlood flood-opacity="0" result="BackgroundImageFix"/>
<feBlend mode="normal" in="SourceGraphic" in2="BackgroundImageFix" result="shape"/>
<feGaussianBlur stdDeviation="0.25" result="effect1_foregroundBlur_277_17935"/>
</filter>
<filter id="filter7_f_277_17935" x="14.7172" y="6.07803" width="4.75313" height="7.76497" filterUnits="userSpaceOnUse" color-interpolation-filters="sRGB">
<feFlood flood-opacity="0" result="BackgroundImageFix"/>
<feBlend mode="normal" in="SourceGraphic" in2="BackgroundImageFix" result="shape"/>
<feGaussianBlur stdDeviation="0.2" result="effect1_foregroundBlur_277_17935"/>
</filter>
<filter id="filter8_f_277_17935" x="22.2516" y="5.17808" width="6.27813" height="8.45208" filterUnits="userSpaceOnUse" color-interpolation-filters="sRGB">
<feFlood flood-opacity="0" result="BackgroundImageFix"/>
<feBlend mode="normal" in="SourceGraphic" in2="BackgroundImageFix" result="shape"/>
<feGaussianBlur stdDeviation="0.3" result="effect1_foregroundBlur_277_17935"/>
</filter>
<filter id="filter9_f_277_17935" x="18.8516" y="2.125" width="9.70312" height="9.21899" filterUnits="userSpaceOnUse" color-interpolation-filters="sRGB">
<feFlood flood-opacity="0" result="BackgroundImageFix"/>
<feBlend mode="normal" in="SourceGraphic" in2="BackgroundImageFix" result="shape"/>
<feGaussianBlur stdDeviation="0.125" result="effect1_foregroundBlur_277_17935"/>
</filter>
<filter id="filter10_f_277_17935" x="26.5383" y="9.43538" width="3.98203" height="6.41001" filterUnits="userSpaceOnUse" color-interpolation-filters="sRGB">
<feFlood flood-opacity="0" result="BackgroundImageFix"/>
<feBlend mode="normal" in="SourceGraphic" in2="BackgroundImageFix" result="shape"/>
<feGaussianBlur stdDeviation="0.1" result="effect1_foregroundBlur_277_17935"/>
</filter>
<filter id="filter11_f_277_17935" x="22.8312" y="14.6932" width="5.21641" height="2.16147" filterUnits="userSpaceOnUse" color-interpolation-filters="sRGB">
<feFlood flood-opacity="0" result="BackgroundImageFix"/>
<feBlend mode="normal" in="SourceGraphic" in2="BackgroundImageFix" result="shape"/>
<feGaussianBlur stdDeviation="0.1" result="effect1_foregroundBlur_277_17935"/>
</filter>
<filter id="filter12_f_277_17935" x="16.3648" y="17.561" width="9.21172" height="12.017" filterUnits="userSpaceOnUse" color-interpolation-filters="sRGB">
<feFlood flood-opacity="0" result="BackgroundImageFix"/>
<feBlend mode="normal" in="SourceGraphic" in2="BackgroundImageFix" result="shape"/>
<feGaussianBlur stdDeviation="0.3" result="effect1_foregroundBlur_277_17935"/>
</filter>
<filter id="filter13_f_277_17935" x="6.03125" y="19.6523" width="10.1289" height="9.81201" filterUnits="userSpaceOnUse" color-interpolation-filters="sRGB">
<feFlood flood-opacity="0" result="BackgroundImageFix"/>
<feBlend mode="normal" in="SourceGraphic" in2="BackgroundImageFix" result="shape"/>
<feGaussianBlur stdDeviation="0.5" result="effect1_foregroundBlur_277_17935"/>
</filter>
<filter id="filter14_ii_277_17935" x="5.5" y="11.922" width="15.6648" height="14.8359" filterUnits="userSpaceOnUse" color-interpolation-filters="sRGB">
<feFlood flood-opacity="0" result="BackgroundImageFix"/>
<feBlend mode="normal" in="SourceGraphic" in2="BackgroundImageFix" result="shape"/>
<feColorMatrix in="SourceAlpha" type="matrix" values="0 0 0 0 0 0 0 0 0 0 0 0 0 0 0 0 0 0 127 0" result="hardAlpha"/>
<feOffset dx="0.2" dy="-0.25"/>
<feGaussianBlur stdDeviation="0.25"/>
<feComposite in2="hardAlpha" operator="arithmetic" k2="-1" k3="1"/>
<feColorMatrix type="matrix" values="0 0 0 0 0.109804 0 0 0 0 0.529412 0 0 0 0 0.356863 0 0 0 1 0"/>
<feBlend mode="normal" in2="shape" result="effect1_innerShadow_277_17935"/>
<feColorMatrix in="SourceAlpha" type="matrix" values="0 0 0 0 0 0 0 0 0 0 0 0 0 0 0 0 0 0 127 0" result="hardAlpha"/>
<feOffset/>
<feGaussianBlur stdDeviation="0.5"/>
<feComposite in2="hardAlpha" operator="arithmetic" k2="-1" k3="1"/>
<feColorMatrix type="matrix" values="0 0 0 0 0.14902 0 0 0 0 0.670588 0 0 0 0 0.392157 0 0 0 1 0"/>
<feBlend mode="normal" in2="effect1_innerShadow_277_17935" result="effect2_innerShadow_277_17935"/>
</filter>
<filter id="filter15_f_277_17935" x="6.24609" y="12.5234" width="14.8203" height="13.457" filterUnits="userSpaceOnUse" color-interpolation-filters="sRGB">
<feFlood flood-opacity="0" result="BackgroundImageFix"/>
<feBlend mode="normal" in="SourceGraphic" in2="BackgroundImageFix" result="shape"/>
<feGaussianBlur stdDeviation="0.25" result="effect1_foregroundBlur_277_17935"/>
</filter>
<filter id="filter16_f_277_17935" x="2.72656" y="7.55078" width="4.22266" height="8.78406" filterUnits="userSpaceOnUse" color-interpolation-filters="sRGB">
<feFlood flood-opacity="0" result="BackgroundImageFix"/>
<feBlend mode="normal" in="SourceGraphic" in2="BackgroundImageFix" result="shape"/>
<feGaussianBlur stdDeviation="0.125" result="effect1_foregroundBlur_277_17935"/>
</filter>
<filter id="filter17_f_277_17935" x="6.19922" y="5.01074" width="7.75391" height="3.29004" filterUnits="userSpaceOnUse" color-interpolation-filters="sRGB">
<feFlood flood-opacity="0" result="BackgroundImageFix"/>
<feBlend mode="normal" in="SourceGraphic" in2="BackgroundImageFix" result="shape"/>
<feGaussianBlur stdDeviation="0.125" result="effect1_foregroundBlur_277_17935"/>
</filter>
<filter id="filter18_f_277_17935" x="11.5742" y="2.0614" width="5.92969" height="1.27966" filterUnits="userSpaceOnUse" color-interpolation-filters="sRGB">
<feFlood flood-opacity="0" result="BackgroundImageFix"/>
<feBlend mode="normal" in="SourceGraphic" in2="BackgroundImageFix" result="shape"/>
<feGaussianBlur stdDeviation="0.125" result="effect1_foregroundBlur_277_17935"/>
</filter>
<filter id="filter19_f_277_17935" x="4.49219" y="3.02832" width="4.61719" height="3.40698" filterUnits="userSpaceOnUse" color-interpolation-filters="sRGB">
<feFlood flood-opacity="0" result="BackgroundImageFix"/>
<feBlend mode="normal" in="SourceGraphic" in2="BackgroundImageFix" result="shape"/>
<feGaussianBlur stdDeviation="0.125" result="effect1_foregroundBlur_277_17935"/>
</filter>
<radialGradient id="paint0_radial_277_17935" cx="0" cy="0" r="1" gradientUnits="userSpaceOnUse" gradientTransform="translate(10.6392 3.66) rotate(-103.627) scale(1.34727 8.97106)">
<stop offset="0.006" stop-color="#CBBDDC"/>
<stop offset="1" stop-color="#D2CCDB"/>
</radialGradient>
<linearGradient id="paint1_linear_277_17935" x1="2.5" y1="14.6875" x2="13.96" y2="5.31253" gradientUnits="userSpaceOnUse">
<stop offset="0.006" stop-color="#CCC3D9"/>
<stop offset="1" stop-color="#CABDDD"/>
</linearGradient>
<linearGradient id="paint2_linear_277_17935" x1="13.558" y1="31.179" x2="16.8" y2="20.032" gradientUnits="userSpaceOnUse">
<stop stop-color="#459589"/>
<stop offset="1" stop-color="#5AB57A"/>
</linearGradient>
<linearGradient id="paint3_linear_277_17935" x1="16.128" y1="30.665" x2="16.128" y2="28.807" gradientUnits="userSpaceOnUse">
<stop stop-color="#528289"/>
<stop offset="1" stop-color="#528289" stop-opacity="0"/>
</linearGradient>
<linearGradient id="paint4_linear_277_17935" x1="7.70941" y1="18.0548" x2="20.4524" y2="27.8228" gradientUnits="userSpaceOnUse">
<stop stop-color="#4BBC85"/>
<stop offset="1" stop-color="#46AF84"/>
</linearGradient>
<linearGradient id="paint5_linear_277_17935" x1="12.4486" y1="22.8376" x2="13.2796" y2="21.1386" gradientUnits="userSpaceOnUse">
<stop stop-color="#33A171"/>
<stop offset="1" stop-color="#3FB774"/>
</linearGradient>
<linearGradient id="paint6_linear_277_17935" x1="23.3996" y1="17.4525" x2="30.8306" y2="10.9695" gradientUnits="userSpaceOnUse">
<stop offset="0.006" stop-color="#C2B4D9"/>
<stop offset="1" stop-color="#C8C4D5"/>
</linearGradient>
<linearGradient id="paint7_linear_277_17935" x1="15.3292" y1="12.6925" x2="29.5262" y2="5.66247" gradientUnits="userSpaceOnUse">
<stop stop-color="#4FC679"/>
<stop offset="1" stop-color="#4DBF82"/>
</linearGradient>
<linearGradient id="paint8_linear_277_17935" x1="16.2786" y1="12.1543" x2="28.0116" y2="6.34531" gradientUnits="userSpaceOnUse">
<stop stop-color="#4FC886"/>
<stop offset="1" stop-color="#4EBD8E"/>
</linearGradient>
<linearGradient id="paint9_linear_277_17935" x1="16.4787" y1="9.777" x2="14.6158" y2="10.242" gradientUnits="userSpaceOnUse">
<stop offset="0.809" stop-color="#84D59E"/>
<stop offset="1" stop-color="#84D49E" stop-opacity="0"/>
</linearGradient>
<linearGradient id="paint10_linear_277_17935" x1="24.9053" y1="12.3751" x2="28.8953" y2="11.5161" gradientUnits="userSpaceOnUse">
<stop stop-color="#63D393" stop-opacity="0"/>
<stop offset="1" stop-color="#63D393"/>
</linearGradient>
<linearGradient id="paint11_linear_277_17935" x1="29.3881" y1="5.00753" x2="19.3261" y2="10.3485" gradientUnits="userSpaceOnUse">
<stop stop-color="#269D63"/>
<stop offset="1" stop-color="#34C075"/>
</linearGradient>
<radialGradient id="paint12_radial_277_17935" cx="0" cy="0" r="1" gradientUnits="userSpaceOnUse" gradientTransform="translate(28.5001 2.38953) rotate(146.724) scale(0.598032 0.610497)">
<stop stop-color="#66B386"/>
<stop offset="1" stop-color="#66B386" stop-opacity="0"/>
</radialGradient>
<radialGradient id="paint13_radial_277_17935" cx="0" cy="0" r="1" gradientUnits="userSpaceOnUse" gradientTransform="translate(27.0471 5.17353) rotate(38.6003) scale(0.752383 0.943146)">
<stop stop-color="#60A576"/>
<stop offset="1" stop-color="#60A576" stop-opacity="0"/>
</radialGradient>
<linearGradient id="paint14_linear_277_17935" x1="16.9136" y1="12.561" x2="29.6176" y2="14.524" gradientUnits="userSpaceOnUse">
<stop stop-color="#53CD8B"/>
<stop offset="1" stop-color="#5BB180"/>
</linearGradient>
<linearGradient id="paint15_linear_277_17935" x1="31.2868" y1="8.29235" x2="27.6108" y2="16.1784" gradientUnits="userSpaceOnUse">
<stop stop-color="#DBD8E4"/>
<stop offset="1" stop-color="#DBD8E4" stop-opacity="0"/>
</linearGradient>
<linearGradient id="paint16_linear_277_17935" x1="22.2438" y1="16.8102" x2="22.9488" y2="15.1672" gradientUnits="userSpaceOnUse">
<stop stop-color="#DBD8E4" stop-opacity="0.5"/>
<stop offset="1" stop-color="#DBD8E4" stop-opacity="0"/>
</linearGradient>
<linearGradient id="paint17_linear_277_17935" x1="25.1198" y1="27.78" x2="16.3448" y2="18.411" gradientUnits="userSpaceOnUse">
<stop stop-color="#6CC995"/>
<stop offset="1" stop-color="#6CC995" stop-opacity="0"/>
</linearGradient>
<radialGradient id="paint18_radial_277_17935" cx="0" cy="0" r="1" gradientUnits="userSpaceOnUse" gradientTransform="translate(9.93125 25.5663) rotate(-50.469) scale(5.27883 5.2134)">
<stop stop-color="#6CC995"/>
<stop offset="1" stop-color="#6CC995" stop-opacity="0"/>
</radialGradient>
<linearGradient id="paint19_linear_277_17935" x1="6.364" y1="15.447" x2="21.393" y2="26.589" gradientUnits="userSpaceOnUse">
<stop stop-color="#269C64"/>
<stop offset="1" stop-color="#45C68E"/>
</linearGradient>
<linearGradient id="paint20_linear_277_17935" x1="20.942" y1="26.745" x2="18.776" y2="25.566" gradientUnits="userSpaceOnUse">
<stop stop-color="#32C37E"/>
<stop offset="1" stop-color="#32C37E" stop-opacity="0"/>
</linearGradient>
<radialGradient id="paint21_radial_277_17935" cx="0" cy="0" r="1" gradientUnits="userSpaceOnUse" gradientTransform="translate(13.221 20.17) rotate(120.293) scale(0.663808 5.94284)">
<stop stop-color="#23A965"/>
<stop offset="1" stop-color="#23A965" stop-opacity="0"/>
</radialGradient>
<radialGradient id="paint22_radial_277_17935" cx="0" cy="0" r="1" gradientUnits="userSpaceOnUse" gradientTransform="translate(20.438 25.313) rotate(-177.337) scale(0.672596 0.712739)">
<stop stop-color="#65D69C"/>
<stop offset="1" stop-color="#65D69C" stop-opacity="0"/>
</radialGradient>
<radialGradient id="paint23_radial_277_17935" cx="0" cy="0" r="1" gradientUnits="userSpaceOnUse" gradientTransform="translate(7.50909 17.8184) rotate(-35.2867) scale(3.14769 2.49591)">
<stop stop-color="#62B78C"/>
<stop offset="1" stop-color="#62B78C" stop-opacity="0"/>
</radialGradient>
<linearGradient id="paint24_linear_277_17935" x1="20.0401" y1="24.8944" x2="7.54909" y2="18.0164" gradientUnits="userSpaceOnUse">
<stop stop-color="#69D79E"/>
<stop offset="1" stop-color="#69D79E" stop-opacity="0"/>
</linearGradient>
<linearGradient id="paint25_linear_277_17935" x1="11.1861" y1="12.5614" x2="7.62809" y2="17.3844" gradientUnits="userSpaceOnUse">
<stop stop-color="#69D79E"/>
<stop offset="1" stop-color="#69D79E" stop-opacity="0"/>
</linearGradient>
<linearGradient id="paint26_linear_277_17935" x1="2.88423" y1="15.8408" x2="7.24823" y2="8.14378" gradientUnits="userSpaceOnUse">
<stop stop-color="#DCD2EA"/>
<stop offset="1" stop-color="#DCD2EA" stop-opacity="0"/>
</linearGradient>
<linearGradient id="paint27_linear_277_17935" x1="13.7952" y1="5.70374" x2="8.12122" y2="7.68774" gradientUnits="userSpaceOnUse">
<stop stop-color="#DCD2EA"/>
<stop offset="1" stop-color="#DCD2EA" stop-opacity="0"/>
</linearGradient>
<linearGradient id="paint28_linear_277_17935" x1="17.2882" y1="2.50302" x2="15.4312" y2="4.80302" gradientUnits="userSpaceOnUse">
<stop stop-color="#E2D9F0" stop-opacity="0.6"/>
<stop offset="1" stop-color="#DCD2EA" stop-opacity="0"/>
</linearGradient>
<linearGradient id="paint29_linear_277_17935" x1="4.41019" y1="6.06132" x2="9.22319" y2="5.33432" gradientUnits="userSpaceOnUse">
<stop stop-color="#E2D9F0" stop-opacity="0.6"/>
<stop offset="1" stop-color="#DCD2EA" stop-opacity="0"/>
</linearGradient>
</defs>
</svg>
