<svg width="32" height="32" viewBox="0 0 32 32" fill="none" xmlns="http://www.w3.org/2000/svg">
<g filter="url(#filter0_i_277_12949)">
<path d="M8.77734 14.2274V8.66444C8.77734 7.33411 9.30581 6.05827 10.2465 5.11759C11.1872 4.17691 12.463 3.64844 13.7933 3.64844C15.1237 3.64844 16.3995 4.17691 17.3402 5.11759C18.2809 6.05827 18.8093 7.33411 18.8093 8.66444V14.2274" stroke="#C2C2C6" stroke-width="2.75"/>
</g>
<path d="M8.77734 14.2274V8.66444C8.77734 7.33411 9.30581 6.05827 10.2465 5.11759C11.1872 4.17691 12.463 3.64844 13.7933 3.64844C15.1237 3.64844 16.3995 4.17691 17.3402 5.11759C18.2809 6.05827 18.8093 7.33411 18.8093 8.66444V14.2274" stroke="url(#paint0_radial_277_12949)" stroke-width="2.75"/>
<g filter="url(#filter1_f_277_12949)">
<path d="M9.16797 14.2274V8.46744C9.16797 5.59944 11.463 3.27344 14.293 3.27344C17.123 3.27344 19.418 5.59944 19.418 8.46744V14.2274" stroke="url(#paint1_radial_277_12949)"/>
<path d="M9.16797 14.2274V8.46744C9.16797 5.59944 11.463 3.27344 14.293 3.27344C17.123 3.27344 19.418 5.59944 19.418 8.46744V14.2274" stroke="url(#paint2_radial_277_12949)"/>
</g>
<g filter="url(#filter2_iiii_277_12949)">
<path d="M21.7935 11.2119H5.85547C4.19861 11.2119 2.85547 12.5551 2.85547 14.2119V27.0559C2.85547 28.7128 4.19861 30.0559 5.85547 30.0559H21.7935C23.4503 30.0559 24.7935 28.7128 24.7935 27.0559V14.2119C24.7935 12.5551 23.4503 11.2119 21.7935 11.2119Z" fill="url(#paint3_linear_277_12949)"/>
</g>
<path d="M21.7935 11.2119H5.85547C4.19861 11.2119 2.85547 12.5551 2.85547 14.2119V27.0559C2.85547 28.7128 4.19861 30.0559 5.85547 30.0559H21.7935C23.4503 30.0559 24.7935 28.7128 24.7935 27.0559V14.2119C24.7935 12.5551 23.4503 11.2119 21.7935 11.2119Z" fill="url(#paint4_radial_277_12949)"/>
<path d="M21.7935 11.2119H5.85547C4.19861 11.2119 2.85547 12.5551 2.85547 14.2119V27.0559C2.85547 28.7128 4.19861 30.0559 5.85547 30.0559H21.7935C23.4503 30.0559 24.7935 28.7128 24.7935 27.0559V14.2119C24.7935 12.5551 23.4503 11.2119 21.7935 11.2119Z" fill="url(#paint5_linear_277_12949)"/>
<path d="M21.7935 11.2119H5.85547C4.19861 11.2119 2.85547 12.5551 2.85547 14.2119V27.0559C2.85547 28.7128 4.19861 30.0559 5.85547 30.0559H21.7935C23.4503 30.0559 24.7935 28.7128 24.7935 27.0559V14.2119C24.7935 12.5551 23.4503 11.2119 21.7935 11.2119Z" fill="url(#paint6_radial_277_12949)"/>
<g filter="url(#filter3_f_277_12949)">
<path d="M19.4912 11.4248C19.3045 12.4626 19.4773 13.5331 19.9811 14.4594C20.4849 15.3857 21.2896 16.1125 22.2622 16.5198V19.3608C22.2625 19.5684 22.3436 19.7678 22.4882 19.9168L22.9062 20.3498C23.0286 20.4761 23.1003 20.6431 23.1075 20.8189C23.1147 20.9946 23.0569 21.1669 22.9452 21.3028L22.7452 21.5458C22.6465 21.6658 22.5921 21.8161 22.5912 21.9714C22.5903 22.1268 22.6429 22.2777 22.7402 22.3988L22.9352 22.6418C23.0529 22.7885 23.1108 22.9743 23.097 23.1619C23.0833 23.3494 22.999 23.5248 22.8612 23.6528L22.5192 23.9698C22.4384 24.0447 22.374 24.1356 22.3299 24.2366C22.2859 24.3376 22.2631 24.4466 22.2632 24.5568V26.0878C22.2632 26.3841 22.3364 26.6758 22.4764 26.937C22.6163 27.1981 22.8187 27.4206 23.0655 27.5846C23.3123 27.7487 23.5958 27.8491 23.8907 27.8771C24.1857 27.905 24.483 27.8596 24.7562 27.7448C24.7812 27.5898 24.7942 27.4308 24.7942 27.2678V14.4248C24.7942 12.7678 24.1442 11.9388 22.4882 11.9388L19.4912 11.4248Z" fill="url(#paint7_linear_277_12949)"/>
<path d="M19.4912 11.4248C19.3045 12.4626 19.4773 13.5331 19.9811 14.4594C20.4849 15.3857 21.2896 16.1125 22.2622 16.5198V19.3608C22.2625 19.5684 22.3436 19.7678 22.4882 19.9168L22.9062 20.3498C23.0286 20.4761 23.1003 20.6431 23.1075 20.8189C23.1147 20.9946 23.0569 21.1669 22.9452 21.3028L22.7452 21.5458C22.6465 21.6658 22.5921 21.8161 22.5912 21.9714C22.5903 22.1268 22.6429 22.2777 22.7402 22.3988L22.9352 22.6418C23.0529 22.7885 23.1108 22.9743 23.097 23.1619C23.0833 23.3494 22.999 23.5248 22.8612 23.6528L22.5192 23.9698C22.4384 24.0447 22.374 24.1356 22.3299 24.2366C22.2859 24.3376 22.2631 24.4466 22.2632 24.5568V26.0878C22.2632 26.3841 22.3364 26.6758 22.4764 26.937C22.6163 27.1981 22.8187 27.4206 23.0655 27.5846C23.3123 27.7487 23.5958 27.8491 23.8907 27.8771C24.1857 27.905 24.483 27.8596 24.7562 27.7448C24.7812 27.5898 24.7942 27.4308 24.7942 27.2678V14.4248C24.7942 12.7678 24.1442 11.9388 22.4882 11.9388L19.4912 11.4248Z" fill="url(#paint8_radial_277_12949)"/>
</g>
<g filter="url(#filter4_f_277_12949)">
<path d="M15.222 20.5486C15.6964 20.2429 16.0589 19.7916 16.2549 19.2623C16.4509 18.7331 16.4698 18.1545 16.3089 17.6135C16.1479 17.0726 15.8158 16.5985 15.3623 16.2625C14.9089 15.9264 14.3587 15.7466 13.7943 15.75C13.2299 15.7535 12.6819 15.94 12.2326 16.2815C11.7832 16.623 11.4569 17.1011 11.3025 17.644C11.1482 18.1868 11.1741 18.7651 11.3766 19.292C11.579 19.8188 11.9469 20.2657 12.425 20.5656V23.8596C12.425 24.2305 12.5723 24.5862 12.8346 24.8485C13.0969 25.1107 13.4526 25.2581 13.8235 25.2581C14.1944 25.2581 14.5501 25.1107 14.8124 24.8485C15.0747 24.5862 15.222 24.2305 15.222 23.8596V20.5486Z" stroke="url(#paint9_linear_277_12949)" stroke-width="1.75"/>
<path d="M15.222 20.5486C15.6964 20.2429 16.0589 19.7916 16.2549 19.2623C16.4509 18.7331 16.4698 18.1545 16.3089 17.6135C16.1479 17.0726 15.8158 16.5985 15.3623 16.2625C14.9089 15.9264 14.3587 15.7466 13.7943 15.75C13.2299 15.7535 12.6819 15.94 12.2326 16.2815C11.7832 16.623 11.4569 17.1011 11.3025 17.644C11.1482 18.1868 11.1741 18.7651 11.3766 19.292C11.579 19.8188 11.9469 20.2657 12.425 20.5656V23.8596C12.425 24.2305 12.5723 24.5862 12.8346 24.8485C13.0969 25.1107 13.4526 25.2581 13.8235 25.2581C14.1944 25.2581 14.5501 25.1107 14.8124 24.8485C15.0747 24.5862 15.222 24.2305 15.222 23.8596V20.5486Z" stroke="url(#paint10_linear_277_12949)" stroke-width="1.75"/>
</g>
<path d="M15.222 20.5486C15.6964 20.2429 16.0589 19.7916 16.2549 19.2623C16.4509 18.7331 16.4698 18.1545 16.3089 17.6135C16.1479 17.0726 15.8158 16.5985 15.3623 16.2625C14.9089 15.9264 14.3587 15.7466 13.7943 15.75C13.2299 15.7535 12.6819 15.94 12.2326 16.2815C11.7832 16.623 11.4569 17.1011 11.3025 17.644C11.1482 18.1868 11.1741 18.7651 11.3766 19.292C11.579 19.8188 11.9469 20.2657 12.425 20.5656V23.8596C12.425 24.2305 12.5723 24.5862 12.8346 24.8485C13.0969 25.1107 13.4526 25.2581 13.8235 25.2581C14.1944 25.2581 14.5501 25.1107 14.8124 24.8485C15.0747 24.5862 15.222 24.2305 15.222 23.8596V20.5486Z" fill="url(#paint11_radial_277_12949)"/>
<g filter="url(#filter5_iii_277_12949)">
<path fill-rule="evenodd" clip-rule="evenodd" d="M26.9415 16.3001C27.9271 15.8836 28.7382 15.1389 29.2372 14.1925C29.7361 13.246 29.8922 12.156 29.6789 11.1075C29.4655 10.0591 28.896 9.11672 28.0668 8.44046C27.2377 7.7642 26.2001 7.39568 25.1302 7.39747C24.0602 7.39925 23.0239 7.77123 22.197 8.45026C21.3701 9.12929 20.8037 10.0735 20.5939 11.1227C20.3841 12.1719 20.5438 13.2613 21.0459 14.2061C21.548 15.151 22.3616 15.8929 23.3485 16.3061V19.1471C23.3483 19.3549 23.429 19.5547 23.5735 19.7041L23.9915 20.1361C24.1139 20.2627 24.1854 20.4299 24.1924 20.6058C24.1994 20.7817 24.1415 20.9541 24.0295 21.0901L23.8295 21.3321C23.7309 21.4523 23.6766 21.6028 23.6759 21.7583C23.6752 21.9139 23.728 22.0649 23.8255 22.1861L24.0205 22.4291C24.138 22.5757 24.1956 22.7612 24.1819 22.9486C24.1682 23.1359 24.0841 23.3111 23.9465 23.4391L23.6045 23.7571C23.5239 23.8319 23.4595 23.9225 23.4154 24.0234C23.3714 24.1242 23.3486 24.233 23.3485 24.3431V25.8751C23.3429 26.1145 23.3852 26.3527 23.4729 26.5756C23.5607 26.7985 23.6921 27.0017 23.8595 27.173C24.0269 27.3444 24.2268 27.4806 24.4476 27.5736C24.6684 27.6665 24.9055 27.7144 25.145 27.7144C25.3846 27.7144 25.6217 27.6665 25.8425 27.5736C26.0633 27.4806 26.2632 27.3444 26.4306 27.173C26.598 27.0017 26.7294 26.7985 26.8172 26.5756C26.9049 26.3527 26.9472 26.1145 26.9415 25.8751V16.2991V16.3001ZM26.1765 9.63305C26.1827 9.77333 26.1604 9.9134 26.1109 10.0448C26.0615 10.1762 25.986 10.2963 25.8889 10.3977C25.7918 10.4992 25.6752 10.5799 25.546 10.6351C25.4169 10.6902 25.278 10.7186 25.1375 10.7186C24.9971 10.7186 24.8582 10.6902 24.729 10.6351C24.5999 10.5799 24.4833 10.4992 24.3862 10.3977C24.2891 10.2963 24.2136 10.1762 24.1641 10.0448C24.1147 9.9134 24.0924 9.77333 24.0985 9.63305C24.1103 9.36538 24.2249 9.11257 24.4185 8.92731C24.612 8.74205 24.8696 8.63865 25.1375 8.63865C25.4055 8.63865 25.6631 8.74205 25.8566 8.92731C26.0502 9.11257 26.1648 9.36538 26.1765 9.63305Z" fill="url(#paint12_linear_277_12949)"/>
</g>
<path fill-rule="evenodd" clip-rule="evenodd" d="M26.9415 16.3001C27.9271 15.8836 28.7382 15.1389 29.2372 14.1925C29.7361 13.246 29.8922 12.156 29.6789 11.1075C29.4655 10.0591 28.896 9.11672 28.0668 8.44046C27.2377 7.7642 26.2001 7.39568 25.1302 7.39747C24.0602 7.39925 23.0239 7.77123 22.197 8.45026C21.3701 9.12929 20.8037 10.0735 20.5939 11.1227C20.3841 12.1719 20.5438 13.2613 21.0459 14.2061C21.548 15.151 22.3616 15.8929 23.3485 16.3061V19.1471C23.3483 19.3549 23.429 19.5547 23.5735 19.7041L23.9915 20.1361C24.1139 20.2627 24.1854 20.4299 24.1924 20.6058C24.1994 20.7817 24.1415 20.9541 24.0295 21.0901L23.8295 21.3321C23.7309 21.4523 23.6766 21.6028 23.6759 21.7583C23.6752 21.9139 23.728 22.0649 23.8255 22.1861L24.0205 22.4291C24.138 22.5757 24.1956 22.7612 24.1819 22.9486C24.1682 23.1359 24.0841 23.3111 23.9465 23.4391L23.6045 23.7571C23.5239 23.8319 23.4595 23.9225 23.4154 24.0234C23.3714 24.1242 23.3486 24.233 23.3485 24.3431V25.8751C23.3429 26.1145 23.3852 26.3527 23.4729 26.5756C23.5607 26.7985 23.6921 27.0017 23.8595 27.173C24.0269 27.3444 24.2268 27.4806 24.4476 27.5736C24.6684 27.6665 24.9055 27.7144 25.145 27.7144C25.3846 27.7144 25.6217 27.6665 25.8425 27.5736C26.0633 27.4806 26.2632 27.3444 26.4306 27.173C26.598 27.0017 26.7294 26.7985 26.8172 26.5756C26.9049 26.3527 26.9472 26.1145 26.9415 25.8751V16.2991V16.3001ZM26.1765 9.63305C26.1827 9.77333 26.1604 9.9134 26.1109 10.0448C26.0615 10.1762 25.986 10.2963 25.8889 10.3977C25.7918 10.4992 25.6752 10.5799 25.546 10.6351C25.4169 10.6902 25.278 10.7186 25.1375 10.7186C24.9971 10.7186 24.8582 10.6902 24.729 10.6351C24.5999 10.5799 24.4833 10.4992 24.3862 10.3977C24.2891 10.2963 24.2136 10.1762 24.1641 10.0448C24.1147 9.9134 24.0924 9.77333 24.0985 9.63305C24.1103 9.36538 24.2249 9.11257 24.4185 8.92731C24.612 8.74205 24.8696 8.63865 25.1375 8.63865C25.4055 8.63865 25.6631 8.74205 25.8566 8.92731C26.0502 9.11257 26.1648 9.36538 26.1765 9.63305Z" fill="url(#paint13_radial_277_12949)"/>
<g filter="url(#filter6_f_277_12949)">
<path d="M25.3186 16.1844C27.5785 16.1844 29.4106 14.321 29.4106 12.0224C29.4106 9.72374 27.5785 7.86035 25.3186 7.86035C23.0586 7.86035 21.2266 9.72374 21.2266 12.0224C21.2266 14.321 23.0586 16.1844 25.3186 16.1844Z" stroke="url(#paint14_linear_277_12949)" stroke-width="0.4"/>
</g>
<defs>
<filter id="filter0_i_277_12949" x="7.40234" y="2.27344" width="13.7812" height="11.9541" filterUnits="userSpaceOnUse" color-interpolation-filters="sRGB">
<feFlood flood-opacity="0" result="BackgroundImageFix"/>
<feBlend mode="normal" in="SourceGraphic" in2="BackgroundImageFix" result="shape"/>
<feColorMatrix in="SourceAlpha" type="matrix" values="0 0 0 0 0 0 0 0 0 0 0 0 0 0 0 0 0 0 127 0" result="hardAlpha"/>
<feOffset dx="1"/>
<feGaussianBlur stdDeviation="0.5"/>
<feComposite in2="hardAlpha" operator="arithmetic" k2="-1" k3="1"/>
<feColorMatrix type="matrix" values="0 0 0 0 0.560784 0 0 0 0 0.556863 0 0 0 0 0.576471 0 0 0 1 0"/>
<feBlend mode="normal" in2="shape" result="effect1_innerShadow_277_12949"/>
</filter>
<filter id="filter1_f_277_12949" x="7.91797" y="2.02344" width="12.75" height="12.9541" filterUnits="userSpaceOnUse" color-interpolation-filters="sRGB">
<feFlood flood-opacity="0" result="BackgroundImageFix"/>
<feBlend mode="normal" in="SourceGraphic" in2="BackgroundImageFix" result="shape"/>
<feGaussianBlur stdDeviation="0.375" result="effect1_foregroundBlur_277_12949"/>
</filter>
<filter id="filter2_iiii_277_12949" x="2.10547" y="10.4619" width="23.4375" height="20.344" filterUnits="userSpaceOnUse" color-interpolation-filters="sRGB">
<feFlood flood-opacity="0" result="BackgroundImageFix"/>
<feBlend mode="normal" in="SourceGraphic" in2="BackgroundImageFix" result="shape"/>
<feColorMatrix in="SourceAlpha" type="matrix" values="0 0 0 0 0 0 0 0 0 0 0 0 0 0 0 0 0 0 127 0" result="hardAlpha"/>
<feOffset dy="-0.75"/>
<feGaussianBlur stdDeviation="0.375"/>
<feComposite in2="hardAlpha" operator="arithmetic" k2="-1" k3="1"/>
<feColorMatrix type="matrix" values="0 0 0 0 0.898039 0 0 0 0 0.364706 0 0 0 0 0.423529 0 0 0 1 0"/>
<feBlend mode="normal" in2="shape" result="effect1_innerShadow_277_12949"/>
<feColorMatrix in="SourceAlpha" type="matrix" values="0 0 0 0 0 0 0 0 0 0 0 0 0 0 0 0 0 0 127 0" result="hardAlpha"/>
<feOffset dx="-1"/>
<feGaussianBlur stdDeviation="0.375"/>
<feComposite in2="hardAlpha" operator="arithmetic" k2="-1" k3="1"/>
<feColorMatrix type="matrix" values="0 0 0 0 1 0 0 0 0 0.772549 0 0 0 0 0.364706 0 0 0 1 0"/>
<feBlend mode="normal" in2="effect1_innerShadow_277_12949" result="effect2_innerShadow_277_12949"/>
<feColorMatrix in="SourceAlpha" type="matrix" values="0 0 0 0 0 0 0 0 0 0 0 0 0 0 0 0 0 0 127 0" result="hardAlpha"/>
<feOffset dy="1"/>
<feGaussianBlur stdDeviation="0.375"/>
<feComposite in2="hardAlpha" operator="arithmetic" k2="-1" k3="1"/>
<feColorMatrix type="matrix" values="0 0 0 0 1 0 0 0 0 0.843137 0 0 0 0 0.266667 0 0 0 1 0"/>
<feBlend mode="normal" in2="effect2_innerShadow_277_12949" result="effect3_innerShadow_277_12949"/>
<feColorMatrix in="SourceAlpha" type="matrix" values="0 0 0 0 0 0 0 0 0 0 0 0 0 0 0 0 0 0 127 0" result="hardAlpha"/>
<feOffset dx="0.75"/>
<feGaussianBlur stdDeviation="0.375"/>
<feComposite in2="hardAlpha" operator="arithmetic" k2="-1" k3="1"/>
<feColorMatrix type="matrix" values="0 0 0 0 0.729412 0 0 0 0 0.478431 0 0 0 0 0.207843 0 0 0 1 0"/>
<feBlend mode="normal" in2="effect3_innerShadow_277_12949" result="effect4_innerShadow_277_12949"/>
</filter>
<filter id="filter3_f_277_12949" x="18.418" y="10.4248" width="7.375" height="18.4602" filterUnits="userSpaceOnUse" color-interpolation-filters="sRGB">
<feFlood flood-opacity="0" result="BackgroundImageFix"/>
<feBlend mode="normal" in="SourceGraphic" in2="BackgroundImageFix" result="shape"/>
<feGaussianBlur stdDeviation="0.5" result="effect1_foregroundBlur_277_12949"/>
</filter>
<filter id="filter4_f_277_12949" x="9.82812" y="14.375" width="7.96484" height="12.2581" filterUnits="userSpaceOnUse" color-interpolation-filters="sRGB">
<feFlood flood-opacity="0" result="BackgroundImageFix"/>
<feBlend mode="normal" in="SourceGraphic" in2="BackgroundImageFix" result="shape"/>
<feGaussianBlur stdDeviation="0.25" result="effect1_foregroundBlur_277_12949"/>
</filter>
<filter id="filter5_iii_277_12949" x="20.2539" y="7.29746" width="9.86953" height="20.6669" filterUnits="userSpaceOnUse" color-interpolation-filters="sRGB">
<feFlood flood-opacity="0" result="BackgroundImageFix"/>
<feBlend mode="normal" in="SourceGraphic" in2="BackgroundImageFix" result="shape"/>
<feColorMatrix in="SourceAlpha" type="matrix" values="0 0 0 0 0 0 0 0 0 0 0 0 0 0 0 0 0 0 127 0" result="hardAlpha"/>
<feOffset dx="0.35" dy="-0.1"/>
<feGaussianBlur stdDeviation="0.3"/>
<feComposite in2="hardAlpha" operator="arithmetic" k2="-1" k3="1"/>
<feColorMatrix type="matrix" values="0 0 0 0 0.686275 0 0 0 0 0.529412 0 0 0 0 0.784314 0 0 0 1 0"/>
<feBlend mode="normal" in2="shape" result="effect1_innerShadow_277_12949"/>
<feColorMatrix in="SourceAlpha" type="matrix" values="0 0 0 0 0 0 0 0 0 0 0 0 0 0 0 0 0 0 127 0" result="hardAlpha"/>
<feOffset dx="-0.25" dy="0.25"/>
<feGaussianBlur stdDeviation="0.25"/>
<feComposite in2="hardAlpha" operator="arithmetic" k2="-1" k3="1"/>
<feColorMatrix type="matrix" values="0 0 0 0 0.898039 0 0 0 0 0.886275 0 0 0 0 0.929412 0 0 0 1 0"/>
<feBlend mode="normal" in2="effect1_innerShadow_277_12949" result="effect2_innerShadow_277_12949"/>
<feColorMatrix in="SourceAlpha" type="matrix" values="0 0 0 0 0 0 0 0 0 0 0 0 0 0 0 0 0 0 127 0" result="hardAlpha"/>
<feOffset dx="0.15" dy="0.15"/>
<feGaussianBlur stdDeviation="0.3"/>
<feComposite in2="hardAlpha" operator="arithmetic" k2="-1" k3="1"/>
<feColorMatrix type="matrix" values="0 0 0 0 0.588235 0 0 0 0 0.568627 0 0 0 0 0.607843 0 0 0 1 0"/>
<feBlend mode="normal" in2="effect2_innerShadow_277_12949" result="effect3_innerShadow_277_12949"/>
</filter>
<filter id="filter6_f_277_12949" x="20.7773" y="7.4104" width="9.08203" height="9.22388" filterUnits="userSpaceOnUse" color-interpolation-filters="sRGB">
<feFlood flood-opacity="0" result="BackgroundImageFix"/>
<feBlend mode="normal" in="SourceGraphic" in2="BackgroundImageFix" result="shape"/>
<feGaussianBlur stdDeviation="0.125" result="effect1_foregroundBlur_277_12949"/>
</filter>
<radialGradient id="paint0_radial_277_12949" cx="0" cy="0" r="1" gradientUnits="userSpaceOnUse" gradientTransform="translate(13.7933 7.74244) rotate(-90) scale(4.84375 5.28858)">
<stop offset="0.531" stop-color="#AB83C0"/>
<stop offset="1" stop-color="#CBBBDC" stop-opacity="0"/>
</radialGradient>
<radialGradient id="paint1_radial_277_12949" cx="0" cy="0" r="1" gradientUnits="userSpaceOnUse" gradientTransform="translate(19.724 4.68044) rotate(136.74) scale(5.24397 7.20331)">
<stop offset="0.216" stop-color="#EDECF3"/>
<stop offset="1" stop-color="#EDECF3" stop-opacity="0"/>
</radialGradient>
<radialGradient id="paint2_radial_277_12949" cx="0" cy="0" r="1" gradientUnits="userSpaceOnUse" gradientTransform="translate(10.375 12.7424) rotate(-90) scale(7.125 5.16319)">
<stop stop-color="#EDECF3"/>
<stop offset="1" stop-color="#EDECF3" stop-opacity="0"/>
</radialGradient>
<linearGradient id="paint3_linear_277_12949" x1="7.98047" y1="14.2739" x2="14.9185" y2="30.0559" gradientUnits="userSpaceOnUse">
<stop stop-color="#FFC74E"/>
<stop offset="1" stop-color="#F7864E"/>
</linearGradient>
<radialGradient id="paint4_radial_277_12949" cx="0" cy="0" r="1" gradientUnits="userSpaceOnUse" gradientTransform="translate(24.2305 30.0559) rotate(-132.274) scale(3.25195 7.57598)">
<stop stop-color="#FF8650"/>
<stop offset="1" stop-color="#FF8650" stop-opacity="0"/>
</radialGradient>
<linearGradient id="paint5_linear_277_12949" x1="13.8245" y1="10.8989" x2="13.8245" y2="12.3989" gradientUnits="userSpaceOnUse">
<stop stop-color="#F3D04E"/>
<stop offset="1" stop-color="#F3D04E" stop-opacity="0"/>
</linearGradient>
<radialGradient id="paint6_radial_277_12949" cx="0" cy="0" r="1" gradientUnits="userSpaceOnUse" gradientTransform="translate(24.4805 11.2109) rotate(126.254) scale(2.32513 5.25171)">
<stop stop-color="#FFF760"/>
<stop offset="1" stop-color="#FFF760" stop-opacity="0"/>
</radialGradient>
<linearGradient id="paint7_linear_277_12949" x1="22.1062" y1="11.4248" x2="22.1062" y2="27.8848" gradientUnits="userSpaceOnUse">
<stop stop-color="#BE7F3B"/>
<stop offset="1" stop-color="#BC553E"/>
</linearGradient>
<radialGradient id="paint8_radial_277_12949" cx="0" cy="0" r="1" gradientUnits="userSpaceOnUse" gradientTransform="translate(25.1632 21.5698) rotate(180) scale(3.05638 4.29803)">
<stop offset="0.336" stop-color="#763C16"/>
<stop offset="1" stop-color="#763C16" stop-opacity="0"/>
</radialGradient>
<linearGradient id="paint9_linear_277_12949" x1="16.948" y1="21.8366" x2="13.073" y2="21.8366" gradientUnits="userSpaceOnUse">
<stop offset="0.331" stop-color="#D98A40"/>
<stop offset="1" stop-color="#D98A40" stop-opacity="0"/>
</linearGradient>
<linearGradient id="paint10_linear_277_12949" x1="10.698" y1="20.8986" x2="13.417" y2="20.8986" gradientUnits="userSpaceOnUse">
<stop stop-color="#FFCD63"/>
<stop offset="1" stop-color="#FFCD63" stop-opacity="0"/>
</linearGradient>
<radialGradient id="paint11_radial_277_12949" cx="0" cy="0" r="1" gradientUnits="userSpaceOnUse" gradientTransform="translate(11.2022 18.7743) rotate(34.061) scale(5.69121 7.82719)">
<stop offset="0.217" stop-color="#564F80"/>
<stop offset="1" stop-color="#473154"/>
</radialGradient>
<linearGradient id="paint12_linear_277_12949" x1="25.1375" y1="19.3131" x2="25.1375" y2="27.6721" gradientUnits="userSpaceOnUse">
<stop stop-color="#CDC1DE"/>
<stop offset="1" stop-color="#C3B0DB"/>
</linearGradient>
<radialGradient id="paint13_radial_277_12949" cx="0" cy="0" r="1" gradientUnits="userSpaceOnUse" gradientTransform="translate(25.1375 14.4481) rotate(90) scale(13.2235 6.49293)">
<stop offset="0.935" stop-color="#C0A3E0" stop-opacity="0"/>
<stop offset="1" stop-color="#B778E9"/>
</radialGradient>
<linearGradient id="paint14_linear_277_12949" x1="29.6076" y1="8.84035" x2="26.9656" y2="10.9684" gradientUnits="userSpaceOnUse">
<stop offset="0.126" stop-color="#EBE8F3"/>
<stop offset="1" stop-color="#EBE8F3" stop-opacity="0"/>
</linearGradient>
</defs>
</svg>
