<svg width="32" height="32" viewBox="0 0 32 32" fill="none" xmlns="http://www.w3.org/2000/svg">
<path d="M26.281 19.727C28.3692 19.727 30.062 18.0342 30.062 15.946C30.062 13.8579 28.3692 12.165 26.281 12.165C24.1928 12.165 22.5 13.8579 22.5 15.946C22.5 18.0342 24.1928 19.727 26.281 19.727Z" fill="url(#paint0_radial_277_12258)"/>
<path d="M26.281 19.727C28.3692 19.727 30.062 18.0342 30.062 15.946C30.062 13.8579 28.3692 12.165 26.281 12.165C24.1928 12.165 22.5 13.8579 22.5 15.946C22.5 18.0342 24.1928 19.727 26.281 19.727Z" fill="url(#paint1_linear_277_12258)"/>
<path d="M5.25 21.04H10.094V28.32C10.094 28.4526 10.0413 28.5798 9.94755 28.6736C9.85379 28.7674 9.72661 28.82 9.594 28.82H5.75C5.61739 28.82 5.49021 28.7674 5.39645 28.6736C5.30268 28.5798 5.25 28.4526 5.25 28.32V21.04Z" fill="url(#paint2_radial_277_12258)"/>
<path d="M5.25 21.04H10.094V28.32C10.094 28.4526 10.0413 28.5798 9.94755 28.6736C9.85379 28.7674 9.72661 28.82 9.594 28.82H5.75C5.61739 28.82 5.49021 28.7674 5.39645 28.6736C5.30268 28.5798 5.25 28.4526 5.25 28.32V21.04Z" fill="url(#paint3_linear_277_12258)"/>
<g filter="url(#filter0_i_277_12258)">
<path d="M2.14062 10.8105C2.14062 10.6116 2.21964 10.4209 2.3603 10.2802C2.50095 10.1396 2.69171 10.0605 2.89062 10.0605H12.1476V21.9405H2.89062C2.69171 21.9405 2.50095 21.8615 2.3603 21.7209C2.21964 21.5802 2.14062 21.3895 2.14062 21.1905V10.8105Z" fill="url(#paint4_linear_277_12258)"/>
</g>
<g filter="url(#filter1_i_277_12258)">
<path d="M22.2174 5.75781C19.0144 7.75781 15.7014 9.74281 12.1484 10.0548V21.9398H12.3044C15.7984 22.2948 19.0604 24.2498 22.2174 26.2218L23.3494 26.0678V21.9388C23.5471 21.937 23.7361 21.8571 23.8752 21.7167C24.0144 21.5762 24.0924 21.3865 24.0924 21.1888V10.8098C24.0924 10.6121 24.0144 10.4224 23.8752 10.2819C23.7361 10.1415 23.5471 10.0617 23.3494 10.0598V5.91181L22.2174 5.75781Z" fill="url(#paint5_radial_277_12258)"/>
</g>
<g filter="url(#filter2_i_277_12258)">
<path d="M27.875 6.13429C27.875 4.44264 26.5039 3.07129 24.8125 3.07129C23.1211 3.07129 21.75 4.44264 21.75 6.13429V25.7583C21.75 27.4499 23.1211 28.8213 24.8125 28.8213C26.5039 28.8213 27.875 27.4499 27.875 25.7583V6.13429Z" fill="url(#paint6_linear_277_12258)"/>
<path d="M27.875 6.13429C27.875 4.44264 26.5039 3.07129 24.8125 3.07129C23.1211 3.07129 21.75 4.44264 21.75 6.13429V25.7583C21.75 27.4499 23.1211 28.8213 24.8125 28.8213C26.5039 28.8213 27.875 27.4499 27.875 25.7583V6.13429Z" fill="url(#paint7_radial_277_12258)"/>
</g>
<defs>
<filter id="filter0_i_277_12258" x="2.14062" y="8.06055" width="10.2578" height="13.88" filterUnits="userSpaceOnUse" color-interpolation-filters="sRGB">
<feFlood flood-opacity="0" result="BackgroundImageFix"/>
<feBlend mode="normal" in="SourceGraphic" in2="BackgroundImageFix" result="shape"/>
<feColorMatrix in="SourceAlpha" type="matrix" values="0 0 0 0 0 0 0 0 0 0 0 0 0 0 0 0 0 0 127 0" result="hardAlpha"/>
<feOffset dx="0.25" dy="-2"/>
<feGaussianBlur stdDeviation="1.5"/>
<feComposite in2="hardAlpha" operator="arithmetic" k2="-1" k3="1"/>
<feColorMatrix type="matrix" values="0 0 0 0 0.698039 0 0 0 0 0.160784 0 0 0 0 0.352941 0 0 0 1 0"/>
<feBlend mode="normal" in2="shape" result="effect1_innerShadow_277_12258"/>
</filter>
<filter id="filter1_i_277_12258" x="12.1484" y="2.75781" width="11.9453" height="23.464" filterUnits="userSpaceOnUse" color-interpolation-filters="sRGB">
<feFlood flood-opacity="0" result="BackgroundImageFix"/>
<feBlend mode="normal" in="SourceGraphic" in2="BackgroundImageFix" result="shape"/>
<feColorMatrix in="SourceAlpha" type="matrix" values="0 0 0 0 0 0 0 0 0 0 0 0 0 0 0 0 0 0 127 0" result="hardAlpha"/>
<feOffset dy="-4"/>
<feGaussianBlur stdDeviation="1.5"/>
<feComposite in2="hardAlpha" operator="arithmetic" k2="-1" k3="1"/>
<feColorMatrix type="matrix" values="0 0 0 0 0.717647 0 0 0 0 0.65098 0 0 0 0 0.827451 0 0 0 1 0"/>
<feBlend mode="normal" in2="shape" result="effect1_innerShadow_277_12258"/>
</filter>
<filter id="filter2_i_277_12258" x="21.75" y="2.07129" width="6.625" height="26.75" filterUnits="userSpaceOnUse" color-interpolation-filters="sRGB">
<feFlood flood-opacity="0" result="BackgroundImageFix"/>
<feBlend mode="normal" in="SourceGraphic" in2="BackgroundImageFix" result="shape"/>
<feColorMatrix in="SourceAlpha" type="matrix" values="0 0 0 0 0 0 0 0 0 0 0 0 0 0 0 0 0 0 127 0" result="hardAlpha"/>
<feOffset dx="0.5" dy="-1"/>
<feGaussianBlur stdDeviation="1"/>
<feComposite in2="hardAlpha" operator="arithmetic" k2="-1" k3="1"/>
<feColorMatrix type="matrix" values="0 0 0 0 0.698039 0 0 0 0 0.164706 0 0 0 0 0.372549 0 0 0 1 0"/>
<feBlend mode="normal" in2="shape" result="effect1_innerShadow_277_12258"/>
</filter>
<radialGradient id="paint0_radial_277_12258" cx="0" cy="0" r="1" gradientUnits="userSpaceOnUse" gradientTransform="translate(29.687 14.665) rotate(143.556) scale(2.52507 2.43774)">
<stop offset="0.363" stop-color="#6E6279"/>
<stop offset="1" stop-color="#5A4C67"/>
</radialGradient>
<linearGradient id="paint1_linear_277_12258" x1="27.75" y1="19.727" x2="28.25" y2="16.227" gradientUnits="userSpaceOnUse">
<stop offset="0.306" stop-color="#3A3141"/>
<stop offset="1" stop-color="#3A3141" stop-opacity="0"/>
</linearGradient>
<radialGradient id="paint2_radial_277_12258" cx="0" cy="0" r="1" gradientUnits="userSpaceOnUse" gradientTransform="translate(7.672 28.29) rotate(-90) scale(6.5 7.23214)">
<stop offset="0.429" stop-color="#C0B2D4"/>
<stop offset="1" stop-color="#B4A0BC"/>
</radialGradient>
<linearGradient id="paint3_linear_277_12258" x1="7.672" y1="28.821" x2="7.672" y2="27.165" gradientUnits="userSpaceOnUse">
<stop stop-color="#B5A4D2"/>
<stop offset="1" stop-color="#B5A4D2" stop-opacity="0"/>
</linearGradient>
<linearGradient id="paint4_linear_277_12258" x1="2.55963" y1="17.6655" x2="12.8726" y2="17.6655" gradientUnits="userSpaceOnUse">
<stop stop-color="#F44065"/>
<stop offset="1" stop-color="#D52E84"/>
</linearGradient>
<radialGradient id="paint5_radial_277_12258" cx="0" cy="0" r="1" gradientUnits="userSpaceOnUse" gradientTransform="translate(13.3734 7.41481) rotate(69.2417) scale(16.5761 17.5776)">
<stop offset="0.253" stop-color="#CFCCD5"/>
<stop offset="1" stop-color="#C1B6D2"/>
</radialGradient>
<linearGradient id="paint6_linear_277_12258" x1="24.813" y1="3.07129" x2="24.813" y2="28.8213" gradientUnits="userSpaceOnUse">
<stop stop-color="#F94E87"/>
<stop offset="1" stop-color="#D21F6B"/>
</linearGradient>
<radialGradient id="paint7_radial_277_12258" cx="0" cy="0" r="1" gradientUnits="userSpaceOnUse" gradientTransform="translate(27 8.54029) rotate(90) scale(14.125 3.375)">
<stop offset="0.283" stop-color="#FF4F8A"/>
<stop offset="1" stop-color="#FF4F8A" stop-opacity="0"/>
</radialGradient>
</defs>
</svg>
