<svg width="32" height="32" viewBox="0 0 32 32" fill="none" xmlns="http://www.w3.org/2000/svg">
<path d="M15.3033 29.4531C15.566 29.5974 15.8616 29.6711 16.1613 29.6671C16.461 29.663 16.7545 29.5814 17.0133 29.4301C20.6353 27.3631 26.9393 22.5941 29.4133 16.3981C33.0433 8.3371 24.5223 1.9021 18.6333 6.5301C18.0173 7.0141 17.2413 7.5691 16.7103 8.0941C16.4723 8.3281 16.0543 8.3521 15.8073 8.1281C15.1093 7.4911 14.0123 6.6721 13.3093 6.1971C8.29025 2.8001 -0.845748 7.2771 3.05125 16.8331C4.47925 21.1261 11.2913 27.2171 15.3033 29.4531Z" fill="url(#paint0_radial_277_17997)"/>
<path d="M15.3033 29.4531C15.566 29.5974 15.8616 29.6711 16.1613 29.6671C16.461 29.663 16.7545 29.5814 17.0133 29.4301C20.6353 27.3631 26.9393 22.5941 29.4133 16.3981C33.0433 8.3371 24.5223 1.9021 18.6333 6.5301C18.0173 7.0141 17.2413 7.5691 16.7103 8.0941C16.4723 8.3281 16.0543 8.3521 15.8073 8.1281C15.1093 7.4911 14.0123 6.6721 13.3093 6.1971C8.29025 2.8001 -0.845748 7.2771 3.05125 16.8331C4.47925 21.1261 11.2913 27.2171 15.3033 29.4531Z" fill="url(#paint1_radial_277_17997)"/>
<path d="M15.3033 29.4531C15.566 29.5974 15.8616 29.6711 16.1613 29.6671C16.461 29.663 16.7545 29.5814 17.0133 29.4301C20.6353 27.3631 26.9393 22.5941 29.4133 16.3981C33.0433 8.3371 24.5223 1.9021 18.6333 6.5301C18.0173 7.0141 17.2413 7.5691 16.7103 8.0941C16.4723 8.3281 16.0543 8.3521 15.8073 8.1281C15.1093 7.4911 14.0123 6.6721 13.3093 6.1971C8.29025 2.8001 -0.845748 7.2771 3.05125 16.8331C4.47925 21.1261 11.2913 27.2171 15.3033 29.4531Z" fill="url(#paint2_radial_277_17997)"/>
<path d="M15.3033 29.4531C15.566 29.5974 15.8616 29.6711 16.1613 29.6671C16.461 29.663 16.7545 29.5814 17.0133 29.4301C20.6353 27.3631 26.9393 22.5941 29.4133 16.3981C33.0433 8.3371 24.5223 1.9021 18.6333 6.5301C18.0173 7.0141 17.2413 7.5691 16.7103 8.0941C16.4723 8.3281 16.0543 8.3521 15.8073 8.1281C15.1093 7.4911 14.0123 6.6721 13.3093 6.1971C8.29025 2.8001 -0.845748 7.2771 3.05125 16.8331C4.47925 21.1261 11.2913 27.2171 15.3033 29.4531Z" fill="url(#paint3_linear_277_17997)"/>
<path d="M15.3033 29.4531C15.566 29.5974 15.8616 29.6711 16.1613 29.6671C16.461 29.663 16.7545 29.5814 17.0133 29.4301C20.6353 27.3631 26.9393 22.5941 29.4133 16.3981C33.0433 8.3371 24.5223 1.9021 18.6333 6.5301C18.0173 7.0141 17.2413 7.5691 16.7103 8.0941C16.4723 8.3281 16.0543 8.3521 15.8073 8.1281C15.1093 7.4911 14.0123 6.6721 13.3093 6.1971C8.29025 2.8001 -0.845748 7.2771 3.05125 16.8331C4.47925 21.1261 11.2913 27.2171 15.3033 29.4531Z" fill="url(#paint4_radial_277_17997)"/>
<path d="M15.3033 29.4531C15.566 29.5974 15.8616 29.6711 16.1613 29.6671C16.461 29.663 16.7545 29.5814 17.0133 29.4301C20.6353 27.3631 26.9393 22.5941 29.4133 16.3981C33.0433 8.3371 24.5223 1.9021 18.6333 6.5301C18.0173 7.0141 17.2413 7.5691 16.7103 8.0941C16.4723 8.3281 16.0543 8.3521 15.8073 8.1281C15.1093 7.4911 14.0123 6.6721 13.3093 6.1971C8.29025 2.8001 -0.845748 7.2771 3.05125 16.8331C4.47925 21.1261 11.2913 27.2171 15.3033 29.4531Z" fill="url(#paint5_linear_277_17997)" fill-opacity="0.5"/>
<path d="M15.3033 29.4531C15.566 29.5974 15.8616 29.6711 16.1613 29.6671C16.461 29.663 16.7545 29.5814 17.0133 29.4301C20.6353 27.3631 26.9393 22.5941 29.4133 16.3981C33.0433 8.3371 24.5223 1.9021 18.6333 6.5301C18.0173 7.0141 17.2413 7.5691 16.7103 8.0941C16.4723 8.3281 16.0543 8.3521 15.8073 8.1281C15.1093 7.4911 14.0123 6.6721 13.3093 6.1971C8.29025 2.8001 -0.845748 7.2771 3.05125 16.8331C4.47925 21.1261 11.2913 27.2171 15.3033 29.4531Z" fill="url(#paint6_linear_277_17997)" fill-opacity="0.3"/>
<g filter="url(#filter0_f_277_17997)">
<path d="M5.45312 13.1681H27.9841V18.1561H5.45312V13.1681Z" fill="#B70952"/>
</g>
<g filter="url(#filter1_f_277_17997)">
<path d="M16.793 10.6204V17.5534C16.793 18.4584 17.889 18.8874 18.454 18.1804C20.227 15.9634 21.664 13.2604 20.071 11.0554C19.461 10.2104 18.291 9.67042 17.336 9.84542C16.983 9.91042 16.793 10.2624 16.793 10.6204Z" fill="#FA1C56"/>
</g>
<g filter="url(#filter2_f_277_17997)">
<path d="M27.0552 13.3335C28.722 11.7132 29.1695 9.46993 28.0546 8.3231C26.9397 7.17627 24.6848 7.5601 23.018 9.18042C21.3512 10.8007 20.9038 13.0439 22.0186 14.1908C23.1335 15.3376 25.3885 14.9538 27.0552 13.3335Z" fill="url(#paint7_radial_277_17997)"/>
</g>
<g filter="url(#filter3_f_277_17997)">
<path d="M15.7367 11.5279C14.0578 9.45133 11.7885 8.50236 10.668 9.40828C9.54748 10.3142 10.0001 12.7319 11.6789 14.8085C13.3578 16.885 15.6271 17.834 16.7476 16.9281C17.8681 16.0221 17.4155 13.6044 15.7367 11.5279Z" fill="url(#paint8_radial_277_17997)" fill-opacity="0.6"/>
</g>
<g filter="url(#filter4_f_277_17997)">
<path d="M23.3979 6.65845C24.5367 6.65845 25.4599 6.47891 25.4599 6.25745C25.4599 6.03598 24.5367 5.85645 23.3979 5.85645C22.2591 5.85645 21.3359 6.03598 21.3359 6.25745C21.3359 6.47891 22.2591 6.65845 23.3979 6.65845Z" fill="#FF93BA"/>
</g>
<g filter="url(#filter5_f_277_17997)">
<path d="M9.42919 6.65845C10.568 6.65845 11.4912 6.47891 11.4912 6.25745C11.4912 6.03598 10.568 5.85645 9.42919 5.85645C8.29038 5.85645 7.36719 6.03598 7.36719 6.25745C7.36719 6.47891 8.29038 6.65845 9.42919 6.65845Z" fill="#FF93BA" fill-opacity="0.5"/>
</g>
<path d="M3.48389 17.8751H28.7409C28.9889 17.3921 29.2139 16.9001 29.4149 16.3971C30.3549 14.3101 30.4789 12.3311 30.0459 10.6251H2.31289C1.91489 12.3431 2.0699 14.4271 3.0519 16.8331C3.1639 17.1701 3.30889 17.5181 3.48389 17.8751Z" fill="url(#paint9_linear_277_17997)"/>
<path d="M3.48389 17.8751H28.7409C28.9889 17.3921 29.2139 16.9001 29.4149 16.3971C30.3549 14.3101 30.4789 12.3311 30.0459 10.6251H2.31289C1.91489 12.3431 2.0699 14.4271 3.0519 16.8331C3.1639 17.1701 3.30889 17.5181 3.48389 17.8751Z" fill="url(#paint10_linear_277_17997)"/>
<path d="M19.8059 10.6251H2.31289C1.91489 12.3431 2.0699 14.4271 3.0519 16.8331C3.1639 17.1701 3.30889 17.5181 3.48389 17.8751H8.06389C11.8789 15.5311 16.4179 12.7251 19.8059 10.6251Z" fill="url(#paint11_linear_277_17997)"/>
<path d="M19.8059 10.6251H2.31289C1.91489 12.3431 2.0699 14.4271 3.0519 16.8331C3.1639 17.1701 3.30889 17.5181 3.48389 17.8751H8.06389C11.8789 15.5311 16.4179 12.7251 19.8059 10.6251Z" fill="url(#paint12_linear_277_17997)"/>
<path fill-rule="evenodd" clip-rule="evenodd" d="M14.1094 17.8751H28.7394C28.9874 17.3921 29.2124 16.9001 29.4134 16.3971C30.3534 14.3101 30.4784 12.3311 30.0444 10.6251H27.0194L14.1094 17.8751Z" fill="url(#paint13_linear_277_17997)"/>
<path fill-rule="evenodd" clip-rule="evenodd" d="M14.1094 17.8751H28.7394C28.9874 17.3921 29.2124 16.9001 29.4134 16.3971C30.3534 14.3101 30.4784 12.3311 30.0444 10.6251H27.0194L14.1094 17.8751Z" fill="url(#paint14_linear_277_17997)"/>
<g filter="url(#filter6_f_277_17997)">
<path d="M13.5781 10.8751H15.2911V16.6251H13.5781V10.8751Z" fill="#F4F4F4" fill-opacity="0.4"/>
</g>
<path d="M6.58894 22.2264C8.85194 21.2284 13.5249 19.1204 18.2609 16.9834C22.9419 14.8714 27.6849 12.7324 30.2269 11.6074C30.1003 10.5307 29.744 9.49375 29.1821 8.56663C28.6203 7.63951 27.8658 6.84383 26.9699 6.2334C20.8939 8.8334 7.23694 15.6174 3.33594 17.5644C3.98994 19.0254 5.16894 20.6444 6.58794 22.2264H6.58894Z" fill="url(#paint15_linear_277_17997)"/>
<path d="M6.58894 22.2264C8.85194 21.2284 13.5249 19.1204 18.2609 16.9834C22.9419 14.8714 27.6849 12.7324 30.2269 11.6074C30.1003 10.5307 29.744 9.49375 29.1821 8.56663C28.6203 7.63951 27.8658 6.84383 26.9699 6.2334C20.8939 8.8334 7.23694 15.6174 3.33594 17.5644C3.98994 19.0254 5.16894 20.6444 6.58794 22.2264H6.58894Z" fill="url(#paint16_linear_277_17997)"/>
<path d="M6.58894 22.2264C8.85194 21.2284 13.5249 19.1204 18.2609 16.9834C22.9419 14.8714 27.6849 12.7324 30.2269 11.6074C30.1003 10.5307 29.744 9.49375 29.1821 8.56663C28.6203 7.63951 27.8658 6.84383 26.9699 6.2334C20.8939 8.8334 7.23694 15.6174 3.33594 17.5644C3.98994 19.0254 5.16894 20.6444 6.58794 22.2264H6.58894Z" fill="url(#paint17_linear_277_17997)"/>
<path d="M6.58894 22.2264C8.85194 21.2284 13.5249 19.1204 18.2609 16.9834C22.9419 14.8714 27.6849 12.7324 30.2269 11.6074C30.1003 10.5307 29.744 9.49375 29.1821 8.56663C28.6203 7.63951 27.8658 6.84383 26.9699 6.2334C20.8939 8.8334 7.23694 15.6174 3.33594 17.5644C3.98994 19.0254 5.16894 20.6444 6.58794 22.2264H6.58894Z" fill="url(#paint18_linear_277_17997)"/>
<path d="M6.58894 22.2264C8.85194 21.2284 13.5249 19.1204 18.2609 16.9834C22.9419 14.8714 27.6849 12.7324 30.2269 11.6074C30.1003 10.5307 29.744 9.49375 29.1821 8.56663C28.6203 7.63951 27.8658 6.84383 26.9699 6.2334C20.8939 8.8334 7.23694 15.6174 3.33594 17.5644C3.98994 19.0254 5.16894 20.6444 6.58794 22.2264H6.58894Z" fill="url(#paint19_linear_277_17997)"/>
<defs>
<filter id="filter0_f_277_17997" x="4.70312" y="12.4181" width="24.0312" height="6.48798" filterUnits="userSpaceOnUse" color-interpolation-filters="sRGB">
<feFlood flood-opacity="0" result="BackgroundImageFix"/>
<feBlend mode="normal" in="SourceGraphic" in2="BackgroundImageFix" result="shape"/>
<feGaussianBlur stdDeviation="0.375" result="effect1_foregroundBlur_277_17997"/>
</filter>
<filter id="filter1_f_277_17997" x="14.793" y="7.8125" width="7.96484" height="12.7211" filterUnits="userSpaceOnUse" color-interpolation-filters="sRGB">
<feFlood flood-opacity="0" result="BackgroundImageFix"/>
<feBlend mode="normal" in="SourceGraphic" in2="BackgroundImageFix" result="shape"/>
<feGaussianBlur stdDeviation="1" result="effect1_foregroundBlur_277_17997"/>
</filter>
<filter id="filter2_f_277_17997" x="19.9062" y="6.16229" width="10.2617" height="10.1893" filterUnits="userSpaceOnUse" color-interpolation-filters="sRGB">
<feFlood flood-opacity="0" result="BackgroundImageFix"/>
<feBlend mode="normal" in="SourceGraphic" in2="BackgroundImageFix" result="shape"/>
<feGaussianBlur stdDeviation="0.75" result="effect1_foregroundBlur_277_17997"/>
</filter>
<filter id="filter3_f_277_17997" x="8.55078" y="7.565" width="10.3125" height="11.2063" filterUnits="userSpaceOnUse" color-interpolation-filters="sRGB">
<feFlood flood-opacity="0" result="BackgroundImageFix"/>
<feBlend mode="normal" in="SourceGraphic" in2="BackgroundImageFix" result="shape"/>
<feGaussianBlur stdDeviation="0.75" result="effect1_foregroundBlur_277_17997"/>
</filter>
<filter id="filter4_f_277_17997" x="19.8359" y="4.35645" width="7.125" height="3.802" filterUnits="userSpaceOnUse" color-interpolation-filters="sRGB">
<feFlood flood-opacity="0" result="BackgroundImageFix"/>
<feBlend mode="normal" in="SourceGraphic" in2="BackgroundImageFix" result="shape"/>
<feGaussianBlur stdDeviation="0.75" result="effect1_foregroundBlur_277_17997"/>
</filter>
<filter id="filter5_f_277_17997" x="5.86719" y="4.35645" width="7.125" height="3.802" filterUnits="userSpaceOnUse" color-interpolation-filters="sRGB">
<feFlood flood-opacity="0" result="BackgroundImageFix"/>
<feBlend mode="normal" in="SourceGraphic" in2="BackgroundImageFix" result="shape"/>
<feGaussianBlur stdDeviation="0.75" result="effect1_foregroundBlur_277_17997"/>
</filter>
<filter id="filter6_f_277_17997" x="12.0781" y="9.37512" width="4.71484" height="8.75" filterUnits="userSpaceOnUse" color-interpolation-filters="sRGB">
<feFlood flood-opacity="0" result="BackgroundImageFix"/>
<feBlend mode="normal" in="SourceGraphic" in2="BackgroundImageFix" result="shape"/>
<feGaussianBlur stdDeviation="0.75" result="effect1_foregroundBlur_277_17997"/>
</filter>
<radialGradient id="paint0_radial_277_17997" cx="0" cy="0" r="1" gradientUnits="userSpaceOnUse" gradientTransform="translate(11.3273 22.2501) rotate(-123.752) scale(16.0863 32.5202)">
<stop stop-color="#FF0D39"/>
<stop offset="0.634" stop-color="#FF3B79"/>
<stop offset="1" stop-color="#FF4EC6"/>
</radialGradient>
<radialGradient id="paint1_radial_277_17997" cx="0" cy="0" r="1" gradientUnits="userSpaceOnUse" gradientTransform="translate(23.1883 11.4111) rotate(142.986) scale(26.5171 49.6691)">
<stop offset="0.483" stop-color="#B91D43" stop-opacity="0"/>
<stop offset="0.834" stop-color="#B91D43"/>
</radialGradient>
<radialGradient id="paint2_radial_277_17997" cx="0" cy="0" r="1" gradientUnits="userSpaceOnUse" gradientTransform="translate(20.1273 17.9081) rotate(-158.663) scale(23.0013 32.5156)">
<stop offset="0.41" stop-color="#B91D43" stop-opacity="0"/>
<stop offset="0.834" stop-color="#B91D43"/>
</radialGradient>
<linearGradient id="paint3_linear_277_17997" x1="17.5763" y1="18.8991" x2="8.54325" y2="30.0901" gradientUnits="userSpaceOnUse">
<stop offset="0.151" stop-color="#C12372" stop-opacity="0"/>
<stop offset="0.895" stop-color="#C12372"/>
</linearGradient>
<radialGradient id="paint4_radial_277_17997" cx="0" cy="0" r="1" gradientUnits="userSpaceOnUse" gradientTransform="translate(15.6413 13.8911) rotate(90) scale(20.9184)">
<stop offset="0.671" stop-color="#FF7AF2" stop-opacity="0"/>
<stop offset="0.934" stop-color="#FFBCE6"/>
</radialGradient>
<linearGradient id="paint5_linear_277_17997" x1="17.8503" y1="16.2341" x2="25.9513" y2="25.8751" gradientUnits="userSpaceOnUse">
<stop offset="0.694" stop-color="#FF7AF2" stop-opacity="0"/>
<stop offset="0.934" stop-color="#FFBCE6"/>
</linearGradient>
<linearGradient id="paint6_linear_277_17997" x1="16.8463" y1="16.6361" x2="7.33925" y2="27.3481" gradientUnits="userSpaceOnUse">
<stop offset="0.694" stop-color="#FF7AF2" stop-opacity="0"/>
<stop offset="0.934" stop-color="#FFBCE6"/>
</linearGradient>
<radialGradient id="paint7_radial_277_17997" cx="0" cy="0" r="1" gradientUnits="userSpaceOnUse" gradientTransform="translate(28.6944 8.94237) rotate(139.035) scale(6.22377 4.20257)">
<stop stop-color="#FF93BA"/>
<stop offset="1" stop-color="#FF73A6" stop-opacity="0"/>
</radialGradient>
<radialGradient id="paint8_radial_277_17997" cx="0" cy="0" r="1" gradientUnits="userSpaceOnUse" gradientTransform="translate(12.4611 10.5054) rotate(53.816) scale(6.31058 3.34222)">
<stop stop-color="#FFA7C7"/>
<stop offset="1" stop-color="#FFA7C7" stop-opacity="0"/>
</radialGradient>
<linearGradient id="paint9_linear_277_17997" x1="27.8909" y1="13.5791" x2="10.3269" y2="26.1071" gradientUnits="userSpaceOnUse">
<stop stop-color="#E3DEEA"/>
<stop offset="1" stop-color="#B4A4C6"/>
</linearGradient>
<linearGradient id="paint10_linear_277_17997" x1="0.952895" y1="17.8751" x2="8.3279" y2="17.8751" gradientUnits="userSpaceOnUse">
<stop stop-color="#9A94A0"/>
<stop offset="1" stop-color="#9A94A0" stop-opacity="0"/>
</linearGradient>
<linearGradient id="paint11_linear_277_17997" x1="16.9529" y1="12.3131" x2="13.8279" y2="9.12512" gradientUnits="userSpaceOnUse">
<stop stop-color="#BBBBBB"/>
<stop offset="1" stop-color="#C8C3C9" stop-opacity="0"/>
</linearGradient>
<linearGradient id="paint12_linear_277_17997" x1="10.9579" y1="9.56312" x2="10.9579" y2="11.2191" gradientUnits="userSpaceOnUse">
<stop stop-color="#D0CBD0"/>
<stop offset="1" stop-color="#D0CBD0" stop-opacity="0"/>
</linearGradient>
<linearGradient id="paint13_linear_277_17997" x1="20.2644" y1="13.6251" x2="22.1964" y2="16.4381" gradientUnits="userSpaceOnUse">
<stop offset="0.349" stop-color="#B6A2C7"/>
<stop offset="0.87" stop-color="#B6A2C7" stop-opacity="0"/>
</linearGradient>
<linearGradient id="paint14_linear_277_17997" x1="25.1394" y1="20.0001" x2="25.2264" y2="16.8931" gradientUnits="userSpaceOnUse">
<stop offset="0.156" stop-color="#AB7ADA"/>
<stop offset="1" stop-color="#AB7ADA" stop-opacity="0"/>
</linearGradient>
<linearGradient id="paint15_linear_277_17997" x1="28.2639" y1="12.7504" x2="8.70094" y2="21.7504" gradientUnits="userSpaceOnUse">
<stop offset="0.12" stop-color="#F1F0F4"/>
<stop offset="1" stop-color="#B4A4C6"/>
</linearGradient>
<linearGradient id="paint16_linear_277_17997" x1="22.1699" y1="18.1564" x2="20.2949" y2="13.9694" gradientUnits="userSpaceOnUse">
<stop stop-color="#C4C4C4"/>
<stop offset="1" stop-color="#C4C4C4" stop-opacity="0"/>
</linearGradient>
<linearGradient id="paint17_linear_277_17997" x1="20.8259" y1="16.8444" x2="20.1069" y2="15.1874" gradientUnits="userSpaceOnUse">
<stop stop-color="#AB7ADA"/>
<stop offset="1" stop-color="#AB7ADA" stop-opacity="0"/>
</linearGradient>
<linearGradient id="paint18_linear_277_17997" x1="18.2639" y1="9.7504" x2="18.8889" y2="11.0624" gradientUnits="userSpaceOnUse">
<stop stop-color="#A2A2A2"/>
<stop offset="1" stop-color="#C4C4C4" stop-opacity="0"/>
</linearGradient>
<linearGradient id="paint19_linear_277_17997" x1="16.7809" y1="19.7504" x2="2.95094" y2="23.2504" gradientUnits="userSpaceOnUse">
<stop stop-color="#B4A4C6" stop-opacity="0"/>
<stop offset="0.956" stop-color="#A899B9"/>
</linearGradient>
</defs>
</svg>
