<svg width="32" height="32" viewBox="0 0 32 32" fill="none" xmlns="http://www.w3.org/2000/svg">
<g filter="url(#filter0_i_277_13162)">
<path d="M9.10205 10.7972V8.92383H3.6303C3.56052 8.92383 3.4936 8.95155 3.44425 9.00089C3.39491 9.05024 3.36719 9.11716 3.36719 9.18694V9.21852C3.36719 9.63721 3.53351 10.0388 3.82958 10.3348C4.12564 10.6309 4.52719 10.7972 4.94588 10.7972H9.10311H9.10205Z" fill="#CBC8C7"/>
</g>
<g filter="url(#filter1_i_277_13162)">
<path d="M9.10383 12.6503V10.7969H5.08343C4.93819 10.7969 4.82031 10.9126 4.82031 11.0568V11.0884C4.82031 11.9514 5.52757 12.6503 6.39901 12.6503H9.10383Z" fill="#BDBFBD"/>
</g>
<g filter="url(#filter2_i_277_13162)">
<path d="M2.26312 7.07031C2.19333 7.07031 2.12641 7.09803 2.07706 7.14738C2.02772 7.19672 2 7.26365 2 7.33343V7.365C2 7.7837 2.16633 8.18524 2.46239 8.48131C2.75845 8.77737 3.16 8.94369 3.57869 8.94369H8.10428C8.33582 8.94369 8.52526 9.13314 8.52526 9.36468V12.1242C8.52526 12.2638 8.58071 12.3976 8.67939 12.4963C8.77808 12.595 8.91193 12.6505 9.0515 12.6505H11.2448C11.9848 12.6505 12.6945 12.3565 13.2177 11.8333C13.7409 11.31 14.0349 10.6004 14.0349 9.86039C14.0349 9.12042 13.7409 8.41075 13.2177 7.88751C12.6945 7.36427 11.9848 7.07031 11.2448 7.07031H2.26206H2.26312Z" fill="#D6D2D1"/>
<path d="M2.26312 7.07031C2.19333 7.07031 2.12641 7.09803 2.07706 7.14738C2.02772 7.19672 2 7.26365 2 7.33343V7.365C2 7.7837 2.16633 8.18524 2.46239 8.48131C2.75845 8.77737 3.16 8.94369 3.57869 8.94369H8.10428C8.33582 8.94369 8.52526 9.13314 8.52526 9.36468V12.1242C8.52526 12.2638 8.58071 12.3976 8.67939 12.4963C8.77808 12.595 8.91193 12.6505 9.0515 12.6505H11.2448C11.9848 12.6505 12.6945 12.3565 13.2177 11.8333C13.7409 11.31 14.0349 10.6004 14.0349 9.86039C14.0349 9.12042 13.7409 8.41075 13.2177 7.88751C12.6945 7.36427 11.9848 7.07031 11.2448 7.07031H2.26206H2.26312Z" fill="url(#paint0_radial_277_13162)"/>
</g>
<path d="M18.8681 4.69925L6.16459 17.4028C5.26036 18.307 5.26036 19.7731 6.16459 20.6773L13.3811 27.8938C14.2854 28.798 15.7514 28.798 16.6556 27.8938L29.3592 15.1903C30.2634 14.286 30.2634 12.82 29.3592 11.9158L22.1426 4.69925C21.2384 3.79502 19.7724 3.79502 18.8681 4.69925Z" fill="url(#paint1_linear_277_13162)"/>
<path d="M18.8681 4.69925L6.16459 17.4028C5.26036 18.307 5.26036 19.7731 6.16459 20.6773L13.3811 27.8938C14.2854 28.798 15.7514 28.798 16.6556 27.8938L29.3592 15.1903C30.2634 14.286 30.2634 12.82 29.3592 11.9158L22.1426 4.69925C21.2384 3.79502 19.7724 3.79502 18.8681 4.69925Z" fill="url(#paint2_linear_277_13162)"/>
<path d="M18.8681 4.69925L6.16459 17.4028C5.26036 18.307 5.26036 19.7731 6.16459 20.6773L13.3811 27.8938C14.2854 28.798 15.7514 28.798 16.6556 27.8938L29.3592 15.1903C30.2634 14.286 30.2634 12.82 29.3592 11.9158L22.1426 4.69925C21.2384 3.79502 19.7724 3.79502 18.8681 4.69925Z" fill="url(#paint3_linear_277_13162)"/>
<path d="M18.8681 4.69925L6.16459 17.4028C5.26036 18.307 5.26036 19.7731 6.16459 20.6773L13.3811 27.8938C14.2854 28.798 15.7514 28.798 16.6556 27.8938L29.3592 15.1903C30.2634 14.286 30.2634 12.82 29.3592 11.9158L22.1426 4.69925C21.2384 3.79502 19.7724 3.79502 18.8681 4.69925Z" fill="url(#paint4_radial_277_13162)"/>
<path d="M18.8681 4.69925L6.16459 17.4028C5.26036 18.307 5.26036 19.7731 6.16459 20.6773L13.3811 27.8938C14.2854 28.798 15.7514 28.798 16.6556 27.8938L29.3592 15.1903C30.2634 14.286 30.2634 12.82 29.3592 11.9158L22.1426 4.69925C21.2384 3.79502 19.7724 3.79502 18.8681 4.69925Z" fill="url(#paint5_radial_277_13162)"/>
<path d="M16.8056 2.63772L4.10209 15.3413C3.19786 16.2455 3.19786 17.7115 4.10209 18.6158L11.3186 25.8323C12.2229 26.7365 13.6889 26.7365 14.5931 25.8323L27.2967 13.1288C28.2009 12.2245 28.2009 10.7585 27.2967 9.85426L20.0801 2.63772C19.1759 1.7335 17.7099 1.7335 16.8056 2.63772Z" fill="url(#paint6_radial_277_13162)"/>
<g filter="url(#filter3_iii_277_13162)">
<path fill-rule="evenodd" clip-rule="evenodd" d="M18.0219 3.85865L5.32605 16.5555C5.26947 16.612 5.22458 16.6791 5.19395 16.753C5.16333 16.8269 5.14756 16.906 5.14756 16.986C5.14756 17.066 5.16333 17.1451 5.19395 17.219C5.22458 17.2929 5.26947 17.36 5.32605 17.4165L12.5175 24.6079C12.6316 24.7219 12.7862 24.7859 12.9474 24.7859C13.1087 24.7859 13.2633 24.7219 13.3774 24.6079L26.0743 11.911C26.1309 11.8545 26.1757 11.7874 26.2064 11.7136C26.237 11.6397 26.2528 11.5605 26.2528 11.4806C26.2528 11.4006 26.237 11.3214 26.2064 11.2476C26.1757 11.1737 26.1309 11.1066 26.0743 11.0501L18.8828 3.85865C18.8263 3.80207 18.7592 3.75718 18.6853 3.72655C18.6115 3.69593 18.5323 3.68017 18.4524 3.68017C18.3724 3.68017 18.2932 3.69593 18.2194 3.72655C18.1455 3.75718 18.0784 3.80207 18.0219 3.85865ZM4.89559 16.1251C4.66731 16.3534 4.53906 16.6631 4.53906 16.986C4.53906 17.3089 4.66731 17.6186 4.89559 17.8469L12.0871 25.0373C12.3154 25.2653 12.6248 25.3933 12.9474 25.3933C13.2701 25.3933 13.5795 25.2653 13.8078 25.0373L26.5047 12.3415C26.733 12.1131 26.8613 11.8035 26.8613 11.4806C26.8613 11.1577 26.733 10.848 26.5047 10.6197L19.3133 3.42924C19.085 3.20128 18.7755 3.07324 18.4529 3.07324C18.1302 3.07324 17.8208 3.20128 17.5925 3.42924L4.89559 16.1251Z" fill="url(#paint7_linear_277_13162)"/>
</g>
<path d="M20.9242 13.9017C22.3899 12.436 22.4822 10.152 21.1303 8.80018C19.7785 7.44837 17.4945 7.54066 16.0288 9.00633C14.5632 10.472 14.4709 12.756 15.8227 14.1078C17.1745 15.4597 19.4585 15.3674 20.9242 13.9017Z" fill="#289D5B"/>
<path d="M20.9242 13.9017C22.3899 12.436 22.4822 10.152 21.1303 8.80018C19.7785 7.44837 17.4945 7.54066 16.0288 9.00633C14.5632 10.472 14.4709 12.756 15.8227 14.1078C17.1745 15.4597 19.4585 15.3674 20.9242 13.9017Z" fill="url(#paint8_linear_277_13162)"/>
<path d="M20.9242 13.9017C22.3899 12.436 22.4822 10.152 21.1303 8.80018C19.7785 7.44837 17.4945 7.54066 16.0288 9.00633C14.5632 10.472 14.4709 12.756 15.8227 14.1078C17.1745 15.4597 19.4585 15.3674 20.9242 13.9017Z" fill="url(#paint9_radial_277_13162)"/>
<g filter="url(#filter4_f_277_13162)">
<path d="M10.1211 9.83906L12.507 7.45312L22.7391 17.6852L20.2637 20.1606L10.1211 9.83906Z" fill="#127531"/>
</g>
<g filter="url(#filter5_f_277_13162)">
<path d="M22.3151 22.0174L24.6915 19.6409L22.7371 17.6865L20.2617 20.1598L22.3151 22.0174Z" fill="#0B3F2E"/>
</g>
<path d="M9.91406 9.52637L12.425 7.01543L24.9782 19.5686L22.4673 22.0796L9.91406 9.52637Z" fill="url(#paint10_linear_277_13162)"/>
<path d="M9.91406 9.52637L12.425 7.01543L24.9782 19.5686L22.4673 22.0796L9.91406 9.52637Z" fill="url(#paint11_linear_277_13162)"/>
<g filter="url(#filter6_iii_277_13162)">
<path d="M9.62154 16.1454C9.53372 16.051 9.48598 15.9261 9.48837 15.7972C9.49076 15.6682 9.54309 15.5453 9.63435 15.4541C9.72561 15.363 9.84867 15.3109 9.97762 15.3087C10.1066 15.3065 10.2313 15.3544 10.3256 15.4424L10.7129 15.8297C11.4286 15.395 12.1569 15.5718 12.5758 15.9128C12.8147 16.1065 12.8431 16.3717 12.6737 16.5811C12.5921 16.6813 12.4742 16.745 12.3457 16.7582C12.2172 16.7714 12.0888 16.7331 11.9885 16.6516C11.8517 16.5401 11.4255 16.2464 10.8971 16.7758C10.1394 17.5336 11.1213 18.5513 12.0001 17.6725C12.3758 17.2957 12.9926 17.1147 13.423 17.1863C13.8714 17.2589 14.2187 17.4841 14.465 17.8125C14.8386 18.405 14.7891 19.0281 14.4513 19.568L14.8239 19.9406C14.9118 20.0349 14.9598 20.1597 14.9576 20.2886C14.9554 20.4176 14.9032 20.5406 14.8121 20.6319C14.721 20.7231 14.598 20.7755 14.469 20.7779C14.3401 20.7802 14.2153 20.7325 14.1208 20.6447L13.7556 20.2795C13.1589 20.6657 12.4579 20.6626 11.858 20.19C11.6475 20.0227 11.5949 19.7333 11.7612 19.5228C11.9275 19.3123 12.2348 19.2754 12.4453 19.4417C12.5505 19.5249 12.72 19.6206 12.9042 19.6396C13.061 19.6575 13.2567 19.6164 13.4967 19.3765C13.7967 19.0765 13.8451 18.8081 13.7977 18.6092C13.6946 18.0398 13.0052 17.8957 12.5979 18.3019C12.0317 18.8239 11.6265 18.9534 11.1729 18.9334C10.7948 18.917 10.4361 18.7614 10.1657 18.4966C9.92235 18.2501 9.76858 17.9292 9.72889 17.5852C9.69396 17.2104 9.7891 16.8351 9.99832 16.5222L9.62154 16.1454Z" fill="url(#paint12_linear_277_13162)"/>
</g>
<g filter="url(#filter7_ii_277_13162)">
<path d="M21.8125 23.8984H23.6869V29.3712C23.6869 29.441 23.6592 29.5079 23.6099 29.5573C23.5605 29.6066 23.4936 29.6344 23.4238 29.6344H23.3922C22.9735 29.6344 22.572 29.468 22.2759 29.172C21.9799 28.8759 21.8136 28.4744 21.8136 28.0557V23.8984H21.8125Z" fill="#C8C2C3"/>
</g>
<g filter="url(#filter8_ii_277_13162)">
<path d="M19.9375 23.8984H21.8109V27.9188C21.8109 27.9886 21.7832 28.0555 21.7338 28.1049C21.6845 28.1542 21.6176 28.182 21.5478 28.182H21.5162C21.0975 28.182 20.696 28.0156 20.3999 27.7196C20.1038 27.4235 19.9375 27.022 19.9375 26.6033V23.8984Z" fill="#C8C2C3"/>
</g>
<g filter="url(#filter9_ii_277_13162)">
<path d="M22.7381 18.9658C21.9969 18.9644 21.2855 19.2575 20.7603 19.7805C20.2351 20.3035 19.9392 21.0137 19.9375 21.7548V23.9492C19.9375 24.0185 19.9512 24.0871 19.9778 24.1511C20.0043 24.2151 20.0433 24.2732 20.0924 24.3221C20.1415 24.371 20.1997 24.4097 20.2638 24.436C20.3279 24.4623 20.3966 24.4757 20.4658 24.4755H23.2338C23.2893 24.4752 23.3442 24.4859 23.3956 24.5069C23.4469 24.5279 23.4935 24.5589 23.5329 24.598C23.5722 24.6371 23.6034 24.6836 23.6247 24.7349C23.6459 24.7861 23.6569 24.841 23.6569 24.8964V29.421C23.6569 30.2924 24.3663 30.9997 25.2419 30.9997H25.2735C25.3082 31 25.3427 30.9934 25.3748 30.9803C25.407 30.9672 25.4362 30.9478 25.4609 30.9234C25.4856 30.8989 25.5051 30.8698 25.5185 30.8377C25.5318 30.8057 25.5387 30.7713 25.5387 30.7366V21.7559C25.538 21.3888 25.465 21.0255 25.3239 20.6866C25.1828 20.3477 24.9763 20.0399 24.7162 19.7808C24.4562 19.5218 24.1476 19.3164 23.8082 19.1766C23.4688 19.0368 23.1052 18.9651 22.7381 18.9658Z" fill="#DBD7D7"/>
</g>
<defs>
<filter id="filter0_i_277_13162" x="2.61719" y="8.67383" width="6.48438" height="2.12329" filterUnits="userSpaceOnUse" color-interpolation-filters="sRGB">
<feFlood flood-opacity="0" result="BackgroundImageFix"/>
<feBlend mode="normal" in="SourceGraphic" in2="BackgroundImageFix" result="shape"/>
<feColorMatrix in="SourceAlpha" type="matrix" values="0 0 0 0 0 0 0 0 0 0 0 0 0 0 0 0 0 0 127 0" result="hardAlpha"/>
<feOffset dx="-0.75" dy="-0.25"/>
<feGaussianBlur stdDeviation="0.5"/>
<feComposite in2="hardAlpha" operator="arithmetic" k2="-1" k3="1"/>
<feColorMatrix type="matrix" values="0 0 0 0 0.647059 0 0 0 0 0.623529 0 0 0 0 0.623529 0 0 0 1 0"/>
<feBlend mode="normal" in2="shape" result="effect1_innerShadow_277_13162"/>
</filter>
<filter id="filter1_i_277_13162" x="4.07031" y="10.5469" width="5.03516" height="2.10327" filterUnits="userSpaceOnUse" color-interpolation-filters="sRGB">
<feFlood flood-opacity="0" result="BackgroundImageFix"/>
<feBlend mode="normal" in="SourceGraphic" in2="BackgroundImageFix" result="shape"/>
<feColorMatrix in="SourceAlpha" type="matrix" values="0 0 0 0 0 0 0 0 0 0 0 0 0 0 0 0 0 0 127 0" result="hardAlpha"/>
<feOffset dx="-0.75" dy="-0.25"/>
<feGaussianBlur stdDeviation="0.375"/>
<feComposite in2="hardAlpha" operator="arithmetic" k2="-1" k3="1"/>
<feColorMatrix type="matrix" values="0 0 0 0 0.580392 0 0 0 0 0.611765 0 0 0 0 0.584314 0 0 0 1 0"/>
<feBlend mode="normal" in2="shape" result="effect1_innerShadow_277_13162"/>
</filter>
<filter id="filter2_i_277_13162" x="2" y="6.82031" width="12.0352" height="5.83008" filterUnits="userSpaceOnUse" color-interpolation-filters="sRGB">
<feFlood flood-opacity="0" result="BackgroundImageFix"/>
<feBlend mode="normal" in="SourceGraphic" in2="BackgroundImageFix" result="shape"/>
<feColorMatrix in="SourceAlpha" type="matrix" values="0 0 0 0 0 0 0 0 0 0 0 0 0 0 0 0 0 0 127 0" result="hardAlpha"/>
<feOffset dy="-0.25"/>
<feGaussianBlur stdDeviation="0.375"/>
<feComposite in2="hardAlpha" operator="arithmetic" k2="-1" k3="1"/>
<feColorMatrix type="matrix" values="0 0 0 0 0.658824 0 0 0 0 0.623529 0 0 0 0 0.627451 0 0 0 1 0"/>
<feBlend mode="normal" in2="shape" result="effect1_innerShadow_277_13162"/>
</filter>
<filter id="filter3_iii_277_13162" x="4.33906" y="3.07324" width="22.7203" height="22.5201" filterUnits="userSpaceOnUse" color-interpolation-filters="sRGB">
<feFlood flood-opacity="0" result="BackgroundImageFix"/>
<feBlend mode="normal" in="SourceGraphic" in2="BackgroundImageFix" result="shape"/>
<feColorMatrix in="SourceAlpha" type="matrix" values="0 0 0 0 0 0 0 0 0 0 0 0 0 0 0 0 0 0 127 0" result="hardAlpha"/>
<feOffset dy="0.2"/>
<feGaussianBlur stdDeviation="0.125"/>
<feComposite in2="hardAlpha" operator="arithmetic" k2="-1" k3="1"/>
<feColorMatrix type="matrix" values="0 0 0 0 0.0941176 0 0 0 0 0.509804 0 0 0 0 0.254902 0 0 0 1 0"/>
<feBlend mode="normal" in2="shape" result="effect1_innerShadow_277_13162"/>
<feColorMatrix in="SourceAlpha" type="matrix" values="0 0 0 0 0 0 0 0 0 0 0 0 0 0 0 0 0 0 127 0" result="hardAlpha"/>
<feOffset dx="-0.2"/>
<feGaussianBlur stdDeviation="0.125"/>
<feComposite in2="hardAlpha" operator="arithmetic" k2="-1" k3="1"/>
<feColorMatrix type="matrix" values="0 0 0 0 0.0941176 0 0 0 0 0.509804 0 0 0 0 0.254902 0 0 0 1 0"/>
<feBlend mode="normal" in2="effect1_innerShadow_277_13162" result="effect2_innerShadow_277_13162"/>
<feColorMatrix in="SourceAlpha" type="matrix" values="0 0 0 0 0 0 0 0 0 0 0 0 0 0 0 0 0 0 127 0" result="hardAlpha"/>
<feOffset dx="0.2"/>
<feGaussianBlur stdDeviation="0.125"/>
<feComposite in2="hardAlpha" operator="arithmetic" k2="-1" k3="1"/>
<feColorMatrix type="matrix" values="0 0 0 0 0.172549 0 0 0 0 0.709804 0 0 0 0 0.4 0 0 0 1 0"/>
<feBlend mode="normal" in2="effect2_innerShadow_277_13162" result="effect3_innerShadow_277_13162"/>
</filter>
<filter id="filter4_f_277_13162" x="9.72109" y="7.05312" width="13.4172" height="13.5075" filterUnits="userSpaceOnUse" color-interpolation-filters="sRGB">
<feFlood flood-opacity="0" result="BackgroundImageFix"/>
<feBlend mode="normal" in="SourceGraphic" in2="BackgroundImageFix" result="shape"/>
<feGaussianBlur stdDeviation="0.2" result="effect1_foregroundBlur_277_13162"/>
</filter>
<filter id="filter5_f_277_13162" x="20.0117" y="17.4365" width="4.92969" height="4.83081" filterUnits="userSpaceOnUse" color-interpolation-filters="sRGB">
<feFlood flood-opacity="0" result="BackgroundImageFix"/>
<feBlend mode="normal" in="SourceGraphic" in2="BackgroundImageFix" result="shape"/>
<feGaussianBlur stdDeviation="0.125" result="effect1_foregroundBlur_277_13162"/>
</filter>
<filter id="filter6_iii_277_13162" x="9.38828" y="15.2086" width="5.66875" height="5.66924" filterUnits="userSpaceOnUse" color-interpolation-filters="sRGB">
<feFlood flood-opacity="0" result="BackgroundImageFix"/>
<feBlend mode="normal" in="SourceGraphic" in2="BackgroundImageFix" result="shape"/>
<feColorMatrix in="SourceAlpha" type="matrix" values="0 0 0 0 0 0 0 0 0 0 0 0 0 0 0 0 0 0 127 0" result="hardAlpha"/>
<feOffset dx="-0.1" dy="0.1"/>
<feGaussianBlur stdDeviation="0.075"/>
<feComposite in2="hardAlpha" operator="arithmetic" k2="-1" k3="1"/>
<feColorMatrix type="matrix" values="0 0 0 0 0.0901961 0 0 0 0 0.521569 0 0 0 0 0.223529 0 0 0 1 0"/>
<feBlend mode="normal" in2="shape" result="effect1_innerShadow_277_13162"/>
<feColorMatrix in="SourceAlpha" type="matrix" values="0 0 0 0 0 0 0 0 0 0 0 0 0 0 0 0 0 0 127 0" result="hardAlpha"/>
<feOffset dx="0.1" dy="-0.1"/>
<feGaussianBlur stdDeviation="0.05"/>
<feComposite in2="hardAlpha" operator="arithmetic" k2="-1" k3="1"/>
<feColorMatrix type="matrix" values="0 0 0 0 0.784314 0 0 0 0 0.760784 0 0 0 0 0.752941 0 0 0 1 0"/>
<feBlend mode="normal" in2="effect1_innerShadow_277_13162" result="effect2_innerShadow_277_13162"/>
<feColorMatrix in="SourceAlpha" type="matrix" values="0 0 0 0 0 0 0 0 0 0 0 0 0 0 0 0 0 0 127 0" result="hardAlpha"/>
<feOffset dx="-0.1" dy="0.1"/>
<feGaussianBlur stdDeviation="0.05"/>
<feComposite in2="hardAlpha" operator="arithmetic" k2="-1" k3="1"/>
<feColorMatrix type="matrix" values="0 0 0 0 1 0 0 0 0 0.996078 0 0 0 0 0.992157 0 0 0 1 0"/>
<feBlend mode="normal" in2="effect2_innerShadow_277_13162" result="effect3_innerShadow_277_13162"/>
</filter>
<filter id="filter7_ii_277_13162" x="21.5125" y="23.5984" width="2.475" height="6.03584" filterUnits="userSpaceOnUse" color-interpolation-filters="sRGB">
<feFlood flood-opacity="0" result="BackgroundImageFix"/>
<feBlend mode="normal" in="SourceGraphic" in2="BackgroundImageFix" result="shape"/>
<feColorMatrix in="SourceAlpha" type="matrix" values="0 0 0 0 0 0 0 0 0 0 0 0 0 0 0 0 0 0 127 0" result="hardAlpha"/>
<feOffset dx="0.3" dy="-0.3"/>
<feGaussianBlur stdDeviation="0.375"/>
<feComposite in2="hardAlpha" operator="arithmetic" k2="-1" k3="1"/>
<feColorMatrix type="matrix" values="0 0 0 0 0.658824 0 0 0 0 0.631373 0 0 0 0 0.635294 0 0 0 1 0"/>
<feBlend mode="normal" in2="shape" result="effect1_innerShadow_277_13162"/>
<feColorMatrix in="SourceAlpha" type="matrix" values="0 0 0 0 0 0 0 0 0 0 0 0 0 0 0 0 0 0 127 0" result="hardAlpha"/>
<feOffset dx="-0.3" dy="-0.3"/>
<feGaussianBlur stdDeviation="0.375"/>
<feComposite in2="hardAlpha" operator="arithmetic" k2="-1" k3="1"/>
<feColorMatrix type="matrix" values="0 0 0 0 0.721569 0 0 0 0 0.682353 0 0 0 0 0.690196 0 0 0 1 0"/>
<feBlend mode="normal" in2="effect1_innerShadow_277_13162" result="effect2_innerShadow_277_13162"/>
</filter>
<filter id="filter8_ii_277_13162" x="19.6375" y="23.5984" width="2.475" height="4.58345" filterUnits="userSpaceOnUse" color-interpolation-filters="sRGB">
<feFlood flood-opacity="0" result="BackgroundImageFix"/>
<feBlend mode="normal" in="SourceGraphic" in2="BackgroundImageFix" result="shape"/>
<feColorMatrix in="SourceAlpha" type="matrix" values="0 0 0 0 0 0 0 0 0 0 0 0 0 0 0 0 0 0 127 0" result="hardAlpha"/>
<feOffset dx="0.3" dy="-0.3"/>
<feGaussianBlur stdDeviation="0.375"/>
<feComposite in2="hardAlpha" operator="arithmetic" k2="-1" k3="1"/>
<feColorMatrix type="matrix" values="0 0 0 0 0.611765 0 0 0 0 0.603922 0 0 0 0 0.596078 0 0 0 1 0"/>
<feBlend mode="normal" in2="shape" result="effect1_innerShadow_277_13162"/>
<feColorMatrix in="SourceAlpha" type="matrix" values="0 0 0 0 0 0 0 0 0 0 0 0 0 0 0 0 0 0 127 0" result="hardAlpha"/>
<feOffset dx="-0.3" dy="-0.3"/>
<feGaussianBlur stdDeviation="0.375"/>
<feComposite in2="hardAlpha" operator="arithmetic" k2="-1" k3="1"/>
<feColorMatrix type="matrix" values="0 0 0 0 0.635294 0 0 0 0 0.611765 0 0 0 0 0.607843 0 0 0 1 0"/>
<feBlend mode="normal" in2="effect1_innerShadow_277_13162" result="effect2_innerShadow_277_13162"/>
</filter>
<filter id="filter9_ii_277_13162" x="19.4375" y="18.8158" width="6.25156" height="12.1839" filterUnits="userSpaceOnUse" color-interpolation-filters="sRGB">
<feFlood flood-opacity="0" result="BackgroundImageFix"/>
<feBlend mode="normal" in="SourceGraphic" in2="BackgroundImageFix" result="shape"/>
<feColorMatrix in="SourceAlpha" type="matrix" values="0 0 0 0 0 0 0 0 0 0 0 0 0 0 0 0 0 0 127 0" result="hardAlpha"/>
<feOffset dx="0.15" dy="-0.15"/>
<feGaussianBlur stdDeviation="0.25"/>
<feComposite in2="hardAlpha" operator="arithmetic" k2="-1" k3="1"/>
<feColorMatrix type="matrix" values="0 0 0 0 0.729412 0 0 0 0 0.678431 0 0 0 0 0.686275 0 0 0 1 0"/>
<feBlend mode="normal" in2="shape" result="effect1_innerShadow_277_13162"/>
<feColorMatrix in="SourceAlpha" type="matrix" values="0 0 0 0 0 0 0 0 0 0 0 0 0 0 0 0 0 0 127 0" result="hardAlpha"/>
<feOffset dx="-0.5"/>
<feGaussianBlur stdDeviation="0.375"/>
<feComposite in2="hardAlpha" operator="arithmetic" k2="-1" k3="1"/>
<feColorMatrix type="matrix" values="0 0 0 0 0.964706 0 0 0 0 0.964706 0 0 0 0 0.956863 0 0 0 1 0"/>
<feBlend mode="normal" in2="effect1_innerShadow_277_13162" result="effect2_innerShadow_277_13162"/>
</filter>
<radialGradient id="paint0_radial_277_13162" cx="0" cy="0" r="1" gradientUnits="userSpaceOnUse" gradientTransform="translate(3.71867 7.28396) scale(8.20117 1.45098)">
<stop stop-color="#E3E1E1"/>
<stop offset="1" stop-color="#E3E1E1" stop-opacity="0"/>
</radialGradient>
<linearGradient id="paint1_linear_277_13162" x1="29.2565" y1="13.8939" x2="14.8747" y2="28.2756" gradientUnits="userSpaceOnUse">
<stop stop-color="#12724A"/>
<stop offset="1" stop-color="#116245"/>
</linearGradient>
<linearGradient id="paint2_linear_277_13162" x1="29.7945" y1="12.3511" x2="28.2704" y2="13.8753" gradientUnits="userSpaceOnUse">
<stop stop-color="#1C8F60"/>
<stop offset="1" stop-color="#1C8F60" stop-opacity="0"/>
</linearGradient>
<linearGradient id="paint3_linear_277_13162" x1="13.745" y1="28.2577" x2="15.3228" y2="26.68" gradientUnits="userSpaceOnUse">
<stop offset="0.557" stop-color="#195840"/>
<stop offset="1" stop-color="#195840" stop-opacity="0"/>
</linearGradient>
<radialGradient id="paint4_radial_277_13162" cx="0" cy="0" r="1" gradientUnits="userSpaceOnUse" gradientTransform="translate(21.1 20.7658) rotate(114.806) scale(4.31166 4.09098)">
<stop offset="0.307" stop-color="#0E593C"/>
<stop offset="1" stop-color="#0E593C" stop-opacity="0"/>
</radialGradient>
<radialGradient id="paint5_radial_277_13162" cx="0" cy="0" r="1" gradientUnits="userSpaceOnUse" gradientTransform="translate(21.0335 22.0823) rotate(138.249) scale(5.33428 1.13113)">
<stop offset="0.396" stop-color="#0F4F35"/>
<stop offset="1" stop-color="#0F4F35" stop-opacity="0"/>
</radialGradient>
<radialGradient id="paint6_radial_277_13162" cx="0" cy="0" r="1" gradientUnits="userSpaceOnUse" gradientTransform="translate(3.22691 17.041) rotate(3.2593) scale(15.7705 20.6809)">
<stop stop-color="#31DE74"/>
<stop offset="1" stop-color="#20CF5E"/>
</radialGradient>
<linearGradient id="paint7_linear_277_13162" x1="16.9642" y1="4.45118" x2="15.2066" y2="23.065" gradientUnits="userSpaceOnUse">
<stop stop-color="#24A35B"/>
<stop offset="1" stop-color="#27A05A"/>
</linearGradient>
<linearGradient id="paint8_linear_277_13162" x1="17.8938" y1="12.6291" x2="18.9163" y2="11.6066" gradientUnits="userSpaceOnUse">
<stop offset="0.228" stop-color="#269553"/>
<stop offset="1" stop-color="#269553" stop-opacity="0"/>
</linearGradient>
<radialGradient id="paint9_radial_277_13162" cx="0" cy="0" r="1" gradientUnits="userSpaceOnUse" gradientTransform="translate(18.8628 11.8403) rotate(-85.802) scale(3.91988 3.85287)">
<stop offset="0.587" stop-color="#249755" stop-opacity="0"/>
<stop offset="0.987" stop-color="#16793D"/>
</radialGradient>
<linearGradient id="paint10_linear_277_13162" x1="12.1199" y1="9.22124" x2="22.055" y2="19.1564" gradientUnits="userSpaceOnUse">
<stop stop-color="#FFD425"/>
<stop offset="1" stop-color="#FFAD24"/>
</linearGradient>
<linearGradient id="paint11_linear_277_13162" x1="24.3323" y1="20.2146" x2="22.1264" y2="18.0088" gradientUnits="userSpaceOnUse">
<stop offset="0.894" stop-color="#CC8139"/>
<stop offset="1" stop-color="#CC8139" stop-opacity="0"/>
</linearGradient>
<linearGradient id="paint12_linear_277_13162" x1="9.61733" y1="15.4466" x2="14.8197" y2="20.6489" gradientUnits="userSpaceOnUse">
<stop stop-color="#EFEAEA"/>
<stop offset="1" stop-color="#EAE3E3"/>
</linearGradient>
</defs>
</svg>
