<svg width="32" height="32" viewBox="0 0 32 32" fill="none" xmlns="http://www.w3.org/2000/svg">
<g filter="url(#filter0_ii_277_11290)">
<path d="M28.3324 1.1875H4.04078C2.56851 1.1875 1.375 2.38101 1.375 3.85328V28.1449C1.375 29.6172 2.56851 30.8107 4.04078 30.8107H28.3324C29.8047 30.8107 30.9982 29.6172 30.9982 28.1449V3.85328C30.9982 2.38101 29.8047 1.1875 28.3324 1.1875Z" fill="url(#paint0_linear_277_11290)"/>
</g>
<path d="M28.3324 1.1875H4.04078C2.56851 1.1875 1.375 2.38101 1.375 3.85328V28.1449C1.375 29.6172 2.56851 30.8107 4.04078 30.8107H28.3324C29.8047 30.8107 30.9982 29.6172 30.9982 28.1449V3.85328C30.9982 2.38101 29.8047 1.1875 28.3324 1.1875Z" fill="url(#paint1_linear_277_11290)"/>
<path d="M28.3324 1.1875H4.04078C2.56851 1.1875 1.375 2.38101 1.375 3.85328V28.1449C1.375 29.6172 2.56851 30.8107 4.04078 30.8107H28.3324C29.8047 30.8107 30.9982 29.6172 30.9982 28.1449V3.85328C30.9982 2.38101 29.8047 1.1875 28.3324 1.1875Z" fill="url(#paint2_radial_277_11290)"/>
<g filter="url(#filter1_f_277_11290)">
<path d="M30.4292 11.2803V21.8933H21.9584C21.7064 21.8933 21.4568 21.8436 21.2239 21.7472C20.991 21.6507 20.7795 21.5093 20.6012 21.3311C20.423 21.1529 20.2816 20.9413 20.1852 20.7084C20.0887 20.4755 20.0391 20.226 20.0391 19.9739V13.1996C20.0391 12.9476 20.0887 12.698 20.1852 12.4651C20.2816 12.2323 20.423 12.0207 20.6012 11.8424C20.7795 11.6642 20.991 11.5228 21.2239 11.4264C21.4568 11.3299 21.7064 11.2803 21.9584 11.2803H30.4281H30.4292Z" fill="#4A2B7F"/>
</g>
<g filter="url(#filter2_i_277_11290)">
<path fill-rule="evenodd" clip-rule="evenodd" d="M16.1882 28.4457C23.0616 28.4457 28.6342 22.8731 28.6342 15.9997C28.6342 9.12625 23.0616 3.55371 16.1882 3.55371C9.31473 3.55371 3.74219 9.12625 3.74219 15.9997C3.74219 22.8731 9.31473 28.4457 16.1882 28.4457ZM16.1882 18.9406C16.9681 18.9406 17.7162 18.6307 18.2677 18.0792C18.8192 17.5277 19.1291 16.7797 19.1291 15.9997C19.1291 15.2197 18.8192 14.4717 18.2677 13.9202C17.7162 13.3686 16.9681 13.0588 16.1882 13.0588C15.4082 13.0588 14.6602 13.3686 14.1086 13.9202C13.5571 14.4717 13.2473 15.2197 13.2473 15.9997C13.2473 16.7797 13.5571 17.5277 14.1086 18.0792C14.6602 18.6307 15.4082 18.9406 16.1882 18.9406Z" fill="url(#paint3_linear_277_11290)"/>
<path fill-rule="evenodd" clip-rule="evenodd" d="M16.1882 28.4457C23.0616 28.4457 28.6342 22.8731 28.6342 15.9997C28.6342 9.12625 23.0616 3.55371 16.1882 3.55371C9.31473 3.55371 3.74219 9.12625 3.74219 15.9997C3.74219 22.8731 9.31473 28.4457 16.1882 28.4457ZM16.1882 18.9406C16.9681 18.9406 17.7162 18.6307 18.2677 18.0792C18.8192 17.5277 19.1291 16.7797 19.1291 15.9997C19.1291 15.2197 18.8192 14.4717 18.2677 13.9202C17.7162 13.3686 16.9681 13.0588 16.1882 13.0588C15.4082 13.0588 14.6602 13.3686 14.1086 13.9202C13.5571 14.4717 13.2473 15.2197 13.2473 15.9997C13.2473 16.7797 13.5571 17.5277 14.1086 18.0792C14.6602 18.6307 15.4082 18.9406 16.1882 18.9406Z" fill="url(#paint4_radial_277_11290)"/>
<path fill-rule="evenodd" clip-rule="evenodd" d="M16.1882 28.4457C23.0616 28.4457 28.6342 22.8731 28.6342 15.9997C28.6342 9.12625 23.0616 3.55371 16.1882 3.55371C9.31473 3.55371 3.74219 9.12625 3.74219 15.9997C3.74219 22.8731 9.31473 28.4457 16.1882 28.4457ZM16.1882 18.9406C16.9681 18.9406 17.7162 18.6307 18.2677 18.0792C18.8192 17.5277 19.1291 16.7797 19.1291 15.9997C19.1291 15.2197 18.8192 14.4717 18.2677 13.9202C17.7162 13.3686 16.9681 13.0588 16.1882 13.0588C15.4082 13.0588 14.6602 13.3686 14.1086 13.9202C13.5571 14.4717 13.2473 15.2197 13.2473 15.9997C13.2473 16.7797 13.5571 17.5277 14.1086 18.0792C14.6602 18.6307 15.4082 18.9406 16.1882 18.9406Z" fill="url(#paint5_radial_277_11290)"/>
<path fill-rule="evenodd" clip-rule="evenodd" d="M16.1882 28.4457C23.0616 28.4457 28.6342 22.8731 28.6342 15.9997C28.6342 9.12625 23.0616 3.55371 16.1882 3.55371C9.31473 3.55371 3.74219 9.12625 3.74219 15.9997C3.74219 22.8731 9.31473 28.4457 16.1882 28.4457ZM16.1882 18.9406C16.9681 18.9406 17.7162 18.6307 18.2677 18.0792C18.8192 17.5277 19.1291 16.7797 19.1291 15.9997C19.1291 15.2197 18.8192 14.4717 18.2677 13.9202C17.7162 13.3686 16.9681 13.0588 16.1882 13.0588C15.4082 13.0588 14.6602 13.3686 14.1086 13.9202C13.5571 14.4717 13.2473 15.2197 13.2473 15.9997C13.2473 16.7797 13.5571 17.5277 14.1086 18.0792C14.6602 18.6307 15.4082 18.9406 16.1882 18.9406Z" fill="url(#paint6_radial_277_11290)"/>
</g>
<g filter="url(#filter3_f_277_11290)">
<path fill-rule="evenodd" clip-rule="evenodd" d="M16.1853 27.646C22.6173 27.646 27.8316 22.4318 27.8316 15.9998C27.8316 9.56778 22.6173 4.35352 16.1853 4.35352C9.75332 4.35352 4.53906 9.56778 4.53906 15.9998C4.53906 22.4318 9.75332 27.646 16.1853 27.646ZM19.5335 15.9998C19.5335 17.6238 17.8093 19.4653 16.1853 19.4653C14.5613 19.4653 12.6366 17.6238 12.6366 15.9998C12.6366 14.3758 14.5613 12.434 16.1853 12.434C17.8093 12.434 19.5335 14.3747 19.5335 15.9998Z" fill="url(#paint7_linear_277_11290)"/>
</g>
<path fill-rule="evenodd" clip-rule="evenodd" d="M16.1885 19.8526C17.2103 19.8526 18.1902 19.4467 18.9127 18.7242C19.6352 18.0017 20.0411 17.0218 20.0411 16C20.0411 14.9783 19.6352 13.9984 18.9127 13.2759C18.1902 12.5534 17.2103 12.1475 16.1885 12.1475C15.1668 12.1475 14.1868 12.5534 13.4643 13.2759C12.7418 13.9984 12.3359 14.9783 12.3359 16C12.3359 17.0218 12.7418 18.0017 13.4643 18.7242C14.1868 19.4467 15.1668 19.8526 16.1885 19.8526ZM19.1294 16C19.1294 16.78 18.8196 17.528 18.268 18.0796C17.7165 18.6311 16.9685 18.9409 16.1885 18.9409C15.4085 18.9409 14.6605 18.6311 14.109 18.0796C13.5575 17.528 13.2476 16.78 13.2476 16C13.2476 15.2201 13.5575 14.472 14.109 13.9205C14.6605 13.369 15.4085 13.0592 16.1885 13.0592C16.9685 13.0592 17.7165 13.369 18.268 13.9205C18.8196 14.472 19.1294 15.2201 19.1294 16Z" fill="url(#paint8_radial_277_11290)"/>
<g filter="url(#filter4_f_277_11290)">
<path d="M13.2621 13.4918C13.6235 13.0696 14.0721 12.7307 14.577 12.4986C15.082 12.2664 15.6313 12.1466 16.187 12.1472C17.264 12.1472 18.2375 12.5886 18.936 13.3009L24.0713 8.16559C24.1211 8.117 24.1605 8.05884 24.1872 7.99461C24.2139 7.93038 24.2273 7.8614 24.2266 7.79185C24.2259 7.7223 24.2111 7.65361 24.1831 7.58992C24.1552 7.52624 24.1146 7.46888 24.0638 7.4213C21.9173 5.44478 19.1049 4.34946 16.187 4.35353C14.6076 4.35142 13.0445 4.67158 11.5931 5.2944C10.1417 5.91723 8.8327 6.82963 7.74609 7.97578L13.2621 13.4918Z" fill="url(#paint9_linear_277_11290)"/>
</g>
<g filter="url(#filter5_f_277_11290)">
<path d="M18.6941 18.924C17.9964 19.5239 17.1063 19.8531 16.1861 19.8517C15.1764 19.8531 14.2067 19.4566 13.4873 18.748L8.35407 23.8813C8.30416 23.9301 8.26471 23.9886 8.23809 24.0531C8.21148 24.1177 8.19827 24.1869 8.19927 24.2568C8.20027 24.3266 8.21545 24.3955 8.2439 24.4592C8.27234 24.523 8.31345 24.5803 8.36473 24.6277C10.5047 26.5731 13.294 27.6493 16.1861 27.6453C19.1738 27.6503 22.0481 26.5021 24.2101 24.44L18.6941 18.924Z" fill="url(#paint10_linear_277_11290)"/>
</g>
<g filter="url(#filter6_f_277_11290)">
<path d="M16.1878 19.8786C17.2167 19.8786 18.2034 19.4699 18.9309 18.7424C19.6584 18.0149 20.0671 17.0282 20.0671 15.9994C20.0671 14.9705 19.6584 13.9838 18.9309 13.2563C18.2034 12.5288 17.2167 12.1201 16.1878 12.1201C15.159 12.1201 14.1723 12.5288 13.4448 13.2563C12.7173 13.9838 12.3086 14.9705 12.3086 15.9994C12.3086 17.0282 12.7173 18.0149 13.4448 18.7424C14.1723 19.4699 15.159 19.8786 16.1878 19.8786V19.8786Z" stroke="#EFA141" stroke-width="0.05"/>
</g>
<g filter="url(#filter7_f_277_11290)">
<path d="M29.035 11.2803C29.035 11.2803 28.1478 18.7988 26.7936 21.8933H21.7926C21.5404 21.8935 21.2905 21.8441 21.0574 21.7478C20.8243 21.6514 20.6125 21.5101 20.434 21.3319C20.2556 21.1536 20.114 20.9419 20.0174 20.7089C19.9208 20.4759 19.8711 20.2261 19.8711 19.9739V13.1996C19.8711 12.9475 19.9208 12.6978 20.0173 12.4649C20.1138 12.2319 20.2553 12.0203 20.4336 11.8421C20.612 11.6638 20.8237 11.5225 21.0567 11.4261C21.2897 11.3297 21.5394 11.2801 21.7915 11.2803H29.035Z" fill="url(#paint11_linear_277_11290)"/>
</g>
<g filter="url(#filter8_ii_277_11290)">
<path d="M30.9974 10.6924V21.3064H22.5287C22.0197 21.3064 21.5315 21.1042 21.1715 20.7443C20.8116 20.3843 20.6094 19.8961 20.6094 19.3871V12.6117C20.6094 12.3597 20.659 12.1101 20.7555 11.8772C20.8519 11.6444 20.9933 11.4328 21.1715 11.2546C21.3498 11.0763 21.5614 10.9349 21.7942 10.8385C22.0271 10.742 22.2767 10.6924 22.5287 10.6924H30.9974Z" fill="url(#paint12_linear_277_11290)"/>
</g>
<defs>
<filter id="filter0_ii_277_11290" x="0.875" y="1.1875" width="30.625" height="29.623" filterUnits="userSpaceOnUse" color-interpolation-filters="sRGB">
<feFlood flood-opacity="0" result="BackgroundImageFix"/>
<feBlend mode="normal" in="SourceGraphic" in2="BackgroundImageFix" result="shape"/>
<feColorMatrix in="SourceAlpha" type="matrix" values="0 0 0 0 0 0 0 0 0 0 0 0 0 0 0 0 0 0 127 0" result="hardAlpha"/>
<feOffset dx="0.5"/>
<feGaussianBlur stdDeviation="0.25"/>
<feComposite in2="hardAlpha" operator="arithmetic" k2="-1" k3="1"/>
<feColorMatrix type="matrix" values="0 0 0 0 0.294118 0 0 0 0 0.239216 0 0 0 0 0.45098 0 0 0 1 0"/>
<feBlend mode="normal" in2="shape" result="effect1_innerShadow_277_11290"/>
<feColorMatrix in="SourceAlpha" type="matrix" values="0 0 0 0 0 0 0 0 0 0 0 0 0 0 0 0 0 0 127 0" result="hardAlpha"/>
<feOffset dx="-0.5"/>
<feGaussianBlur stdDeviation="0.25"/>
<feComposite in2="hardAlpha" operator="arithmetic" k2="-1" k3="1"/>
<feColorMatrix type="matrix" values="0 0 0 0 0.439216 0 0 0 0 0.458824 0 0 0 0 0.756863 0 0 0 1 0"/>
<feBlend mode="normal" in2="effect1_innerShadow_277_11290" result="effect2_innerShadow_277_11290"/>
</filter>
<filter id="filter1_f_277_11290" x="19.5391" y="10.7803" width="11.3906" height="11.6128" filterUnits="userSpaceOnUse" color-interpolation-filters="sRGB">
<feFlood flood-opacity="0" result="BackgroundImageFix"/>
<feBlend mode="normal" in="SourceGraphic" in2="BackgroundImageFix" result="shape"/>
<feGaussianBlur stdDeviation="0.25" result="effect1_foregroundBlur_277_11290"/>
</filter>
<filter id="filter2_i_277_11290" x="3.34219" y="3.55371" width="25.2906" height="25.1421" filterUnits="userSpaceOnUse" color-interpolation-filters="sRGB">
<feFlood flood-opacity="0" result="BackgroundImageFix"/>
<feBlend mode="normal" in="SourceGraphic" in2="BackgroundImageFix" result="shape"/>
<feColorMatrix in="SourceAlpha" type="matrix" values="0 0 0 0 0 0 0 0 0 0 0 0 0 0 0 0 0 0 127 0" result="hardAlpha"/>
<feOffset dx="-0.4" dy="0.25"/>
<feGaussianBlur stdDeviation="0.4"/>
<feComposite in2="hardAlpha" operator="arithmetic" k2="-1" k3="1"/>
<feColorMatrix type="matrix" values="0 0 0 0 0.278431 0 0 0 0 0.196078 0 0 0 0 0.529412 0 0 0 1 0"/>
<feBlend mode="normal" in2="shape" result="effect1_innerShadow_277_11290"/>
</filter>
<filter id="filter3_f_277_11290" x="4.28906" y="4.10352" width="23.793" height="23.7925" filterUnits="userSpaceOnUse" color-interpolation-filters="sRGB">
<feFlood flood-opacity="0" result="BackgroundImageFix"/>
<feBlend mode="normal" in="SourceGraphic" in2="BackgroundImageFix" result="shape"/>
<feGaussianBlur stdDeviation="0.125" result="effect1_foregroundBlur_277_11290"/>
</filter>
<filter id="filter4_f_277_11290" x="7.49609" y="4.10352" width="16.9805" height="9.63818" filterUnits="userSpaceOnUse" color-interpolation-filters="sRGB">
<feFlood flood-opacity="0" result="BackgroundImageFix"/>
<feBlend mode="normal" in="SourceGraphic" in2="BackgroundImageFix" result="shape"/>
<feGaussianBlur stdDeviation="0.125" result="effect1_foregroundBlur_277_11290"/>
</filter>
<filter id="filter5_f_277_11290" x="7.94922" y="18.498" width="16.5117" height="9.39746" filterUnits="userSpaceOnUse" color-interpolation-filters="sRGB">
<feFlood flood-opacity="0" result="BackgroundImageFix"/>
<feBlend mode="normal" in="SourceGraphic" in2="BackgroundImageFix" result="shape"/>
<feGaussianBlur stdDeviation="0.125" result="effect1_foregroundBlur_277_11290"/>
</filter>
<filter id="filter6_f_277_11290" x="12.1852" y="11.9952" width="8.00859" height="8.00859" filterUnits="userSpaceOnUse" color-interpolation-filters="sRGB">
<feFlood flood-opacity="0" result="BackgroundImageFix"/>
<feBlend mode="normal" in="SourceGraphic" in2="BackgroundImageFix" result="shape"/>
<feGaussianBlur stdDeviation="0.05" result="effect1_foregroundBlur_277_11290"/>
</filter>
<filter id="filter7_f_277_11290" x="18.8711" y="10.2803" width="11.1641" height="12.6128" filterUnits="userSpaceOnUse" color-interpolation-filters="sRGB">
<feFlood flood-opacity="0" result="BackgroundImageFix"/>
<feBlend mode="normal" in="SourceGraphic" in2="BackgroundImageFix" result="shape"/>
<feGaussianBlur stdDeviation="0.5" result="effect1_foregroundBlur_277_11290"/>
</filter>
<filter id="filter8_ii_277_11290" x="20.6094" y="10.4924" width="10.5867" height="10.9643" filterUnits="userSpaceOnUse" color-interpolation-filters="sRGB">
<feFlood flood-opacity="0" result="BackgroundImageFix"/>
<feBlend mode="normal" in="SourceGraphic" in2="BackgroundImageFix" result="shape"/>
<feColorMatrix in="SourceAlpha" type="matrix" values="0 0 0 0 0 0 0 0 0 0 0 0 0 0 0 0 0 0 127 0" result="hardAlpha"/>
<feOffset dy="0.2"/>
<feGaussianBlur stdDeviation="0.075"/>
<feComposite in2="hardAlpha" operator="arithmetic" k2="-1" k3="1"/>
<feColorMatrix type="matrix" values="0 0 0 0 0.94902 0 0 0 0 0.913725 0 0 0 0 0.988235 0 0 0 1 0"/>
<feBlend mode="normal" in2="shape" result="effect1_innerShadow_277_11290"/>
<feColorMatrix in="SourceAlpha" type="matrix" values="0 0 0 0 0 0 0 0 0 0 0 0 0 0 0 0 0 0 127 0" result="hardAlpha"/>
<feOffset dx="0.2" dy="-0.2"/>
<feGaussianBlur stdDeviation="0.15"/>
<feComposite in2="hardAlpha" operator="arithmetic" k2="-1" k3="1"/>
<feColorMatrix type="matrix" values="0 0 0 0 0.713726 0 0 0 0 0.564706 0 0 0 0 0.823529 0 0 0 1 0"/>
<feBlend mode="normal" in2="effect1_innerShadow_277_11290" result="effect2_innerShadow_277_11290"/>
</filter>
<linearGradient id="paint0_linear_277_11290" x1="16.1871" y1="1.1875" x2="16.1871" y2="30.8117" gradientUnits="userSpaceOnUse">
<stop stop-color="#6261B8"/>
<stop offset="1" stop-color="#5D3687"/>
</linearGradient>
<linearGradient id="paint1_linear_277_11290" x1="31.3991" y1="30.8117" x2="22.4016" y2="22.9306" gradientUnits="userSpaceOnUse">
<stop stop-color="#5E328B"/>
<stop offset="1" stop-color="#5E328B" stop-opacity="0"/>
</linearGradient>
<radialGradient id="paint2_radial_277_11290" cx="0" cy="0" r="1" gradientUnits="userSpaceOnUse" gradientTransform="translate(30.9992 21.1318) rotate(90) scale(8.997 0.999666)">
<stop offset="0.196" stop-color="#644D98"/>
<stop offset="1" stop-color="#644D98" stop-opacity="0"/>
</radialGradient>
<linearGradient id="paint3_linear_277_11290" x1="16.1882" y1="3.55371" x2="16.1882" y2="28.4457" gradientUnits="userSpaceOnUse">
<stop stop-color="#E9CE53"/>
<stop offset="1" stop-color="#FF974E"/>
</linearGradient>
<radialGradient id="paint4_radial_277_11290" cx="0" cy="0" r="1" gradientUnits="userSpaceOnUse" gradientTransform="translate(17.2715 11.8677) rotate(113.08) scale(18.0202 15.7771)">
<stop offset="0.868" stop-color="#FF684C" stop-opacity="0"/>
<stop offset="0.987" stop-color="#FF684C"/>
</radialGradient>
<radialGradient id="paint5_radial_277_11290" cx="0" cy="0" r="1" gradientUnits="userSpaceOnUse" gradientTransform="translate(21.7693 19.7351) rotate(-148.057) scale(20.3653 15.9084)">
<stop offset="0.887" stop-color="#B99C5E" stop-opacity="0"/>
<stop offset="0.979" stop-color="#B99C5E"/>
</radialGradient>
<radialGradient id="paint6_radial_277_11290" cx="0" cy="0" r="1" gradientUnits="userSpaceOnUse" gradientTransform="translate(13.0234 18.0547) rotate(-37.405) scale(16.4707)">
<stop offset="0.894" stop-color="#FFE86D" stop-opacity="0"/>
<stop offset="0.991" stop-color="#FFE86D"/>
</radialGradient>
<linearGradient id="paint7_linear_277_11290" x1="16.1853" y1="9.26921" x2="16.1853" y2="27.646" gradientUnits="userSpaceOnUse">
<stop stop-color="#F4BD5B"/>
<stop offset="1" stop-color="#FF9E54"/>
</linearGradient>
<radialGradient id="paint8_radial_277_11290" cx="0" cy="0" r="1" gradientUnits="userSpaceOnUse" gradientTransform="translate(13.1399 16) scale(8.19727)">
<stop offset="0.62" stop-color="#F8AE59"/>
<stop offset="1" stop-color="#D48B52"/>
</radialGradient>
<linearGradient id="paint9_linear_277_11290" x1="24.227" y1="7.93633" x2="12.4048" y2="7.93633" gradientUnits="userSpaceOnUse">
<stop stop-color="#FFF25C"/>
<stop offset="1" stop-color="#FFF25C" stop-opacity="0"/>
</linearGradient>
<linearGradient id="paint10_linear_277_11290" x1="11.9038" y1="19.4977" x2="18.5022" y2="21.497" gradientUnits="userSpaceOnUse">
<stop stop-color="#FFD05A"/>
<stop offset="1" stop-color="#FFD05A" stop-opacity="0"/>
</linearGradient>
<linearGradient id="paint11_linear_277_11290" x1="25.0683" y1="11.2803" x2="25.0683" y2="21.8933" gradientUnits="userSpaceOnUse">
<stop stop-color="#C87C46"/>
<stop offset="1" stop-color="#E86F47"/>
</linearGradient>
<linearGradient id="paint12_linear_277_11290" x1="25.8034" y1="10.6924" x2="25.8034" y2="21.3064" gradientUnits="userSpaceOnUse">
<stop offset="0.205" stop-color="#F8DFFF"/>
<stop offset="0.72" stop-color="#C5ADDD"/>
</linearGradient>
</defs>
</svg>
