<svg width="32" height="32" viewBox="0 0 32 32" fill="none" xmlns="http://www.w3.org/2000/svg">
<g filter="url(#filter0_i_277_11423)">
<path d="M2.33759 8.2041C1.57983 8.2041 0.964844 8.81909 0.964844 9.57685V27.5763C0.964844 28.3351 1.57983 28.949 2.33759 28.949H14.4232C14.6005 29.2677 14.8598 29.5332 15.1741 29.718C15.4884 29.9028 15.8465 30.0003 16.2111 30.0003C16.5758 30.0003 16.9338 29.9028 17.2481 29.718C17.5625 29.5332 17.8217 29.2677 17.999 28.949H30.0846C30.8424 28.949 31.4574 28.3351 31.4574 27.5763V9.57685C31.4574 8.81909 30.8424 8.2041 30.0846 8.2041H2.33759Z" fill="#3E6ACA"/>
</g>
<g filter="url(#filter1_ii_277_11423)">
<path d="M2.33759 7.14062C1.57983 7.14062 0.964844 7.75562 0.964844 8.51337V26.5128C0.964844 27.2706 1.57983 27.8856 2.33759 27.8856H14.4232C14.6005 28.2042 14.8598 28.4697 15.1741 28.6545C15.4884 28.8394 15.8465 28.9368 16.2111 28.9368C16.5758 28.9368 16.9338 28.8394 17.2481 28.6545C17.5625 28.4697 17.8217 28.2042 17.999 27.8856H30.0846C30.8424 27.8856 31.4574 27.2706 31.4574 26.5128V8.51337C31.4574 7.75562 30.8424 7.14062 30.0846 7.14062H2.33759Z" fill="url(#paint0_linear_277_11423)"/>
</g>
<g filter="url(#filter2_f_277_11423)">
<path d="M3.69197 6.07617L1.9733 8.20777C1.82162 8.39476 1.73866 8.62812 1.73828 8.86889V24.5654C1.73828 25.3034 2.35327 25.9019 3.11103 25.9019H28.8517C29.6094 25.9019 30.2244 25.3034 30.2244 24.5654V8.86889C30.2241 8.6281 30.1412 8.39472 29.9894 8.20777L28.2696 6.07617L26.2467 22.1604H5.71485L3.69197 6.07617Z" fill="#3F9BEA"/>
</g>
<path d="M14.6334 24.3164H17.7907V26.0494C17.7962 26.2602 17.7595 26.47 17.6827 26.6664C17.6058 26.8628 17.4905 27.0418 17.3433 27.1928C17.1962 27.3439 17.0203 27.464 16.826 27.546C16.6317 27.628 16.4229 27.6702 16.212 27.6702C16.0011 27.6702 15.7924 27.628 15.5981 27.546C15.4038 27.464 15.2279 27.3439 15.0807 27.1928C14.9336 27.0418 14.8182 26.8628 14.7414 26.6664C14.6645 26.47 14.6278 26.2602 14.6334 26.0494V24.3164Z" fill="url(#paint1_radial_277_11423)"/>
<path d="M14.6334 24.3164H17.7907V26.0494C17.7962 26.2602 17.7595 26.47 17.6827 26.6664C17.6058 26.8628 17.4905 27.0418 17.3433 27.1928C17.1962 27.3439 17.0203 27.464 16.826 27.546C16.6317 27.628 16.4229 27.6702 16.212 27.6702C16.0011 27.6702 15.7924 27.628 15.5981 27.546C15.4038 27.464 15.2279 27.3439 15.0807 27.1928C14.9336 27.0418 14.8182 26.8628 14.7414 26.6664C14.6645 26.47 14.6278 26.2602 14.6334 26.0494V24.3164Z" fill="url(#paint2_linear_277_11423)"/>
<g filter="url(#filter3_i_277_11423)">
<path d="M2.16861 7.57079L3.88838 5.37988L5.91126 21.8968H16.1772V25.7405H3.30634C2.54858 25.7405 1.93359 25.1255 1.93359 24.3677V8.24837C1.9339 8.00257 2.01665 7.76398 2.16861 7.57079Z" fill="url(#paint3_linear_277_11423)"/>
</g>
<g filter="url(#filter4_i_277_11423)">
<path d="M30.1833 7.57079L28.4635 5.37988L26.4417 21.8968H16.1758V25.7405H29.0445C29.8022 25.7405 30.4172 25.1255 30.4172 24.3677V8.24837C30.4172 8.0027 30.3348 7.76413 30.1833 7.57079Z" fill="url(#paint4_linear_277_11423)"/>
<path d="M30.1833 7.57079L28.4635 5.37988L26.4417 21.8968H16.1758V25.7405H29.0445C29.8022 25.7405 30.4172 25.1255 30.4172 24.3677V8.24837C30.4172 8.0027 30.3348 7.76413 30.1833 7.57079Z" fill="url(#paint5_linear_277_11423)"/>
</g>
<path d="M30.1833 7.57079L28.4635 5.37988L26.4417 21.8968H16.1758V25.7405H29.0445C29.8022 25.7405 30.4172 25.1255 30.4172 24.3677V8.24837C30.4172 8.0027 30.3348 7.76413 30.1833 7.57079Z" fill="url(#paint6_linear_277_11423)"/>
<g filter="url(#filter5_ii_277_11423)">
<path d="M3.68469 6.00738C3.68469 5.71612 3.80039 5.43679 4.00635 5.23083C4.2123 5.02488 4.49163 4.90918 4.78289 4.90918H13.4312C14.1593 4.90918 14.8577 5.19844 15.3725 5.71332C15.8874 6.2282 16.1767 6.92652 16.1767 7.65467V25.7321C16.1767 24.5241 14.9324 23.5445 13.4905 23.5445H5.05634C4.29858 23.5445 3.68359 22.9295 3.68359 22.1717V6.00738H3.68469Z" fill="url(#paint7_linear_277_11423)"/>
<path d="M3.68469 6.00738C3.68469 5.71612 3.80039 5.43679 4.00635 5.23083C4.2123 5.02488 4.49163 4.90918 4.78289 4.90918H13.4312C14.1593 4.90918 14.8577 5.19844 15.3725 5.71332C15.8874 6.2282 16.1767 6.92652 16.1767 7.65467V25.7321C16.1767 24.5241 14.9324 23.5445 13.4905 23.5445H5.05634C4.29858 23.5445 3.68359 22.9295 3.68359 22.1717V6.00738H3.68469Z" fill="url(#paint8_linear_277_11423)"/>
<path d="M3.68469 6.00738C3.68469 5.71612 3.80039 5.43679 4.00635 5.23083C4.2123 5.02488 4.49163 4.90918 4.78289 4.90918H13.4312C14.1593 4.90918 14.8577 5.19844 15.3725 5.71332C15.8874 6.2282 16.1767 6.92652 16.1767 7.65467V25.7321C16.1767 24.5241 14.9324 23.5445 13.4905 23.5445H5.05634C4.29858 23.5445 3.68359 22.9295 3.68359 22.1717V6.00738H3.68469Z" fill="url(#paint9_linear_277_11423)"/>
</g>
<g filter="url(#filter6_ii_277_11423)">
<path d="M28.6717 6.00738C28.6717 5.71612 28.556 5.43679 28.35 5.23083C28.1441 5.02488 27.8647 4.90918 27.5735 4.90918H18.9252C18.197 4.90918 17.4987 5.19844 16.9838 5.71332C16.4689 6.2282 16.1797 6.92652 16.1797 7.65467V25.7321C16.1797 24.5241 17.4239 23.5445 18.8648 23.5445H27.2989C28.0567 23.5445 28.6717 22.9295 28.6717 22.1717V6.00738Z" fill="url(#paint10_linear_277_11423)"/>
<path d="M28.6717 6.00738C28.6717 5.71612 28.556 5.43679 28.35 5.23083C28.1441 5.02488 27.8647 4.90918 27.5735 4.90918H18.9252C18.197 4.90918 17.4987 5.19844 16.9838 5.71332C16.4689 6.2282 16.1797 6.92652 16.1797 7.65467V25.7321C16.1797 24.5241 17.4239 23.5445 18.8648 23.5445H27.2989C28.0567 23.5445 28.6717 22.9295 28.6717 22.1717V6.00738Z" fill="url(#paint11_linear_277_11423)"/>
<path d="M28.6717 6.00738C28.6717 5.71612 28.556 5.43679 28.35 5.23083C28.1441 5.02488 27.8647 4.90918 27.5735 4.90918H18.9252C18.197 4.90918 17.4987 5.19844 16.9838 5.71332C16.4689 6.2282 16.1797 6.92652 16.1797 7.65467V25.7321C16.1797 24.5241 17.4239 23.5445 18.8648 23.5445H27.2989C28.0567 23.5445 28.6717 22.9295 28.6717 22.1717V6.00738Z" fill="url(#paint12_linear_277_11423)"/>
</g>
<defs>
<filter id="filter0_i_277_11423" x="0.964844" y="8.0541" width="30.6422" height="21.9464" filterUnits="userSpaceOnUse" color-interpolation-filters="sRGB">
<feFlood flood-opacity="0" result="BackgroundImageFix"/>
<feBlend mode="normal" in="SourceGraphic" in2="BackgroundImageFix" result="shape"/>
<feColorMatrix in="SourceAlpha" type="matrix" values="0 0 0 0 0 0 0 0 0 0 0 0 0 0 0 0 0 0 127 0" result="hardAlpha"/>
<feOffset dx="0.15" dy="-0.15"/>
<feGaussianBlur stdDeviation="0.25"/>
<feComposite in2="hardAlpha" operator="arithmetic" k2="-1" k3="1"/>
<feColorMatrix type="matrix" values="0 0 0 0 0.305882 0 0 0 0 0.541176 0 0 0 0 0.780392 0 0 0 1 0"/>
<feBlend mode="normal" in2="shape" result="effect1_innerShadow_277_11423"/>
</filter>
<filter id="filter1_ii_277_11423" x="0.864844" y="7.04062" width="30.6922" height="21.8964" filterUnits="userSpaceOnUse" color-interpolation-filters="sRGB">
<feFlood flood-opacity="0" result="BackgroundImageFix"/>
<feBlend mode="normal" in="SourceGraphic" in2="BackgroundImageFix" result="shape"/>
<feColorMatrix in="SourceAlpha" type="matrix" values="0 0 0 0 0 0 0 0 0 0 0 0 0 0 0 0 0 0 127 0" result="hardAlpha"/>
<feOffset dx="-0.1"/>
<feGaussianBlur stdDeviation="0.15"/>
<feComposite in2="hardAlpha" operator="arithmetic" k2="-1" k3="1"/>
<feColorMatrix type="matrix" values="0 0 0 0 0.45098 0 0 0 0 0.941176 0 0 0 0 1 0 0 0 1 0"/>
<feBlend mode="normal" in2="shape" result="effect1_innerShadow_277_11423"/>
<feColorMatrix in="SourceAlpha" type="matrix" values="0 0 0 0 0 0 0 0 0 0 0 0 0 0 0 0 0 0 127 0" result="hardAlpha"/>
<feOffset dx="0.1" dy="-0.1"/>
<feGaussianBlur stdDeviation="0.15"/>
<feComposite in2="hardAlpha" operator="arithmetic" k2="-1" k3="1"/>
<feColorMatrix type="matrix" values="0 0 0 0 0.286275 0 0 0 0 0.666667 0 0 0 0 0.901961 0 0 0 1 0"/>
<feBlend mode="normal" in2="effect1_innerShadow_277_11423" result="effect2_innerShadow_277_11423"/>
</filter>
<filter id="filter2_f_277_11423" x="1.23828" y="5.57617" width="29.4844" height="20.8257" filterUnits="userSpaceOnUse" color-interpolation-filters="sRGB">
<feFlood flood-opacity="0" result="BackgroundImageFix"/>
<feBlend mode="normal" in="SourceGraphic" in2="BackgroundImageFix" result="shape"/>
<feGaussianBlur stdDeviation="0.25" result="effect1_foregroundBlur_277_11423"/>
</filter>
<filter id="filter3_i_277_11423" x="1.93359" y="5.37988" width="14.3422" height="20.4604" filterUnits="userSpaceOnUse" color-interpolation-filters="sRGB">
<feFlood flood-opacity="0" result="BackgroundImageFix"/>
<feBlend mode="normal" in="SourceGraphic" in2="BackgroundImageFix" result="shape"/>
<feColorMatrix in="SourceAlpha" type="matrix" values="0 0 0 0 0 0 0 0 0 0 0 0 0 0 0 0 0 0 127 0" result="hardAlpha"/>
<feOffset dx="0.1" dy="0.1"/>
<feGaussianBlur stdDeviation="0.15"/>
<feComposite in2="hardAlpha" operator="arithmetic" k2="-1" k3="1"/>
<feColorMatrix type="matrix" values="0 0 0 0 0.694118 0 0 0 0 0.705882 0 0 0 0 0.733333 0 0 0 1 0"/>
<feBlend mode="normal" in2="shape" result="effect1_innerShadow_277_11423"/>
</filter>
<filter id="filter4_i_277_11423" x="16.1758" y="5.37988" width="14.3422" height="20.4604" filterUnits="userSpaceOnUse" color-interpolation-filters="sRGB">
<feFlood flood-opacity="0" result="BackgroundImageFix"/>
<feBlend mode="normal" in="SourceGraphic" in2="BackgroundImageFix" result="shape"/>
<feColorMatrix in="SourceAlpha" type="matrix" values="0 0 0 0 0 0 0 0 0 0 0 0 0 0 0 0 0 0 127 0" result="hardAlpha"/>
<feOffset dx="0.1" dy="0.1"/>
<feGaussianBlur stdDeviation="0.15"/>
<feComposite in2="hardAlpha" operator="arithmetic" k2="-1" k3="1"/>
<feColorMatrix type="matrix" values="0 0 0 0 0.831373 0 0 0 0 0.835294 0 0 0 0 0.854902 0 0 0 1 0"/>
<feBlend mode="normal" in2="shape" result="effect1_innerShadow_277_11423"/>
</filter>
<filter id="filter5_ii_277_11423" x="3.68359" y="4.90918" width="12.5922" height="20.8728" filterUnits="userSpaceOnUse" color-interpolation-filters="sRGB">
<feFlood flood-opacity="0" result="BackgroundImageFix"/>
<feBlend mode="normal" in="SourceGraphic" in2="BackgroundImageFix" result="shape"/>
<feColorMatrix in="SourceAlpha" type="matrix" values="0 0 0 0 0 0 0 0 0 0 0 0 0 0 0 0 0 0 127 0" result="hardAlpha"/>
<feOffset dy="0.05"/>
<feGaussianBlur stdDeviation="0.15"/>
<feComposite in2="hardAlpha" operator="arithmetic" k2="-1" k3="1"/>
<feColorMatrix type="matrix" values="0 0 0 0 0.827451 0 0 0 0 0.819608 0 0 0 0 0.854902 0 0 0 1 0"/>
<feBlend mode="normal" in2="shape" result="effect1_innerShadow_277_11423"/>
<feColorMatrix in="SourceAlpha" type="matrix" values="0 0 0 0 0 0 0 0 0 0 0 0 0 0 0 0 0 0 127 0" result="hardAlpha"/>
<feOffset dx="0.1"/>
<feGaussianBlur stdDeviation="0.15"/>
<feComposite in2="hardAlpha" operator="arithmetic" k2="-1" k3="1"/>
<feColorMatrix type="matrix" values="0 0 0 0 0.980392 0 0 0 0 0.976471 0 0 0 0 1 0 0 0 1 0"/>
<feBlend mode="normal" in2="effect1_innerShadow_277_11423" result="effect2_innerShadow_277_11423"/>
</filter>
<filter id="filter6_ii_277_11423" x="16.0797" y="4.90918" width="12.5922" height="20.8728" filterUnits="userSpaceOnUse" color-interpolation-filters="sRGB">
<feFlood flood-opacity="0" result="BackgroundImageFix"/>
<feBlend mode="normal" in="SourceGraphic" in2="BackgroundImageFix" result="shape"/>
<feColorMatrix in="SourceAlpha" type="matrix" values="0 0 0 0 0 0 0 0 0 0 0 0 0 0 0 0 0 0 127 0" result="hardAlpha"/>
<feOffset dx="-0.1"/>
<feGaussianBlur stdDeviation="0.15"/>
<feComposite in2="hardAlpha" operator="arithmetic" k2="-1" k3="1"/>
<feColorMatrix type="matrix" values="0 0 0 0 0.980392 0 0 0 0 0.976471 0 0 0 0 1 0 0 0 1 0"/>
<feBlend mode="normal" in2="shape" result="effect1_innerShadow_277_11423"/>
<feColorMatrix in="SourceAlpha" type="matrix" values="0 0 0 0 0 0 0 0 0 0 0 0 0 0 0 0 0 0 127 0" result="hardAlpha"/>
<feOffset dy="0.05"/>
<feGaussianBlur stdDeviation="0.15"/>
<feComposite in2="hardAlpha" operator="arithmetic" k2="-1" k3="1"/>
<feColorMatrix type="matrix" values="0 0 0 0 0.827451 0 0 0 0 0.819608 0 0 0 0 0.854902 0 0 0 1 0"/>
<feBlend mode="normal" in2="effect1_innerShadow_277_11423" result="effect2_innerShadow_277_11423"/>
</filter>
<linearGradient id="paint0_linear_277_11423" x1="16.2111" y1="11.9452" x2="16.2111" y2="28.9365" gradientUnits="userSpaceOnUse">
<stop stop-color="#5DD8FB"/>
<stop offset="1" stop-color="#41AEF2"/>
</linearGradient>
<radialGradient id="paint1_radial_277_11423" cx="0" cy="0" r="1" gradientUnits="userSpaceOnUse" gradientTransform="translate(15.2945 27.4221) rotate(-26.5651) scale(2.45564 3.44557)">
<stop offset="0.232" stop-color="#306AB3"/>
<stop offset="1" stop-color="#1A4CA8"/>
</radialGradient>
<linearGradient id="paint2_linear_277_11423" x1="16.2126" y1="25.5003" x2="16.2126" y2="26.3239" gradientUnits="userSpaceOnUse">
<stop stop-color="#1748A6"/>
<stop offset="1" stop-color="#1748A6" stop-opacity="0"/>
</linearGradient>
<linearGradient id="paint3_linear_277_11423" x1="12.1534" y1="27.5591" x2="4.19149" y2="20.1814" gradientUnits="userSpaceOnUse">
<stop offset="0.75" stop-color="#B3A9CF"/>
<stop offset="0.932" stop-color="#B6BAC5"/>
</linearGradient>
<linearGradient id="paint4_linear_277_11423" x1="20.1996" y1="27.5591" x2="28.1615" y2="20.1814" gradientUnits="userSpaceOnUse">
<stop offset="0.717" stop-color="#BBB3D9"/>
<stop offset="0.913" stop-color="#DCDDE8"/>
</linearGradient>
<linearGradient id="paint5_linear_277_11423" x1="29.1301" y1="5.84771" x2="29.1301" y2="10.7248" gradientUnits="userSpaceOnUse">
<stop stop-color="#D8DAE2"/>
<stop offset="1" stop-color="#D8DAE2" stop-opacity="0"/>
</linearGradient>
<linearGradient id="paint6_linear_277_11423" x1="16.1758" y1="25.7405" x2="17.9516" y2="23.6473" gradientUnits="userSpaceOnUse">
<stop stop-color="#A699C9"/>
<stop offset="1" stop-color="#A699C9" stop-opacity="0"/>
</linearGradient>
<linearGradient id="paint7_linear_277_11423" x1="3.68469" y1="15.3212" x2="15.241" y2="15.3212" gradientUnits="userSpaceOnUse">
<stop stop-color="#F3F1FA"/>
<stop offset="1" stop-color="#F0EBF9"/>
</linearGradient>
<linearGradient id="paint8_linear_277_11423" x1="16.1767" y1="24.3" x2="13.1819" y2="24.3" gradientUnits="userSpaceOnUse">
<stop stop-color="#D5CCE8"/>
<stop offset="1" stop-color="#F2EBFF" stop-opacity="0"/>
</linearGradient>
<linearGradient id="paint9_linear_277_11423" x1="16.236" y1="24.5395" x2="15.9966" y2="24.5395" gradientUnits="userSpaceOnUse">
<stop offset="0.179" stop-color="#BFB3D1"/>
<stop offset="1" stop-color="#BFB3D1" stop-opacity="0"/>
</linearGradient>
<linearGradient id="paint10_linear_277_11423" x1="16.1797" y1="15.3212" x2="27.736" y2="15.3212" gradientUnits="userSpaceOnUse">
<stop stop-color="#F3F1FA"/>
<stop offset="1" stop-color="#F0EBF9"/>
</linearGradient>
<linearGradient id="paint11_linear_277_11423" x1="16.1797" y1="24.3" x2="19.259" y2="24.3" gradientUnits="userSpaceOnUse">
<stop stop-color="#D5CCE8"/>
<stop offset="1" stop-color="#F2EBFF" stop-opacity="0"/>
</linearGradient>
<linearGradient id="paint12_linear_277_11423" x1="16.1489" y1="24.5394" x2="16.3763" y2="24.5394" gradientUnits="userSpaceOnUse">
<stop stop-color="#BFB3D1"/>
<stop offset="1" stop-color="#BFB3D1" stop-opacity="0"/>
</linearGradient>
</defs>
</svg>
