<svg width="32" height="32" viewBox="0 0 32 32" fill="none" xmlns="http://www.w3.org/2000/svg">
<g clip-path="url(#clip0_277_13120)">
<g filter="url(#filter0_i_277_13120)">
<path d="M12.3388 3.84259C12.3302 3.34115 12.4203 2.843 12.6039 2.3772C12.7875 1.91139 13.0609 1.48726 13.4082 1.12956C13.7554 0.771865 14.1696 0.487758 14.6265 0.29382C15.0834 0.099883 15.5738 0 16.0693 0C16.5647 0 17.0552 0.099883 17.5121 0.29382C17.969 0.487758 18.3831 0.771865 18.7304 1.12956C19.0776 1.48726 19.351 1.91139 19.5346 2.3772C19.7182 2.843 19.8083 3.34115 19.7997 3.84259V8.18888C19.7997 8.55863 19.7736 8.92838 19.7169 9.29813C19.6952 9.4323 19.6774 9.56709 19.6636 9.70233C19.6227 10.1272 19.6726 10.683 19.9585 11.0573L19.2756 11.7233C21.0135 12.6244 22.4715 13.9942 23.4887 15.6813C24.5058 17.3685 25.0425 19.3075 25.0394 21.284C25.0407 22.3843 24.8754 23.4783 24.5493 24.5279L23.4184 31.9999H14.2287V31.9964C8.55341 31.8724 4 28.1267 4 21.2829C4 17.2615 5.90236 14.0234 8.78029 12.1976L8.77348 12.1918C8.96973 12.054 9.20114 11.9128 9.44844 11.7624H9.45071C10.2675 11.2663 11.2657 10.66 11.7909 9.67017C12.2481 8.8124 12.3354 7.41952 12.3354 6.77303H12.3388V3.84374V3.84259Z" fill="url(#paint0_linear_277_13120)"/>
</g>
<path d="M12.3388 3.84259C12.3302 3.34115 12.4203 2.843 12.6039 2.3772C12.7875 1.91139 13.0609 1.48726 13.4082 1.12956C13.7554 0.771865 14.1696 0.487758 14.6265 0.29382C15.0834 0.099883 15.5738 0 16.0693 0C16.5647 0 17.0552 0.099883 17.5121 0.29382C17.969 0.487758 18.3831 0.771865 18.7304 1.12956C19.0776 1.48726 19.351 1.91139 19.5346 2.3772C19.7182 2.843 19.8083 3.34115 19.7997 3.84259V8.18888C19.7997 8.55863 19.7736 8.92838 19.7169 9.29813C19.6952 9.4323 19.6774 9.56709 19.6636 9.70233C19.6227 10.1272 19.6726 10.683 19.9585 11.0573L19.2756 11.7233C21.0135 12.6244 22.4715 13.9942 23.4887 15.6813C24.5058 17.3685 25.0425 19.3075 25.0394 21.284C25.0407 22.3843 24.8754 23.4783 24.5493 24.5279L23.4184 31.9999H14.2287V31.9964C8.55341 31.8724 4 28.1267 4 21.2829C4 17.2615 5.90236 14.0234 8.78029 12.1976L8.77348 12.1918C8.96973 12.054 9.20114 11.9128 9.44844 11.7624H9.45071C10.2675 11.2663 11.2657 10.66 11.7909 9.67017C12.2481 8.8124 12.3354 7.41952 12.3354 6.77303H12.3388V3.84374V3.84259Z" fill="url(#paint1_radial_277_13120)"/>
<path d="M12.3388 3.84259C12.3302 3.34115 12.4203 2.843 12.6039 2.3772C12.7875 1.91139 13.0609 1.48726 13.4082 1.12956C13.7554 0.771865 14.1696 0.487758 14.6265 0.29382C15.0834 0.099883 15.5738 0 16.0693 0C16.5647 0 17.0552 0.099883 17.5121 0.29382C17.969 0.487758 18.3831 0.771865 18.7304 1.12956C19.0776 1.48726 19.351 1.91139 19.5346 2.3772C19.7182 2.843 19.8083 3.34115 19.7997 3.84259V8.18888C19.7997 8.55863 19.7736 8.92838 19.7169 9.29813C19.6952 9.4323 19.6774 9.56709 19.6636 9.70233C19.6227 10.1272 19.6726 10.683 19.9585 11.0573L19.2756 11.7233C21.0135 12.6244 22.4715 13.9942 23.4887 15.6813C24.5058 17.3685 25.0425 19.3075 25.0394 21.284C25.0407 22.3843 24.8754 23.4783 24.5493 24.5279L23.4184 31.9999H14.2287V31.9964C8.55341 31.8724 4 28.1267 4 21.2829C4 17.2615 5.90236 14.0234 8.78029 12.1976L8.77348 12.1918C8.96973 12.054 9.20114 11.9128 9.44844 11.7624H9.45071C10.2675 11.2663 11.2657 10.66 11.7909 9.67017C12.2481 8.8124 12.3354 7.41952 12.3354 6.77303H12.3388V3.84374V3.84259Z" fill="url(#paint2_radial_277_13120)"/>
<path d="M12.3388 3.84259C12.3302 3.34115 12.4203 2.843 12.6039 2.3772C12.7875 1.91139 13.0609 1.48726 13.4082 1.12956C13.7554 0.771865 14.1696 0.487758 14.6265 0.29382C15.0834 0.099883 15.5738 0 16.0693 0C16.5647 0 17.0552 0.099883 17.5121 0.29382C17.969 0.487758 18.3831 0.771865 18.7304 1.12956C19.0776 1.48726 19.351 1.91139 19.5346 2.3772C19.7182 2.843 19.8083 3.34115 19.7997 3.84259V8.18888C19.7997 8.55863 19.7736 8.92838 19.7169 9.29813C19.6952 9.4323 19.6774 9.56709 19.6636 9.70233C19.6227 10.1272 19.6726 10.683 19.9585 11.0573L19.2756 11.7233C21.0135 12.6244 22.4715 13.9942 23.4887 15.6813C24.5058 17.3685 25.0425 19.3075 25.0394 21.284C25.0407 22.3843 24.8754 23.4783 24.5493 24.5279L23.4184 31.9999H14.2287V31.9964C8.55341 31.8724 4 28.1267 4 21.2829C4 17.2615 5.90236 14.0234 8.78029 12.1976L8.77348 12.1918C8.96973 12.054 9.20114 11.9128 9.44844 11.7624H9.45071C10.2675 11.2663 11.2657 10.66 11.7909 9.67017C12.2481 8.8124 12.3354 7.41952 12.3354 6.77303H12.3388V3.84374V3.84259Z" fill="url(#paint3_radial_277_13120)"/>
<path d="M12.3388 3.84259C12.3302 3.34115 12.4203 2.843 12.6039 2.3772C12.7875 1.91139 13.0609 1.48726 13.4082 1.12956C13.7554 0.771865 14.1696 0.487758 14.6265 0.29382C15.0834 0.099883 15.5738 0 16.0693 0C16.5647 0 17.0552 0.099883 17.5121 0.29382C17.969 0.487758 18.3831 0.771865 18.7304 1.12956C19.0776 1.48726 19.351 1.91139 19.5346 2.3772C19.7182 2.843 19.8083 3.34115 19.7997 3.84259V8.18888C19.7997 8.55863 19.7736 8.92838 19.7169 9.29813C19.6952 9.4323 19.6774 9.56709 19.6636 9.70233C19.6227 10.1272 19.6726 10.683 19.9585 11.0573L19.2756 11.7233C21.0135 12.6244 22.4715 13.9942 23.4887 15.6813C24.5058 17.3685 25.0425 19.3075 25.0394 21.284C25.0407 22.3843 24.8754 23.4783 24.5493 24.5279L23.4184 31.9999H14.2287V31.9964C8.55341 31.8724 4 28.1267 4 21.2829C4 17.2615 5.90236 14.0234 8.78029 12.1976L8.77348 12.1918C8.96973 12.054 9.20114 11.9128 9.44844 11.7624H9.45071C10.2675 11.2663 11.2657 10.66 11.7909 9.67017C12.2481 8.8124 12.3354 7.41952 12.3354 6.77303H12.3388V3.84374V3.84259Z" fill="url(#paint4_linear_277_13120)"/>
<g filter="url(#filter1_f_277_13120)">
<path d="M25.2822 14.8103C25.2822 14.0331 24.9772 13.2878 24.4343 12.7382C23.8914 12.1886 23.155 11.8799 22.3873 11.8799H19.1815C18.5871 11.8799 18.0071 12.0651 17.5202 12.4103C17.0334 12.7556 16.6634 13.2442 16.4605 13.8098C16.2575 14.3753 16.2314 14.9904 16.3858 15.5714C16.5402 16.1525 16.8675 16.6713 17.3234 17.0575C16.9759 17.3225 16.6917 17.6632 16.4919 18.0544C16.2921 18.4456 16.1818 18.8773 16.1692 19.3175C16.1566 19.7577 16.2419 20.1952 16.4189 20.5975C16.5959 20.9997 16.8601 21.3566 17.1918 21.6415C16.871 21.9164 16.6133 22.2589 16.4368 22.6451C16.2602 23.0312 16.1691 23.4517 16.1697 23.8772V24.0208C16.1697 24.8246 16.4873 25.5515 17.0046 26.0808C16.6077 26.4783 16.3365 26.9863 16.2254 27.5401C16.1143 28.094 16.1683 28.6687 16.3805 29.1915C16.5928 29.7142 16.9537 30.1613 17.4175 30.4759C17.8812 30.7906 18.4269 30.9587 18.9852 30.9588H22.166C22.661 30.9591 23.1474 30.8274 23.576 30.5769C24.0047 30.3264 24.3607 29.966 24.6079 29.532C24.8552 29.0979 24.9852 28.6056 24.9846 28.1046C24.9841 27.6035 24.8532 27.1114 24.605 26.6779C25.1043 26.4419 25.5267 26.0664 25.8225 25.5957C26.1182 25.125 26.2752 24.5786 26.2748 24.0208V23.8772C26.2748 22.9701 25.8687 22.1594 25.2289 21.622C25.5935 21.3012 25.8733 20.8935 26.0431 20.4356C26.2128 19.9778 26.267 19.4844 26.2009 19C26.1348 18.5156 25.9504 18.0555 25.6644 17.6614C25.3784 17.2673 24.9999 16.9516 24.563 16.7429C25.0275 16.2091 25.2833 15.5217 25.2822 14.8103Z" fill="url(#paint5_linear_277_13120)"/>
</g>
<g filter="url(#filter2_i_277_13120)">
<path d="M24.5661 16.9233C26.3893 16.9233 27.8672 15.4272 27.8672 13.5818C27.8672 11.7363 26.3893 10.2402 24.5661 10.2402H20.91C19.0869 10.2402 17.609 11.7363 17.609 13.5818C17.609 15.4272 19.0869 16.9233 20.91 16.9233H24.5661Z" fill="url(#paint6_linear_277_13120)"/>
<path d="M24.5661 16.9233C26.3893 16.9233 27.8672 15.4272 27.8672 13.5818C27.8672 11.7363 26.3893 10.2402 24.5661 10.2402H20.91C19.0869 10.2402 17.609 11.7363 17.609 13.5818C17.609 15.4272 19.0869 16.9233 20.91 16.9233H24.5661Z" fill="url(#paint7_radial_277_13120)"/>
</g>
<g filter="url(#filter3_i_277_13120)">
<path d="M24.3148 32C26.089 32 27.5273 30.5441 27.5273 28.7481C27.5273 26.952 26.089 25.4961 24.3148 25.4961H20.6882C18.9139 25.4961 17.4756 26.952 17.4756 28.7481C17.4756 30.5441 18.9139 32 20.6882 32H24.3148Z" fill="url(#paint8_linear_277_13120)"/>
<path d="M24.3148 32C26.089 32 27.5273 30.5441 27.5273 28.7481C27.5273 26.952 26.089 25.4961 24.3148 25.4961H20.6882C18.9139 25.4961 17.4756 26.952 17.4756 28.7481C17.4756 30.5441 18.9139 32 20.6882 32H24.3148Z" fill="url(#paint9_radial_277_13120)"/>
<path d="M24.3148 32C26.089 32 27.5273 30.5441 27.5273 28.7481C27.5273 26.952 26.089 25.4961 24.3148 25.4961H20.6882C18.9139 25.4961 17.4756 26.952 17.4756 28.7481C17.4756 30.5441 18.9139 32 20.6882 32H24.3148Z" fill="url(#paint10_radial_277_13120)"/>
</g>
<path d="M24.3148 32C26.089 32 27.5273 30.5441 27.5273 28.7481C27.5273 26.952 26.089 25.4961 24.3148 25.4961H20.6882C18.9139 25.4961 17.4756 26.952 17.4756 28.7481C17.4756 30.5441 18.9139 32 20.6882 32H24.3148Z" fill="url(#paint11_linear_277_13120)"/>
<path d="M24.3148 32C26.089 32 27.5273 30.5441 27.5273 28.7481C27.5273 26.952 26.089 25.4961 24.3148 25.4961H20.6882C18.9139 25.4961 17.4756 26.952 17.4756 28.7481C17.4756 30.5441 18.9139 32 20.6882 32H24.3148Z" fill="url(#paint12_radial_277_13120)"/>
<g filter="url(#filter4_f_277_13120)">
<path d="M25.9341 27.4297H21.5169C21.0545 27.4297 20.6797 27.8091 20.6797 28.2771C20.6797 28.7452 21.0545 29.1246 21.5169 29.1246H25.9341C26.3965 29.1246 26.7713 28.7452 26.7713 28.2771C26.7713 27.8091 26.3965 27.4297 25.9341 27.4297Z" fill="url(#paint13_linear_277_13120)"/>
</g>
<path d="M25.6173 27.4295C27.4855 27.4295 29 25.8964 29 24.0053C29 22.1141 27.4855 20.5811 25.6173 20.5811H20.8585C18.9903 20.5811 17.4758 22.1141 17.4758 24.0053C17.4758 25.8964 18.9903 27.4295 20.8585 27.4295H25.6173Z" fill="#C4C4C4" fill-opacity="0.66"/>
<g filter="url(#filter5_i_277_13120)">
<path d="M29 24.0879V23.9226C29 22.0771 27.5221 20.5811 25.6989 20.5811H20.7769C18.9537 20.5811 17.4758 22.0771 17.4758 23.9226V24.0879C17.4758 25.9334 18.9537 27.4295 20.7769 27.4295H25.6989C27.5221 27.4295 29 25.9334 29 24.0879Z" fill="url(#paint14_linear_277_13120)"/>
<path d="M29 24.0879V23.9226C29 22.0771 27.5221 20.5811 25.6989 20.5811H20.7769C18.9537 20.5811 17.4758 22.0771 17.4758 23.9226V24.0879C17.4758 25.9334 18.9537 27.4295 20.7769 27.4295H25.6989C27.5221 27.4295 29 25.9334 29 24.0879Z" fill="url(#paint15_radial_277_13120)"/>
<path d="M29 24.0879V23.9226C29 22.0771 27.5221 20.5811 25.6989 20.5811H20.7769C18.9537 20.5811 17.4758 22.0771 17.4758 23.9226V24.0879C17.4758 25.9334 18.9537 27.4295 20.7769 27.4295H25.6989C27.5221 27.4295 29 25.9334 29 24.0879Z" fill="url(#paint16_radial_277_13120)"/>
</g>
<g filter="url(#filter6_f_277_13120)">
<path d="M27.0298 22.9863H21.0755C20.6131 22.9863 20.2383 23.3657 20.2383 23.8338C20.2383 24.3018 20.6131 24.6812 21.0755 24.6812H27.0298C27.4922 24.6812 27.867 24.3018 27.867 23.8338C27.867 23.3657 27.4922 22.9863 27.0298 22.9863Z" fill="url(#paint17_linear_277_13120)"/>
</g>
<g filter="url(#filter7_i_277_13120)">
<path d="M28.9492 18.8272V18.8122C28.9492 16.9668 27.4713 15.4707 25.6482 15.4707H20.7771C18.954 15.4707 17.4761 16.9668 17.4761 18.8122V18.8272C17.4761 20.6726 18.954 22.1687 20.7771 22.1687H25.6482C27.4713 22.1687 28.9492 20.6726 28.9492 18.8272Z" fill="url(#paint18_linear_277_13120)"/>
<path d="M28.9492 18.8272V18.8122C28.9492 16.9668 27.4713 15.4707 25.6482 15.4707H20.7771C18.954 15.4707 17.4761 16.9668 17.4761 18.8122V18.8272C17.4761 20.6726 18.954 22.1687 20.7771 22.1687H25.6482C27.4713 22.1687 28.9492 20.6726 28.9492 18.8272Z" fill="url(#paint19_radial_277_13120)"/>
</g>
<path d="M16.0687 0.0664063C15.0795 0.0667106 14.131 0.464592 13.4316 1.17259C12.7322 1.88058 12.3391 2.84074 12.3388 3.84199V6.77359L12.3365 6.77244C12.3365 7.41778 12.2481 8.81181 11.792 9.66958C11.2645 10.6606 10.2674 11.2657 9.45066 11.7606C9.2011 11.9122 8.96969 12.0523 8.77344 12.1901C9.90215 13.1053 12.2129 14.9345 12.2696 14.8909C13.5832 14.1717 14.9006 13.4597 16.2218 12.755L16.1673 11.9627C17.1393 11.9367 18.0628 11.5276 18.7412 10.8227C19.4196 10.1177 19.7994 9.17247 19.7996 8.18828V3.84199C19.7993 2.84054 19.4061 1.88021 18.7065 1.17218C18.0068 0.464154 17.058 0.0664062 16.0687 0.0664063Z" fill="url(#paint20_radial_277_13120)"/>
<path d="M16.0687 0.0664063C15.0795 0.0667106 14.131 0.464592 13.4316 1.17259C12.7322 1.88058 12.3391 2.84074 12.3388 3.84199V6.77359L12.3365 6.77244C12.3365 7.41778 12.2481 8.81181 11.792 9.66958C11.2645 10.6606 10.2674 11.2657 9.45066 11.7606C9.2011 11.9122 8.96969 12.0523 8.77344 12.1901C9.90215 13.1053 12.2129 14.9345 12.2696 14.8909C13.5832 14.1717 14.9006 13.4597 16.2218 12.755L16.1673 11.9627C17.1393 11.9367 18.0628 11.5276 18.7412 10.8227C19.4196 10.1177 19.7994 9.17247 19.7996 8.18828V3.84199C19.7993 2.84054 19.4061 1.88021 18.7065 1.17218C18.0068 0.464154 17.058 0.0664062 16.0687 0.0664063Z" fill="url(#paint21_radial_277_13120)"/>
<g filter="url(#filter8_f_277_13120)">
<path d="M25.346 11.1523H21.2396C20.4514 11.1523 19.8125 11.7991 19.8125 12.5969C19.8125 13.3947 20.4514 14.0414 21.2396 14.0414H25.346C26.1342 14.0414 26.7731 13.3947 26.7731 12.5969C26.7731 11.7991 26.1342 11.1523 25.346 11.1523Z" fill="url(#paint22_linear_277_13120)"/>
</g>
<g filter="url(#filter9_f_277_13120)">
<path d="M26.4392 16.292H21.1575C20.3694 16.292 19.7305 16.9387 19.7305 17.7365C19.7305 18.5343 20.3694 19.1811 21.1575 19.1811H26.4392C27.2273 19.1811 27.8663 18.5343 27.8663 17.7365C27.8663 16.9387 27.2273 16.292 26.4392 16.292Z" fill="url(#paint23_linear_277_13120)"/>
</g>
<g filter="url(#filter10_f_277_13120)">
<path d="M18.8555 3.13867C18.8555 2.22988 18.1279 1.49316 17.2305 1.49316C16.333 1.49316 15.6055 2.22988 15.6055 3.13867V9.03056C15.6055 9.93934 16.333 10.6761 17.2305 10.6761C18.1279 10.6761 18.8555 9.93934 18.8555 9.03056V3.13867Z" fill="url(#paint24_linear_277_13120)"/>
</g>
</g>
<defs>
<filter id="filter0_i_277_13120" x="4" y="0" width="21.5391" height="32" filterUnits="userSpaceOnUse" color-interpolation-filters="sRGB">
<feFlood flood-opacity="0" result="BackgroundImageFix"/>
<feBlend mode="normal" in="SourceGraphic" in2="BackgroundImageFix" result="shape"/>
<feColorMatrix in="SourceAlpha" type="matrix" values="0 0 0 0 0 0 0 0 0 0 0 0 0 0 0 0 0 0 127 0" result="hardAlpha"/>
<feOffset dx="0.5"/>
<feGaussianBlur stdDeviation="1"/>
<feComposite in2="hardAlpha" operator="arithmetic" k2="-1" k3="1"/>
<feColorMatrix type="matrix" values="0 0 0 0 0.847059 0 0 0 0 0.458824 0 0 0 0 0.360784 0 0 0 1 0"/>
<feBlend mode="normal" in2="shape" result="effect1_innerShadow_277_13120"/>
</filter>
<filter id="filter1_f_277_13120" x="14.168" y="9.87988" width="14.1055" height="23.0789" filterUnits="userSpaceOnUse" color-interpolation-filters="sRGB">
<feFlood flood-opacity="0" result="BackgroundImageFix"/>
<feBlend mode="normal" in="SourceGraphic" in2="BackgroundImageFix" result="shape"/>
<feGaussianBlur stdDeviation="1" result="effect1_foregroundBlur_277_13120"/>
</filter>
<filter id="filter2_i_277_13120" x="17.6094" y="10.2402" width="10.7578" height="6.68311" filterUnits="userSpaceOnUse" color-interpolation-filters="sRGB">
<feFlood flood-opacity="0" result="BackgroundImageFix"/>
<feBlend mode="normal" in="SourceGraphic" in2="BackgroundImageFix" result="shape"/>
<feColorMatrix in="SourceAlpha" type="matrix" values="0 0 0 0 0 0 0 0 0 0 0 0 0 0 0 0 0 0 127 0" result="hardAlpha"/>
<feOffset dx="0.5"/>
<feGaussianBlur stdDeviation="0.75"/>
<feComposite in2="hardAlpha" operator="arithmetic" k2="-1" k3="1"/>
<feColorMatrix type="matrix" values="0 0 0 0 0.878431 0 0 0 0 0.541176 0 0 0 0 0.0627451 0 0 0 1 0"/>
<feBlend mode="normal" in2="shape" result="effect1_innerShadow_277_13120"/>
</filter>
<filter id="filter3_i_277_13120" x="17.4766" y="24.9961" width="10.5508" height="7.00391" filterUnits="userSpaceOnUse" color-interpolation-filters="sRGB">
<feFlood flood-opacity="0" result="BackgroundImageFix"/>
<feBlend mode="normal" in="SourceGraphic" in2="BackgroundImageFix" result="shape"/>
<feColorMatrix in="SourceAlpha" type="matrix" values="0 0 0 0 0 0 0 0 0 0 0 0 0 0 0 0 0 0 127 0" result="hardAlpha"/>
<feOffset dx="0.5" dy="-0.5"/>
<feGaussianBlur stdDeviation="0.75"/>
<feComposite in2="hardAlpha" operator="arithmetic" k2="-1" k3="1"/>
<feColorMatrix type="matrix" values="0 0 0 0 0.941176 0 0 0 0 0.643137 0 0 0 0 0.215686 0 0 0 1 0"/>
<feBlend mode="normal" in2="shape" result="effect1_innerShadow_277_13120"/>
</filter>
<filter id="filter4_f_277_13120" x="19.4297" y="26.1797" width="8.58984" height="4.19482" filterUnits="userSpaceOnUse" color-interpolation-filters="sRGB">
<feFlood flood-opacity="0" result="BackgroundImageFix"/>
<feBlend mode="normal" in="SourceGraphic" in2="BackgroundImageFix" result="shape"/>
<feGaussianBlur stdDeviation="0.625" result="effect1_foregroundBlur_277_13120"/>
</filter>
<filter id="filter5_i_277_13120" x="17.4766" y="20.0811" width="12.0234" height="7.34839" filterUnits="userSpaceOnUse" color-interpolation-filters="sRGB">
<feFlood flood-opacity="0" result="BackgroundImageFix"/>
<feBlend mode="normal" in="SourceGraphic" in2="BackgroundImageFix" result="shape"/>
<feColorMatrix in="SourceAlpha" type="matrix" values="0 0 0 0 0 0 0 0 0 0 0 0 0 0 0 0 0 0 127 0" result="hardAlpha"/>
<feOffset dx="0.5" dy="-0.5"/>
<feGaussianBlur stdDeviation="0.75"/>
<feComposite in2="hardAlpha" operator="arithmetic" k2="-1" k3="1"/>
<feColorMatrix type="matrix" values="0 0 0 0 0.941176 0 0 0 0 0.643137 0 0 0 0 0.215686 0 0 0 1 0"/>
<feBlend mode="normal" in2="shape" result="effect1_innerShadow_277_13120"/>
</filter>
<filter id="filter6_f_277_13120" x="18.9883" y="21.7363" width="10.1289" height="4.19482" filterUnits="userSpaceOnUse" color-interpolation-filters="sRGB">
<feFlood flood-opacity="0" result="BackgroundImageFix"/>
<feBlend mode="normal" in="SourceGraphic" in2="BackgroundImageFix" result="shape"/>
<feGaussianBlur stdDeviation="0.625" result="effect1_foregroundBlur_277_13120"/>
</filter>
<filter id="filter7_i_277_13120" x="17.4766" y="14.9707" width="11.9727" height="7.198" filterUnits="userSpaceOnUse" color-interpolation-filters="sRGB">
<feFlood flood-opacity="0" result="BackgroundImageFix"/>
<feBlend mode="normal" in="SourceGraphic" in2="BackgroundImageFix" result="shape"/>
<feColorMatrix in="SourceAlpha" type="matrix" values="0 0 0 0 0 0 0 0 0 0 0 0 0 0 0 0 0 0 127 0" result="hardAlpha"/>
<feOffset dx="0.5" dy="-0.5"/>
<feGaussianBlur stdDeviation="0.75"/>
<feComposite in2="hardAlpha" operator="arithmetic" k2="-1" k3="1"/>
<feColorMatrix type="matrix" values="0 0 0 0 0.941176 0 0 0 0 0.643137 0 0 0 0 0.215686 0 0 0 1 0"/>
<feBlend mode="normal" in2="shape" result="effect1_innerShadow_277_13120"/>
</filter>
<filter id="filter8_f_277_13120" x="18.5625" y="9.90234" width="9.46094" height="5.38916" filterUnits="userSpaceOnUse" color-interpolation-filters="sRGB">
<feFlood flood-opacity="0" result="BackgroundImageFix"/>
<feBlend mode="normal" in="SourceGraphic" in2="BackgroundImageFix" result="shape"/>
<feGaussianBlur stdDeviation="0.625" result="effect1_foregroundBlur_277_13120"/>
</filter>
<filter id="filter9_f_277_13120" x="18.4805" y="15.042" width="10.6367" height="5.38916" filterUnits="userSpaceOnUse" color-interpolation-filters="sRGB">
<feFlood flood-opacity="0" result="BackgroundImageFix"/>
<feBlend mode="normal" in="SourceGraphic" in2="BackgroundImageFix" result="shape"/>
<feGaussianBlur stdDeviation="0.625" result="effect1_foregroundBlur_277_13120"/>
</filter>
<filter id="filter10_f_277_13120" x="14.3555" y="0.243164" width="5.75" height="11.6829" filterUnits="userSpaceOnUse" color-interpolation-filters="sRGB">
<feFlood flood-opacity="0" result="BackgroundImageFix"/>
<feBlend mode="normal" in="SourceGraphic" in2="BackgroundImageFix" result="shape"/>
<feGaussianBlur stdDeviation="0.625" result="effect1_foregroundBlur_277_13120"/>
</filter>
<linearGradient id="paint0_linear_277_13120" x1="20.2636" y1="5.54321" x2="8.61955" y2="29.7632" gradientUnits="userSpaceOnUse">
<stop stop-color="#FFCA44"/>
<stop offset="1" stop-color="#F8A528"/>
</linearGradient>
<radialGradient id="paint1_radial_277_13120" cx="0" cy="0" r="1" gradientUnits="userSpaceOnUse" gradientTransform="translate(21.6092 3.4832) rotate(140.774) scale(5.71725 16.9166)">
<stop stop-color="#FFE34C"/>
<stop offset="1" stop-color="#FFE34C" stop-opacity="0"/>
</radialGradient>
<radialGradient id="paint2_radial_277_13120" cx="0" cy="0" r="1" gradientUnits="userSpaceOnUse" gradientTransform="translate(11.2505 16.0341) rotate(124.863) scale(8.49787 6.13045)">
<stop stop-color="#FFCA2E"/>
<stop offset="1" stop-color="#FFCA2E" stop-opacity="0"/>
</radialGradient>
<radialGradient id="paint3_radial_277_13120" cx="0" cy="0" r="1" gradientUnits="userSpaceOnUse" gradientTransform="translate(20.3952 18.7394) rotate(146.422) scale(18.4345 32.416)">
<stop offset="0.681" stop-color="#E18E3F" stop-opacity="0"/>
<stop offset="1" stop-color="#E18E3F"/>
</radialGradient>
<linearGradient id="paint4_linear_277_13120" x1="14.5191" y1="27.2724" x2="14.5191" y2="33.1298" gradientUnits="userSpaceOnUse">
<stop stop-color="#D8796F" stop-opacity="0"/>
<stop offset="1" stop-color="#D8796F"/>
</linearGradient>
<linearGradient id="paint5_linear_277_13120" x1="21.2222" y1="11.8799" x2="21.2222" y2="27.1384" gradientUnits="userSpaceOnUse">
<stop stop-color="#D1730B"/>
<stop offset="1" stop-color="#E27D47"/>
</linearGradient>
<linearGradient id="paint6_linear_277_13120" x1="27.8672" y1="13.5818" x2="17.6078" y2="13.5818" gradientUnits="userSpaceOnUse">
<stop stop-color="#FFDB44"/>
<stop offset="1" stop-color="#F9A928"/>
</linearGradient>
<radialGradient id="paint7_radial_277_13120" cx="0" cy="0" r="1" gradientUnits="userSpaceOnUse" gradientTransform="translate(19.2765 16.5444) rotate(-142.296) scale(2.64496 1.77602)">
<stop stop-color="#D98320"/>
<stop offset="1" stop-color="#D98320" stop-opacity="0"/>
</radialGradient>
<linearGradient id="paint8_linear_277_13120" x1="26.6471" y1="28.7469" x2="17.4756" y2="28.7469" gradientUnits="userSpaceOnUse">
<stop stop-color="#FFDB44"/>
<stop offset="1" stop-color="#F9A928"/>
</linearGradient>
<radialGradient id="paint9_radial_277_13120" cx="0" cy="0" r="1" gradientUnits="userSpaceOnUse" gradientTransform="translate(19.5118 31.9989) scale(8.29627 3.1948)">
<stop stop-color="#F29545"/>
<stop offset="1" stop-color="#F29545" stop-opacity="0"/>
</radialGradient>
<radialGradient id="paint10_radial_277_13120" cx="0" cy="0" r="1" gradientUnits="userSpaceOnUse" gradientTransform="translate(19.1136 26.6363) scale(8.4136 2.28621)">
<stop stop-color="#DA810B"/>
<stop offset="1" stop-color="#FFB610" stop-opacity="0"/>
</radialGradient>
<linearGradient id="paint11_linear_277_13120" x1="22.5009" y1="32.6695" x2="22.5009" y2="30.5658" gradientUnits="userSpaceOnUse">
<stop stop-color="#DC7C6A"/>
<stop offset="1" stop-color="#DC7C6A" stop-opacity="0"/>
</linearGradient>
<radialGradient id="paint12_radial_277_13120" cx="0" cy="0" r="1" gradientUnits="userSpaceOnUse" gradientTransform="translate(16.145 28.7469) scale(6.35622 9.67173)">
<stop stop-color="#E38811"/>
<stop offset="1" stop-color="#E38811" stop-opacity="0"/>
</radialGradient>
<linearGradient id="paint13_linear_277_13120" x1="26.4548" y1="27.8936" x2="19.8879" y2="27.8936" gradientUnits="userSpaceOnUse">
<stop stop-color="#FFF166"/>
<stop offset="1" stop-color="#FFF166" stop-opacity="0"/>
</linearGradient>
<linearGradient id="paint14_linear_277_13120" x1="27.9904" y1="24.0053" x2="17.4758" y2="24.0053" gradientUnits="userSpaceOnUse">
<stop stop-color="#FFDB44"/>
<stop offset="1" stop-color="#F9A928"/>
</linearGradient>
<radialGradient id="paint15_radial_277_13120" cx="0" cy="0" r="1" gradientUnits="userSpaceOnUse" gradientTransform="translate(19.8104 27.4295) scale(9.51199 3.36412)">
<stop stop-color="#F29545"/>
<stop offset="1" stop-color="#F29545" stop-opacity="0"/>
</radialGradient>
<radialGradient id="paint16_radial_277_13120" cx="0" cy="0" r="1" gradientUnits="userSpaceOnUse" gradientTransform="translate(19.3532 21.7833) scale(9.64651 2.40737)">
<stop stop-color="#DA810B"/>
<stop offset="1" stop-color="#FFB610" stop-opacity="0"/>
</radialGradient>
<linearGradient id="paint17_linear_277_13120" x1="27.47" y1="23.4502" x2="19.248" y2="23.4502" gradientUnits="userSpaceOnUse">
<stop stop-color="#FFF166"/>
<stop offset="1" stop-color="#FFF166" stop-opacity="0"/>
</linearGradient>
<linearGradient id="paint18_linear_277_13120" x1="28.9492" y1="18.8203" x2="17.4772" y2="18.8203" gradientUnits="userSpaceOnUse">
<stop stop-color="#FFDB44"/>
<stop offset="1" stop-color="#F9A928"/>
</linearGradient>
<radialGradient id="paint19_radial_277_13120" cx="0" cy="0" r="1" gradientUnits="userSpaceOnUse" gradientTransform="translate(19.8492 21.3591) scale(6.23986 2.81156)">
<stop stop-color="#F29545"/>
<stop offset="1" stop-color="#F29545" stop-opacity="0"/>
</radialGradient>
<radialGradient id="paint20_radial_277_13120" cx="0" cy="0" r="1" gradientUnits="userSpaceOnUse" gradientTransform="translate(12.644 3.48143) rotate(90) scale(7.30329 2.67876)">
<stop stop-color="#F3A52A"/>
<stop offset="1" stop-color="#F3A52A" stop-opacity="0"/>
</radialGradient>
<radialGradient id="paint21_radial_277_13120" cx="0" cy="0" r="1" gradientUnits="userSpaceOnUse" gradientTransform="translate(10.5374 8.29048) rotate(43.3459) scale(3.63445 5.5038)">
<stop stop-color="#CDA25E"/>
<stop offset="1" stop-color="#CDA25E" stop-opacity="0"/>
</radialGradient>
<linearGradient id="paint22_linear_277_13120" x1="26.4112" y1="11.9447" x2="18.9084" y2="11.9447" gradientUnits="userSpaceOnUse">
<stop stop-color="#FFF166"/>
<stop offset="1" stop-color="#FFF166" stop-opacity="0"/>
</linearGradient>
<linearGradient id="paint23_linear_277_13120" x1="27.4431" y1="17.0843" x2="18.6732" y2="17.0843" gradientUnits="userSpaceOnUse">
<stop stop-color="#FFF166"/>
<stop offset="1" stop-color="#FFF166" stop-opacity="0"/>
</linearGradient>
<linearGradient id="paint24_linear_277_13120" x1="18.6876" y1="4.01137" x2="15.1835" y2="4.01137" gradientUnits="userSpaceOnUse">
<stop stop-color="#FFF166"/>
<stop offset="1" stop-color="#FFF166" stop-opacity="0"/>
</linearGradient>
<clipPath id="clip0_277_13120">
<rect width="32" height="32" fill="white"/>
</clipPath>
</defs>
</svg>
